<svg version="1.2" xmlns="http://www.w3.org/2000/svg" viewBox="0 0 474 474" width="50" height="50">
	<title>phone-call-svgrepo-com-svg</title>
	<style>
		.s0 { fill: #ffffff } 
	</style>
	<g id="Layer">
		<g id="Layer">
			<path id="Layer" fill-rule="evenodd" class="s0" d="m337.7 63.3c9-9.1 19.7-13.9 30.9-13.9 11.1 0 21.9 4.7 31.2 13.6 4.1 3.9 8 7.9 11.7 11.7 5.5 5.7 10.6 11.1 16.3 15.8 0.2 0.1 0.3 0.3 0.5 0.4 14.8 13.7 22.3 31.2 22.3 52 0 1.8-0.1 3.8-0.2 5.7-1.9 31-13.6 58.7-23.4 79.4-26.3 54.3-63.5 101.9-110.7 141.4-39.2 32.6-75.7 54.4-115.1 69-16.1 6-40.6 13.7-67 11.5-16.3-1.4-30.4-8-41.9-19.5l-31-30.7c0-0.1 0-0.1-0.1-0.2-8.7-9-13.3-19.7-13.3-30.7 0-11 4.6-21.4 13.3-30.2 5.4-5.8 11.2-11.5 16.7-16.9 2.9-2.7 5.8-5.6 8.6-8.4l24.6-24.7c19-18.9 43.5-18.9 62.5 0 2.5 2.6 5.1 5.1 7.6 7.6 6.8 6.7 13.8 13.6 20.6 20.9 12.2-5.5 24.2-13 38.4-24.3 28.6-23.3 50.7-47.6 67.7-74.3 1.6-2.6 3.2-5.6 4.8-8.9 1.2-2.2 2.3-4.6 3.6-6.9l-28.4-28.5c-9.1-9.2-13.9-19.8-13.9-30.9 0-11.2 4.9-21.7 14-30.5zm17 17.3c-0.1 0.1-49.8 49.8-49.9 49.9-3 2.8-6.6 7.4-6.6 13 0 5.7 3.7 10.6 6.8 13.6l30.9 30.9c1.5 1.5 6.2 6.2 6.2 13.7 0 3-0.7 5.9-2.3 8.9-0.1 0.4-0.4 0.8-0.6 1.1-1.6 2.6-3.2 5.7-4.8 8.9-1.8 3.7-3.7 7.4-6 11.1-18.3 29-42.2 55.3-72.9 80.2h-0.1c-17.4 13.8-32 22.8-47.6 29.2q-0.4 0.1-0.8 0.3c-5.1 1.6-12.7 3-20.4-4.7-0.2-0.1-0.3-0.3-0.5-0.5-7-7.8-14.2-15.1-22-22.6-2.5-2.6-5.1-5.2-7.8-7.8-9.5-9.6-18.4-9.6-27.9 0l-24.7 24.6c-2.9 2.9-5.8 5.8-8.7 8.6-5.7 5.5-11 10.7-16.2 16.2q-0.1 0.2-0.2 0.3c-2.9 2.9-6.3 7.5-6.3 13.2 0 4.6 2.2 9.3 6.4 13.7l30.7 30.8c7.5 7.5 16.3 11.5 26.8 12.4 16.5 1.4 34-1.7 56.5-10.1 36.8-13.6 71.1-34.2 108.2-64.9 44.4-37.3 79.5-82.1 104.3-133.2 8.9-18.7 19.3-43.6 21.1-70.4 0.1-1.3 0.1-2.8 0.1-4.1 0-14.1-4.6-24.8-14.4-33.9-6.6-5.6-12.4-11.6-18-17.5-3.8-3.8-7.3-7.4-11-11 0 0.1 0 0.1 0 0-9.6-9.2-19.1-9.2-28.3 0.1z"/>
			<path id="Layer" class="s0" d="m110.8 229.5c-6.6-1.2-11-7.4-9.9-14.1 4.8-28.6 18.4-54.7 39-75.3 20.7-20.7 46.8-34.2 75.4-39.1 6.6-1.1 12.9 3.3 14 10 0.1 0.7 0.2 1.4 0.2 2.1 0 5.8-4.1 11-10.1 12-23.6 4-45.1 15.1-62.2 32.3-17.2 17.1-28.4 38.6-32.3 62.2-1.1 6.7-7.5 11-14.1 9.9z"/>
			<path id="Layer" class="s0" d="m225.6 33.6c0.1 0.7 0.2 1.4 0.2 2.1 0 5.8-4.1 11-10.1 12-42 7.1-80.4 26.9-110.9 57.4-30.4 30.5-50.3 68.9-57.4 110.9-1.2 6.7-7.4 11.1-14.1 10-6.6-1.1-11.1-7.4-9.9-14 8-47 30.2-89.9 64.3-124 34.1-34.1 76.9-56.3 124-64.3 6.6-1.2 12.9 3.3 13.9 9.9z"/>
		</g>
	</g>
</svg>