<svg version="1.2" baseProfile="tiny-ps" xmlns="http://www.w3.org/2000/svg" viewBox="0 0 512 512" width="512" height="512"><title>chat</title><style>tspan { white-space:pre }.shp0 { fill: #ffffff } </style><g ><path class="shp0" d="M256 123C250.48 123 246 127.48 246 133C246 138.52 250.48 143 256 143C261.52 143 266 138.52 266 133C266 127.48 261.52 123 256 123Z" /><path class="shp0" d="M90 303C95.52 303 100 298.52 100 293C100 287.48 95.52 283 90 283C84.48 283 80 287.48 80 293C80 298.52 84.48 303 90 303Z" /><path fill-rule="evenodd" class="shp0" d="M512 173C512 207.95 498.17 241.8 473 268.63C468.02 289.16 474.07 310.93 489.07 325.93C491.93 328.79 492.79 333.09 491.24 336.83C489.69 340.56 486.05 343 482 343C453.48 343 426 331.82 405.57 312.11C388.34 317.98 366.57 321.85 345.63 322.78C339.9 400.95 266.02 463 176 463C152.28 463 126.32 458.89 106.43 452.11C86 471.82 58.52 483 30 483C25.95 483 22.31 480.56 20.76 476.83C19.21 473.09 20.07 468.79 22.93 465.93C37.93 450.93 43.98 429.16 39 408.63C13.83 381.8 0 347.95 0 313C0 229.38 80.63 167.55 166.37 163.25C172.08 85.07 245.97 23 336 23C425.16 23 512 86.11 512 173ZM176 443C258.71 443 326 384.68 326 313C326 238.53 255.85 183 176 183C91.44 183 20 242.53 20 313C20 343.56 32.5 373.26 55.18 396.62C56.34 397.81 57.18 399.26 57.63 400.85C63.36 421.02 60.96 442.31 51.53 460.37C68.64 456.14 84.34 446.94 96.41 433.74C99.22 430.67 103.63 429.66 107.49 431.2C125.5 438.37 152.4 443 176 443ZM456.82 256.63C479.5 233.26 492 203.56 492 173C492 102.53 420.56 43 336 43C257.06 43 192.16 96.13 186.42 163.29C212.65 164.71 238.14 171.45 260.84 183L422 183C427.52 183 432 187.48 432 193C432 198.52 427.52 203 422 203L291.56 203C323.81 229.39 342.68 264.93 345.6 302.75C366.63 301.71 388.9 297.41 404.51 291.2C408.37 289.66 412.78 290.68 415.59 293.74C427.66 306.94 443.36 316.14 460.47 320.37C451.04 302.31 448.64 281.02 454.37 260.85C454.82 259.27 455.66 257.81 456.82 256.63Z" /><path class="shp0" d="M256 283L130 283C124.48 283 120 287.48 120 293C120 298.52 124.48 303 130 303L256 303C261.52 303 266 298.52 266 293C266 287.48 261.52 283 256 283Z" /><path class="shp0" d="M256 343L90 343C84.48 343 80 347.48 80 353C80 358.52 84.48 363 90 363L256 363C261.52 363 266 358.52 266 353C266 347.48 261.52 343 256 343Z" /><path class="shp0" d="M422 123L296 123C290.48 123 286 127.48 286 133C286 138.52 290.48 143 296 143L422 143C427.52 143 432 138.52 432 133C432 127.48 427.52 123 422 123Z" /></g></svg>