<svg version="1.2" baseProfile="tiny-ps" xmlns="http://www.w3.org/2000/svg" viewBox="0 0 512 512" width="512" height="512"><title>chat</title><style>tspan { white-space:pre }.shp0 { fill: #ffffff } </style><path class="shp0" d="M40.04 69.32L442.79 471.87C450.85 479.92 463.91 479.92 471.96 471.86C480.02 463.8 480.02 450.74 471.96 442.68L69.21 40.13C61.15 32.08 48.09 32.08 40.04 40.14C31.98 48.2 31.98 61.26 40.04 69.32Z" /><path class="shp0" d="M69.32 471.96L471.87 69.21C479.92 61.15 479.92 48.09 471.86 40.04C463.8 31.98 450.74 31.98 442.68 40.04L40.13 442.79C32.08 450.85 32.08 463.91 40.14 471.96C48.2 480.02 61.26 480.02 69.32 471.96Z" /></svg>