<svg version="1.2" xmlns="http://www.w3.org/2000/svg" viewBox="0 0 50 50" width="50" height="50">
	<title>email-svg</title>
	<style>
		.s0 { fill: #ffffff } 
	</style>
	<g id="Layer">
		<path id="Layer" fill-rule="evenodd" class="s0" d="m0.6 12.5c0-3.1 2.5-5.6 5.6-5.6h37.6c3.1 0 5.6 2.5 5.6 5.6v25.9c0 3.1-2.5 5.6-5.6 5.6h-37.6c-3.1 0-5.6-2.5-5.6-5.6zm46.1 25.5v-25.2c0-1.7-1.5-3.2-3.3-3.2h-36.8c-1.8 0-3.3 1.5-3.3 3.2v25.2c0 1.8 1.5 3.2 3.3 3.2h36.8c1.8 0 3.3-1.4 3.3-3.2z"/>
		<path id="@" fill-rule="evenodd" class="s0" d="m28.1 34v-1.8q-0.3 0.8-1.1 1.3-0.8 0.5-1.8 0.5-2.1 0-3.3-1.5-1.3-1.5-1.3-3.8 0-2.4 1.3-3.8 1.2-1.5 3.3-1.5 1 0 1.8 0.5 0.8 0.4 1.1 1.3v-1.6h2.5v8.2q1.4-0.2 2.3-1.4 0.8-1.2 0.8-3 0-1.2-0.4-2.2-0.3-1.1-1-1.9-1.1-1.5-2.8-2.2-1.6-0.8-3.6-0.8-1.4 0-2.6 0.3-1.3 0.4-2.3 1.1-1.7 1.1-2.7 3-1 1.8-1 3.9 0 1.8 0.6 3.3 0.7 1.5 1.9 2.7 1.1 1.2 2.6 1.8 1.6 0.6 3.3 0.6 1.5 0 3-0.6 1.4-0.5 2.5-1.5l1.2 1.9q-1.4 1.2-3.2 1.8-1.7 0.6-3.5 0.6-2.1 0-4.1-0.8-1.9-0.8-3.4-2.2-1.5-1.5-2.3-3.4-0.8-2-0.8-4.2 0-2.1 0.8-4.1 0.8-1.9 2.3-3.4 1.5-1.4 3.4-2.2 2-0.8 4.1-0.8 2.7 0 4.8 1 2.2 1 3.6 2.9 0.9 1.1 1.3 2.5 0.5 1.3 0.5 2.8 0 3.2-1.9 5-1.9 1.7-5.4 1.7zm-4.8-5.3q0 1.4 0.6 2.2 0.6 0.9 1.6 0.9 1.1 0 1.7-0.9 0.6-0.8 0.6-2.2 0-1.5-0.6-2.3-0.6-0.8-1.7-0.8-1 0-1.6 0.8-0.6 0.8-0.6 2.3z"/>
		<path id="Shape 1" class="s0" d="m5.6 13.9l1.4-1.5 9 8.5-1.4 1.5z"/>
		<path id="Shape 1 copy" class="s0" d="m36.3 22.6l-1.4-1.4 8.5-9 1.4 1.4z"/>
	</g>
</svg>