<svg version="1.2" baseProfile="tiny-ps" xmlns="http://www.w3.org/2000/svg" viewBox="0 0 50 50" width="50" height="50"><title>instagram</title><style>tspan { white-space:pre }.shp0 { fill: #ffffff } </style><path fill-rule="evenodd" class="shp0" d="M45.69 15.66C45.88 19.1 45.88 29.4 45.69 32.83C45.52 36.17 44.76 39.13 42.32 41.56C39.89 44.01 36.93 44.77 33.6 44.93C30.16 45.12 19.85 45.12 16.41 44.93C13.08 44.76 10.13 44 7.69 41.56C5.24 39.13 4.48 36.17 4.32 32.83C4.13 29.4 4.13 19.09 4.32 15.65C4.49 12.31 5.24 9.36 7.69 6.92C10.13 4.49 13.09 3.73 16.41 3.57C19.85 3.37 30.16 3.37 33.6 3.57C36.93 3.74 39.89 4.5 42.32 6.93C44.77 9.37 45.53 12.32 45.69 15.66ZM42.08 24.25C42.08 21.22 42.33 14.71 41.25 11.97C40.51 10.14 39.11 8.74 37.29 8.01C34.55 6.93 28.04 7.17 25.01 7.17C21.98 7.17 15.47 6.92 12.73 8.01C10.9 8.75 9.5 10.15 8.77 11.97C7.7 14.7 7.94 21.22 7.94 24.25C7.94 27.28 7.69 33.78 8.77 36.52C9.51 38.36 10.91 39.76 12.73 40.48C15.46 41.56 21.98 41.32 25.01 41.32C28.04 41.32 34.54 41.57 37.29 40.48C39.12 39.75 40.52 38.35 41.25 36.52C42.33 33.79 42.08 27.28 42.08 24.25ZM38.62 13.13C38.62 14.52 37.5 15.62 36.12 15.62C34.74 15.62 33.63 14.51 33.63 13.13C33.63 11.76 34.75 10.64 36.12 10.64C37.5 10.64 38.62 11.76 38.62 13.13ZM35.69 24.25C35.69 30.16 30.92 34.93 25.01 34.93C19.1 34.93 14.33 30.16 14.33 24.25C14.33 18.34 19.1 13.57 25.01 13.57C30.92 13.57 35.69 18.34 35.69 24.25ZM25.01 31.19C28.83 31.19 31.95 28.08 31.95 24.25C31.95 20.42 28.84 17.3 25.01 17.3C21.18 17.3 18.07 20.42 18.07 24.25C18.07 28.08 21.19 31.19 25.01 31.19Z" /></svg>