<svg version="1.2" baseProfile="tiny-ps" xmlns="http://www.w3.org/2000/svg" viewBox="0 0 50 50" width="50" height="50"><title>messenger</title><style>tspan { white-space:pre }.shp0 { fill: #ffffff } </style><path class="shp0" d="M31.55 29.74L37.8 20.49C38.42 19.58 37.25 18.59 36.35 19.24L29.61 24C29.39 24.15 29.12 24.23 28.84 24.23C28.56 24.23 28.29 24.15 28.07 24L23.08 20.51C21.59 19.48 19.45 19.86 18.45 21.3L12.2 30.55C11.58 31.46 12.75 32.45 13.65 31.8L20.39 27.05C20.61 26.89 20.88 26.81 21.16 26.81C21.44 26.81 21.71 26.89 21.93 27.05L26.92 30.47C28.41 31.56 30.55 31.18 31.55 29.74Z" /><path fill-rule="evenodd" class="shp0" d="M48 24.93C48 37.63 37.7 47.93 25 47.93C22.55 47.93 20.18 47.55 17.96 46.83L11.41 49.02C10.87 49.2 10.27 49.11 9.81 48.78C9.35 48.44 9.08 47.91 9.08 47.34L9.08 41.53C4.72 37.34 2 31.45 2 24.93C2 12.23 12.3 1.93 25 1.93C37.7 1.93 48 12.23 48 24.93ZM12.03 39.44C12.4 39.77 12.62 40.25 12.62 40.76L12.62 44.89L17.41 43.29C17.78 43.17 18.18 43.17 18.55 43.3C20.57 44.01 22.74 44.39 25 44.39C35.75 44.39 44.46 35.68 44.46 24.93C44.46 14.18 35.75 5.47 25 5.47C14.25 5.47 5.54 14.18 5.54 24.93C5.54 30.69 8.04 35.87 12.03 39.44Z" /></svg>