<svg version="1.2" baseProfile="tiny-ps" xmlns="http://www.w3.org/2000/svg" viewBox="0 0 50 50" width="50" height="50"><title>email</title><style>tspan { white-space:pre }.shp0 { fill: #ffffff } </style><g ><path fill-rule="evenodd" class="shp0" d="M48 13.6L48 37.35C48 40.45 45.48 42.97 42.37 42.97L7.63 42.97C4.52 42.97 2 40.45 2 37.35L2 13.59C2 10.49 4.52 7.97 7.63 7.97L42.38 7.97C45.49 7.97 48.01 10.5 48 13.6ZM45.43 37.35L45.43 13.6C45.43 11.92 44.06 10.55 42.37 10.55L7.63 10.55C5.94 10.55 4.57 11.92 4.57 13.6L4.57 37.35C4.57 39.03 5.94 40.4 7.63 40.4L42.38 40.4C44.07 40.4 45.44 39.03 45.44 37.35L45.43 37.35Z" /><path class="shp0" d="M31.01 25.17L42.26 15.09C42.78 14.61 42.83 13.8 42.36 13.27C41.88 12.74 41.07 12.7 40.54 13.17L25.02 27.1L22 24.39C21.99 24.38 21.98 24.37 21.98 24.37C21.91 24.3 21.84 24.24 21.77 24.18L9.45 13.16C8.92 12.69 8.11 12.73 7.63 13.27C7.16 13.8 7.21 14.61 7.74 15.09L19.12 25.26L7.79 35.87C7.27 36.36 7.24 37.17 7.73 37.69C7.99 37.96 8.33 38.1 8.67 38.1C8.99 38.1 9.3 37.99 9.55 37.76L21.05 26.99L24.18 29.78C24.42 30 24.73 30.1 25.03 30.1C25.34 30.1 25.65 29.99 25.89 29.77L29.1 26.9L40.54 37.77C40.79 38 41.11 38.12 41.42 38.12C41.77 38.12 42.1 37.99 42.36 37.72C42.84 37.2 42.82 36.39 42.31 35.9L31.01 25.17Z" /></g></svg>