<svg version="1.2" baseProfile="tiny-ps" xmlns="http://www.w3.org/2000/svg" viewBox="0 0 50 50" width="50" height="50"><title>whatsapp</title><style>tspan { white-space:pre }.shp0 { fill: #ffffff } </style><path fill-rule="evenodd" class="shp0" d="M40.99 8.8C45.28 13.1 47.85 18.79 47.85 24.86C47.85 37.37 37.44 47.56 24.94 47.56L24.93 47.56C21.12 47.56 17.39 46.61 14.08 44.8L2.04 47.96L5.27 36.2C3.28 32.75 2.24 28.84 2.24 24.85C2.24 12.33 12.42 2.15 24.94 2.15C31 2.15 36.71 4.51 40.99 8.8ZM24.94 43.73C35.34 43.73 44.02 35.27 44.02 24.86C44.03 19.82 41.84 15.08 38.28 11.51C34.72 7.94 29.99 5.98 24.95 5.98C14.54 5.98 6.07 14.45 6.07 24.85C6.07 28.42 7.07 31.88 8.96 34.89L9.41 35.6L7.51 42.57L14.64 40.7L15.33 41.1C18.22 42.82 21.54 43.73 24.94 43.73ZM36.36 30.28C36.5 30.51 36.5 31.65 36.03 32.98C35.56 34.3 33.3 35.51 32.21 35.67C30.41 35.94 29 35.81 25.4 34.25C19.7 31.79 15.99 26.06 15.71 25.69C15.43 25.31 13.39 22.61 13.39 19.82C13.39 17.02 14.86 15.65 15.38 15.08C15.9 14.52 16.51 14.38 16.89 14.38C17.27 14.38 17.65 14.38 17.98 14.4C18.32 14.42 18.79 14.26 19.25 15.37C19.72 16.5 20.86 19.29 21 19.58C21.15 19.87 21.24 20.19 21.05 20.57C19.97 22.74 18.8 22.67 19.39 23.67C21.58 27.44 23.77 28.75 27.11 30.42C27.67 30.71 28.01 30.65 28.33 30.28C28.67 29.89 29.75 28.62 30.13 28.05C30.51 27.47 30.89 27.57 31.41 27.76C31.93 27.94 34.72 29.31 35.29 29.6C35.85 29.88 36.23 30.02 36.36 30.28Z" /></svg>