<svg xmlns="http://www.w3.org/2000/svg" xmlns:xlink="http://www.w3.org/1999/xlink" id="Capa_2_00000016068230094506315710000008877439892203606913_" x="0px" y="0px" viewBox="0 0 849 644.2" style="enable-background:new 0 0 849 644.2;" xml:space="preserve"> <style type="text/css"> .st0{fill-rule:evenodd;clip-rule:evenodd;fill:#DADBDA;} </style> <path class="st0" d="M541.9,63.2c6.6-1,0.2,9.6-2.1,10.4c-3.2,1.1-5.8-1.5-5.2-4.6C535.1,66.9,539.5,63.6,541.9,63.2L541.9,63.2z M609.8,61.6l1.2,1.4c1.1-1.8,1.9-3.6,4.3-3.7c4.9-0.2,6.7,9,3.8,13l15,17.1c0.8-1.5,1.9-2.8,4.3-2.3c2.9,0.5,4.9,6.6,4.4,10.8 c0,0.4-0.2,0.7-0.2,1.1l11.6,13.2c1-1.5,2.5-2.4,4.7-1.8c3.2,0.8,4,5.6,4.4,10c0.1,0.7,0,1.4-0.1,2l28.6,32.6v5.6l-11.5,2.3v20.5 l-4-4.2c-0.9,0.1-1.9-1.1-2.9-2.1c-14.2-14.2-29.7-28-44.8-41.7c-16.1-14.6-31.5-30.2-48.5-43.5c0.6,1.7,2,3.1,3.1,4.4 c8.3,9.2,17.9,18.3,27.1,27.1c21,20.2,42,40.6,63.1,61c5.3,5.1,10.7,10.1,15.9,15.2c5.1,5.2,10.9,9.8,15.4,15.6 c-2.3,2.9-3.7,9.3-6,12.9c-0.6,0.9-2.5,2.9-3.5,2.9c-1.4,0-4.3-3.7-5.6-5c-11.9-11.9-25.8-23.8-38.1-35 c-15.1-13.7-29.3-27.3-44.2-39.4c-0.2-2.7-1.8-4.1-4.6-4.4c-4-3-7.5-6.7-11.7-9.6c2.6,4.3,6.5,7.3,9.6,11.1 c-2.6,2.7-0.2,14.1,2.9,14.2c3.1,0.1,2.2-5,3.1-7.7c2,1.7,4.4,4.4,6.9,7.1c1.9,2.1,6.2,5.4,6.7,7.3c0.2,0.8-0.1,2.1,0,3.1 c0.3,3.2,1.2,7.6,3.8,7.7c2.2,0,2.2-2.6,2.5-4c0.7-0.4,1.1,0.7,1.4,1c3.7,3.5,7.9,7.9,11.5,11.7c0,3.3,0,11.1,3.3,11.2 c2.2,0.1,2.4-2.2,2.5-5c3.7,2.6,7.3,7,10.8,10.4c0.6,3.7,0.8,13.2,4.4,12.9c2.5-0.2,1.3-3.6,1.9-6.1c0.5-0.3,1.8,1.1,2.5,1.9 c2.3,2.3,5.2,5.3,7.5,7.7c-1.1,3.2,2.6,7.6,4.8,4.4c1.9,2.5,5.3,4.6,6.5,7.1c-0.6,0-1.1,0.2-1.7,0.3v127.8c0,3.5,0,6.9,0,10.4 c-16.8-10.3-33.7-20.5-50.4-31c-16.6-10.5-33.3-21.2-50.8-30.2c8.5,7.3,18.3,13.4,27.7,19.8c28.2,19.2,57.2,38.5,86.2,57.1 c-2.5,3.3-6.2,5.3-12.3,5v206.1l3.5,0.1l0,0c0.8,0,1.6,0,2.4,0h0h0.1c3.4,0.1,6.7,0.3,10.4,0.2c0-2.9,0-7.1-0.2-11.7 c-0.2-5.8-1.6-12.7,5-12.1c2.1,0.2,3.8,1.8,6.1,2.7c13.1,5.2,34,1.4,43.5-4.4c1.9-1.2,3.8-3.3,6-3.1c1.2,0.1,4.4,2.4,5,3.3 c1.2,1.9,1.6,6.7,2.3,10.2c0.8,3.8,2,7.4,2.1,10.4c0.1,5.5-5.1,8.3-10.6,5.2c-9.9,2.5-6.9-12.9-6-19.8c-11.2,4.7-30.3,9.4-43.3,3.1 c0.5,5.5,1.9,10.1,1.9,16.2c2.7,1.7,14.3-1.6,14.6,2.3c0.2,3.3-6.3,2.3-8.5,2.5c-23.9,1.8-49.9,2-75.6,2.9 c-25.7,0.9-51.1,1.4-77.5,0.2c-2.5-0.1-8.2,0-7.9-3.4c0.2-2.2,3.1-2.6,6-2.8v-15.2c-7,0.9-14.5-0.9-19.2-3.8 c0.4,3.8,0.8,7.4,1.3,11.2c0.4,3.5,1.4,7.8,0.4,11.5c-0.3,1.2-2.7,4-3.8,4.4c-3.4,1.3-9,0.2-10.2-2.9c-2-5.2,1-12.8-0.2-18.5 c-2.1,0.5-1.2,4-1.2,6.4c0,5.2,0.8,10.8-3.5,11.7c-2.9,0.6-4.2-1-5.4-2.5c-0.8,2.2-3.7,1.1-4.8,2.9c-2.9-0.8-7.1,0.7-8.7-1.9 c-1.7-2.7,0-7.3-0.8-11.5c-12.8,0.4-22.7-2-29.8-7.3c-0.8,4.8,2.2,16.2-1,19.4c-1.4,1.4-10,4-11.9,0.8c-1.2-2.1-0.7-6.9-0.6-10.4 c0.2-3.9,0.3-7.6,0.2-10.6c-4,1.9-8.7,4.9-13.9,6.2c-0.7,3.6,0.9,10.3-2.1,11c-3.8,0.9-3.4-5.4-3.5-9.4c-13.2,2.5-28.8,0.8-34.8-7.1 c-1.8,0.9-3.2,2.1-4.6,3.3c0.4,4,0.2,8.5,0.6,12.5c10,0.5,19.7,0.5,30.2,1.3c2.2,0.2,8,0.1,8.1,2.3c0.1,2.7-6.9,2.4-10.6,2.5 c-4.6,0.1-8.5,0.4-12.7,0.4c-9,0-18.3,0.8-25.8,0c-2.3-0.3-6.7-1.4-9,0c-2.8-1.4-9.3-0.4-12.7,0c-9.2,1-21.2,0.6-31,0.2 c-3.6-0.2-7.5-0.6-10.2-0.2c-1,0.1-1.8,0.7-2.7,0.8c-3.8,0.6-8.5,0.2-12.9,0.4c-12.6,0.6-26.2-0.3-39,0.6 c-8.8,0.6-17.7-0.2-26.2,0.2c-8.6,0.4-16.9-0.2-25.2-0.6c-17.3-0.9-34.2,0.4-51-0.2c-8.6-0.3-17.2,0.8-25.6,0.4 c-8.4-0.4-16.7-0.5-25-1.3c-1.4-0.1-5.1-2.4-5.4-3.5c-0.3-1.2,0.6-2.6,0.6-3.5c0.1-1.2-0.3-3-0.2-5c0.2-4.5-1.7-13,0-16 c0.7-1.2,1.5-1.3,3.1-2.3c1.4-0.9,2-2,2.9-2.1c2.8-0.4,7,2.4,9.6,3.3c9.3,3.4,21.7,4.4,34.2,3.5c0.3-0.5,0.3-2.2,0-2.7 c-2.6,3.4-9.6,2.8-15,0.6c-2.1-0.8-3.5-1.3-5.6-1.3c-2,0-4.2,0.6-6.3,0.2c-4.4-1-6.6-5.7-8.1-8.5c-2.8-0.1-10,1.8-10-1.5 c0-2.5,3.7-1.9,5.6-3.5c1.6-1.4,1.4-4.3,3.5-4.8c3.8-0.8,5.2,2.4,4,6.7c5.1-0.4,5.5-5.5,8.1-8.3c-1.8-3.6-0.9-9.1,1-11.9 c-0.1-1.1-1.5-1.7-1.7-3.3c-0.2-1.8,0.7-3.1,1.5-4.4c-3.7,0.5-3.8-4.2-5.2-6.7c-0.9,2.9-4.8,5.1-7.7,2.5c-4,2.2-1.8,8.8-2.3,12.9 c-3,1.6-3.5-1.7-6.3-1.7c-2,0-3.3,2.7-5.2,2.7c-3,0-3.5-3.3-5.6-5c-2,2.5-2,11.3-5.6,10.4c-2.4-0.6-1.4-4.1-2.1-6.7 c-4.3,2.3-8.1,0.1-7.1-5.8c-1.7,2.1-1.5,6.1-6,5.4c-1,0-0.4,1.6-1,1.9c-0.7,0.2-1.5,0.3-2.3,0.4c0,1.2,1.9,1.8,2.1,3.9 c0.2,1.8-0.5,4.3-2.1,4.4c-1.4,0.1-1.2-1.3-2.1-2.5c-1.3-1.7-3.5-2.1-3.5-5c-17.1,0.6-36.3-0.1-54.6-0.2c-2.3,0-5,0.3-6.7-1.2 c1.6-1.6,4.6-1.1,7.3-1.3c2.6-0.2,5.5-0.6,8.1-0.4c-0.3-1.6-1-3.4-0.2-5c-6.7-0.2-14.6,0.5-20.6-0.4c11-2.6,24.2-2.6,37.9-3.1 c9.9-0.4,19.8,0.2,29.8-0.4c1.5-0.1,3.4-0.3,5-0.2c1.5,0.1,3.4,0.8,4.4,0.6c1.6-0.3,2.1-2.7,4-2.9c-2-3.2-2.7-5.5-4.1-9.4 c-16.4-0.2-65.2,0.1-79.3-3.1c0.3-0.8,1-1.1,1.8-1.2h82.4c1.1,2.6,1.4,6.3,1.9,8.5c1.3,4.8,3,7.7,4,12.1c1,0.1,2.6-0.3,3.3,0.2 c1.2-1.8,1.8-4.1,4.2-4.6c3.1-0.6,5.8,1.5,7.5,3.1c1.4-0.9,2.9-1.7,5.2-1.7c0.6-5.9,2.9-11.3,9.4-10.6c2-2.3,4.4-3.9,8.1-2.5 c1,0.4,2.8,2.2,3.1,2.3c0.3,0,2.2-1.7,2.9-2.1c3.7-1.8,6.6-0.5,10,1.4v-67.6c-0.1-7.3-0.2-14.5-0.2-21.6c0-9.8-0.6-19.4,0-27.9 c0-0.3,0.1-0.6,0.2-1v-2.4c-2-5.5-14.4-4.1-14.6-9.9c-0.2-5.3,9.1-5,14.6-5.8V255.4c-2.7-2-6.9-3.1-10.6-4.9 c-3.4-1.6-8.7-3.9-10.2-6.4c-0.8-1.3-1.3-4.6-1.9-6.7c-0.7-2.5-1.8-4.6-2.1-6.4c-0.2-1.4-0.2-3.9,0-4.8c0.9-3.2,8.6-4.5,11.7-5.8 c4.4-1.9,8.3-3.4,12.3-5.2c-0.2-5.6-0.2-11.2-0.6-16.7c-0.2-1.7,0.1-3.8-0.4-5.2c-0.6-1.8-3.5-3.4-4.8-4.8c-2.2-2.4-7.6-11-1-12.7 c1-0.2,2,0.2,2.9,0c1.6-0.3,2.6-1.8,3.8-2.5c2.8-1.5,5.7-2,9.4-2.9c-2.5-3.2-3-20.9,4.6-16.7c1.4-1.2,1.4-3.8,3.5-4.4 c1.3-0.3,2.4,0,3.8,0.8c6.2-2.9,12.6-5.4,19-8.1c-1.3-7.2,6-8.8,8.5-3.3c7.9-2.7,15.3-5.9,23.1-8.7c0.1-4.1,2.5-10.1,7.1-8.1 c1.4,0.6,1.8,2.4,2.3,4.4c8.9-3.2,17.6-6.7,26.4-10c-4.5-7.4,8-13.6,8.6-3.5c8.7-3.4,17.5-6.7,26.2-10c-0.5-3.5,0.9-8.3,3.8-9 c3.4-0.8,5.5,1.6,5.4,5.4c8.5-2.8,16.3-6.3,24.8-9.2c-1-2.4-1.5-7.4,0.9-9.4c3.4-2.8,8.2,1,7.5,6c8.9-3.2,17.6-6.6,26.4-9.8 c-1-3.2-1.1-9.1,2.3-10.2c4-1.4,6.3,2.4,6.4,6.6c9-3.1,17.2-6.9,26.2-10c-0.2-1.4-1.2-2.6-1.2-4.2c-0.1-7,10-6.7,9.4,0.8 c8.2-3.1,16.3-6.3,24.4-9.6c0-4,0.5-8.2,3.5-9c3.1-0.8,5.1,1.8,5.4,5.4c8-3.2,16.2-6.3,24.1-9.6c-4.2-8.8,8.6-12.8,9.6-3.8 c7.2-2.9,14.4-5.7,21.7-8.5c-0.6-1.9-1.4-3.2-1-5.4c0.9-6.3,11.2-6.3,11,1.3c7-2.3,13.2-5.3,20-7.7C528,7.6,530,2.5,534.6,2.9 c2.4,0.2,4.8,2.5,4.4,6.3c5.5-2,10.1-5,16.4-6.3c1.7-3.9,7-1.9,6,3.1c0.7,0.3,1.6,0.4,2.1,0.8c6.9,7.5,13.4,15.4,20,23.1 c4.6-9,16.1,5.9,10.2,12.3C599.1,48.7,604.6,55.1,609.8,61.6L609.8,61.6z M169.6,532.6L169.6,532.6c1-4.8,0.1-11.9,0.1-17.8 c0-7.5-0.1-15.1-0.1-23v-85.5c23.8-5.5,52.1-10.5,78-15.6c3.1-0.6,9.9-0.9,10-3.5c0.1-3.4-5.6-1.8-8.1-1.5 c-9.7,1.3-19.5,2.9-28.8,4.4l0,0c13.4-3.5,27.3-6.4,41-9.6h0.2v3.7c-1,19.4-0.6,38.9,0,58.4v158.8c-9.1,0-17.7,0.4-26.9,0.2 c-0.4-4.6-0.2-9.7-0.6-14.2c5.4-0.7,10.4-1.7,14.6-3.8c1.9-1,3.8-2.6,5.6-3.8c1.8-1.1,4.4-2.1,4.6-4.6c-1.9-1-3.8,0.5-5.6,1 c-1.9,0.6-4,0.7-6,1.3c-4.3,1.2-8.5,4.1-13.3,3.5c0.3-17.7-0.7-37.5-0.6-56c0-2.4,0.6-4.6,0.8-6.9c0.7-9.9-0.2-20.3-0.6-30.2 c-0.1-3.4,0.3-7.1-0.4-9.8c-0.5-1.8-2.2-2.6-2.7-4.2c-0.7-2.1,0-6.1,0-9.6c0-3.4,0.1-7.1,0-9.8c-0.5-11.7,0.7-22.8-4.8-29.2 c-4.3-1.8-9.1,0-11.9,2.3c-2.1-2.8-5.5-4.9-9.6-4.6c-5.5,0.4-11.9,8.2-12.3,15.4c-0.2,2.6,0.3,4.7-0.2,7.1c-1.7,2.3-5.2,3.9-5.9,7.5 c-0.6,3.7,0.9,6.6,1.7,9.8c-9.7,3.1-1.4,16.6,0.8,21.9c-9.4,0.2-8.5,10.5-8.1,20.8c0.2,5.9-0.7,10.6,0.2,15.2 c-1.5,1.7-4,1.5-4.8,3.8c-0.4,1.1,0.1,2.1,0,3.3c-0.1,1.1-0.8,1.6-0.8,2.7c2.5,1.7,6.1,1.4,9.4,1.7c9.8,0.6,21.2,0.9,30.4,2.3 c-0.1,2.3,0.1,5.4,0,7.1c-10.2,0.5-20.6,1.2-31,2.1c-2.5,0.2-8.9-0.1-9,2.1c-0.1,2.2,6.5,1.8,9,1.9c10.1,0.4,21.6,0,31.4,0.4 c1.1,9.9,0.8,21.3,0.8,32.3c-4.7-0.6-8.5-1.6-12.1-3.5c-2.9-1.6-5.3-4.2-10.2-3.4c-1.6,0.3-2.9,1.7-4.4,2.7c-4.2,2.8-8.6,5-15.2,5.4 c0-1.2,0-2.5,0-3.7c-5.3,4.4-5.2-7.5-5.2-13.1c0-8.4-0.4-14.8,0.4-20.8c-2.2-0.5-4.5-0.4-4.8-2.5c-0.4-2.5,3.6-5.4,4.4-7.3 C169.3,533.9,169.5,533.3,169.6,532.6L169.6,532.6z M169.6,390.2V254.2c2.3-0.6,4.6-1.1,6.8-1.8c-0.8-3.4-5.4-7.5-2.7-11.2 c5.4,0.5,6.2,6.4,8.8,9.8c5.1-1.5,10.5-2.9,15.6-4.4c-0.6-1.5-1.9-3.2-3.1-5.4c-0.8-1.5-2.9-5.1-0.6-6.3c2.5-1.2,4.6,2.3,5.8,4 c1.7,2.2,2.7,4.2,4.2,6c5.7-1.6,11.4-3.2,17.1-4.8c0.1-2.6-6.3-7.7-5.6-11.7c0.2-1,1.2-1.9,2.1-2.1c5.1-0.8,7.9,8.7,9.6,11.9 c6.4-1.5,12.5-3.4,18.7-5.2c-0.9-1.9-2.7-4.4-3.9-7.3c-1.2-2.7-2.3-7.2,1.2-7.7c3.3-0.4,4.7,3.3,5.9,5.4c1.5,2.8,2.6,5,3.5,7.7 c5.8-1.5,11.3-3.2,17.1-4.8c-0.6-2.3-2.1-4.1-3.3-7.3c-1-2.5-3.1-8,0.8-8.5c3-0.4,4.4,3.3,5.4,5.8c1.2,2.9,1.8,5.7,2.7,8.3 c5.8-1.7,11.7-3.3,17.5-5c-1-1.9-1.8-4.2-3.1-6.9c-1.3-2.6-4.8-8.7,0.4-9.1c3.2-0.3,4.6,3.7,6.1,6c1.7,2.7,3,5,3.9,7.9 c6.6-1.8,13.1-3.7,19.6-5.6c-0.9-2-2.2-4.5-3.3-7.3c-1.4-3.3-4.4-10.5,1.2-10.6c4-0.1,7.3,8.2,8.6,11.3c0.5,1.3,0.9,2.9,1.2,4.4 c7.3-1.9,14.1-4.2,21.5-6c-1-2.7-2.3-6.2-3.5-10c-1-3.1-2.5-8,1.9-8.3c3.6-0.2,4.7,3.9,5.8,6.7c1.3,3.2,2.6,6,3.1,9.4 c6.9-1.8,13.5-3.9,20.4-5.8c-0.7-3.5-7.3-10.9-5.8-16.3c0.4-1.4,1.4-2.4,2.9-2.5c3.5-0.2,4.6,4.6,5.8,7.3c1.5,3.3,2.6,6.3,3.5,9.6 c7.8-2.2,15.6-4.4,23.3-6.7c-0.6-2.2-1.7-4.7-2.7-7.7c-1-3.1-3.6-9.7,1-10c3.1-0.2,4.5,4.3,5.6,6.7c1.4,3.2,2.3,5.7,3.1,9 c7.2-1.8,14-4.1,21.2-5.9c-0.4-2.1-2.1-4.6-3.4-7.7c-1.3-3.2-3.7-10.3,1.7-10.2c3.3,0.1,4.3,4.2,5.4,6.9c1.4,3.2,2.2,6.1,3.4,9 c7.6-2.1,15.1-4.5,22.9-6.5c-0.9-3.3-2.3-6.1-3.3-9.8c-0.9-3-2.6-8.6,1.2-9.1c3.5-0.5,5.2,3.9,6.3,6.7c1.4,3.4,1.9,6.6,2.5,10.2 c8.5-2.1,16.5-4.7,25-6.9c-0.8-2.7-8.9-18-1.7-18.3c3.2-0.2,4.9,4.1,6,6.5c1.5,3.2,2.1,6.3,2.9,9.6c8.1-2.2,15.9-4.6,24-6.9 c-1-2.9-2.2-5.7-3.1-9.2c-0.9-3.4-1.4-8.3,2.3-8.5c3.4-0.2,4.3,3.8,5.2,6.4c1.1,3,1.8,6,2.3,9.2c5.7-1.1,12.2-3.4,18.1-5 c-0.2-4-3.4-13.6,1.3-14.6c2.9-0.6,3.4,1.5,5,2.9c-0.4,3.4,1.1,7,1.5,10.6c1.3,12.3,0.8,33.7,0.8,47l0,0c0,35.1,0.2,72.7,0.4,107.9 c-46.5,11.6-95.7,20.9-142.7,32.7c-2.9,0.7-6.8,0.8-8.5,3.1c1.3,1,3.2,0.2,4.6,0c23.7-4,47.4-10,71-15c25.3-5.4,50.6-10.8,75.6-15.6 c0,0.7,0,1.4,0,2.2v2.4c0,0.5-0.1,0.9-0.2,1.3c-54.7,12.4-111.7,22.6-165,36.5c-0.6-1.9-1.4-3.5-1.9-5.6c3.2-1.9,9.5-1.8,10.6-5.2 c0.8-2.4-1-10.2-1.4-12.7c-2.3-12-7.2-23-12.7-30.8c-7.9-11.2-19.2-21-36-22.1c-19.6-1.2-33.8,8.2-43.5,17.9 c-21.6,21.6-29.8,50-30.6,80c34.6,12.5,70.4,23.8,105.6,35.6c-4.6-0.4-8.9-2.1-13.3-3.3c-30.4-8.6-61.6-18.3-92.9-26.4v3.1 c6.9,3.4,14.4,5.5,21.9,8.1c22.7,8,47,15.2,69.6,23.7c-30.9-6.9-59.5-17.9-91.4-24.4v216.7l-1.9,0.1c-1.6,0.1-3.2,0.3-5,0.2 l-0.1-36.8c-0.1-3.8-0.2-7.6-0.3-11.4v-77.2l-0.3-96.7l0,0l-6.9-6.5c-0.6-1.4-1.6-2.4-2.8-2.6c-3.7-0.5-8.9,1-12.9,1.9 C224.2,377.4,194,384.3,169.6,390.2L169.6,390.2z M414.1,297.4L414.1,297.4L414.1,297.4L414.1,297.4z M414.1,295.4v-63.3V227 c21.1-6,41-11.9,62.5-18.4c18.8-5.6,39-10.4,58.5-16c2.8-0.8,7.1-1.4,7.1-3.8c0-2.3-2.2-2.6-3.3-2.3c-16.9,4.8-34.1,9-51.2,13.7 c-17,4.8-34,10.3-51.5,13.8c-3.5,0.7-7.2,2.1-10.8,3.1c-11.1,3.2-22.1,6.2-32.7,9.8c-7.3,2.5-14.9,3.8-22.3,6 c-7.4,2.3-14.8,4.2-22.3,6c-0.4-1-0.4-2.3-1.3-3.1c-0.6-0.6-1.5-0.3-2.5-0.8c-0.4-0.2-0.4-0.9-0.6-1c-2.6-1.6-8.3,2-11.2,3.1 c-1.6,0.6-3.4,1.1-5,1.7c-1.8,0.6-3.3,1.7-4.6,2.1c-1.3,0.4-2.5,0-3.1,0.4c-1.7,1-1.5,3.6-2.9,5.2c-1.1,1.2-4.3,2.2-6.7,3.1 c-5.3,2.1-9.6,3.3-14.8,4.8c-2.6,0.7-5.1,2.1-7.5,2.5c-0.8,0.1-1.9-0.1-2.7,0c-1.8,0.3-3.8,1.1-5.8,1.7 c-26.2,6.9-52.8,13.8-78.1,20.8c-3.9,1.1-8.1,1.7-11.5,3.7c12.1-1.7,24-4.6,36-7.3c12-2.7,24.1-5.3,35.8-7.7 c-0.5,4.6,0.1,10.1,0.2,15.4c0.4,22.7,0.6,44.8,1.4,67.1c0.1,3.1-0.2,8.9,0.8,10.2c1.1,1.4,4.4,1.5,6,0.6c2.2-1.2,2.1-6.9,2.5-10.6 c2.1-18.8,8.6-36.9,18.8-52.9c3.8-6,8.1-11.6,12.7-16.7c4.7-5.2,10.5-9,15.6-13.8c0.6,2.3,2.3,4.5,4.6,4.6c1,0.1,2.4-0.7,3.5-1 c3.6-1,8.5-1.7,10.2-3.8c0.6,0.7,1.4,1.1,2.5,1c0.8-0.1,4.9-2.2,5.2-2.5c2.1-1.9,1.9-5.3,2.9-7.7c18.5-0.1,31,3.9,41.4,12.3 c7.4,5.9,13.9,13.1,17.5,22.7c0.9,2.6,1.7,9.3,4.6,9c1.5-0.2,1.8-2.5,1.9-4.8V295.4z M280.1,374l-0.2,0c-0.1,0.1-0.2,0.2-0.2,0.3 L280.1,374z M561.5,321.6v203.3c-11.7,0.6-22,2.5-33.3,3.4c-0.2-5,0.1-9.1-1.7-13.1c-0.8-2-3.3-3.7-3.8-5.2c-0.3-1.2,0-3.1-0.2-4.6 c-0.4-3.2-2.2-8.9-0.8-12.9c0.6-1.6,2.7-2.3,3.8-3.3c1.4-1.3,2.5-3,3.1-3.9c2.5-3.6,4.8-9.2,2.9-15.4c-0.4-1.4-1.4-2.6-1.7-4.2 c-0.2-1.6,0.3-3.5,0.4-5c0.3-4.4-0.5-8.1-1.9-11.3c-1.3-2.8-4.4-5.5-4.8-8.3c-0.3-2.6,1.3-5.9,1.9-9c1.4-7.3,1.1-14.1-1.2-20.4 c-1.3-3.4-3.7-6.7-3.8-9.2c0-1.4,0.9-2.4,0.8-3.5c-0.2-2.2-3.3-5.2-5-6.4c2.3-0.9,4.6-1.8,4.6-5c1.4-1,5.2-1.5,5-4.2 c-0.2-2.1-4.6-2.8-7.1-3.5c-5.9-1.8-10.8-3.1-16.5-4.8c-3.8-1.1-7.5-3-11.7-1.8c2.2-4.1-0.2-7.8-4.2-7.1c-2.8,0.5-5.8,7.9-6.9,10.4 c-2.1,4.9-3.7,8.5-5.2,12.1c-1.5-4-8.3-5.4-10-0.6c-2.8-1.5-7.2-0.7-11.9,0c-2.8,0.4-6.8,0.6-7.5,2.3c-0.9,2.1,1.3,4.5,1.4,7.1 c-0.3,1.1-1.2,1.5-1.2,2.9c-4.9,1.7-5.5,9.1,1.9,8.3c0.2,7.1,2.2,12.4,3.9,17.9c-5.6,0.5-3.4,7-4.2,12.3c-0.2,1.5-2.1,2.8-2.5,4.8 c-0.7,3.5,1.1,7.3,1.4,11c0.2,1.8-0.1,4,0,6.1c0.1,2.1,0.5,4.2,0.2,5.6c-0.6,2.8-4,4-3.8,6.9c0.2,2.6,2.9,3.2,5.6,2.9 c-0.4,9.8-0.1,19.2,1.4,27.5c-1.2,1.3-3,0.7-3.8,2.7c-1.8,4.8,4.5,8,4.6,2.3c20.5-0.1,41.7-1.5,60.6-1.9c-0.2,0.7,0.3,1.1,0.2,1.7 c-0.2,1.2-0.9,0.5-2.5,1c-1,0.3-1.8,1.1-2.3,1.3c-3.5,1-7.9,0.6-12.3,1c-10.9,1.1-25.1,2.5-35.2,4.2c12.8,0.8,30.4-0.7,45.2-0.8 c-0.2,1.4-0.2,2.8-0.2,4.4c-9.1,0.4-18.9,1.4-29,2.1c-10.2,0.7-20.4,0.6-30,1c-1.2,0.1-3,0.6-4.2,0.2c-1.5-0.5-1.8-2.7-2.9-3.9 c1.4-1.1,2.9-1.5,4.8-2.7c0.5-0.3,3.9-2.3,3.5-3.8c-0.7-2.6-5.5,0.8-6.9,1.4c-2.1,1-5.9,1.7-6.5,3.8c-1,4.1,4.8,9,8.7,8.1 c0.6,19.5-0.2,41.5,0.8,61.6c-7.5,2.1-19.6,2.1-26.4-1c-2.1-1-5.3-2.8-5.8-4.2c-0.1-0.2-0.2-0.5-0.2-0.8c-4-2.2-6-6.1-6-6.1V368.8 c-0.2-1.4-0.2-3,0-4.6c45-7.7,87-18.2,131.4-27.3c2.9-0.6,5.5-1.3,9.2-2.1c3.2-0.7,7.2-1.5,7.1-4.2c-0.2-4.7-12.1-0.8-15-0.2 c-37.4,7.8-76.5,16.2-113.7,24.2c6.5-4.3,15-5.5,24.4-7.5l0,0C484.6,338.9,524.9,330.1,561.5,321.6L561.5,321.6z M404.4,374.4 c0-0.5,0-1-0.1-1.5L404.4,374.4z M561.5,531.5v48.2c-6.1,0.8-11.7,0.1-16.7-2c-2.5-1-4.8-3.2-8.3-2.7c-4,0.6-4.3,4.9-8.1,6 c-0.2-16.2-0.5-31.7-0.4-47.9l0,0C539.2,533.8,551.3,533.1,561.5,531.5L561.5,531.5z M501.7,77c4-0.5,1.9,6.1,0.2,8.5 c-1.4,1.9-7,4.3-7.9,0.6c-0.7-2.6,1.5-3.8,2.9-5.2C498.4,79.5,499.6,77.3,501.7,77L501.7,77z M455.7,91.6c5.2-0.4-0.2,10.1-1.2,11.5 c-1.1,1.4-7.1,5.4-7.5,0.9c-0.2-2,2.5-4.6,3.8-6.5C452.1,95.2,453.2,91.8,455.7,91.6L455.7,91.6z M416.9,101.8 c3.6-0.7,4.1,3.4,3.8,7.1c-0.6,6.2-5.6,12.2-12.9,11.5c-1.9-0.2-3.7-1.1-3.7-3.1c0-2.7,5.8-4.9,7.3-7.1 C413.4,107.1,413.7,102.5,416.9,101.8L416.9,101.8z M366.3,123.3c5.5-2.2,3.4,7.5,1.9,9.8c-0.6,0.9-1.6,1.8-2.7,2.3 c-2.2,1-6.9,1.4-7.5-0.2c-0.8-2.2,1.6-2.5,2.9-3.5c0.9-0.7,2.1-2,2.7-2.9C364.8,126.8,365,124.2,366.3,123.3L366.3,123.3z M326.1,136.8c4.4-0.8,3,6.5,1.2,9.8c-1.6,3-5.3,6.4-9.4,6.9c-1.7,0.2-4,0.1-4.2-1.7c-0.2-2.2,2.5-2.8,4.2-4.4 c1.2-1.2,2.6-3.5,3.8-5.4C323,140,324.1,137.1,326.1,136.8L326.1,136.8z M282.8,153c5.3-1.2,3.2,5.3,1.9,7.9c-1,1.9-2.6,4.6-3.8,5.4 c-1.3,1-8.3,3.8-8.7-0.2c-0.2-1.7,3.3-4.5,4.6-6.3C278.8,157.1,280.1,153.6,282.8,153L282.8,153z M245.8,166.2 c4.6-0.6,0.6,9.7-0.6,11.5c-0.8,1.2-2.9,2.6-4.4,2.9c-3,0.6-7.4-0.2-7.5-2.3c-0.1-2.2,2.9-1.9,4.6-3.1 C240.7,173.1,242.3,166.6,245.8,166.2L245.8,166.2z M188.3,265.7c6.7-3,13.9-4.7,21-6.9c35.1-10.7,71.9-20.3,107.5-31.3 c42.4-13.1,86.1-24.5,129.8-36.6c24.8-6.9,50.8-14.2,76.2-20.8c3.8-1,8.1-2.4,11.7-2.9c1.8-0.3,2.8,0.6,2.9,1.7 c0.3,2.7-7.2,4.2-9.2,4.8c-53.9,16.1-108.6,30.7-163.3,45.8c-29.3,8.1-59.4,15.5-88.1,23.3C247.4,250.9,218.1,259.2,188.3,265.7 L188.3,265.7z M212.2,184.1c-0.5,2.4-4.2,6.3-7.5,4.6C204.1,185.1,209.6,183.7,212.2,184.1L212.2,184.1z M175.4,193 c1.3-0.3,1.3,0.8,2.3,0.8c2.8-0.8,1.3-9.8,6.3-8.3c0.6,0.2,1.4,1.2,1.4,1.4c2.8,5.9-4.7,14.1-9.4,9.6 C175.3,195.9,174.5,194.6,175.4,193L175.4,193z M541.9,208.6c1.1,22.6,0.2,42.7,1.9,65c0.2,3,0.8,6.9-0.2,8.3 c-0.8,1.1-4.2,1.4-6.7,2.1c-26.6,6.8-50.7,12.4-77.9,18.3c-4.4,1-9.3,1.8-14.6,2.9c-4,0.8-12,3.2-14.8,1.9c-0.3-0.1-0.6-0.3-0.8-0.6 v-71.1c2.6-1.7,7.2-1.9,11.2-2.6c14.4-2.6,28-7.4,41.4-10.8c14.1-3.7,27.6-7,41.7-10.6c4.6-1.2,9.2-2,13.7-3.5 C538.3,207.3,540.6,207.7,541.9,208.6L541.9,208.6z M530.7,225.9c2.2,4.9,1.6,13,1.9,21c0.1,3.1,0.2,7.7,0.2,11.5 c0,3.2,0.5,9.5-1.7,9.8c-2.6,0.4-2.9-5.3-3.1-7.7c-0.8-9.8-1.3-20.8-0.6-30.4c-24.2,6.7-49.2,12.9-74.4,19.4 c-3.1,0.8-7.1,3.1-10,0.8c0.1-4.4,5-4.9,7.9-5.9c17.1-5.4,36.3-9.1,55-13.5c7.7-1.8,15.3-3.8,22.3-5 C528.7,225.8,529.6,225.5,530.7,225.9L530.7,225.9z M519.8,232.6c2.6,3.1,2.3,8.7,2.5,13.7c0.2,4.2,0.3,8.6,0.6,12.7 c0.2,2.9,1,6-0.2,8.3c-2.3-0.5-2.4-3.8-2.9-6.9c-0.9-5.5-1.3-11.5-1.7-18.3C518,239.1,516.9,232.6,519.8,232.6L519.8,232.6z M515,266.7c-3.2,1.9-4.6-5.5-5.4-9c-1.1-4.3-0.9-10.2-1-13.1c-0.1-3-1.5-9.6,2.9-8.3c2.1,0.6,3.2,6,3.8,9.1c0.7,3.8,1,8.7,0.8,11.9 c-0.1,1.6-0.6,3.9-0.6,5.2C515.4,264.2,516,265.9,515,266.7L515,266.7z M501.3,244c1.8,4.6,4,12.3,3.4,19.2c-0.2,1.9-1,7.6-3.4,7.7 c-4.3,0.2-4.4-11.2-4.4-17.1C496.9,248.6,496.3,241.8,501.3,244L501.3,244z M492.4,267.8c1.7,1.3,0.5,4.2-1.3,4.2 c-3,0-3.5-8-3.3-12.7c0.2-3.5,0.1-8.5,2.5-8.6C493.9,250.6,494.2,264.6,492.4,267.8L492.4,267.8z M446.1,253.2 c2.3,4.6,1.2,11,1.4,17.1c0.3,5.8,1,12,1,17.5c26.4-6.1,53.8-12,80.6-18.3c1.5-0.3,4.3-1.1,4.8,0.4c1,3.2-7.8,4.8-9.4,5.2 c-23,6-45.8,11.6-70.4,16.9c-2.9,0.6-10.7,2.6-11.9,0.4c-0.8-1.6,0.8-2.6,0.8-3.5c-1.2-7.1-1.2-17.9-1.2-27.5c0-2.7-0.7-7.3,1-8.1 C443.6,252.4,445.4,252.9,446.1,253.2L446.1,253.2z M462.4,282.6c-2.7-0.3-2.6-4.1-3.1-7.1c-0.5-3-0.6-6.1-0.4-9.1 c0.2-3.6-0.4-9.1,1-10.8c2.7-2,3,4.1,3.4,7.3c0.5,5,0,10.3-0.2,14.6C462.9,279.4,463.4,281.7,462.4,282.6L462.4,282.6z M470.9,280.9 c-4.7-0.3-3.6-13.3-3.1-19.2c0.2-3,0.3-8.4,4-6.5c2.1,1.1,1.5,7.4,1.3,10.2c-0.4,3.9-1.1,7.6-1.3,10.4 C471.6,277.8,472.3,280.1,470.9,280.9L470.9,280.9z M484.2,275.1c-3.8,0.8-5.3-6.4-5.6-11.5c-0.1-2-0.4-5.5,0.4-6.9 c1-1.7,3.7-1.6,4.6-0.2c2,3.1,0.3,10.7,0.4,14.6C484,272.5,484.7,273.7,484.2,275.1L484.2,275.1z M450.7,259.3 c0.3-0.1,0.3-0.3,1-0.2c2.6,0.4,3.6,9,3.9,13.3c0.3,3.6-0.5,5.2-1,8.5c-0.3,1.9-0.5,4.5-1.4,4.8c-3.2,1-4-8.8-4.2-11.3 C448.7,270.2,447.7,260.2,450.7,259.3L450.7,259.3z M245.3,286.9c2-0.2,3.9,0.1,4.6,1.7c0.5,1.3-0.3,3.4-0.4,4.6 c-0.3,3.9,0.5,8.9,0.6,13.9c0.2,9.3,0.2,18.8,0.6,28.3c0.2,3.8,1.4,11.3,0,13.5c-0.8,1.4-5.7,2.4-7.7,2.9 c-16.9,4.5-33.7,7.9-52.1,10.6c-2.6,0.4-7.3,1.6-9.2,0.8c-2.8-1.2-2.5-8.6-2.7-13.3c-0.5-12.9,0-25.8-0.8-38.7 c-0.1-2-0.7-6.1,0.6-6.9c1-0.6,2.5,0.8,3.9,0.6c1.1-0.1,2.4-0.9,3.8-1.5c8.2-3.1,18.2-5.9,26.8-8.3c5.2-1.5,10.5-3,15.8-4.4 C234.6,289.5,240.2,287.6,245.3,286.9L245.3,286.9z M238.7,341.7c-1.2-0.8-0.9-2.7-1-4.2c-0.3-4.2-0.6-9.6-1-13.9 c-0.8,1.3-1.2,3.2-2.9,2.9c-1.3-0.2-1-1.5-1.5-3.1c-0.8-2.5-3.3-7.2-3.3-9.4c-1.2,0.2-1,1.8-1.7,2.5c-2.9-0.4-3.6-4.5-2.3-7.3 c-7.4,2-14.7,4-22.1,6c-1,0.9-1.1,2.5-1.7,3.8c0.4,0.7,1.5,0.5,2.1,1c-1-4.6,6.7-6.1,7.3-2.7c0.3,1.8-2.5,5.5-4.8,5.4 c0.7,3.1,0.9,8.7-2.1,9.1c-3,0.5-3.9-2.6-4.8-5.2c-3.5-1.2-5.2-6.6-1.9-10c-1.4,0-1.6,1.2-2.5,1.7c0.4,8.9,0.7,17.9,0.6,27.3 c10.6-1.7,20.8-3.6,30.8-6c3.2-0.8,6.7-2.1,10-0.8c-1.7,2.4-5.6,2.8-9,3.7c-3.2,0.9-6.6,1.8-10,2.5c-7.3,1.6-14.2,4.5-20.2,5 c-4.1,0.4-6.6-0.9-4.4-4.2c-1.5-3.6-1.2-8.9-1.4-14.1c-0.2-5-1-10.5-0.4-14.4c0.5-3.7,6.7-4.6,10.8-5.9c9.5-2.7,18.2-5,27.9-7.5 c2.3-0.6,6.8-2.5,9.2-1c2.3,1.4,1.1,9.7,0.8,12.9C238.6,324.1,240.3,334.5,238.7,341.7L238.7,341.7z M224.5,325.7 c-1.9-0.2-2.1-2.1-3.1-3.1c-0.6,2.6-3,3.6-3.7,5.8c-0.9,2.6-0.3,7.1-1.9,9c-2,2.4-13,6.6-13.1,0.6c-0.1-4.2,8.9-6.4,12.7-5.4 c1.3-1.6,2.4-3.7,2.1-6.1c-0.2-1.6-1.5-2.3-1.7-3.9c-0.5-4.2,2.8-7.8,5.6-6c1,0.6,1.5,3,2.1,4.4 C224.1,322.4,225.2,323.6,224.5,325.7L224.5,325.7z M227.8,323.2c0.3-0.1,0.4,0.2,0.6,0.2c0.5,4-0.2,9.2-2.9,10.2 c-4.6,1.6-4.9-6.5-0.6-7.1c0.7,0.6,0.7,2,1,2.9C227.4,328.1,227.3,325.4,227.8,323.2L227.8,323.2z M213.5,329.9 c-1.4-0.8-3.4-1.3-3.7-2.7c-1-4,4.6-4.8,5.2-1.5C215.1,327,214.5,328.6,213.5,329.9L213.5,329.9z M491.7,446.1 c0,1.4-1.7,1.5-2.1,0.4C489.6,445.1,491.3,445,491.7,446.1L491.7,446.1z M643.3,566.5c-2-16.7-2.5-34.6-3.4-55 c-0.5-13.7-1-27.4-1-42.7c0-5.4-1.8-15.1,2.7-15.6c5.5-0.6,3.9,9.8,3.9,15C645.6,500.7,645.7,536.3,643.3,566.5L643.3,566.5z M755.8,539.6c-0.2-4,4-8.8,8.1-7.9c1.6,0.3,2.7,2.2,2.7,4.6c2-1.5,7.3-6,10.4-2.1c4-1.6,4.7,1,6.5,3.8c1.2,1.9,3.5,3.4,3.1,5.2 c3-0.6,7.3-2.1,10-0.4c2.7-3,9.9-9.3,13.1-4.4c0.6,0.9,0.2,2,0.6,3.3c0.6,1.8,2.6,3,1.7,6c2.8,0.8,5.3,1.8,5.4,5.2 c2.4,0.7,4.1,2,4,5.2c4.5-0.3,8.3,3.6,6.9,8.5c3.1,0.7,3.5,6.3,1,8.1c2.8,1.9,1.4,6.8-0.2,9c2.6,1,3.5,5.4,1.7,7.9 c1.3,1.7,1,6.1-1.4,6.7c-1.1,0.2-1.8-0.6-2.7-0.6c-0.5,0-1.3,0.6-2.1,0.6c-0.6,0-1.6-0.3-2.1-0.2c-1,0.2-1.6,1.2-2.5,1.7 c-4.2,2.1-15.1,2.9-16.7-2.1c-4.4,1.7-8.5,7.5-14.8,7.5c-4.8,0-8.1-3.5-8.3-9.2c-3.2-0.6-5.4-1.4-6.5-3.5c-0.7-1.4-0.6-6.6,0.2-9.1 c0.4-1.4,1.6-2.3,2.5-3.1c-1.6-1.4-2.8-3-3.3-5.4c-1.4-1.5-3.4-2.3-2.9-5.6c0.9-2.1,2.8-1.7,5.2-1.5c5.3,0.5,10.7-1.3,15-2.3 c0.7-0.1,0.6,0.6,0.6,1.2c1.4-2.8,5.8-3,9.2-4.6c2.4-1.2,4.4-3.8,6.9-2.3c0.4,3.1-2.2,7.7-4.6,9.4c-2.5,1.8-12,3.4-11.5-1.7 c-0.8,0.3-1.8,2.3-3.3,2.7c1.5-0.1,3.5,2,5.9,2.7c2.4,0.8,5.3-0.1,5.4,2.1c0.1,1.7-1.5,1.6-2.9,2.3c0.3,1,1.1,1.5,1,2.9 c1.8,0.5,4.2,0.2,5.8-0.2c-0.7-3.4,2-5,4.8-5.6c-6.8-2.5-1.2-10.2,5-9.4c1.5-1.3,1.4-4.3,2.3-6.3c-2.9-0.1-4.4-1.7-4.2-5 c-2.5-1.2-4.5-1.3-5-3.8c-0.3-1.4,0.6-2.8,0.4-4.4c-0.2-1.1-1.3-1.9-1.2-2.9c-1.1,0.6-2.7,1.1-4,2.9c-1.3,1.9-1,5.1-4.4,4.2 c-1.4-0.4-1.3-2.3-2.3-3.5c-2,0-3.7,0.3-5.2,0.8c-1.2,3-4.2,7.1-8.1,5.6c-3.3-1.2-3-7.2-0.4-9.4c-0.5-1.8-2.2-2.4-2.3-4.6 c-2.2,0.7-3.6-0.5-4.8-1.4c-4.1,0.1-4.4,7.1-7.7,7.1c-3.2-0.1-2.1-5.2-3.5-7.7c-1.4,1.1,0.1,3.5-0.4,5.6c-0.2,1-1.3,2.5-2.7,2.7 c-1.9,0.3-6,0.1-7.1-0.6c-1.8-1.2-1.5-4.1-2.5-6c-0.8-1.4-1.8-1.6-2.9-2.7c-1,1.7-1.7,3.7-4.6,3.5c-3.3,1.8-2.9,6.4-0.8,9.4 c3-1.1,8.8-1,7.5,3.3c-1.3,0.3-1.5-0.7-2.5-0.6c-3.4,0.2-7.9,8.7-11,3.5c-1.2,0.8-1.6,2.9-3.5,2.5c-1.2-0.2-1.1-1.6-1.5-2.9 c-0.9-2.9-2.1-6.2-5.8-5.6c-4.2,0.6-3.9,9.1-9.4,5c-1.8-1.4-3.5-2.6-5.2,0.6c0.5,3.4,1,7.8-1.8,8.6c-3,0.8-6.7-2.4-9.8-0.4 c1,3.5-3.4,5.9-4,2.3c-0.7-4.8,5.2-8.1,10.4-6.7c-1.4-6.8,6.6-14.4,12.1-9.8c2.2-5.3,14.8-7.3,14.6,1.5c0.9,0,2-1.4,2.9-2.1 c-1.6-6.5,1.5-12.5,6.9-13.9c1.8-2.8,4.9-5,8.3-2.9C752.2,532.6,755.1,535.9,755.8,539.6L755.8,539.6z M415.7,535 c0.9-1,2.6-0.6,4-0.8c3.7-0.5,8.3-1,12.7-1.2c1.1-0.1,6.8-1.1,7.1,1c0.4,3-12.3,2.9-16.5,2.7C420,536.5,416.9,537,415.7,535 L415.7,535z M140,542.9c0.7,3.7-6.4,7.5-5.4,1C135.6,543.1,138.3,541.9,140,542.9L140,542.9z M760.6,552.3c-0.5,1.6-1.9,2.4-3.3,3.5 c-1.5,1.2-6.5,4.6-6.9,0.2c-0.2-2.9,4.6-4.1,7.7-4.4C759.4,551.5,760.3,551.4,760.6,552.3L760.6,552.3z M137.9,552.1 c5.2-0.9,0.2,8.7-3.3,8.5c-2.8-0.2-3-3.5-1.5-5.4C134.1,554,135.9,552.4,137.9,552.1L137.9,552.1z M791.6,553.7 c0.5,0,3.5-0.5,2.9,2.1c-0.2,1-1.7,1.1-2.3,1.4c-1.4,0.9-2.8,3.5-4,3.8c-2.7,0.6-4.3-1.5-3.7-3.8 C785.1,555.1,789.2,553.9,791.6,553.7L791.6,553.7z M125,554.6c0.5,3.9-7.1,6.6-7.3,2.5C117.5,554.4,123.4,553.3,125,554.6 L125,554.6z M94.1,554.6c1.2-0.4,2.4,0,2.7,1c0.9,3.2-3.9,3.9-4.2,1C92.6,555.9,92.7,555,94.1,554.6L94.1,554.6z M770.8,554.8 c0.4,1.1-1.4,1.7-1.9,2.7c1.5-0.4,4-0.3,3.8,1.7c3.7-0.4,8.3,0,8.1,4.2c-0.4,0.2-0.6,0.5-0.8,0.8c-4.4,0.3-10.5,4.2-12.9-0.6 c-1.8,3.7-9.5,7.6-12.9,2.9c-1.8,2.2-9.1,4.2-8.5-0.6c0.4-3.3,5.5-2.4,8.5-3.5c2-1.5,4.4-3.7,7.7-3.1 C763.7,556.9,766.9,553.8,770.8,554.8L770.8,554.8z M83.5,560.8c0.5,1.1,2,1.2,2.7,2.1c0.7,1.6-0.2,3.6-1.2,3.9 c-2.6,0.8-5.5-3.7-7.7-2.5c-2,3,5.1,8.6,0,10c-1.2,0.3-1.9-0.7-3.1,0c-0.7,1.8,1.7,1.6,1.5,2.3c0,2.2-3.6,2.7-4.6,1 c-0.8,0.3-0.5,1.7-1.5,1.9c-1.6-0.9-1.1-3.9-2.5-5c-1.5,0.1-2.8,0.5-3.8,1.2c0.1,5.2-5.6,3.1-9.1,3.1c-1,0.8-0.6,3.1-1.5,4.2 c-1.2,0.2-3.6,0.5-4.8-0.4c0.2,1.1,0.4,1.6,0,2.5c-1,2-3.1,0.6-5,0.6c-1.7,0.1-3.1,1.3-3.5,2.5c-0.8,2.2,1.1,3.8,0.8,6 c-7.2,0.6-6.3-11.7-1.3-13.5c-2.7,0.1-6.6,1-9,0c-1.9-4.6,9.5-2.3,11.7-1.8c0.8,0.1,0.5,1.3,1.4,1.2c1.5-0.4,1.8-2.3,3.8-2.5 c1.2-0.1,2.3,0.2,3.3,1c0.5-3.8,3.7-4.8,8.1-4.6c0.7-0.6,1-1.6,1.7-2.3c-10.8-0.1-23.9,0.6-33.1-1.7c1.8-1.8,5.1-1.5,8.1-1.7 c11.7-0.5,24.9-0.9,36.5-0.2c0-2,0-5,1.3-6.3c-15.4-0.4-31.1-0.6-45.6-1.9c5-3.1,14.2-2.1,22.5-2.7c11-0.8,21.7-1.7,31.9-0.4 c2,0.3,5.5,0.6,5.4,2.3C86.8,560.8,85.4,560.9,83.5,560.8L83.5,560.8z M747.5,556.7c-0.9,2.1-2.5,3.5-5,3.9c-0.7-0.3-1-1.1-0.8-2.3 C743,557.2,745.2,556.9,747.5,556.7L747.5,556.7z M101.8,560.8c0.2,5.1-4.3,7.9-4.4,12.7c-5.4-0.6-1.3-11.5,1-12.9 C99.6,559.9,100.9,560,101.8,560.8L101.8,560.8z M724.8,561c0,1.8-1.4,2.1-2.7,3.1c-1.2,1-5.5,5.7-6.4,1.5 C714.9,562.2,721.6,560,724.8,561L724.8,561z M112.5,570.8c2.4,0.1,3.7,2.1,3.1,4.2c-0.9,3.5-3.4,9.4-5.4,11.2 c2.7,2.5,1,7.4-1.9,8.3c2.9,4.6-3.6,7.9-7.3,5.2c-1.8,1.5-7.9,5.5-11.9,6c-3,0.4-5.4-1.5-5.4-4.6c-2.4,1.5-7.4,1.6-7.9-1.7 c-2,3-7.9,4.2-10.2,0.8c-2.2,0.8-9.5,4.2-10,0.4c-0.3-2.2,2.2-2.8,4-4.2c0.6-0.5,1.3-1.4,2.1-2.1c1.5-1.3,2.4-1.4,2.7-3.5 c1.1-1,2.9-1.8,4.4-3.1c1.2-1,1.7-3.3,4.2-2.3c0.5,0.6,1.1,1.7,0.6,2.7c1-0.1,1.6-0.5,2.5-0.6c-0.2-1.5,0.2-2.5,0.8-3.1 c3.4-0.4,15-1.9,14.8,2.1c-0.1,1.2-1.1,1.4-2.3,1.9c4.7,0.3,8.4-2.2,10.2-5.4c-1.9-5.2,2-7.7,5.6-8.7c-1.4-0.6-4.5,0-4.4-2.3 c0.1-1.8,4.3-2.2,5.6-3.5c2.5-2.5,4.2-8.9,7.9-5.6C115,566,114,569.2,112.5,570.8L112.5,570.8z M740.4,566c-0.3,2.1-5.5,6-9.2,5 c-1-0.3-1.9-1.5-1.9-2.5c0.1-2.6,4.9-2.8,8.1-3.1C738.5,565.3,740.1,564.9,740.4,566L740.4,566z M85,573.9c1-0.2,2.5-0.6,2.9,0.6 c0.5,1.5-3.8,4.9-4.8,5c-2.2,0.2-3.2-1.7-2.7-3.3C80.9,574.6,83,574.2,85,573.9L85,573.9z M98.1,579.4c0,4.2-8.3,4.5-8.1,0.6 C90.1,576.7,96.2,578.1,98.1,579.4L98.1,579.4z M62.1,588.3c-0.3,2.1-5.3,9-7.9,5c-0.6-0.9-0.4-2.6,0.4-3.5 C55.9,588.3,60.6,586.7,62.1,588.3L62.1,588.3z M167,592.5c-0.4,3.9-6.4,6.4-10.4,6.9c-4.1,0.5-11-0.5-11.2-3.9 c-0.4-4.4,5.1-3.4,9.4-3.5C158.8,591.7,164.2,591.2,167,592.5L167,592.5z M141.4,592.1c2-0.3,4.5,1.7,3.3,4.2 c-0.7,1.6-3.8,1.9-5,0.6C138.3,595.3,138.9,592.5,141.4,592.1L141.4,592.1z M79.1,630.2c2.8-1.1,6-1,9-1c22.2-0.8,45.2-1.3,67.9-1.3 c12.8,0,25.7-0.9,38.5-1c38.9-0.4,77.5-2.1,116.6-2.1c25.9,0,51.8-1.3,77.7-1.3c90.9,0,183.5-1.9,275.1-1.9c13.1,0,26.4,0.6,39.4,0 c13.7-0.6,30.5,0,44.6,0.2c4.5,0.1,11.5-0.6,11.7,3.1c0.2,3.4-4.7,3.4-7.3,3.5c-24,1.1-50.5,1.1-74.4,1.3 c-85.2,0.5-170.9,2.3-256.6,2.3c-72.2,0-142.9-0.2-214.5-0.2c-28.2,0-56.5-0.6-85.6-0.6C107,631.2,92.6,631.6,79.1,630.2L79.1,630.2 z M240.9,647.3c5.5-1.7,11.3-1,16.9-1.2c17.2-0.8,34.9-1.1,52.5-1.7c58-1.8,116.6-3.4,175.4-5.4c5.9-0.2,11.8-0.4,17.7-0.4 c18.4,0,36.3-0.9,55.6,0c3.3,0.2,8.6,0.4,8.7,3.5c0.3,4.8-12.3,4.4-16.4,4.6c-47,2.2-95.6,1.2-144.1,1.3 C351.5,647.9,295.7,648.1,240.9,647.3L240.9,647.3z M720,640.4c3.8-0.2,10.2-0.3,14.2,0.6c1.2,0.3,3.2,0.7,3.3,1.9 c0.3,2.5-6.3,3.8-9,4c-4,0.2-9.8-0.4-15-0.6c-3.4-0.2-12.6-0.6-12.5-3.1c0.1-2.2,6.3-2.2,8.3-2.3C713.9,640.5,716.6,640.5,720,640.4 L720,640.4z M657.5,640.6c2.8-0.2,8.8-0.5,12.5-0.2c2.4,0.2,7.4,1.1,7.3,3.5c-0.1,2.2-4.8,3-7.3,3.1c-2.3,0.1-6-0.6-8.7-0.6 c-3.7-0.1-16,0.2-16-3.3C645.2,639.6,653.9,640.8,657.5,640.6L657.5,640.6z M592.7,644.1c1.2-1.9,4.3-1.7,7.1-2.1 c3.9-0.6,8-1.4,12.5-0.8c1.5,0.2,6.6,1.6,6.4,3.8c-0.1,2.1-5.6,2.8-7.9,2.7c-2.8-0.2-6.3-0.8-9.6-1.3 C597.9,646,594.4,645.7,592.7,644.1L592.7,644.1z M525.5,27L525.5,27c-7.6,3-15.5,5.7-23.1,8.7c-15.2,6-30.5,12-45.8,17.9 c-30.6,11.8-61.1,24-91.8,35.4c-30.8,11.4-61.3,23.8-92.2,35c-31.1,11.2-61.7,23.8-93.5,33.9c0,3.2-1,5.4-1.5,8.1 c8.2-1.6,15.9-5.3,23.6-8.3c22.9-9.1,45.9-17.8,68.9-26.6c92.5-35.7,186.3-68.6,279.3-103.7c-1.1-2.5,0.4-7.7,0.2-9.4 C541.4,20.9,533.4,23.8,525.5,27L525.5,27z M529.6,42.2L529.6,42.2C505,51.7,480.4,61,455.9,69.9c-82.4,29.9-164,61.6-247,90.8 c-10.3,3.6-21.2,6.9-31.3,10.8c-0.9,0.3-1.8,1.1-2.7,1.4c-1.1,0.4-2.4,0.4-3.5,0.8c-3,1.3-6.1,2.6-9,3.8c-0.9,0.4-2.2,0.6-2.7,1.7 c1.4,1.7,1.2,1.4,2.7,1c6.5-1.6,13-4.3,19-6.6c2.5-1,5.3-1.8,7.3-2.9c1.4-0.7,2.1-2.7,3.5-2.9c1.1-0.2,2.2,0.6,3.4,0.4 c2.1-0.3,4.6-1.8,7.1-2.7c2.4-0.9,5-1.9,7.3-2.7c3.4-1.2,8-2.1,11.1-3.8c1.3-0.7,1.8-1.8,2.9-2.1c0.8-0.2,1.8,0.2,2.9,0 c3-0.6,6.5-2.3,9.8-3.5c3.3-1.2,6.6-2.6,9.8-3.7c42.5-15.8,85.4-31.6,127.9-47.1c3.5-1.3,7.4-2,10-3.5c0.7-0.4,1.7-1.9,2.5-2.1 c0.9-0.2,2.2,0.4,3.1,0.2c1.4-0.3,3.3-1.3,5-1.9C448.1,76.3,502.1,56,555,37.7c0.2-1.1,0.6-4.1-0.2-4.8C546.5,36,538,39,529.6,42.2 L529.6,42.2z M523.6,53.9L523.6,53.9c1.4,6.7,0.6,13.8,0,21.7c-0.3,4,0.2,12.7-3.8,12.5c-3.8-0.2-2.9-7.9-3.1-11.6 c-0.3-7.5-0.6-14.4,0-20C503,61.8,488.7,66.5,475,72c0.7,6.1,0.5,12.2,0.2,19.8c-0.2,4.2,0,12.6-4,12.5c-2.5-0.1-2.7-3.1-2.9-5.4 c-0.7-7.8-1-16.6-0.6-24.1c-11,3.9-21.7,8.1-32.7,12.1c1,5.8-0.2,11.9-0.8,19.6c-0.3,4.5-0.4,12.4-4.2,12.9 c-2.6,0.3-2.5-3.4-2.5-5.8c0-8.4-0.2-16.8,0.4-24c-12.3,4.5-24.7,8.9-36.4,13.9c0.8,5.5,0.2,11.3-0.2,18.8 c-0.2,3.9,0.1,12.1-3.5,12.1c-2.1,0-2.7-2.9-2.9-5c-0.7-7.9,0.1-16.1,0-23.6c-13,4.6-25.6,9.6-38.5,14.2c1.2,3.5,0,6.6-0.2,10.6 c-0.1,2.4-0.2,4.9-0.4,7.5c-0.3,3.5-0.4,12.1-4,11.9c-1.6-0.1-2.3-2.2-2.5-3.7c-0.8-6.7,0.2-16.2,0-23.6 c-12.4,4.5-24.7,9.2-37.3,13.5c0.1,5.5-0.8,10.2-1,16c-0.2,3.8,0.4,14.3-3.1,14.2c-1.9-0.1-2-3.3-2.3-5.2c-0.9-7-0.8-14.8-0.8-22.1 c-10.8,3.6-21.2,7.9-31.9,11.6c-1.3,4.1-1.6,8.3-1.8,14.2c-0.2,3.5,0.6,13.7-2.3,13.8c-1.8,0-1.9-3-2.1-5c-0.6-6.7-0.9-14-1-20.4 c-9.2,3.5-18.8,6.7-27.9,10.4c-0.6,4.9-0.8,9.7-1.2,15.4c-0.2,3.3-0.4,13.3-3.5,13.1c-1.8-0.1-1.8-3-1.9-5 c-0.2-7.1-0.3-14.1-0.2-20.8c-8.6,2.9-16.7,6.2-25.2,9.1c-0.2,4.6-0.5,9.2-0.8,14.2c-0.2,3.1,0,12.5-2.9,12.3c-1.8-0.1-1.4-3-1.4-5 c0-6.9-0.4-12.9-0.4-19.2c-7.9,2.2-16.4,5.7-24.2,8.7c0.5,9,0.2,18.9-0.2,27.7c129.1-45.9,260.3-89.9,390.1-135.2 c0-12.6-0.4-24.7-0.4-37.3c-0.1,0-0.3,0-0.4,0C544.5,46,534.2,50.1,523.6,53.9L523.6,53.9z M573.8,73L573.8,73 c0.5,2.7,2.2,4.2,3.8,4.2c2.7-0.1,3.4-3.8,3.1-7.5c-0.3-4.6-1.4-12.4-5-11C573.7,59.4,573.2,69.7,573.8,73L573.8,73z M591.3,87.9 L591.3,87.9c4.6-0.2,4.6-18.6-0.8-16.9C587,72.1,586.7,88,591.3,87.9L591.3,87.9z M512.3,101.4L512.3,101.4 c-35.4,12.2-70.6,24.5-105.6,36.9c-17.7,6.2-35.4,12.2-52.9,18.3c-35.3,12.4-70.8,24.5-106.2,36.2c-26.7,8.8-53.2,18.3-79.8,27.1 c-4.3,1.4-9.4,2.2-13.3,4.4c-4,2.2-8.3,3.3-12.3,5.6c1.4,2.7,1.9,6.2,2.7,9.6c1.5,0.5,2.9,1.1,4.2,1.9c34-11.6,68.2-22.7,102.5-33.7 c103.3-33.3,206.1-66.5,308.2-100.8c1.9-5.6,3.8-11.9,5.4-17.7c0.5-1.8,1.6-3.8,1.3-5.6C548.3,88.8,530.4,95.1,512.3,101.4 L512.3,101.4z M605.2,99.7L605.2,99.7c3.1-0.2,4.5-16.5-1.9-14.6C598.9,86.5,601.8,100,605.2,99.7L605.2,99.7z M637.5,118.5 L637.5,118.5c-3.3,2-1.8,15.5,3.3,14.6C644.1,130.7,643.1,115,637.5,118.5L637.5,118.5z M651.9,143.6L651.9,143.6 c2.4-0.2,4.8-15.1-1.7-13.1C645.8,131.9,649.5,143.9,651.9,143.6L651.9,143.6z M583.2,134.7L583.2,134.7c-0.7,2.9,1,11.5,3.3,11.2 c1-0.2,1.7-2.6,2.1-4.8c0.7-4.3,1.1-9.5-3.1-8.5C584.4,132.9,583.4,133.5,583.2,134.7L583.2,134.7z M662.5,153.6L662.5,153.6 c2.3-0.3,1.9-8.3,0.4-9.8C656.9,141.5,659.8,154.1,662.5,153.6L662.5,153.6z M623.8,196.8L623.8,196.8 c-11.4-10.7-22.7-21.4-34.2-32.1c-3.7-3.4-8-8.8-12.9-9.4c-1.6-0.2-3.6,1.7-3.8,3.5c-0.3,4.4,7.9,10,10.2,11.9 c12.5,10,24.4,20,36.6,29.8c16.8,13.4,32.1,27.1,49.2,39.6C655,225.4,639.8,211.8,623.8,196.8L623.8,196.8z M664.6,253.8 L664.6,253.8c-6.7-6-13-12.3-19.8-18.1c-21.2-18.3-42.9-37.1-63.1-56c-1.8-1.8-4-4.8-6.4-4.6c-1.4,0.1-2.4,1.1-2.5,2.5 c-0.2,2.2,2.9,4.3,4.8,5.8c2.3,1.8,4.5,3.2,6.3,4.6c28.3,22.2,55.1,46.4,83.3,68.3C666.6,255.2,665.5,254.6,664.6,253.8L664.6,253.8 z M661.9,267.2L661.9,267.2c-1.8-1.6-3.4-3.6-5.2-5.2c-11-10.1-21.7-19-33.3-29c-11.2-9.6-22.1-19.3-32.7-29.6 c-3.3-3.2-7.5-8.4-11.6-9.2c-1.3-0.2-3.1,1.1-3.4,2.5c-0.6,3,2.2,4.6,4.2,6.3c5.9,4.8,12.2,9.3,17.7,13.5 c21.8,16.8,41.9,35,63.7,51.2c2,1.5,3.5,3.5,5.9,4.4C665.9,270,663.6,268.8,661.9,267.2L661.9,267.2z M663.5,286.7L663.5,286.7 c-26.6-23-54.2-44.7-82.1-66.6c-2-1.6-4.3-4.1-6.3-4.4c-2.7-0.4-2.5,4.9-2.5,8.1c0,9.3-0.2,19.2,0.2,27.5c0.5,9.9,0.7,17.2,0.8,26.6 c0.1,3.4-0.4,7.3,0.4,8.6c0.8,1.2,2.3,1.1,3.8,1.9c3.6,1.9,6.9,5.2,10.6,7.7c23.8,16.3,47.2,32.6,70.8,48.3c1.8,1.1,3.5,3,5.9,2.9 c-0.7-2.1-2.9-3.3-4.6-4.6c-24.7-19.2-50.2-37.1-75.6-55.6c-1.6-1.2-4.7-3.4-5-4.4c-0.5-1.7-0.2-4.9-0.2-7.3 c-0.4-17.8-0.8-35.1-1.7-51.6c27.8,21.6,55.3,44.6,83.9,65.2c1.9,1.4,3.8,3.3,6.2,3.3C667.5,290,665.4,288.3,663.5,286.7 L663.5,286.7z M590.4,251.1L590.4,251.1c-0.1-2.7,0.4-6.9-2.1-5c-0.9,1-1.4,5-1.7,7.9c-0.6,6.1-0.6,11.8-0.6,18.1 c0,2.7-1.1,7.2,2.1,7.5C589.7,272.4,590.8,260.6,590.4,251.1L590.4,251.1z M595,258L595,258c-0.5,3,1.1,12.8,3.4,13.1 c0.3-3.6,0.5-10.6-0.2-14.6C596.6,255.7,595.3,256.6,595,258L595,258z M607.9,269.5L607.9,269.5c-2.9,0.3-1.3,5.4,1,5.8 C610.8,273.5,610.6,269.2,607.9,269.5L607.9,269.5z M623.1,277.4L623.1,277.4c-3.6-0.4-1.7,6,1.7,5.6 C625.4,281.2,625,277.6,623.1,277.4L623.1,277.4z M627.5,283L627.5,283c0,1.4,0.4,2.4,1.4,2.7c0.5-0.7,0.9-1.4,0.8-2.7 C629.2,282.3,628.1,282.3,627.5,283L627.5,283z M349.9,306.3L349.9,306.3c4.7-5,10.2-11,18.1-12.9c2.2-0.6,4.4-0.3,4.4-2.7 c0-2-2.1-2.9-3.3-2.5c-4.5,1.5-8.2,2.4-11.7,4.6c-10.5,6.5-17.4,14.1-24.6,24.8c-6.7,10-11.9,20.8-15.2,33.9 c-0.7,2.8-2.8,11.5-2.1,14.4c0.6,2.2,4,3.1,5.4,4.6C323.9,343.3,334.9,322.4,349.9,306.3L349.9,306.3z M647.3,301.1L647.3,301.1 c0.3-3,1.2-7,0.6-9.4c-0.7-3.1-5.6-3.7-6.7-0.4c-0.6,1.9,0.4,6.8,0.8,10.4c0.4,3.4,0.9,7.5,3.5,7.7 C647.1,307.9,647,304.5,647.3,301.1L647.3,301.1z M633.3,299.2L633.3,299.2c1.5-0.4,1.7-5.7,0.4-6.6c-0.3-0.3-0.9-0.2-1.2-0.2 C628,292.6,630.9,299.9,633.3,299.2L633.3,299.2z M623.8,298.2L623.8,298.2c-0.1-0.6,0.1-1.4-0.2-2.1c-1.1-2.4-4.5-1.8-4.8,0.6 c-0.2,2.6,2.8,6,5.8,5.4C625.3,300.9,624.1,299.6,623.8,298.2L623.8,298.2z M660,301.3L660,301.3c-0.1-0.6-0.5-2.8-1.3-3.3 c-1.2-0.8-3.2-0.1-3.8,1.2c-0.9,2.1,0,6,0.4,9.2c0.4,3.3,0.9,6.5,3.1,7.1C660.4,313.1,660.5,306.1,660,301.3L660,301.3z M352.8,363.2L352.8,363.2c3-8.1,6.6-16.1,10.6-23.3c5.3-9.6,11.7-19.1,20-25.2c1.2-0.9,2.9-1.1,2.9-2.9c0-2.2-2.1-2.3-2.9-1.9 c-9.4,4.9-16.4,15.2-21.9,26c-2.7,5.4-5.1,11-7.1,16.9c-2.1,6.1-5.5,12.2-4.8,18.5C351.5,369,351.8,365.9,352.8,363.2L352.8,363.2z M487.1,368.8L487.1,368.8c-4.1,7.4-7.2,15.8-11.5,23.1c0,1.1,0.2,2.4-0.8,2.5c-3.4-0.8-3-5.3-6.3-6.3c-2.6,3,2.7,6.4-0.2,8.5 c-2.1-0.7-4.4,0.2-6.3-0.6c-4.2,1.6-8.6,4.2-12.5,5.8c-1.4,0.6-3.2,0.7-4,1.9c6.3-0.7,14.7-2.5,21.1-0.6c1.2,1.9,2.3,3.9,3.5,5.8 c1.1,1.8,3,4.2,3.3,6.3c1,5.7-5.8,11.8-3.3,18.8c3.7,0.6,4.8,3.8,5.8,7.1c1.4-4.1,10-4.6,10.6,0.4c1.2-2.6,4.3-0.2,6.3,0.2 c0.5-1.2,1.1-2.4,1.7-3.5c-2.2-0.1-5.4-0.3-7.3-0.4c-3.2-0.2-7.3,0.6-8.5-1.7c1.3-1.6,4.6-1.6,7.5-1.9c2.9-0.2,5.9-0.8,8.6-1 c2.5-0.2,4.6,0.4,6,0.6c1,0.1,2-0.2,2.9,0c4.5,0.8,5.5,5.3,5.8,10.6c1.9-0.2,3,0.4,4.2,1c-0.4-1.1-0.6-2.5-0.8-3.8 c-3-0.5-2-5-2.3-8.1c-2.5-1.2-4.8-2.6-7.3-3.9c-2.6-1.5-5.8-1.7-8.1-3.4c-3.9-2.8-4.3-8-8.5-10.4c-2.6,6,3.4,10.4,5,14.4 c0.4,0.8,2,0.4,1.9,1.7c-2.3,1.5-7.5,1.1-11.2,1.3c-1.8,0.1-4.5,0.8-4.8-1.3c1.9-2.3,7.6-2,11.5-1.7c-0.2-0.7-1.6-2.1-2.7-2.7 c-2.2,0.3-7.6,1.4-7.9-0.6c-0.3-2.1,4-1.9,5.9-2.5c-0.7-0.5-0.6-1.8-1.5-2.1c-1.2,0.2-3.9,0.7-3.9-0.8c0.3-1.2,1.8-1.3,3.3-1.3 c-1.1-4.7,1.2-7.6,4.2-9c-1.3-1-2.9-1.6-3.3-3.5c1.1-1.8,3-0.1,4,0.4c1.3,0.7,2.6,1.6,3.7,2.3c6,3.9,12.3,8.4,17.3,12.9 c1,0.9,2.1,2.4,3.1,2.1c-0.6-3,0.3-5.9,1-8.1c-7.5-1.8-14.8-4.7-20.6-7.9c-1.7-0.9-4.2-1.8-4.4-4c2.3-0.7,4.5,0.8,6.7,1.7 c6.6,2.6,14,4.8,20.2,7.1c-0.4-2.3-1.5-4-2.1-6.3c-5.1,0.7-10.9-0.8-15.8-2.3c-2-0.6-4-1.3-5.8-2.3c-1.7-0.9-4.1-1.9-4.2-3.9 c1.4-0.9,2.8,0.4,4.2-0.6c2.8,0,6,2.2,9,2.5c3.2,0.3,6.7-1.2,8.3-3.3c-4-0.2-6.8-1.1-10-1.9c-2.1-0.5-4.7-0.8-5.9-2.5 c5.7-0.8,12.1,1.3,17.1,2.5c0-1.7,1.2-3.1,1.3-4c-2.6-0.1-5.2-1.2-7.7-1.9c-2.5-0.7-5.6-0.7-7.1-2.7c6,0.2,12.6,1.6,17.9,3.1 c1.5-0.6,3.1-1.2,4.6-1.9c-1.8-1.8-5.1-2.1-7.9-2.9c-1.4-0.4-3-0.6-4.4-1c-1.3-0.3-3.1-0.5-3.5-1.9c6.2-0.5,14.1,3.9,19.6,0.9 c-6-1.5-14.9-4.4-21.5-6.2c-2.6-0.8-5.7-1.8-7.9-1.5c-1.7,0.2-2.3,2.3-3.3,3.5c-1.4,4.9-2.4,10.2-5,14.2c-0.5,0.8-1.9,3.5-3.3,3.1 c-2.5-0.6,0.2-5.4,0.8-6.7c2.2-4.6,3.5-9.2,5-14.2c0.7-2.4,2-4.7,1.9-7.3C487.8,368.8,487.5,368.8,487.1,368.8L487.1,368.8z M638.1,391.3c-2.5-3.4-5.5-6.3-9.1-7.5c-5.7-2-10.2,1.1-12.9,3.9c-1,1.1-2.5,2.6-2.3,3.5c12.8,1.9,19.7,9.3,23.7,19.7l2,6.3 c1.5,5.9,2.4,12.5,3.1,19.4c0.2,2.2,1.5,11.8-0.8,12.1c-2.4,0.2-1.7-4.1-1.9-6.7c-0.6-8.4-2.6-15-5-20.8c-1.6-3.8-3.7-7.7-6.4-10.8 c-3.7-4.1-6.9-8.3-12.3-9.6c-2.3-0.5-7.4-1.1-7.9,1.3c0.1,1,1.5,0.4,2.1,0.4c10.1,0.3,15.5,9.9,18.5,17.3c2.6,6.4,4.2,12.7,4.2,20.6 c0,2.4-0.9,5.6-0.4,7.9c0.3,1.4,1.4,1.8,1.7,3.4c0.6,3.9-0.2,8.7,0,13.1c0.4,12.9,0.8,26.9,0.2,39.8c-0.8,18.2-0.2,36.1-1.7,51.4 c-1.9-25.1-2.7-52.7-4-80.2c-0.6-13.5,0.5-28-2.3-39.3c-1.3-5.4-3-10.4-5.9-15.2c-2.8-4.9-7.1-12.8-14.6-10.6c0,1.1-0.3,1.9-0.4,2.9 c7,1.1,10,8.3,11.9,14.6c1.2,3.9,1.5,8.1,2.5,12.3c0.3,1.4,1.1,2.6,1.3,4c0.2,1.9-0.3,3.7,0,5.8c0.1,1.1,0.7,2.2,0.8,3.4 c0.6,5.2,0.2,11.1,0.2,16.8c0,16.9,0.2,35.9-1.2,50.4c-2.4-17.8-3.3-38.9-4-58.7c-0.2-4.3-1-9.7,1-11.9c-2.3-5.1-3.1-11.3-5.2-16.9 c-1.5-3.8-3.4-7.8-5.4-11c-0.6-0.9-1.5-2.4-2.7-2.1V599h5.6v0.2c13.7-0.4,28.2-0.1,42.3-0.2V428.3 C652.7,428.3,650.7,401.7,638.1,391.3L638.1,391.3z M464,389.4L464,389.4c-4.3,1.8-10.3,2-14.8,3.5c0.6,2.2,1.9,3.5,2.1,6 c4.3-2.1,9-3.7,13.7-5.4C464.6,392.3,464.9,390.3,464,389.4L464,389.4z M673.5,391.1L673.5,391.1c1.4,0.4,2.1,1.4,3.5,1.7 c0-0.7,0-1.4,0-2.1C676,390.9,674.5,390.7,673.5,391.1L673.5,391.1z M463.6,418.6L463.6,418.6c0.5-1.6,0-3.8-0.6-5 C463.1,415.3,463.2,417.1,463.6,418.6L463.6,418.6z M292.4,439.6L292.4,439.6c0,22.9-0.8,44.9-0.8,67.7c0,26.3-1,53-0.2,79.7 c0.1,3.9,0,8.3,3.1,8.3c3.7,0.1,3.2-4.5,3.3-7.9c0.2-4.4-0.2-8.2-0.2-11.5c0-53.9-3.1-106.9-4.4-159.1c0-0.1,0-0.2-0.2-0.2 C292.5,423.8,292.4,432,292.4,439.6L292.4,439.6z M508,428.8L508,428.8c-5.2-2.5-10.1-6.4-13.5-10C496.8,424.1,503,426.7,508,428.8 L508,428.8z M205.5,427.1L205.5,427.1c-3,2.6-6.8,6.4-6,11.5c2.4-3.5,5.9-5.9,11.9-5.9C210.3,430,209,427.4,205.5,427.1L205.5,427.1 z M380.3,483.8L380.3,483.8c0-15.5,1.2-36.6-10.6-48.1c-4-3.9-10-7.7-17.3-7.5c-4.2,0.2-9.4,2.6-13.1,4.4c-2.1,1-4.8,4.5-6.2,7.1 c-0.8,1.5-4.4,8.3-1.7,9c1.2,0.3,1.8-1.1,2.1-1.4c1.7-2.2,2.9-4.9,4.2-6.5c2.3-2.7,8.7-6.6,13.1-6.9c8.3-0.6,15.8,4.2,20,12.7 c3.1,6.3,4.3,15.6,4.3,21.1c0,26.4-0.7,53.8-2.3,77.3c-2.1-20.7-3.7-43.9-4.8-65.4c-0.1-1.2,0.6-3.1-0.8-3.9 c-0.9,1.1-0.2,1.7-0.8,2.9c-0.6,1.2-2,1.2-2.3,2.1c-0.5,1.5,0,5.3,0,7.5c0,19.9-0.2,43.5-2.1,61.4c-2.1-16.8-3.1-36.9-3.5-55.8 c-0.1-2.7,0.3-6.1-0.2-8.3c-0.2-1.2-1.4-2.3-1.8-3.5c-1.4-4-2.1-8.5-3.5-11.9c-0.3,28.5,1.1,58.4-0.2,86.9 c-0.4,9.5-0.2,18.9-1.7,27.7c-1.5-7.6-1.8-15.9-2.3-24.4c-1-16.9-1.4-34.4-2.1-51.2c-0.3-8.8,0-17.7-0.6-26c-0.2-2.2-0.9-3.2-1.2-5 c-0.6-3.2-0.4-7.2-1.9-10c-0.6,1.6,0.2,4.3-0.4,5.6c-0.5,1.2-1.5,0.5-1.8,1.4c-0.2,25.8-0.6,52.2-1.3,77.3 c-0.2,8.5-0.2,16.8-1.4,24.8c-2.6-33.1-3.4-68.2-4.2-103.1c-0.5-0.6-1.6,1.2-2.3,0.4c0-2.5,0.4-5.8,0.4-9c0.1-3,0.9-6.8-2.3-7.1 c-2.2,3.2-1.7,10.1-1.4,15c-0.4,0.5-1-0.7-1,0.6v125.6h3.1l0,0c17.2,1.1,34-0.4,51.2-0.4C381.3,561.7,380.3,521.6,380.3,483.8 L380.3,483.8z M460.5,448.2L460.5,448.2c1.4,2,3.3,3.4,3.5,5.6c0.5,4.6,0.3,13.8-1.3,16.5c-1.7-5.4-0.4-11.3-2.3-16 c-0.6-1.6-2.7-3.6-4-5c-1.5-1.7-3.1-3.3-4.6-4.6c-2.6,1.5-1.2,7.3,0.8,8.5c1.1,0.1,3.1-2.6,4.8-1.3c-0.5,1.9-1.4,2.2-1.4,3.8 c-1.6,0.6-3.3,1.2-4,2.7c-1,6.3,2.3,11,2.3,16.9c0,9.2-0.4,18.3,0,27.7c1.1,0.2,1.7-0.3,2.7-0.2c1.1-6.1-0.9-14.7,0-20.4 c0.2-1.1,0.8-3.1,2.5-2.9c1.7,0.2,1.8,2.9,2.1,5c1,6.5,2.3,12.7,2.3,18.7c1.3,0,2.4-0.3,3.9-0.2c-0.9-5.2-3.8-11.1-3.5-16.7 c0.2-4.4,4.9-8.9,5.9-12.5c0.2-1,0.2-2.3,0.2-3.5c0.3-6.8,2.5-14.8,5.2-19.2c-6.8-0.1-2-8-4.2-12.7c-1.3-0.5-2.9-1.8-3.5-0.2 c-0.3,0.8,1.4,1.7,1.7,3.1c0.4,2.2,0,5-1.7,5.4c-1.4,0.4-4-1.2-5.2-1.9c-5-2.6-8.7-7-11.5-10.8C452.8,439.5,457.4,443.8,460.5,448.2 L460.5,448.2z M459,436.9L459,436.9c0.6,0.4,0.8,1.2,1.5,1.5c-0.4-1-0.5-2.2-1-3.1C459.6,436.1,459,436.2,459,436.9L459,436.9z M226.2,446.9L226.2,446.9c-0.2-3.1,0.5-7.2-0.6-9.4C225.8,440.6,225,444.7,226.2,446.9L226.2,446.9z M503,437.7L503,437.7 c-1.9-0.5-4.5,1.4-4.8,2.9c-0.6,3.6,5.2,6.2,2.3,9.6c1.7-0.5,2.9-1.4,4.8-1.7C504.1,445.3,506.4,438.7,503,437.7L503,437.7z M206.2,440.6L206.2,440.6c-6.1,4.5-6.5,15.3-9,23.1c5.7,1,7.4,6,9.8,10.4c2.7,1.6,4.2,4.5,5.2,7.9c2.7-3.5,2.5-6.9,1.9-12.3 c-1.2-10.1-2.2-20.1-1.9-30.6C209.7,438.6,207.5,439.6,206.2,440.6L206.2,440.6z M492.5,456.9L492.5,456.9c-2.1-3.5-6.9-4.9-8.1-8.1 c-1.2-3.3-0.2-9.6-4.6-6.9c-2.6,2.6,0.7,7.8-0.2,10c-0.2,0.6-1.9,1.6-2.3,2.1c-3.1,4.2-1.4,13-2.1,19.4c-0.4,3.5-2.8,4.7-4.4,7.3 c-0.8,1.4-2.8,5-2.9,6c-0.3,2.6,1,5.7,1.5,8.3c0.5,3,1.2,5.6,1.8,7.9c1.3-0.2,2.5-0.3,4-0.2c-0.3-4.7-3.1-12.1-1.4-17.3 c0.6-1.9,4.4-5.6,6.4-5.4c2,0.2,3.6,3.5,4.4,5.2c1.2,2.6,1.8,4.7,2.7,7.1c1.8,0.7,4.5,3.4,6.7,4.8c2,1.2,4.1,1.9,2.7,5 c1.2,0,2.5,0,3.7,0c-4.3-7.6-10.7-14.6-13.5-24.2c-0.8-2.8-1.9-6.2-1.3-8.5c-2-1.8-4.9-2.7-5.4-6.1c2.5-0.6,3.8,1.7,5.4,2.7 c1.8,1.2,3.7,1.9,5.9,2.7C494.2,465.5,494.8,460.7,492.5,456.9L492.5,456.9z M487.8,447.1L487.8,447.1c1.4,1.6,3.1,2.8,4.8,4.2 c0.6-2.1,1.4-5.4,0.2-7.5c-1.8-0.3-4.5,0.2-5.6-0.8C487.5,444.2,488,445.8,487.8,447.1L487.8,447.1z M516.9,458L516.9,458 c-1.3-4.1-3.2-8-6.3-10c-0.2,0-0.4,0-0.6,0c-0.3,8.6,3,15.5,5,22.5c1.3,0,2.2,1.3,3.5,0.6C519.6,466.8,518.2,461.9,516.9,458 L516.9,458z M193.7,455L193.7,455c0-0.8,0.8-2,0.4-2.5C193.5,453,192.9,454.3,193.7,455L193.7,455z M497.6,456.9L497.6,456.9 c0.3-0.6,0.5-1.3,0.6-2.1c-1.4,0-3.3-1.5-3.3-1.4C496,454.3,496.2,456.2,497.6,456.9L497.6,456.9z M502.8,469.4L502.8,469.4 c0.4,0.9,1.6,0.9,2.5,1.2c-0.2-0.9-0.7-1.5-1-2.3C504,469,502.8,468.6,502.8,469.4L502.8,469.4z M511.9,473.1L511.9,473.1 c0.1-1,0.9-2.2-0.2-2.7C511.3,471.2,511.6,472.4,511.9,473.1L511.9,473.1z M193.9,472.7L193.9,472.7c-0.5,0.9-2.2,0.5-2.7,1.2 c0.2,3.4,2,6.3,2.9,9.8c2.6,10.2,1.2,22.6,1.9,34.8c5.9-0.2,11.8-0.1,17.5-0.4c-1.4-4.8-1.1-9.9-1.7-15c-0.5-4.6-3-8-2.7-13.1 c-2.1-3.2-1.6-7.4-4.2-9.8c-2.2-2.1-6.7-2.5-5.8-7.3C198.1,473.7,194.8,475.5,193.9,472.7L193.9,472.7z M503.2,488.6L503.2,488.6 c0.1,1.8-0.5,3.9,0,5.2c0.9,2.3,3.9,3,6,4.2c-1-6.3-1.6-12.9-1.8-20c-1.4-1-3.2-1.4-4.6-2.3C502.4,479.3,503.1,484.3,503.2,488.6 L503.2,488.6z M512.3,483.1L512.3,483.1c0.9,0,2-1.4,2.7-2.3c-1-0.2-1.6-0.8-2.7-0.8C512.3,481,512.3,482.1,512.3,483.1L512.3,483.1 z M190.8,491.7L190.8,491.7c-0.3,0.1-0.4,0.3-0.8,0.2c-3.1,6.5-1.8,18.8-1,26.9c0.8,0,1.7,0,2.5,0 C190.4,511.1,191.7,499.7,190.8,491.7L190.8,491.7z M506.7,502.1L506.7,502.1c1.4-0.1,2.8,0,3.8,0.4c0-0.4,0-0.8,0-1.2 c-2.5-0.3-4.7-2-6.2-2.5C505.2,499.8,506,500.8,506.7,502.1L506.7,502.1z M484.8,502.3L484.8,502.3c0.6-0.1,1.7,0.3,1.9-0.2 c-0.6-0.2-1.1-0.7-1.9-0.8C484.8,501.6,484.8,502,484.8,502.3L484.8,502.3z M447.2,532.5L447.2,532.5c0,17.7,1.5,35,0.8,52.7 c3-0.8,6-2.2,9.1-4.8c2.3-1.9,4-6.4,7.3-6.5c1.6,0,4.8,2.1,6.3,2.7c2.6,1.1,3.5,2,4.6,4.2c7,5,17.4,8.7,29.8,6.9 c-0.9-18.8-1-38.3-1.2-57.7C484.5,530.4,464.6,530.2,447.2,532.5L447.2,532.5z M78.5,543.5L78.5,543.5c0.5,0.9,0.5,2,0.2,3.1 c2-0.1,3.8,0.1,5.4,0.4c1.8-1.8,4.3-3.1,7.1-4C87,543.7,82.7,543.1,78.5,543.5L78.5,543.5z M39.8,547.9L39.8,547.9 c2.4-0.2,5.2-0.1,7.5-0.4c-0.2-0.5-1.4-2.5-0.6-3.9c-2-0.2-4.2-0.3-6.4-0.2C41.1,545,39.4,546.7,39.8,547.9L39.8,547.9z M52,547.5 L52,547.5c2.5-0.3,5.5-0.2,8.3-0.2c-0.6-1.1-1-2.9,0-3.9c-3,0-6,0-9,0C51.4,544.2,52.3,545.8,52,547.5L52,547.5z M63.9,547.1 L63.9,547.1c3.8-0.1,8.2,0.2,11.5-0.4c-0.8-0.5-0.9-2.4-0.2-3.1c-3.8,0.1-7.9-0.6-11.5,0C64.9,544.3,64.4,546,63.9,547.1L63.9,547.1 z M141.6,572.5L141.6,572.5c0.7-0.1,2,0.3,2.1-0.4C143.1,571.3,142.2,572.1,141.6,572.5L141.6,572.5z M203.9,601.2L203.9,601.2 c4-0.2,7.9-0.5,12.3-0.4c0-4.6,0-9.2,0-13.8c-5-0.6-9.3-2.1-12.9-4.2C203.4,589,203.9,596.2,203.9,601.2L203.9,601.2z M131.6,600.8 L131.6,600.8c11.9,0.9,24.3,1.4,35.8,0c-0.1-4,0-7.9,0.2-11.7c-14.8,1.5-28.8-0.5-38.5-5.4C130.1,589.2,131.1,594.8,131.6,600.8 L131.6,600.8z M190.5,583.9L190.5,583.9c-4.7,2.2-10.6,3.3-16.7,4.2c0.2,4.3,0.6,8.6,0.6,13.1c5.2,0.5,11.2,0.6,16.7,0.2 C190.5,595.8,190.9,589.6,190.5,583.9L190.5,583.9z M510.7,602.3L510.7,602.3c0.3,0,0.7,0,1,0c-0.2-0.6-0.8-0.8-1.3-1.2 C510.4,601.5,510.4,602,510.7,602.3L510.7,602.3z M92.7,593.5L92.7,593.5c1.2-0.3,1.9-1.1,2.7-1.9C94.2,592,93.3,592.7,92.7,593.5 L92.7,593.5z M69.5,571.4L69.5,571.4c0.6,0.1,0.5,0.9,1,1c0.3-0.6,0.7-1,1-1.4C70.9,571.1,70.1,571.1,69.5,571.4L69.5,571.4z M813.7,572.5L813.7,572.5c0.1,0.8,0.9,0.7,0.6,1.9c2.5-0.5,6.1-1.4,8.7-0.4c0.5-1,1-1.9,1.7-2.7c-2.3-0.5-2.4-3.3-3.1-5.4 C819.3,568.4,816.1,570,813.7,572.5L813.7,572.5z M779.5,575.2L779.5,575.2c0.7,0.6,1.7,1.1,2.7,1.4c-0.9-1.9,2.3-3.2,1.7-4.2 C782.6,573.5,780.9,574.2,779.5,575.2L779.5,575.2z M815.6,582.5L815.6,582.5c0.3,0.6,0.6,1.3,1.4,1.4c1.6-0.9,3.8-0.2,5.2,0.4 c0.4-2.6,2.2-3.8,2.9-6C820.6,577.2,819,581.3,815.6,582.5L815.6,582.5z M788.5,585.6L788.5,585.6c-0.2,1,0.3,1.4,0.2,2.3 c1.4-0.2,2.2,0.3,3.5,0.2c0.6-1.1,1.5-1.8,1.9-3.1C791.8,584.5,790.2,584.6,788.5,585.6L788.5,585.6z M233.2,307.1L233.2,307.1 c0.6,0.2,0.2,1.2,0.8,1.3c-0.1-0.8,0.5-1,0.4-1.9C234,306.7,233.4,306.6,233.2,307.1L233.2,307.1z M186.6,310.1L186.6,310.1 c0.9,15.5,1.3,32.5,0.8,48.7c19.8-4.1,39.8-8,59.8-11.9c-0.8-16.5-2.1-34.4-1.9-52.7c-0.1,0-0.3,0-0.4,0 C226,300.1,206.8,305.6,186.6,310.1L186.6,310.1z M437.8,241.7L437.8,241.7c1.1,19.5,0.1,39.9,1.3,59.4c32.9-8.7,68-15.3,101.4-23.5 c0.3-22.2-3-41.8-1.9-64.2c-0.1,0-0.3,0-0.4,0C504.9,223.1,472.4,233.5,437.8,241.7L437.8,241.7z M393.4,242L393.4,242 c1.8,8.3-2.2,15.8-0.8,22.9c3.7,2.7,6.8,6.1,10,9.4c-3.9-8.6-5.2-22.1-3.1-33.7c-0.2,0-0.3,0-0.4,0 C397.5,241.3,395.2,241.4,393.4,242L393.4,242z M334.9,242.6L334.9,242.6c-3.3,0.8-6.7,1.5-9.2,3.1c-0.2,2.5-3.3,3-3.5,5.2 c-0.3,2.7,3,5.1,4,7.7c3.4-1.1,6.8-2.2,11-2.5c-1.3-3.8-2-9.1-2.1-13.5C335,242.6,335,242.6,334.9,242.6L334.9,242.6z M375.7,246.9 L375.7,246.9c1,3-1.1,5.6-0.2,7.9c3.4,1.4,6.6,3.1,9.8,4.8c-0.8-4.9-2.7-8.6-2.3-14.6C380.3,245.4,378,246.1,375.7,246.9 L375.7,246.9z M363.6,251.7L363.6,251.7c1.2,0,1.7,0.6,2.9,0.4c-0.2-0.5-0.1-1.4-0.8-1.5C365.3,251.3,364,251.1,363.6,251.7 L363.6,251.7z M326.5,261.3L326.5,261.3c0.9,1.6,0.4,4.4,1.3,6c3.4-0.7,6.9-1.2,10.2-2.1c1-1.8,0.6-5.1-0.4-6.7 C335.8,261.4,329.8,261.2,326.5,261.3L326.5,261.3z M312,263.8L312,263.8c1.3-0.7,5.2-2.5,7.1-0.4c-0.3-1.8-0.8-3.3-1.7-4.6 C316.6,261.5,313.7,262.1,312,263.8L312,263.8z M343.8,262.2L343.8,262.2c0.3,2.4,0.1,1.2,0.2-1.2c-0.3,0-0.2-0.4-0.4-0.4 C343.5,261.3,343.8,261.7,343.8,262.2L343.8,262.2z M303.5,265.9L303.5,265.9c0,1.7-0.4,3-0.2,4.8c0.9-0.5,2.2-1.6,3.3-2.5 c1-0.8,3-1.8,2.3-3.5C307,265,305.2,265.5,303.5,265.9L303.5,265.9z M296.6,267.4L296.6,267.4c-1.3,0.5-3,0.7-4.4,1 c1.1,4.2-0.2,9.8,0.4,14.2c1.9-2.7,4.2-5.1,6.4-7.5C298.1,272.7,298.1,269.2,296.6,267.4L296.6,267.4z M280.3,270.7L280.3,270.7 c0,8.7,1.5,17.4,2.3,26c1.9-3.2,4.1-6.2,6-9.4c-1.9-5-3.4-10.5-3.1-17.7c-0.2,0-0.3,0-0.4,0C283.7,270.2,281.7,270.2,280.3,270.7 L280.3,270.7z M407.8,281.7L407.8,281.7c0-1.8-0.3-3.3-0.2-5.2c-0.8,0.4-2.4,0.7-3.1,0C405.5,278.4,406.6,280.1,407.8,281.7 L407.8,281.7z"></path> </svg>