<svg xmlns="http://www.w3.org/2000/svg" xmlns:xlink="http://www.w3.org/1999/xlink" id="Capa_2_00000079486502670565734720000005928182006458613638_" x="0px" y="0px" viewBox="0 0 1798.9 644.2" style="enable-background:new 0 0 1798.9 644.2;" xml:space="preserve"> <style type="text/css"> .st0{fill:#F2F2F2;} .st1{fill:#DBDCDB;} .st2{opacity:0.5;fill:#F3F2F3;} </style> <g id="Layer_1"> <g> <path class="st0" d="M-58.4,1350.9h-1781.8c0,0,7.8-10.8,18.1-25.6c11.2-16.2,25.4-37.1,35.6-54.1c19.5-32.4,59-53.1,70.2-63.4 c7.3-6.7,20.8-18,33.7-27.6c6.9-5.1,13.4-9.8,18.8-13c5.4-3.3,14-10.8,23.1-19.6l0.1-0.1c16.9-16.5,35.5-37.6,38-44.3 c3.9-10.3,6.7-19.8,15.7-26.5c3.5-2.7,6.9-5.9,10.7-9.1c5.7-4.8,12.6-9.7,22.8-12.7c17.1-5,21.2,2.8,34.7,19.2 c13.4,16.5,61.2,28,61.2,28l91.6-123l147.6-85.2c0,0,55.3-92,88.3-111.5c33-19.5,45.3-36,57.3-58.4c20.7-2.8,64.3,14.8,87.5,34.9 c23.2,20.1,45.5,49.2,64.3,66.2c18.7,17.1,73.5,42.2,73.5,42.2s55.6-45.5,68.7-45.2c13.1,0.2,27,3.7,47.5,14.5 c20.5,10.8,12.7,10.8,46.6,42.9c12,11.3,26.1,21.2,40.1,30c25.7,16.3,51.4,29.2,64.2,41.5c35.1,52.5,69.2,77.9,93.2,80.6 c5.8,0.6,11-0.1,15.5-2c23.1-10.1,84.2-46.2,84.2-46.2s60.3,69.3,69.7,77.1c9.3,7.8,21.6,3.4,23.1,18.7 c1.5,15.2,28.7,58.5,28.7,58.5s7.7,3.3,18.8,7.3c14.3,5.3,34.4,11.9,51.7,15.1c2.2,17.1,16.4,30.2,30.9,53.2 c14.5,23.1,33.5,29.5,57.8,66.7c0.3,0.4,0.6,0.9,0.8,1.3C-82.1,1318.1-58.4,1350.9-58.4,1350.9L-58.4,1350.9z"></path> <g> <path class="st1" d="M-656.3,1239.1c12.1-18.8,19.2-23.1,27.4-27.9c8.2-4.8,18.3-10.8,24-20.9c5.8-10.1,14.7-29.8,14.7-29.8 l-36.6,26.6l-25.8,28.9L-656.3,1239.1z"></path> <path class="st1" d="M-487.2,1031.7c-24-2.7-58.1-28.1-93.2-80.6c-12.8-12.3-38.5-25.2-64.2-41.5v0.1l27.3,52.2 c0,0-59.5-62.3-71-65.1c-4.5,14.8-3.9,33.8-3.9,33.8s10.1,6.2,13.7,25.2c3.6,19,13.1,38.3,13.1,38.3s-14-13.4-17.1-28.5 c-3-15.1-26-31.9-26.5-40.8c-0.6-9,7-35,3.6-44.7c-3.3-9.8-19-40.5-72.4-46.1c-14.5,7-38,22.3-53.9,33.5 c-15.9,11.2-27.9,27.1-36.8,37.7c-9,10.6-11.8,19-20.7,24c-9,5-69.3,31.6-76.6,36.3c-7.3,4.7-15.4,26-23.8,35.2 c-8.4,9.2-20.7,8.4-21.8,12.9c-1.1,4.5-16.5,22.9-21.2,39.1c-4.8,16.2-8.7,30.1-24.6,34.5c-15.9,4.4-42.1,40-46.7,48.7 c27.2-16.8,46.2-17.1,54.7-28.3c8.6-11.1,17.9-26.1,19.8-38c1.9-11.9,15.3-43.2,40.2-51.1v31.3c0,0,19.8-67.4,27.2-75.6 c7.5-8.2,76.4-34.6,76.4-34.6s-15.5,34.2-52.9,51c53.3-11.9,54.4-27.5,63-48s9-22.7,19.4-30.2c10.4-7.5,7.4-18.6,14.1-24.6 c6.7-5.9,42.9-32.1,56.3-35.8l-2.6,15.5c0,0,10.8,5.8,12.3,10.6c1.5,4.9,4.9,11.1,16,19.4c10.8,7.9,19.5,55.2,20.1,58.2 l-23.8-42.9l-9.3,13.1l-13.4-34.5c0.7,4.2,13,71.4,18.8,81.9c-1.4-1.9-12.1-16.9-15.2-17.5c-3.3-0.6-4.1,9.1-7.8,9.5 c-3.7,0.3-8.9-6.3-10.4-22c-1.4-15-15.2-27.2-16.3-28.3c0.5,1.3,8.9,23.5,8.1,36.5c-0.7,13.4-3,18.2-0.7,23.8 c2.2,5.6,10.8,3,12.7,9.3c1.8,6.2,31.9,107,33.8,113.3c-2.4-4.2-29.5-51.9-32.3-51.9s-16,20.5-16,24.6s10.8,7,11.1,14.1 c0.4,7.1-4.5,22-4.5,30.6c0,8.6,16.8,48.4,17.8,51c-1.5-2.1-21.8-29.9-27.9-53.2c-6.3-24.2-17.1-30.2-17.5-41.7 c-0.3-11.6-1.5-15.6-8.6-27.2c-7-11.5-12.2-20.8-12.2-30.5c-5.7,18.6,4.8,36.9,5.9,44.3c1.1,7.4-10,14.9-5.9,26.8 c4.1,11.9,10,4.3,14.1,24.3c4.1,20-3.4,32.3-2.2,53.5c1.1,21.2,5.9,46.6,24.2,58.2l11.9,32.7c-0.9-1.5-14.7-25-21.9-26.8 c-7.5-1.8-22.7-8.2-26-20.5c-3.4-12.3-9.7-32-19.8-45.4c11.1,38.7,5.2,58.5,9.7,69.3c4.5,10.8,18.3,8.6,18.3,8.6 s-1.9,20.5,5.2,28.7c7.1,8.2,10.8,7.4,10.8,7.4s-5.6,12.3,3,29.1c8.6,16.8,12.7,36.5,12.7,36.5s1.5-25.3,9.3-33.5 c7.8-8.2,23.9-19.4,29.4-38.7c5.6-19.4,3.8-25.3-3-27.6c-6.7-2.2-13.8-21.9-13.4-39.1c11.2,28.3,21.7,34.6,35.4,39.8l-6.7,66.7 c0,0,10.8-20.8,20.4-34.3c9.7-13.4,10.1-21.6,19.8-25c9.7-3.4,18.2-7.8,18.2-7.8s4.9,14.9,14.2,15.2c0,0,15.9,1.1,16.7-0.2 c0.7-1.3,4.3-7.9,4.3-7.9s-10.2-18.3-11-42.2s10.5-32.8-13.8-63c19,7.4,28.7,33.5,29.1,47.3c0.3,13.8,9.9,25.3,9.9,25.3 l24.2-25.3c0,0-16.2-17.9-23.3-40.2c-6.7-21.3-11.8-39.1-12.2-40.8c1.3,2.2,21.5,37.3,31.2,45.6c10.1,8.6,18.4,4.7,27.3,16.7 l8.7-7.2c0,0-21.2-61.3-20.1-61.3s35.8,30.5,35.8,30.5s6.5-33.9,26.2-44.9c19.7-11,70.7-51.4,70.7-51.4L-487.2,1031.7 L-487.2,1031.7z M-733.2,1016.3c-1.8-6.7-14-25.9-7.8-38.6c-1.7,9.1,11.9,31.5,16.4,36.5c4.5,5-10.8,24.6-10.4,29.6 c0.4,5,18.4,46.6,18.4,46.6s-34.1-34.1-33.2-43.8C-748.9,1036.9-731.4,1023-733.2,1016.3L-733.2,1016.3z M-736.7,1202.2 c-2.5,13.4-1.7,36.9-1.7,36.9s-15.9-26.5-7-45.5c8.9-19,14-24,14.2-31.2s-16.8-51.6-16.5-76.7c8.1,24.6,41.1,81.6,41.1,81.6 S-734.2,1188.8-736.7,1202.2L-736.7,1202.2z M-712.4,1003.2c0-7.5,7.3-33.2,5.9-44.4c3.9,14.5,5,38,6.2,43.3 c1.1,5.3,20.1,32.7,20.7,62.6C-689.5,1039.8-712.4,1010.8-712.4,1003.2L-712.4,1003.2z M-626.3,1060.2l-6.7,4.5l-27.7-57.3 l27.9,34.9h16.2c0,0,11.7,52.3,11.7,53.1C-604.8,1096.3-626.3,1060.2-626.3,1060.2L-626.3,1060.2z M-591.7,1011.8 c-1.4-1.3-5.3,2.9-13.1,1.8c-7.8-1.1-28.5-38.8-29.3-39.1c0,0,29.3,25.1,31.6,25.7s11.7-1.4,14.2-0.8s26.8,42.8,26.8,42.8 S-590.2,1013-591.7,1011.8L-591.7,1011.8z M-531.3,1049.3c-4.5,3.3-19.8-11.5-34.1-34.6C-556.7,1020.8-526.8,1046-531.3,1049.3z"></path> <path class="st1" d="M-1247.2,1192.7c35.8-9.5,80.3-29.2,87.8-37.1c7.5-7.8,21.1-32.8,36.7-43.6c15.5-10.8,66.1-33.8,66.1-33.8 l4.6-16.9c0,0-50.8,28.7-70.7,38.4c-19.9,9.7-38.5,41-48.6,49.9C-1181.5,1158.6-1247.2,1192.7-1247.2,1192.7L-1247.2,1192.7z"></path> <path class="st1" d="M-912.7,831.8c0,0-1.1,21.6,10.6,45.7c-21.8-24.3-32.8-66.1-32.8-66.1l-45.4-45.4c0,0-0.1,49.8,13.4,73.5 c-26-28.8-20.7-47.8-21.2-56.2s-23.8-31-23.8-31s5.6,22.6,10.9,30.5c-12.3-17.9-34.6-52.4-64-47.5c-5,0.8,0,12,4.2,16.5 c4.2,4.5,9.5,10.3,10.1,18.2c0.6,7.8,10.6,23.8,10.6,23.8s-12.3-11.2-16.8-20.1c-4.5-8.9-14.8-21.2-18.7-18.7 c-3.9,2.5-30.2,21.2-38.3,24.3s-50.3,36.6-50.3,36.6s-39.1,71-40.2,81.6s-29.1,42.2-37.2,53.9c-8.1,11.7-17.9,40.5-24,55.9 c-6.2,15.4-41.4,73.8-41.4,73.8l27.4-29.6c0,0,6.4,8.9,9.2,14c2.8,5-15.7,41.9-30.5,55.4c-14.8,13.6-91.2,56.1-91.2,56.1 c40.4-14.8,92.9-34.4,102.1-46.1s35.5-59,35.5-67.1c0-8.1-13.8-11.7-14.7-21.8c-0.9-10.1,11.7-15.3,12.8-27.8 c1.1-12.5,25.5-69.9,50.1-93.7c3.7,17.1,1.3,56.5,1.3,56.5s19.2-60.7,19.8-101c32.1-45.3,43.3-43.9,54.8-59.8 c11.5-15.9,22.9-17.9,33.8-25.1c10.9-7.3,21.5-12.3,29.6-9.5s16.2,13.1,15.4,24.3c-0.8,11.2,14,49.5,14,49.5 s-12.7-16.9-16.9-25.1s-7.1-2.8-11.6,1.5c-4.5,4.3-12.8,12.5-16.9,12.1s-13-25-16.2-24.6c-3.2,0.4,0.2,25.1,4.5,32.2 c4.3,7.1,12.1,17.7,10.8,25c-1.3,7.3,8.8,38.2,8.8,38.2s-15.8-21.6-19.9-34.5c0,0-7.8,11.7-10.4,11.9 c-2.6,0.2-19.2-31.3-19.2-31.3s0.6,23.9,1.5,31.1c0.9,7.3,8,11.2,8.9,13.4c0.9,2.2-2.6,17.9,0.9,25.5 c3.5,7.6,13.8,30.5,13.8,30.5l5.2-39.3c0,0,34.8-1.1,40.2,4.5c5.4,5.6-0.8,18.4,5.4,31.3c6.2,12.8,20.9,44.2,12.1,47.5 c-9.3,3.5-11.4-4.5-20.9-23.9c-7.5,6.9-25.3,26.1-25.3,26.1l12.1,36.5c0,0-18.8-11.7-32.8-36c-14-24.2-20.7-30.2-20.7-30.2 s10.6,29.4,14,45.5c3.3,16-7.8,46.4-7.8,46.4l70.4-27.4l23.3-23.5l30.2-36l14.3-20l18.1-10.3l-29.6-58l33.9,37.3l-6.3-26.1 l27.2,31.7l22.4-11.5l-39.1-62.6c0,0,42.8,40.6,49.2,44c6.3,3.4,31.5-14.7,31.5-14.7l19.2-27.7L-912.7,831.8L-912.7,831.8z M-947.5,899.8c0,0-21-25.2-29.1-28.7c-8-3.5-18.3-0.6-20.7-3.7c-2.4-3.2-12.1-18.8-21.4-47.1c0,0,21.6,30.4,25.5,36 c3.9,5.6,12.3-3.2,20.7,5.6C-964.1,870.6-947.5,899.8-947.5,899.8L-947.5,899.8z"></path> <path class="st1" d="M-1518.3,1201.1c43.6-29.1,69.3-67.6,92.8-98.9c23.5-31.3,67.6-97.8,73.8-104c6.1-6.2,71.3-46.7,71.3-46.7 s-20.1,53.7-22.6,80.8l40.5-74.1l31.9-54.2l-84,45.6c0,0-23,27.7-31.4,31.3s-13.7,8.7-18.4,16.5c-4.8,7.8-64.5,70.2-64.5,70.2 L-1518.3,1201.1L-1518.3,1201.1z"></path> <path class="st1" d="M-1678.9,1181.3c0,0-44,66.7-62.6,73.4c-18.6,6.7-22.7,18.3-76,77.1l-4.7-6.6c11.2-16.2,25.4-37.1,35.6-54.1 c19.5-32.4,59-53.1,70.2-63.4c7.3-6.7,20.8-18,33.7-27.6L-1678.9,1181.3L-1678.9,1181.3z"></path> <path class="st1" d="M-1472.9,1102.2c0,0-31.8,49-48.4,69.8c-16.6,20.9-46.2,36.7-65.8,44.6c-19.5,7.8-54,29-54,29 s14.7-19.1,27.7-31.5c13.1-12.3,25.4-12.8,28.7-15.2c3.3-2.4,3.7-4.9,7.8-11.9c4.1-7.1,5.1-12.5,6-18.8 c0.9-6.3,23.5-25.9,28.1-33.1c4.7-7.3,1.3-11.8-3-14.2c-4.3-2.5-16-4.6-20.1-7.4c-4.1-2.8,0.3-12.3,4.3-17.9 c3.9-5.6,8.4-17,5.2-17.1c-12.5-0.7-27.9,26.8-29.4,38.4c-1.5,11.5-18.8,23.1-29.6,30.7c-10.9,7.7-25.2,35.8-32.6,46 c-7.5,10.3-12.1,30.2-20.1,33.9c-8,3.7-19.9,21.4-24.1,30.2c-4.1,8.7-8.4,20.3-40.4,23.3c10.7-2.2,28.7-17.4,31.8-24.8 c3.1-7.4,14.6-30.1,21.9-35.1s13-18.2,21.1-33.2c7.9-14.6,16.4-38.6,17-40.1l0.1-0.1c16.9-16.5,35.5-37.6,38-44.3 c3.9-10.3,6.7-19.8,15.6-26.5c3.5-2.7,6.9-5.9,10.7-9.1l12.4,0.3c11.7,5.9,17.1-1.9,23.1,0c5.9,1.8,12.9,41,36.2,54.7 c-16.4-20.4-15.9-41.5-15.9-41.5L-1472.9,1102.2L-1472.9,1102.2z"></path> <path class="st1" d="M-1619.3,1317.7c42.5-10.8,115.1-48.1,120-54c4.8-6,40.2-62.7,65.6-89.5c-46.6,26.5-73.4,72.7-77.1,80.2 C-1514.6,1261.8-1604.8,1306.9-1619.3,1317.7z"></path> <path class="st1" d="M-1329.5,1017.6c2.2,3.1-5,16.2-7.7,18.7c-2.6,2.5-14.9,5.9-17.2,12.9c-2.2,7-37.7,45.7-37.7,45.7 s27.8-51.7,33.7-60.1S-1330.2,1016.6-1329.5,1017.6L-1329.5,1017.6z"></path> <path class="st1" d="M-1165.5,955.8c-2.6,22.1-5.6,71.3-6.3,81.6s-36.9,31.5-42.1,39.3c-5.2,7.8-21.6,59.2-21.6,59.2 s5.6-53.3,14.9-66.3c9.3-13,34.7-25.3,38.4-41.4C-1178.5,1012.2-1165.4,955.8-1165.5,955.8L-1165.5,955.8z"></path> <path class="st1" d="M-919.7,1027.3c-35.8,19.6-46.6,25-52.2,34.1c-5.6,9.1-3.9,18.1-6.2,25.8c-2.2,7.7-9.7,23.2-9.5,28.8 c0,0-38.8,24-57.4,58.5c18.6-18.6,41.7-39.1,53.7-44c11.9-4.8,21.2-18.1,24-35.6c2.8-17.5,1.7-23.8,5.8-27.9 C-957.4,1062.9-919.7,1027.3-919.7,1027.3L-919.7,1027.3z"></path> <path class="st1" d="M-106.1,1281.3l-4.7,15.1c0,0-33.7-26.4-37.8-29.2c-4.1-2.8-4.6-9.9-17.5-18.6c-12.2-8.3-25.5-21.6-26.9-23 c0.9,1.7,8.9,15.3,19.7,29.3c11.5,14.8,14.5,40.2,11.9,40.6c-2.6,0.4-15.1-3.1-20.7-8c-5.5-4.9-25.9-41-34.8-45.8 c-9-4.9-14-9.7-30.4-32.6c9.7,25,26.1,37.8,27.6,41.9c1.5,4.1,0,12.1,0,12.1l-8.3-2.9c0.9,1.7,15.8,28.4,27.3,43.5 c11.9,15.7,12.1,5.6,22.4,14.3c10.2,8.7,20.7,23,20.7,23s-18.3-14.3-25-18.7c-6.7-4.5-13.2-3.5-17.9-6.2 c-4.7-2.6-7.1-9.1-17.4-19c-10.2-9.9-30.8-27.4-34.3-36.2c-3.5-8.8-20.8-28.3-29.1-34.9c-8.2-6.6-18.8-17.3-18.8-17.3 s1,4.3,6.6,10.7c5.5,6.4,1.9,14.7,5.4,28.1c3.3,12.5,16.6,25.1,18.3,26.6c-1.8-1.4-15.8-12.9-18.8-16c-3.2-3.3-6.7-0.7-12.8-9.8 c-6.1-9.1,0.9-17.3-4.6-20.2c-5.5-3-11.2-18.2-12.8-25.6c-1.7-7.4,8.2-18.7,2.7-26.6c-5.4-7.8-24.6-42.8-25.5-43.3 c-1-0.4,14.8,49.1,14.8,49.1s-4.3,7.3-7,14.5c-2.7,7.3-2.8,21.7-2.8,21.7s-7.5-14.8-11.9-18.7c-4.3-3.9-11.2-1.7-15.9-3.5 c-4.7-1.8-37.1-29.6-37.1-29.6s27.7,35.3,33.4,39.5c5.7,4.2,6.7-1.9,11.9,2.3c5.2,4.3,13.1,26.3,20.8,36.2 c7.7,9.9,2.8,17.6,11.8,29.8c8.9,12.2,13.9,11.4,20.4,17.3c6.4,5.9,3.8,13.4,5.3,23.3c1.5,9.5,17.2,25.2,18.4,26.4 c-1.8-0.8-29.4-13.9-33.5-17.4c-4.2-3.7-0.9-9-7.3-14.5c-6.5-5.6-22.1-14.8-30.3-24.6s-12.2-24.2-13.8-31.4 c-1.7-7.3-6.3-8.5-9.9-14.4c-3.6-5.9-1.8-11.2-5.1-14.7c-3.3-3.5-13.9-8.8-13.9-8.8s9.9,8.7,10.9,13.1c1,4.5-0.5,7.8,2,12 c2.5,4.2-0.2,7.3-1.3,11.8c-1.1,4.5,2.1,20,2.1,20s-20,2.7-28.1,6.8c-8.1,4.1-19,16.8-22.2,16.5c-3.2-0.3-25-14.7-27.1-14.1 c-2.1,0.6-2.8,4.1,2.5,10.1s15.1,21.1,9.7,24.7c-5.4,3.6-18.7,21.7-28.2,21.1c-4.7-1.8-0.1-22.6,0.1-27.1 c0.2-4.5-3.5-7.5-11.4-22.2c-7.8-14.7-11.8-44.6-11.8-44.6l17.7,20.9l24.4-14c0,0-16.2-15.1-20.8-18.8c-4.6-3.8-11,7.4-17.1,0.9 c-6-6.3-17.7-35-18.4-36.8c1.4,1.5,23.3,25.5,24.6,26.7c1.3,1.3,5.2-0.6,10.2-1.9c5-1.3,20.1,14.2,27.2,21.7 c7.1,7.4,40.2,24.9,40.2,24.9s-4.1-9.1-13.6-19.5c-9.2-10.1-22.2-34.3-23-35.9l22.7,17.1l5.2-14.6c-11.5-4.3-27.8-23.7-33.3-28.3 c-5.4-4.5-28.8-0.1-30.8,0.3l24.3-23c0,0-8-15.8-14.5-30.6c0.9,0,54.4,52.3,54.4,52.3l-19-32.2l21.4-19.5 c0,0-16.2-21.6-11.2-24.1c4.9-2.3,49.7,40.7,52.4,43.3c-1.7-2.9-33.1-55.1-38.8-70.5c-5.6-14.8-13.7-33.6-14.6-35.9 c1.7,2.3,24.3,32.6,41.1,48.2c-17.5-27.5-17-47.9-16-57.7c0.9-9.9,7.1-21.6,2.2-23.1c-4.9-1.5-11.2,9.3-29.7,17.9 c-18.4,8.6-31.1,11.5-36.3,18.6c-5.2,7.1-16.6,19.8-23.2,27c-6.7,7.3-5.8,11-6,17.9c-0.2,6.7-26.6,27-28.2,28.3 c1.3-1.4,23.4-25,21-32c-2.4-7.3,4.7-17.9,4.7-17.9s-35.2,20.3-41.4,25.5c-6.2,5.2-21.1,25.3-24.2,37.4s-3,30.4-4.7,40.5 c-1.7,10.1-18.1,27.2-29,57c1.7-15.5,10.1-38.4,14.2-47.5c4.1-9.1,2.6-13.4,2.7-21.6c0.2-8.2,5.4-29.2,10.6-37.5 c5.3-8.2,8.1-19.5,18.1-27.2c10.1-7.6,46.7-29.6,55.1-35.2c8.4-5.6,14.2-11.2,19.5-18c5.3-6.7,34.4-19.2,47-25.7 c12.6-6.4,27.4-22.3,34.9-22.3s44.3,49.8,48.4,59.1c4.1,9.3,16.4,31.5,23.1,43.8c6.7,12.3,3,20.4,3,28.7s21.4,25.7,22.7,26.7 c-0.9-1.3-14.7-22.3-14.3-28.8c0.3-6.7,4.1-19.4-3.5-32.4c-7.7-13-11.5-27.4-11.5-27.4s11.5,6.2,17.5,11.2 c6,5,3.7,18.8,21.1,45.2c17.3,26.5,22,49.9,28.7,56.5c6.7,6.5,11.9,3.4,26.8,16.4c14.4,12.6,34.2,42.6,35.4,44.4 c-1.1-2.6-19.9-44.9-26.8-53.9c-7-9.3-24.2-19.8-25.7-30.9c-0.3-2.7,0.8-7.1,2.8-12.1c14.3,5.3,34.4,11.9,51.7,15.1 c2.2,17.1,16.4,30.2,30.9,53.2c14.5,23.1,33.5,29.5,57.8,66.7C-106.6,1280.5-106.3,1280.9-106.1,1281.3L-106.1,1281.3z"></path> <path class="st1" d="M-540.6,1198.3c-0.4,19.8,1.1,39.3-8.9,51.8c-10.1,12.5-34.8,17.4-37.9,22.4c-3.1,5-4.8,15.5-10.5,16.8 c4.5-8.4-0.3-14.2,4.5-19.4c4.8-5.2,36.2-14,41.8-27.7C-546.1,1228.5-540.6,1198.3-540.6,1198.3L-540.6,1198.3z"></path> </g> <g> <path class="st0" d="M-58.4,1359.4h-1781.8c-3.2,0-6.2-1.8-7.6-4.7c-1.5-2.9-1.2-6.3,0.7-8.9c0,0,7.8-10.8,18-25.5 c10.4-15,25-36.5,35.3-53.6c15.2-25.3,41.2-43.4,58.4-55.4c5.7-4,10.7-7.5,13.3-9.8c8-7.4,22.2-19,34.4-28.2 c8-6,14.4-10.4,19.5-13.5c4.4-2.6,12.2-9.3,21.5-18.4c19.6-19.2,34.4-37.2,36-41.2l1.2-3.1c3.6-9.7,7.3-19.7,17.4-27.2 c2.1-1.6,4.2-3.5,6.4-5.4c1.3-1.1,2.5-2.2,3.9-3.4c6.1-5.1,13.9-10.8,25.9-14.4c21-6.2,29.1,3.9,40.3,17.8l3.4,4.2 c7.6,9.4,33.4,18.8,51.1,23.7l88.2-118.4c0.7-0.9,1.6-1.7,2.6-2.3l145.7-84.1c8.4-13.8,58-93.5,90.1-112.6 c30.4-18,42.1-32.7,54.1-55.1c1.3-2.4,3.7-4.1,6.4-4.4c25.1-3.4,71.3,17,94.2,36.9c13.2,11.4,25.7,25.2,37.8,38.6 c9.5,10.5,18.5,20.4,26.6,27.8c14.4,13.2,53,32.1,66.5,38.5c22.1-17.9,56.8-44.2,70.2-43.8c15.9,0.3,31.2,4.9,51.3,15.5 c12.7,6.7,15.9,9.9,23.3,18.3c4.5,5.1,11.3,12.8,25.2,25.9c10,9.4,22.3,18.7,38.8,29c8.3,5.2,16.5,10.1,24.4,14.8 c17.1,10.1,31.8,18.8,41.2,27.8c0.4,0.4,0.8,0.9,1.2,1.4c30.4,45.4,62.9,74.2,87.1,76.9c4.3,0.5,8,0,11.2-1.3 c22.3-9.7,82.6-45.4,83.2-45.7c3.6-2.1,8.1-1.4,10.8,1.8c24.1,27.7,62.2,70.8,68.7,76.2c2.1,1.8,4.8,2.6,7.8,3.6 c6.7,2.2,16.8,5.5,18.3,20.8c0.8,8.7,15.2,35.1,26,52.4c3.1,1.2,8.8,3.5,15.9,6.1c13.7,5,33.6,11.7,50.3,14.7 c3.7,0.7,6.5,3.6,7,7.3c1.2,9.5,7.4,18.1,16,29.9c4.2,5.8,8.9,12.3,13.7,19.9c5.9,9.4,12.9,16,20.9,23.6 c10.7,10.1,22.9,21.6,36.8,43c0.2,0.3,0.7,1,1,1.7c23.3,35.7,46.9,68.5,47.2,68.8c1.9,2.6,2.1,6.1,0.7,8.9 S-55.2,1359.5-58.4,1359.4L-58.4,1359.4z M-1823.6,1342.3H-75c-9.2-13-23.7-34-38.2-56.3c-0.4-0.6-0.5-0.8-0.6-1 c-13-20-24.4-30.7-34.4-40.2c-8.5-8.1-16.6-15.6-23.6-26.9c-4.4-7.1-8.8-13.1-13-18.9c-7.9-10.9-14.8-20.5-17.9-31.6 c-16.5-3.6-34.5-9.6-47.3-14.3c-11.2-4.1-18.9-7.3-19.2-7.5c-1.6-0.7-3-1.8-3.9-3.3c-4.7-7.5-28.3-45.7-30-62.2 c-0.4-4.2-0.9-4.3-6.5-6.2c-3.9-1.3-8.9-2.9-13.5-6.8c-8.3-7-50.9-55.5-66-72.7c-16.2,9.5-59.8,34.7-79,43.1 c-5.9,2.6-12.6,3.5-19.9,2.7c-29.4-3.3-65.4-33.7-98.9-83.6c-8-7.4-21.7-15.5-37.4-24.8c-8.1-4.8-16.4-9.7-24.8-15 c-17.4-11-30.6-20.8-41.4-31.1c-14.4-13.6-21.6-21.7-26.3-27c-6.4-7.2-7.9-8.9-18.5-14.5C-752.9,835-766,831-779,830.8 c-7,0.8-38.4,23-63.2,43.3c-2.5,2.1-6,2.5-9,1.2c-2.3-1.1-56.2-25.9-75.7-43.7c-8.7-7.9-18-18.1-27.8-28.9 c-11.8-13-24-26.4-36.3-37.1c-19.8-17.1-57-33-76.6-33.1c-12.6,22.4-26.4,38.7-58.2,57.5c-25.5,15.1-70.2,83.5-85.3,108.6 c-0.8,1.2-1.8,2.3-3.1,3l-146,84.3l-90.6,121.6c-2.1,2.8-5.5,4-8.9,3.2c-5.2-1.2-51.1-12.7-65.8-30.9l-3.5-4.3 c-10.9-13.6-12.4-15-22.1-12.1c-8.9,2.6-14.8,6.9-19.7,11c-1.2,1-2.4,2.1-3.6,3.2c-2.5,2.2-5,4.4-7.5,6.2 c-6,4.5-8.5,11.1-11.6,19.5l-1.2,3.2c-4,10.7-30.3,37.8-40,47.4c-7.4,7.2-17.7,16.7-24.8,20.9c-4.6,2.7-10.7,6.9-18.1,12.5 c-11.8,8.8-25.4,19.9-33,27c-3.4,3.2-8.6,6.8-15.1,11.3c-16,11.2-40.2,28.1-53.6,50.2c-10.6,17.5-25.3,39.3-35.9,54.5 C-1818.2,1334.6-1821.1,1338.8-1823.6,1342.3L-1823.6,1342.3z"></path> <path class="st0" d="M-749.7,1356.7l-12.5-11.7c0.6-0.6,55.9-59.8,72.3-80c11-13.5,16-25.9,20.8-37.9c2.2-5.3,4.2-10.3,6.7-15.3 c5.6-11.3,24.3-26.7,46.2-44.2c6.2-5,13.3-10.6,14.7-12.2c1.3-1.8,4.7-10.3,7.4-17.1c6.4-16.2,15.2-38.4,26.4-53 c0.9-1.2,2.2-2.2,3.6-2.7c19.7-7.9,38.8-23.5,55.7-37.3c13.6-11.1,24.4-19.9,33.7-23.5l6,16c-6.7,2.5-17.5,11.3-28.9,20.7 c-16.4,13.4-36.6,30-57.9,39.1c-9.2,12.8-17,32.5-22.8,47.1c-4.9,12.3-7.4,18.4-10.2,21.8c-2.3,2.7-7.4,6.9-17.1,14.6 c-13.9,11.1-37.2,29.7-41.6,38.5c-2.2,4.4-4.1,9.1-6.1,14.1c-5.1,12.5-10.8,26.8-23.4,42.3 C-693.4,1296.4-747.4,1354.2-749.7,1356.7L-749.7,1356.7z"></path> <path class="st0" d="M-1292.6,1356.2l-13.3-10.8l135.8-168.2c1.2-1.7,37.4-52.1,77.9-78.9c27-17.9,30.4-26.9,35.5-40.4 c2-5.3,4.3-11.3,8-18.4c11.8-22.6,21.4-30.9,31.7-39.7c2.1-1.8,4.2-3.6,6.5-5.7c4-3.7,5.7-8,7.8-13.5c3.1-8.2,7-18.4,20.3-26.6 c17.5-10.8,72.5-37,84.2-42.5c5.4-7.9,26-36.7,45.4-51l10.2,13.8c-19.8,14.6-42.4,48.4-42.7,48.7c-0.9,1.3-2.1,2.3-3.5,3 c-0.7,0.3-66.3,31.2-84.7,42.6c-8.3,5.1-10.5,10.9-13.3,18.1c-2.4,6.4-5.2,13.6-12.2,20c-2.4,2.2-4.6,4.1-6.8,6 c-9.7,8.4-17.4,15-27.7,34.7c-3.3,6.2-5.2,11.5-7.2,16.5c-6.5,17.2-12,28.7-42.1,48.7c-37.9,25.1-73.4,74.5-73.8,75 L-1292.6,1356.2L-1292.6,1356.2z"></path> <path class="st0" d="M-1555,1356.5l-13-11.2l145.3-168.4c26.8-27.4,97.8-103.4,108.9-129.6c14.2-33.6,55.4-104.5,57.1-107.5 c0.5-1,16-29.6,33.3-54.1l14,9.9c-16.8,23.7-32.2,52.2-32.3,52.5c-0.6,1-42.5,73.2-56.3,105.8 c-14.6,34.6-108.1,130.5-112.1,134.6L-1555,1356.5L-1555,1356.5z"></path> <path class="st0" d="M-1690.5,1357.4l-11.1-13c1.2-1.1,124.8-106.4,157.2-137.7c31.8-30.8,66.1-87.1,79-108.3l0.4-0.6l14.6,8.9 l-0.4,0.6c-13.2,21.7-48.3,79.4-81.7,111.7C-1565.3,1250.7-1685.4,1353-1690.5,1357.4L-1690.5,1357.4z"></path> </g> </g> </g> <g> <path class="st0" d="M1310.6,344.1v276.8h-293.4l-72-137.7l-7.1-13.7l-63.8-122l32.8-46.3h60.2v26.3h61.4l13.4-48.6 C1042.2,278.9,1254,291.5,1310.6,344.1z"></path> <g> <g> <g> <path class="st1" d="M1080.1,554.6c0,21.1,10.6,38.2,23.7,38.2c13.1,0,23.8-17.1,23.8-38.2c0-21.1-10.6-38.2-23.8-38.2 C1090.7,516.4,1080.1,533.5,1080.1,554.6z"></path> <rect x="1080.1" y="555.4" class="st1" width="47.5" height="65.5"></rect> </g> <g> <path class="st1" d="M1258.2,570.1c0,16.2,8.1,29.3,18.2,29.3c10,0,18.2-13.1,18.2-29.3c0-16.2-8.2-29.3-18.2-29.3 C1266.3,540.8,1258.2,553.9,1258.2,570.1z"></path> <rect x="1258.2" y="570.7" class="st1" width="36.4" height="50.2"></rect> </g> <g> <path class="st1" d="M1201.2,562.8c0,18.5,9.3,33.5,20.8,33.5c11.5,0,20.8-15,20.8-33.5c0-18.5-9.3-33.5-20.8-33.5 C1210.5,529.3,1201.2,544.3,1201.2,562.8z"></path> <rect x="1201.2" y="563.5" class="st1" width="41.6" height="57.4"></rect> </g> <g> <path class="st1" d="M1146,559.6c0,19.5,9.8,35.3,22,35.3c12.1,0,22-15.8,22-35.3c0-19.5-9.8-35.3-22-35.3 C1155.8,524.3,1146,540.1,1146,559.6z"></path> <rect x="1146" y="560.3" class="st1" width="43.9" height="60.6"></rect> </g> </g> <g> <path class="st1" d="M1200.9,434.8c0,18.8,9.5,34,21.1,34c11.7,0,21.1-15.2,21.1-34c0-18.7-9.5-34-21.1-34 C1210.4,400.8,1200.9,416.1,1200.9,434.8z"></path> <path class="st1" d="M1243.1,435.6v58.2h-2c-13.3-1.7-26.8-3.2-40.2-4.7v-53.5H1243.1z"></path> </g> <g> <path class="st1" d="M1258.4,456.3c0,16.1,8.1,29.1,18.1,29.1c10,0,18.1-13.1,18.1-29.1c0-16.1-8.1-29.1-18.1-29.1 C1266.5,427.2,1258.4,440.2,1258.4,456.3z"></path> <path class="st1" d="M1294.6,456.9V501c-12-1.8-24.1-3.5-36.2-5v-39.1H1294.6z"></path> </g> <g> <path class="st1" d="M1134.9,419.7c0,21.4,10.8,38.9,24.1,38.9c13.3,0,24.2-17.4,24.2-38.9c0-21.4-10.8-38.9-24.2-38.9 C1145.7,380.8,1134.9,398.3,1134.9,419.7z"></path> <path class="st1" d="M1183.2,420.5v66.6h-0.5c-16-1.7-32-3.2-47.9-4.7v-61.9H1183.2z"></path> </g> <g> <path class="st1" d="M1070.8,409.3c0,22.6,11.4,41,25.5,41c14.1,0,25.5-18.4,25.5-41c0-22.6-11.4-41-25.5-41 C1082.2,368.3,1070.8,386.7,1070.8,409.3z"></path> <path class="st1" d="M1121.7,410.2v70.3h-10.4c-13.6-1.1-27.2-2.2-40.5-3.2v-67.1H1121.7z"></path> </g> <rect x="1148.7" y="315.1" transform="matrix(-1 -1.224647e-16 1.224647e-16 -1 2318.0049 663.1328)" class="st1" width="20.7" height="33"></rect> <rect x="1270.3" y="364.3" transform="matrix(-1 -1.224647e-16 1.224647e-16 -1 2552.9375 748.3112)" class="st1" width="12.3" height="19.6"></rect> </g> <path class="st0" d="M993.9,457.5h-19.4L916,299.7h-24.4l-55.1-152.8l-15.8,1.2l-20.3-55.1L763.7,8.6 c-313.1,59.9-390,183.1-390,183.1v192.4H367v148.9V580v40.9h703.6L993.9,457.5z"></path> <path class="st2" d="M838.7,139.5V153c-74.1,7.1-292.5,35.7-465.3,134.9c-2.2,1.2-4.3,2.5-6.5,3.7v-15.3c2.1-1.3,4.3-2.5,6.5-3.7 C548.2,174.7,765.6,146.5,838.7,139.5z"></path> <rect x="657" y="82.9" class="st2" width="22.8" height="36.4"></rect> <rect x="523.4" y="137.5" class="st2" width="15.7" height="25"></rect> <rect x="406.5" y="197.2" class="st2" width="14.7" height="23.5"></rect> <g> <g> <path class="st1" d="M994.8,538c0,26.4-15.1,47.8-33.7,47.8c-18.6,0-33.7-21.4-33.7-47.8c0-26.4,15.1-47.8,33.7-47.8 C979.7,490.2,994.8,511.6,994.8,538z"></path> <rect x="927.4" y="539" class="st1" width="67.4" height="81.9"></rect> </g> <g> <path class="st1" d="M912.3,539.7c0,25.8-13,46.8-29.1,46.8c-16.1,0-29.1-21-29.1-46.8c0-25.8,13-46.8,29.1-46.8 C899.3,492.9,912.3,513.9,912.3,539.7z"></path> <rect x="854.1" y="540.7" class="st1" width="58.2" height="80.2"></rect> </g> <g> <path class="st1" d="M841,539.7c0,25.8-13,46.8-29.1,46.8c-16.1,0-29.1-21-29.1-46.8c0-25.8,13-46.8,29.1-46.8 C828,492.9,841,513.9,841,539.7z"></path> <rect x="782.9" y="540.7" class="st1" width="58.2" height="80.2"></rect> </g> <g> <path class="st1" d="M768.8,541c0,25.4-12.8,46.1-28.6,46.1c-15.8,0-28.6-20.6-28.6-46.1c0-25.4,12.8-46.1,28.6-46.1 C756,494.9,768.8,515.6,768.8,541z"></path> <rect x="711.6" y="542" class="st1" width="57.2" height="78.9"></rect> </g> <g> <path class="st1" d="M695.5,544c0,24.5-12.3,44.3-27.5,44.3c-15.2,0-27.6-19.9-27.6-44.3c0-24.5,12.3-44.3,27.6-44.3 C683.1,499.6,695.5,519.5,695.5,544z"></path> <rect x="640.4" y="544.9" class="st1" width="55.1" height="76"></rect> </g> <g> <path class="st1" d="M488.9,561.9c0,18.8-9.5,34-21.1,34c-11.7,0-21.1-15.2-21.1-34c0-18.7,9.5-34,21.1-34 C479.4,528,488.9,543.2,488.9,561.9z"></path> <rect x="446.7" y="562.7" class="st1" width="42.2" height="58.3"></rect> </g> <g> <path class="st1" d="M431.5,570.1c0,16.1-8.1,29.1-18.1,29.1c-10,0-18.1-13.1-18.1-29.1c0-16.1,8.1-29.1,18.1-29.1 C423.4,540.9,431.5,554,431.5,570.1z"></path> <rect x="395.3" y="570.7" class="st1" width="36.2" height="50"></rect> </g> <g> <path class="st1" d="M555,553.5c0,21.4-10.8,38.9-24.1,38.9c-13.3,0-24.2-17.4-24.2-38.9c0-21.4,10.8-38.9,24.2-38.9 C544.2,514.6,555,532,555,553.5z"></path> <rect x="506.7" y="554.3" class="st1" width="48.3" height="66.6"></rect> </g> <g> <path class="st1" d="M619,549.8c0,22.6-11.4,41-25.5,41c-14.1,0-25.5-18.4-25.5-41c0-22.6,11.4-41,25.5-41 C607.6,508.8,619,527.2,619,549.8z"></path> <rect x="568.1" y="550.6" class="st1" width="50.9" height="70.3"></rect> </g> </g> <g> <path class="st1" d="M912.7,371.7c0,25.8-13,46.8-29.1,46.8c-16.1,0-29.1-21-29.1-46.8c0-25.8,13-46.8,29.1-46.8 C899.7,324.9,912.7,345.9,912.7,371.7z"></path> <rect x="854.5" y="372.7" class="st1" width="58.2" height="80.2"></rect> </g> <g> <path class="st1" d="M841.5,377.3c0,25.8-13,46.8-29.1,46.8c-16.1,0-29.1-21-29.1-46.8c0-25.8,13-46.8,29.1-46.8 C828.5,330.4,841.5,351.4,841.5,377.3z"></path> <rect x="783.3" y="378.2" class="st1" width="58.2" height="80.2"></rect> </g> <g> <path class="st1" d="M769.3,379.7c0,25.4-12.8,46.1-28.6,46.1c-15.8,0-28.6-20.6-28.6-46.1c0-25.4,12.8-46.1,28.6-46.1 C756.5,333.7,769.3,354.3,769.3,379.7z"></path> <rect x="712.1" y="380.7" class="st1" width="57.2" height="78.9"></rect> </g> <g> <path class="st1" d="M695.9,389.4c0,24.5-12.3,44.3-27.5,44.3c-15.2,0-27.6-19.9-27.6-44.3c0-24.5,12.3-44.3,27.6-44.3 C683.6,345,695.9,364.9,695.9,389.4z"></path> <rect x="640.8" y="390.3" class="st1" width="55.1" height="76"></rect> </g> <g> <path class="st1" d="M489.3,427.3c0,18.8-9.5,34-21.1,34c-11.7,0-21.1-15.2-21.1-34c0-18.7,9.5-34,21.1-34 C479.9,393.3,489.3,408.6,489.3,427.3z"></path> <rect x="447.1" y="428" class="st1" width="42.2" height="58.3"></rect> </g> <g> <path class="st1" d="M431.9,448.8c0,16.1-8.1,29.1-18.1,29.1c-10,0-18.1-13.1-18.1-29.1c0-16.1,8.1-29.1,18.1-29.1 C423.8,419.7,431.9,432.7,431.9,448.8z"></path> <rect x="395.7" y="449.4" class="st1" width="36.2" height="50"></rect> </g> <g> <path class="st1" d="M555.4,412.2c0,21.4-10.8,38.9-24.1,38.9c-13.3,0-24.2-17.4-24.2-38.9c0-21.4,10.8-38.9,24.2-38.9 C544.6,373.3,555.4,390.8,555.4,412.2z"></path> <rect x="507.1" y="413" class="st1" width="48.3" height="66.6"></rect> </g> <g> <path class="st1" d="M619.5,401.8c0,22.6-11.4,41-25.5,41c-14.1,0-25.5-18.4-25.5-41c0-22.6,11.4-41,25.5-41 C608.1,360.8,619.5,379.2,619.5,401.8z"></path> <rect x="568.5" y="402.7" class="st1" width="50.9" height="70.3"></rect> </g> <g> <path class="st1" d="M841.5,218.3c0,25.8-13,46.8-29.1,46.8c-16.1,0-29.1-21-29.1-46.8c0-25.8,13-46.8,29.1-46.8 C828.5,171.5,841.5,192.5,841.5,218.3z"></path> <rect x="783.3" y="219.3" class="st1" width="58.2" height="80.2"></rect> </g> <g> <path class="st1" d="M769.3,226.3c0,25.4-12.8,46.1-28.6,46.1c-15.8,0-28.6-20.6-28.6-46.1c0-25.4,12.8-46.1,28.6-46.1 C756.5,180.3,769.3,200.9,769.3,226.3z"></path> <rect x="712.1" y="227.3" class="st1" width="57.2" height="78.9"></rect> </g> <g> <path class="st1" d="M695.9,242.6c0,24.5-12.3,44.3-27.5,44.3c-15.2,0-27.6-19.9-27.6-44.3c0-24.5,12.3-44.3,27.6-44.3 C683.6,198.3,695.9,218.2,695.9,242.6z"></path> <rect x="640.8" y="243.6" class="st1" width="55.1" height="76"></rect> </g> <g> <path class="st1" d="M489.3,293.9c0,18.8-9.5,34-21.1,34c-11.7,0-21.1-15.2-21.1-34c0-18.7,9.5-34,21.1-34 C479.9,260,489.3,275.2,489.3,293.9z"></path> <rect x="447.1" y="294.7" class="st1" width="42.2" height="58.3"></rect> </g> <g> <path class="st1" d="M431.9,322.1c0,16.1-8.1,29.1-18.1,29.1c-10,0-18.1-13.1-18.1-29.1c0-16.1,8.1-29.1,18.1-29.1 C423.8,292.9,431.9,306,431.9,322.1z"></path> <rect x="395.7" y="322.7" class="st1" width="36.2" height="50"></rect> </g> <g> <path class="st1" d="M555.4,272.1c0,21.4-10.8,38.9-24.1,38.9c-13.3,0-24.2-17.4-24.2-38.9c0-21.4,10.8-38.9,24.2-38.9 C544.6,233.3,555.4,250.7,555.4,272.1z"></path> <rect x="507.1" y="273" class="st1" width="48.3" height="66.6"></rect> </g> <g> <path class="st1" d="M619.5,255.1c0,22.6-11.4,41-25.5,41c-14.1,0-25.5-18.4-25.5-41c0-22.6,11.4-41,25.5-41 C608.1,214.1,619.5,232.5,619.5,255.1z"></path> <rect x="568.5" y="256" class="st1" width="50.9" height="70.3"></rect> </g> <path class="st2" d="M918.4,293v13.3c-9.2-0.3-295.2-4.1-551.4,86.8c-2.2,0.7-4.3,1.5-6.5,2.3v-14.1c2.1-0.8,4.3-1.5,6.5-2.3 C622.7,288.7,904.1,292.7,918.4,293z"></path> <path class="st2" d="M997.4,451.5l-0.1,13.3c-3.6,0-357.1-2.2-630.4,45.9c-2.1,0.3-4.3,0.7-6.5,1.1v-13.6c2.1-0.4,4.3-0.7,6.5-1.1 C641.2,449.3,993.9,451.5,997.4,451.5z"></path> </g> </svg>