<svg xmlns="http://www.w3.org/2000/svg" xmlns:xlink="http://www.w3.org/1999/xlink" viewBox="0 0 1220 500"><defs><style>.cls-1{fill:url(#Degradado_sin_nombre_127);}.cls-2{fill:url(#Degradado_sin_nombre_127-7);}.cls-3{fill:url(#Degradado_sin_nombre_127-4);}.cls-4{fill:url(#Degradado_sin_nombre_127-5);}.cls-5{fill:url(#Degradado_sin_nombre_127-6);}.cls-6{fill:url(#Degradado_sin_nombre_127-8);}.cls-7{fill:url(#Degradado_sin_nombre_127-2);}.cls-8{fill:url(#Degradado_sin_nombre_127-3);}.cls-9{fill:url(#Degradado_sin_nombre_127-9);}.cls-10{fill:url(#Degradado_sin_nombre_127-10);}.cls-11{fill:url(#Degradado_sin_nombre_127-17);}.cls-12{fill:url(#Degradado_sin_nombre_127-18);}.cls-13{fill:url(#Degradado_sin_nombre_127-14);}.cls-14{fill:url(#Degradado_sin_nombre_127-13);}.cls-15{fill:url(#Degradado_sin_nombre_127-11);}.cls-16{fill:url(#Degradado_sin_nombre_127-15);}.cls-17{fill:url(#Degradado_sin_nombre_127-16);}.cls-18{fill:url(#Degradado_sin_nombre_127-12);}.cls-19{fill:url(#Degradado_sin_nombre_127-19);}.cls-20{fill:url(#Degradado_sin_nombre_127-26);}.cls-21{fill:url(#Degradado_sin_nombre_127-27);}.cls-22{fill:url(#Degradado_sin_nombre_127-23);}.cls-23{fill:url(#Degradado_sin_nombre_127-22);}.cls-24{fill:url(#Degradado_sin_nombre_127-20);}.cls-25{fill:url(#Degradado_sin_nombre_127-21);}.cls-26{fill:url(#Degradado_sin_nombre_127-25);}.cls-27{fill:url(#Degradado_sin_nombre_127-29);}.cls-28{fill:url(#Degradado_sin_nombre_127-28);}.cls-29{fill:url(#Degradado_sin_nombre_127-24);}</style><linearGradient id="Degradado_sin_nombre_127" x1="1117.25" y1="184.3" x2="166.1" y2="-12.65" gradientUnits="userSpaceOnUse"><stop offset="0" stop-color="#d29c05"></stop><stop offset=".09" stop-color="#e3b12b"></stop><stop offset=".22" stop-color="#ffd365"></stop><stop offset=".34" stop-color="#ffd262"></stop><stop offset=".43" stop-color="#ffd058"></stop><stop offset=".49" stop-color="#ffcf4e"></stop><stop offset=".73" stop-color="#d19904"></stop><stop offset=".75" stop-color="#d59e0b"></stop><stop offset=".81" stop-color="#e7b328"></stop><stop offset=".88" stop-color="#f4c23d"></stop><stop offset=".94" stop-color="#fccb49"></stop><stop offset="1" stop-color="#ffcf4e"></stop></linearGradient><linearGradient id="Degradado_sin_nombre_127-2" x1="1061.28" y1="454.58" x2="110.14" y2="257.63" xlink:href="#Degradado_sin_nombre_127"></linearGradient><linearGradient id="Degradado_sin_nombre_127-3" x1="1064.03" y1="441.29" x2="112.89" y2="244.34" xlink:href="#Degradado_sin_nombre_127"></linearGradient><linearGradient id="Degradado_sin_nombre_127-4" x1="1067.17" y1="426.13" x2="116.03" y2="229.19" xlink:href="#Degradado_sin_nombre_127"></linearGradient><linearGradient id="Degradado_sin_nombre_127-5" x1="1070.24" y1="411.3" x2="119.1" y2="214.35" xlink:href="#Degradado_sin_nombre_127"></linearGradient><linearGradient id="Degradado_sin_nombre_127-6" x1="1072.69" y1="399.48" x2="121.54" y2="202.54" xlink:href="#Degradado_sin_nombre_127"></linearGradient><linearGradient id="Degradado_sin_nombre_127-7" x1="1075.23" y1="387.22" x2="124.08" y2="190.28" xlink:href="#Degradado_sin_nombre_127"></linearGradient><linearGradient id="Degradado_sin_nombre_127-8" x1="1078.19" y1="372.93" x2="127.04" y2="175.98" xlink:href="#Degradado_sin_nombre_127"></linearGradient><linearGradient id="Degradado_sin_nombre_127-9" x1="1083.83" y1="345.67" x2="132.69" y2="148.73" xlink:href="#Degradado_sin_nombre_127"></linearGradient><linearGradient id="Degradado_sin_nombre_127-10" x1="1083.72" y1="346.2" x2="132.58" y2="149.25" xlink:href="#Degradado_sin_nombre_127"></linearGradient><linearGradient id="Degradado_sin_nombre_127-11" x1="1058.61" y1="467.46" x2="107.47" y2="270.51" xlink:href="#Degradado_sin_nombre_127"></linearGradient><linearGradient id="Degradado_sin_nombre_127-12" x1="1041.43" y1="550.43" x2="90.29" y2="353.48" xlink:href="#Degradado_sin_nombre_127"></linearGradient><linearGradient id="Degradado_sin_nombre_127-13" x1="1044.51" y1="535.59" x2="93.36" y2="338.64" xlink:href="#Degradado_sin_nombre_127"></linearGradient><linearGradient id="Degradado_sin_nombre_127-14" x1="1046.55" y1="525.72" x2="95.41" y2="328.77" xlink:href="#Degradado_sin_nombre_127"></linearGradient><linearGradient id="Degradado_sin_nombre_127-15" x1="1049.86" y1="509.73" x2="98.72" y2="312.78" xlink:href="#Degradado_sin_nombre_127"></linearGradient><linearGradient id="Degradado_sin_nombre_127-16" x1="1052.41" y1="497.41" x2="101.27" y2="300.46" xlink:href="#Degradado_sin_nombre_127"></linearGradient><linearGradient id="Degradado_sin_nombre_127-17" x1="1054.7" y1="486.37" x2="103.55" y2="289.42" xlink:href="#Degradado_sin_nombre_127"></linearGradient><linearGradient id="Degradado_sin_nombre_127-18" x1="1077.47" y1="376.4" x2="126.32" y2="179.45" xlink:href="#Degradado_sin_nombre_127"></linearGradient><linearGradient id="Degradado_sin_nombre_127-19" x1="1082.29" y1="353.13" x2="131.14" y2="156.19" xlink:href="#Degradado_sin_nombre_127"></linearGradient><linearGradient id="Degradado_sin_nombre_127-20" x1="1084.78" y1="341.07" x2="133.64" y2="144.12" xlink:href="#Degradado_sin_nombre_127"></linearGradient><linearGradient id="Degradado_sin_nombre_127-21" x1="1088.61" y1="322.6" x2="137.46" y2="125.65" xlink:href="#Degradado_sin_nombre_127"></linearGradient><linearGradient id="Degradado_sin_nombre_127-22" x1="1092.21" y1="305.22" x2="141.06" y2="108.28" xlink:href="#Degradado_sin_nombre_127"></linearGradient><linearGradient id="Degradado_sin_nombre_127-23" x1="1096.61" y1="283.94" x2="145.47" y2="87" xlink:href="#Degradado_sin_nombre_127"></linearGradient><linearGradient id="Degradado_sin_nombre_127-24" x1="1103.31" y1="251.62" x2="152.16" y2="54.68" xlink:href="#Degradado_sin_nombre_127"></linearGradient><linearGradient id="Degradado_sin_nombre_127-25" x1="1101.94" y1="258.22" x2="150.8" y2="61.27" xlink:href="#Degradado_sin_nombre_127"></linearGradient><linearGradient id="Degradado_sin_nombre_127-26" x1="1106.03" y1="238.45" x2="154.89" y2="41.5" xlink:href="#Degradado_sin_nombre_127"></linearGradient><linearGradient id="Degradado_sin_nombre_127-27" x1="1112.66" y1="206.46" x2="161.51" y2="9.51" xlink:href="#Degradado_sin_nombre_127"></linearGradient><linearGradient id="Degradado_sin_nombre_127-28" x1="1111.8" y1="210.61" x2="160.65" y2="13.66" xlink:href="#Degradado_sin_nombre_127"></linearGradient><linearGradient id="Degradado_sin_nombre_127-29" x1="1115.76" y1="191.46" x2="164.62" y2="-5.48" xlink:href="#Degradado_sin_nombre_127"></linearGradient></defs><g id="Capa_42"><g id="euroclasico"><g><polygon points="737.59 96.24 756.3 96.24 724.4 120.66 710.61 120.66 737.59 96.24"></polygon><g><g><path d="M599.65,398.65v-65.78h25.66c5.76,0,10.68,.91,14.76,2.73,4.07,1.82,7.2,4.45,9.4,7.89,2.19,3.45,3.29,7.55,3.29,12.31s-1.1,8.85-3.29,12.26c-2.19,3.42-5.33,6.05-9.4,7.89-4.07,1.85-8.99,2.77-14.76,2.77h-20.49l4.23-4.42v24.34h-9.4Zm9.4-23.4l-4.23-4.7h20.21c6.02,0,10.57-1.28,13.68-3.85,3.1-2.57,4.65-6.2,4.65-10.9s-1.55-8.33-4.65-10.9c-3.1-2.57-7.66-3.85-13.68-3.85h-20.21l4.23-4.7v38.9Z"></path><path d="M666.57,398.65v-65.78h25.66c5.76,0,10.68,.91,14.76,2.73,4.07,1.82,7.21,4.45,9.4,7.89,2.19,3.45,3.29,7.55,3.29,12.31s-1.1,8.85-3.29,12.26c-2.19,3.42-5.33,6.03-9.4,7.85-4.07,1.82-8.99,2.72-14.76,2.72h-20.49l4.23-4.32v24.34h-9.4Zm9.4-23.4l-4.23-4.6h20.21c6.02,0,10.57-1.3,13.68-3.9,3.1-2.6,4.65-6.25,4.65-10.95s-1.55-8.33-4.65-10.9c-3.1-2.57-7.66-3.85-13.68-3.85h-20.21l4.23-4.7v38.9Zm34.59,23.4l-16.73-23.87h10.06l16.92,23.87h-10.24Z"></path><path d="M744.3,390.48h38.35v8.18h-47.75v-65.78h46.43v8.18h-37.03v49.43Zm-.85-29.23h33.84v7.99h-33.84v-7.99Z"></path><path d="M797.88,398.65v-65.78h7.71l29.51,49.71h-4.14l29.14-49.71h7.71l.09,65.78h-9.02l-.09-51.59h2.16l-25.94,43.6h-4.32l-26.13-43.6h2.35v51.59h-9.02Z"></path><path d="M887.64,398.65v-65.78h9.4v65.78h-9.4Z"></path><path d="M944.04,399.41c-8.65,0-15.45-2.47-20.4-7.42-4.95-4.95-7.43-12.18-7.43-21.71v-37.4h9.4v37.03c0,7.33,1.61,12.69,4.84,16.07,3.23,3.38,7.79,5.07,13.68,5.07s10.54-1.69,13.77-5.07c3.23-3.38,4.84-8.74,4.84-16.07v-37.03h9.12v37.4c0,9.52-2.46,16.76-7.38,21.71-4.92,4.95-11.73,7.42-20.44,7.42Z"></path><path d="M991.13,398.65v-65.78h7.71l29.51,49.71h-4.14l29.14-49.71h7.71l.09,65.78h-9.02l-.09-51.59h2.16l-25.94,43.6h-4.32l-26.13-43.6h2.35v51.59h-9.02Z"></path></g><g><path d="M1089.31,367.73c-4.63,0-8.99-1.81-12.26-5.09-3.27-3.28-5.07-7.64-5.06-12.27,.02-9.51,7.79-17.24,17.33-17.24,4.65,0,8.99,1.82,12.26,5.1,3.27,3.28,5.06,7.64,5.05,12.26-.02,9.51-7.79,17.24-17.31,17.24h-.02Zm0-32.1c-8.13,0-14.77,6.63-14.8,14.78-.01,3.94,1.52,7.65,4.31,10.46,2.8,2.81,6.53,4.36,10.49,4.36,8.14,0,14.78-6.64,14.81-14.8,0-8.15-6.64-14.78-14.78-14.8h-.03Z"></path><path d="M1082.92,358.93v-17c.13,0,.26-.02,.39-.02,1.96,0,3.92,0,5.88,0,1.45,0,2.86,.24,4.13,.99,1.98,1.17,2.78,2.98,2.76,5.21-.01,1.48-.41,2.84-1.41,3.96-.35,.4-.78,.73-1.22,1.13,1.37,1.88,2.76,3.78,4.18,5.73-.18,.01-.29,.03-.41,.03-1.23,0-2.45,0-3.68,0-.28,0-.45-.09-.61-.31-1-1.39-2.02-2.77-3.02-4.16-.15-.21-.31-.3-.57-.29-.83,.02-1.67,.02-2.5,0-.26,0-.34,.08-.34,.34,.01,1.32,0,2.65,0,3.97v.42h-3.59Zm3.59-8.35c1.05,0,2.04,0,3.03,0,.27,0,.54-.03,.8-.08,1.87-.36,2.34-1.57,2.06-3.15-.18-1.04-.97-1.57-1.94-1.68-1.19-.13-2.39-.09-3.59-.15-.31-.01-.37,.11-.36,.38,.01,1.05,0,2.11,0,3.16v1.52Z"></path></g><polyline points="547.23 415.5 547.23 316.25 553.85 316.25 553.85 415.5"></polyline><path d="M155.75,390.43v8.23h-48.07v-66.23h46.74v8.23h-37.28v20.34h33.21v8.04h-33.21v21.38h38.6Z"></path><path d="M175.05,391.85c-4.92-5.05-7.38-12.3-7.38-21.76v-37.66h9.46v37.28c0,14.19,6.21,21.29,18.64,21.29,6.05,0,10.69-1.75,13.91-5.25,3.22-3.5,4.83-8.85,4.83-16.04v-37.28h9.18v37.66c0,9.53-2.46,16.79-7.38,21.81-4.92,5.01-11.8,7.52-20.63,7.52s-15.71-2.52-20.63-7.57Z"></path><path d="M284.52,398.66l-14.29-20.34c-1.77,.13-3.15,.19-4.16,.19h-16.37v20.15h-9.46v-66.23h25.83c8.58,0,15.33,2.05,20.25,6.15,4.92,4.1,7.38,9.75,7.38,16.94,0,5.11-1.26,9.46-3.78,13.06-2.52,3.59-6.12,6.21-10.79,7.85l15.71,22.24h-10.31Zm-5.01-32.07c3.15-2.59,4.73-6.28,4.73-11.07s-1.58-8.47-4.73-11.02c-3.15-2.56-7.73-3.83-13.72-3.83h-16.08v29.8h16.08c5.99,0,10.57-1.29,13.72-3.88Z"></path><path d="M318.02,395.02c-5.36-2.93-9.57-6.99-12.63-12.16-3.06-5.17-4.59-10.94-4.59-17.32s1.53-12.14,4.59-17.31c3.06-5.17,7.27-9.22,12.63-12.16,5.36-2.93,11.38-4.4,18.07-4.4s12.62,1.47,17.98,4.4c5.36,2.93,9.56,6.97,12.58,12.11,3.03,5.14,4.54,10.93,4.54,17.36s-1.51,12.22-4.54,17.36c-3.03,5.14-7.22,9.18-12.58,12.11-5.36,2.93-11.36,4.4-17.98,4.4s-12.71-1.47-18.07-4.4Zm31.18-7.33c3.88-2.21,6.94-5.25,9.18-9.13,2.24-3.88,3.36-8.22,3.36-13.01s-1.12-9.13-3.36-13.01c-2.24-3.88-5.3-6.92-9.18-9.13-3.88-2.21-8.25-3.31-13.11-3.31s-9.26,1.11-13.2,3.31c-3.94,2.21-7.03,5.25-9.27,9.13s-3.36,8.22-3.36,13.01,1.12,9.13,3.36,13.01,5.33,6.92,9.27,9.13c3.94,2.21,8.34,3.31,13.2,3.31s9.23-1.1,13.11-3.31Z"></path><path d="M428.91,338.58c4.92,4.1,7.38,9.75,7.38,16.94s-2.46,12.84-7.38,16.94c-4.92,4.1-11.67,6.15-20.25,6.15h-16.37v20.06h-9.46v-66.23h25.83c8.58,0,15.33,2.05,20.25,6.15Zm-6.81,27.96c3.15-2.56,4.73-6.23,4.73-11.02s-1.58-8.47-4.73-11.02c-3.16-2.56-7.73-3.83-13.72-3.83h-16.08v29.71h16.08c5.99,0,10.57-1.28,13.72-3.83Z"></path><path d="M486.24,382.1h-35.2l-7.29,16.56h-9.74l29.99-66.23h9.37l30.09,66.23h-9.93l-7.29-16.56Zm-3.31-7.57l-14.29-32.45-14.29,32.45h28.57Z"></path><rect x="107.02" y="275.94" width="999.62" height="13.25"></rect><g><path d="M215.49,203.69v29.4H107.49V98.57h105.5v29.4h-67.84v22.68h59.77v28.44h-59.77v24.6h70.34Z"></path><path d="M334.45,128.93v104.16h-34.78v-11.15c-3.84,4.23-8.46,7.43-13.84,9.61-5.38,2.18-11.08,3.27-17.1,3.27-13.45,0-24.18-3.97-32.19-11.91-8.01-7.94-12.01-19.86-12.01-35.74v-58.23h36.51v52.27c0,7.82,1.47,13.52,4.42,17.1,2.95,3.59,7.24,5.38,12.88,5.38s10.47-2.02,14.12-6.05,5.48-10.21,5.48-18.54v-50.16h36.51Z"></path><path d="M397.57,130.76c5.96-2.37,12.78-3.56,20.47-3.56v32.86c-3.33-.38-6.09-.58-8.26-.58-7.82,0-13.93,2.11-18.35,6.34-4.42,4.23-6.63,10.7-6.63,19.41v47.85h-36.51v-104.16h34.78v12.49c3.71-4.74,8.55-8.29,14.51-10.67Z"></path><path d="M444.56,227.9c-8.97-4.61-15.98-11.02-21.04-19.22-5.06-8.2-7.59-17.49-7.59-27.87s2.53-19.47,7.59-27.67c5.06-8.2,12.04-14.57,20.95-19.12,8.9-4.55,18.99-6.82,30.27-6.82s21.39,2.28,30.36,6.82c8.97,4.55,15.95,10.89,20.95,19.03,5,8.14,7.5,17.39,7.5,27.77s-2.5,19.67-7.5,27.87c-5,8.2-11.98,14.61-20.95,19.22-8.97,4.61-19.09,6.92-30.36,6.92s-21.21-2.31-30.17-6.92Zm45.93-28.73c4.1-4.42,6.15-10.54,6.15-18.35s-2.05-13.71-6.15-18.06c-4.1-4.35-9.35-6.53-15.76-6.53s-11.66,2.18-15.76,6.53c-4.1,4.36-6.15,10.38-6.15,18.06s2.05,13.93,6.15,18.35c4.1,4.42,9.35,6.63,15.76,6.63s11.66-2.21,15.76-6.63Z"></path><path d="M563.22,227.52c-7.88-4.35-14.06-10.47-18.54-18.35-4.49-7.88-6.73-16.75-6.73-26.62s2.24-18.7,6.73-26.52c4.48-7.81,10.67-13.9,18.54-18.26,7.88-4.35,16.82-6.53,26.81-6.53,8.71,0,16.49,1.7,23.35,5.09,6.85,3.4,12.27,8.36,16.24,14.89l-10.18,6.92c-3.33-5-7.56-8.74-12.68-11.24-5.13-2.5-10.7-3.75-16.72-3.75-7.3,0-13.87,1.63-19.7,4.9-5.83,3.27-10.38,7.91-13.64,13.93-3.27,6.02-4.9,12.88-4.9,20.56s1.63,14.7,4.9,20.66c3.27,5.96,7.81,10.57,13.64,13.84,5.83,3.27,12.39,4.9,19.7,4.9,6.02,0,11.59-1.22,16.72-3.65,5.12-2.43,9.35-6.15,12.68-11.15l10.18,6.92c-3.97,6.53-9.42,11.5-16.33,14.89-6.92,3.4-14.67,5.09-23.25,5.09-9.99,0-18.93-2.18-26.81-6.53Z"></path><path d="M645.19,90.5h13.64V233.09h-13.64V90.5Z"></path><path d="M753,141.14c7.04,6.6,10.57,16.37,10.57,29.31v62.65h-13.07v-15.76c-3.07,5.25-7.59,9.35-13.55,12.3-5.96,2.95-13.04,4.42-21.23,4.42-11.28,0-20.24-2.69-26.9-8.07-6.66-5.38-9.99-12.49-9.99-21.33s3.1-15.5,9.32-20.76c6.21-5.25,16.11-7.88,29.69-7.88h32.09v-6.15c0-8.71-2.44-15.34-7.3-19.89-4.87-4.55-11.98-6.82-21.33-6.82-6.41,0-12.56,1.06-18.45,3.17-5.89,2.11-10.95,5.03-15.18,8.74l-6.15-10.18c5.12-4.35,11.27-7.72,18.45-10.09,7.17-2.37,14.73-3.56,22.68-3.56,13.19,0,23.32,3.3,30.36,9.9Zm-15.37,76.87c5.51-3.52,9.61-8.61,12.3-15.28v-16.53h-31.71c-17.3,0-25.94,6.02-25.94,18.06,0,5.89,2.24,10.54,6.73,13.93,4.48,3.4,10.76,5.09,18.83,5.09s14.28-1.76,19.79-5.28Z"></path><path d="M794.6,230.5c-7.5-2.37-13.36-5.35-17.58-8.94l6.15-10.76c4.23,3.33,9.54,6.05,15.95,8.17,6.41,2.11,13.07,3.17,19.99,3.17,9.22,0,16.05-1.44,20.47-4.32,4.42-2.88,6.63-6.95,6.63-12.2,0-3.71-1.22-6.63-3.65-8.74-2.44-2.11-5.51-3.71-9.22-4.8-3.72-1.09-8.65-2.14-14.8-3.17-8.2-1.54-14.8-3.1-19.79-4.71-5-1.6-9.26-4.32-12.78-8.17-3.53-3.84-5.29-9.16-5.29-15.95,0-8.46,3.52-15.37,10.57-20.75,7.04-5.38,16.84-8.07,29.4-8.07,6.53,0,13.07,.86,19.6,2.59s11.91,4.01,16.14,6.82l-5.96,10.95c-8.33-5.77-18.26-8.65-29.79-8.65-8.71,0-15.28,1.54-19.7,4.61-4.42,3.07-6.63,7.11-6.63,12.11,0,3.84,1.25,6.92,3.75,9.22,2.5,2.31,5.6,4.01,9.32,5.09,3.71,1.09,8.84,2.21,15.37,3.36,8.07,1.54,14.54,3.07,19.41,4.61,4.87,1.54,9.03,4.16,12.49,7.88,3.46,3.72,5.19,8.84,5.19,15.37,0,8.84-3.68,15.85-11.05,21.04-7.37,5.19-17.58,7.78-30.65,7.78-8.2,0-16.05-1.18-23.54-3.56Z"></path><path d="M875.22,107.03c-1.92-1.92-2.88-4.23-2.88-6.92s.96-4.8,2.88-6.73c1.92-1.92,4.29-2.88,7.11-2.88s5.19,.93,7.11,2.79c1.92,1.86,2.88,4.07,2.88,6.63,0,2.82-.96,5.19-2.88,7.11-1.92,1.92-4.29,2.88-7.11,2.88s-5.19-.96-7.11-2.88Zm.19,24.98h13.64v101.08h-13.64v-101.08Z"></path><path d="M932.58,227.52c-7.88-4.35-14.06-10.47-18.54-18.35-4.49-7.88-6.73-16.75-6.73-26.62s2.24-18.7,6.73-26.52c4.48-7.81,10.67-13.9,18.54-18.26,7.88-4.35,16.82-6.53,26.81-6.53,8.71,0,16.49,1.7,23.35,5.09,6.85,3.4,12.27,8.36,16.24,14.89l-10.18,6.92c-3.33-5-7.56-8.74-12.68-11.24-5.13-2.5-10.7-3.75-16.72-3.75-7.3,0-13.87,1.63-19.7,4.9-5.83,3.27-10.38,7.91-13.64,13.93-3.27,6.02-4.9,12.88-4.9,20.56s1.63,14.7,4.9,20.66c3.27,5.96,7.81,10.57,13.64,13.84,5.83,3.27,12.39,4.9,19.7,4.9,6.02,0,11.59-1.22,16.72-3.65,5.12-2.43,9.35-6.15,12.68-11.15l10.18,6.92c-3.97,6.53-9.42,11.5-16.33,14.89-6.92,3.4-14.67,5.09-23.25,5.09-9.99,0-18.93-2.18-26.81-6.53Z"></path><path d="M1029.34,227.42c-7.82-4.42-13.97-10.54-18.45-18.35-4.49-7.81-6.73-16.65-6.73-26.52s2.24-18.7,6.73-26.52c4.48-7.81,10.63-13.9,18.45-18.26,7.81-4.35,16.59-6.53,26.33-6.53s18.51,2.18,26.33,6.53c7.81,4.36,13.93,10.44,18.35,18.26,4.42,7.82,6.63,16.66,6.63,26.52s-2.21,18.71-6.63,26.52c-4.42,7.82-10.54,13.93-18.35,18.35-7.82,4.42-16.59,6.63-26.33,6.63s-18.52-2.21-26.33-6.63Zm45.64-10.38c5.7-3.27,10.15-7.91,13.36-13.93,3.2-6.02,4.8-12.87,4.8-20.56s-1.6-14.54-4.8-20.56c-3.2-6.02-7.66-10.67-13.36-13.93-5.7-3.27-12.14-4.9-19.31-4.9s-13.61,1.63-19.31,4.9c-5.7,3.27-10.19,7.91-13.45,13.93-3.27,6.02-4.9,12.88-4.9,20.56s1.63,14.54,4.9,20.56c3.27,6.02,7.75,10.67,13.45,13.93,5.7,3.27,12.14,4.9,19.31,4.9s13.61-1.63,19.31-4.9Z"></path></g></g></g></g></g><g id="Capa_43"><g><polygon class="cls-1" points="740.59 93.24 759.3 93.24 727.4 117.66 713.61 117.66 740.59 93.24"></polygon><g><g><path class="cls-7" d="M602.65,395.65v-65.78h25.66c5.76,0,10.68,.91,14.76,2.73,4.07,1.82,7.2,4.45,9.4,7.89,2.19,3.45,3.29,7.55,3.29,12.31s-1.1,8.85-3.29,12.26c-2.19,3.42-5.33,6.05-9.4,7.89-4.07,1.85-8.99,2.77-14.76,2.77h-20.49l4.23-4.42v24.34h-9.4Zm9.4-23.4l-4.23-4.7h20.21c6.02,0,10.57-1.28,13.68-3.85,3.1-2.57,4.65-6.2,4.65-10.9s-1.55-8.33-4.65-10.9c-3.1-2.57-7.66-3.85-13.68-3.85h-20.21l4.23-4.7v38.9Z"></path><path class="cls-8" d="M669.57,395.65v-65.78h25.66c5.76,0,10.68,.91,14.76,2.73,4.07,1.82,7.21,4.45,9.4,7.89,2.19,3.45,3.29,7.55,3.29,12.31s-1.1,8.85-3.29,12.26c-2.19,3.42-5.33,6.03-9.4,7.85-4.07,1.82-8.99,2.72-14.76,2.72h-20.49l4.23-4.32v24.34h-9.4Zm9.4-23.4l-4.23-4.6h20.21c6.02,0,10.57-1.3,13.68-3.9,3.1-2.6,4.65-6.25,4.65-10.95s-1.55-8.33-4.65-10.9c-3.1-2.57-7.66-3.85-13.68-3.85h-20.21l4.23-4.7v38.9Zm34.59,23.4l-16.73-23.87h10.06l16.92,23.87h-10.24Z"></path><path class="cls-3" d="M747.3,387.48h38.35v8.18h-47.75v-65.78h46.43v8.18h-37.03v49.43Zm-.85-29.23h33.84v7.99h-33.84v-7.99Z"></path><path class="cls-4" d="M800.88,395.65v-65.78h7.71l29.51,49.71h-4.14l29.14-49.71h7.71l.09,65.78h-9.02l-.09-51.59h2.16l-25.94,43.6h-4.32l-26.13-43.6h2.35v51.59h-9.02Z"></path><path class="cls-5" d="M890.64,395.65v-65.78h9.4v65.78h-9.4Z"></path><path class="cls-2" d="M947.04,396.41c-8.65,0-15.45-2.47-20.4-7.42-4.95-4.95-7.43-12.18-7.43-21.71v-37.4h9.4v37.03c0,7.33,1.61,12.69,4.84,16.07,3.23,3.38,7.79,5.07,13.68,5.07s10.54-1.69,13.77-5.07c3.23-3.38,4.84-8.74,4.84-16.07v-37.03h9.12v37.4c0,9.52-2.46,16.76-7.38,21.71-4.92,4.95-11.73,7.42-20.44,7.42Z"></path><path class="cls-6" d="M994.13,395.65v-65.78h7.71l29.51,49.71h-4.14l29.14-49.71h7.71l.09,65.78h-9.02l-.09-51.59h2.16l-25.94,43.6h-4.32l-26.13-43.6h2.35v51.59h-9.02Z"></path></g><g><path class="cls-9" d="M1092.31,364.73c-4.63,0-8.99-1.81-12.26-5.09-3.27-3.28-5.07-7.64-5.06-12.27,.02-9.51,7.79-17.24,17.33-17.24,4.65,0,8.99,1.82,12.26,5.1,3.27,3.28,5.06,7.64,5.05,12.26-.02,9.51-7.79,17.24-17.31,17.24h-.02Zm0-32.1c-8.13,0-14.77,6.63-14.8,14.78-.01,3.94,1.52,7.65,4.31,10.46,2.8,2.81,6.53,4.36,10.49,4.36,8.14,0,14.78-6.64,14.81-14.8,0-8.15-6.64-14.78-14.78-14.8h-.03Z"></path><path class="cls-10" d="M1085.92,355.93v-17c.13,0,.26-.02,.39-.02,1.96,0,3.92,0,5.88,0,1.45,0,2.86,.24,4.13,.99,1.98,1.17,2.78,2.98,2.76,5.21-.01,1.48-.41,2.84-1.41,3.96-.35,.4-.78,.73-1.22,1.13,1.37,1.88,2.76,3.78,4.18,5.73-.18,.01-.29,.03-.41,.03-1.23,0-2.45,0-3.68,0-.28,0-.45-.09-.61-.31-1-1.39-2.02-2.77-3.02-4.16-.15-.21-.31-.3-.57-.29-.83,.02-1.67,.02-2.5,0-.26,0-.34,.08-.34,.34,.01,1.32,0,2.65,0,3.97v.42h-3.59Zm3.59-8.35c1.05,0,2.04,0,3.03,0,.27,0,.54-.03,.8-.08,1.87-.36,2.34-1.57,2.06-3.15-.18-1.04-.97-1.57-1.94-1.68-1.19-.13-2.39-.09-3.59-.15-.31-.01-.37,.11-.36,.38,.01,1.05,0,2.11,0,3.16v1.52Z"></path></g><polyline class="cls-15" points="550.23 412.5 550.23 313.25 556.85 313.25 556.85 412.5"></polyline><path class="cls-18" d="M158.75,387.43v8.23h-48.07v-66.23h46.74v8.23h-37.28v20.34h33.21v8.04h-33.21v21.38h38.6Z"></path><path class="cls-14" d="M178.05,388.85c-4.92-5.05-7.38-12.3-7.38-21.76v-37.66h9.46v37.28c0,14.19,6.21,21.29,18.64,21.29,6.05,0,10.69-1.75,13.91-5.25,3.22-3.5,4.83-8.85,4.83-16.04v-37.28h9.18v37.66c0,9.53-2.46,16.79-7.38,21.81-4.92,5.01-11.8,7.52-20.63,7.52s-15.71-2.52-20.63-7.57Z"></path><path class="cls-13" d="M287.52,395.66l-14.29-20.34c-1.77,.13-3.15,.19-4.16,.19h-16.37v20.15h-9.46v-66.23h25.83c8.58,0,15.33,2.05,20.25,6.15,4.92,4.1,7.38,9.75,7.38,16.94,0,5.11-1.26,9.46-3.78,13.06-2.52,3.59-6.12,6.21-10.79,7.85l15.71,22.24h-10.31Zm-5.01-32.07c3.15-2.59,4.73-6.28,4.73-11.07s-1.58-8.47-4.73-11.02c-3.15-2.56-7.73-3.83-13.72-3.83h-16.08v29.8h16.08c5.99,0,10.57-1.29,13.72-3.88Z"></path><path class="cls-16" d="M321.02,392.02c-5.36-2.93-9.57-6.99-12.63-12.16-3.06-5.17-4.59-10.94-4.59-17.32s1.53-12.14,4.59-17.31c3.06-5.17,7.27-9.22,12.63-12.16,5.36-2.93,11.38-4.4,18.07-4.4s12.62,1.47,17.98,4.4c5.36,2.93,9.56,6.97,12.58,12.11,3.03,5.14,4.54,10.93,4.54,17.36s-1.51,12.22-4.54,17.36c-3.03,5.14-7.22,9.18-12.58,12.11-5.36,2.93-11.36,4.4-17.98,4.4s-12.71-1.47-18.07-4.4Zm31.18-7.33c3.88-2.21,6.94-5.25,9.18-9.13,2.24-3.88,3.36-8.22,3.36-13.01s-1.12-9.13-3.36-13.01c-2.24-3.88-5.3-6.92-9.18-9.13-3.88-2.21-8.25-3.31-13.11-3.31s-9.26,1.11-13.2,3.31c-3.94,2.21-7.03,5.25-9.27,9.13s-3.36,8.22-3.36,13.01,1.12,9.13,3.36,13.01,5.33,6.92,9.27,9.13c3.94,2.21,8.34,3.31,13.2,3.31s9.23-1.1,13.11-3.31Z"></path><path class="cls-17" d="M431.91,335.58c4.92,4.1,7.38,9.75,7.38,16.94s-2.46,12.84-7.38,16.94c-4.92,4.1-11.67,6.15-20.25,6.15h-16.37v20.06h-9.46v-66.23h25.83c8.58,0,15.33,2.05,20.25,6.15Zm-6.81,27.96c3.15-2.56,4.73-6.23,4.73-11.02s-1.58-8.47-4.73-11.02c-3.16-2.56-7.73-3.83-13.72-3.83h-16.08v29.71h16.08c5.99,0,10.57-1.28,13.72-3.83Z"></path><path class="cls-11" d="M489.24,379.1h-35.2l-7.29,16.56h-9.74l29.99-66.23h9.37l30.09,66.23h-9.93l-7.29-16.56Zm-3.31-7.57l-14.29-32.45-14.29,32.45h28.57Z"></path><rect class="cls-12" x="110.02" y="272.94" width="999.62" height="13.25"></rect><g><path class="cls-19" d="M218.49,200.69v29.4H110.49V95.57h105.5v29.4h-67.84v22.68h59.77v28.44h-59.77v24.6h70.34Z"></path><path class="cls-24" d="M337.45,125.93v104.16h-34.78v-11.15c-3.84,4.23-8.46,7.43-13.84,9.61-5.38,2.18-11.08,3.27-17.1,3.27-13.45,0-24.18-3.97-32.19-11.91-8.01-7.94-12.01-19.86-12.01-35.74v-58.23h36.51v52.27c0,7.82,1.47,13.52,4.42,17.1,2.95,3.59,7.24,5.38,12.88,5.38s10.47-2.02,14.12-6.05,5.48-10.21,5.48-18.54v-50.16h36.51Z"></path><path class="cls-25" d="M400.57,127.76c5.96-2.37,12.78-3.56,20.47-3.56v32.86c-3.33-.38-6.09-.58-8.26-.58-7.82,0-13.93,2.11-18.35,6.34-4.42,4.23-6.63,10.7-6.63,19.41v47.85h-36.51V125.93h34.78v12.49c3.71-4.74,8.55-8.29,14.51-10.67Z"></path><path class="cls-23" d="M447.56,224.9c-8.97-4.61-15.98-11.02-21.04-19.22-5.06-8.2-7.59-17.49-7.59-27.87s2.53-19.47,7.59-27.67c5.06-8.2,12.04-14.57,20.95-19.12,8.9-4.55,18.99-6.82,30.27-6.82s21.39,2.28,30.36,6.82c8.97,4.55,15.95,10.89,20.95,19.03,5,8.14,7.5,17.39,7.5,27.77s-2.5,19.67-7.5,27.87c-5,8.2-11.98,14.61-20.95,19.22-8.97,4.61-19.09,6.92-30.36,6.92s-21.21-2.31-30.17-6.92Zm45.93-28.73c4.1-4.42,6.15-10.54,6.15-18.35s-2.05-13.71-6.15-18.06c-4.1-4.35-9.35-6.53-15.76-6.53s-11.66,2.18-15.76,6.53c-4.1,4.36-6.15,10.38-6.15,18.06s2.05,13.93,6.15,18.35c4.1,4.42,9.35,6.63,15.76,6.63s11.66-2.21,15.76-6.63Z"></path><path class="cls-22" d="M566.22,224.52c-7.88-4.35-14.06-10.47-18.54-18.35-4.49-7.88-6.73-16.75-6.73-26.62s2.24-18.7,6.73-26.52c4.48-7.81,10.67-13.9,18.54-18.26,7.88-4.35,16.82-6.53,26.81-6.53,8.71,0,16.49,1.7,23.35,5.09,6.85,3.4,12.27,8.36,16.24,14.89l-10.18,6.92c-3.33-5-7.56-8.74-12.68-11.24-5.13-2.5-10.7-3.75-16.72-3.75-7.3,0-13.87,1.63-19.7,4.9-5.83,3.27-10.38,7.91-13.64,13.93-3.27,6.02-4.9,12.88-4.9,20.56s1.63,14.7,4.9,20.66c3.27,5.96,7.81,10.57,13.64,13.84,5.83,3.27,12.39,4.9,19.7,4.9,6.02,0,11.59-1.22,16.72-3.65,5.12-2.43,9.35-6.15,12.68-11.15l10.18,6.92c-3.97,6.53-9.42,11.5-16.33,14.89-6.92,3.4-14.67,5.09-23.25,5.09-9.99,0-18.93-2.18-26.81-6.53Z"></path><path class="cls-29" d="M648.19,87.5h13.64V230.09h-13.64V87.5Z"></path><path class="cls-26" d="M756,138.14c7.04,6.6,10.57,16.37,10.57,29.31v62.65h-13.07v-15.76c-3.07,5.25-7.59,9.35-13.55,12.3-5.96,2.95-13.04,4.42-21.23,4.42-11.28,0-20.24-2.69-26.9-8.07-6.66-5.38-9.99-12.49-9.99-21.33s3.1-15.5,9.32-20.76c6.21-5.25,16.11-7.88,29.69-7.88h32.09v-6.15c0-8.71-2.44-15.34-7.3-19.89-4.87-4.55-11.98-6.82-21.33-6.82-6.41,0-12.56,1.06-18.45,3.17-5.89,2.11-10.95,5.03-15.18,8.74l-6.15-10.18c5.12-4.35,11.27-7.72,18.45-10.09,7.17-2.37,14.73-3.56,22.68-3.56,13.19,0,23.32,3.3,30.36,9.9Zm-15.37,76.87c5.51-3.52,9.61-8.61,12.3-15.28v-16.53h-31.71c-17.3,0-25.94,6.02-25.94,18.06,0,5.89,2.24,10.54,6.73,13.93,4.48,3.4,10.76,5.09,18.83,5.09s14.28-1.76,19.79-5.28Z"></path><path class="cls-20" d="M797.6,227.5c-7.5-2.37-13.36-5.35-17.58-8.94l6.15-10.76c4.23,3.33,9.54,6.05,15.95,8.17,6.41,2.11,13.07,3.17,19.99,3.17,9.22,0,16.05-1.44,20.47-4.32,4.42-2.88,6.63-6.95,6.63-12.2,0-3.71-1.22-6.63-3.65-8.74-2.44-2.11-5.51-3.71-9.22-4.8-3.72-1.09-8.65-2.14-14.8-3.17-8.2-1.54-14.8-3.1-19.79-4.71-5-1.6-9.26-4.32-12.78-8.17-3.53-3.84-5.29-9.16-5.29-15.95,0-8.46,3.52-15.37,10.57-20.75,7.04-5.38,16.84-8.07,29.4-8.07,6.53,0,13.07,.86,19.6,2.59s11.91,4.01,16.14,6.82l-5.96,10.95c-8.33-5.77-18.26-8.65-29.79-8.65-8.71,0-15.28,1.54-19.7,4.61-4.42,3.07-6.63,7.11-6.63,12.11,0,3.84,1.25,6.92,3.75,9.22,2.5,2.31,5.6,4.01,9.32,5.09,3.71,1.09,8.84,2.21,15.37,3.36,8.07,1.54,14.54,3.07,19.41,4.61,4.87,1.54,9.03,4.16,12.49,7.88,3.46,3.72,5.19,8.84,5.19,15.37,0,8.84-3.68,15.85-11.05,21.04-7.37,5.19-17.58,7.78-30.65,7.78-8.2,0-16.05-1.18-23.54-3.56Z"></path><path class="cls-21" d="M878.22,104.03c-1.92-1.92-2.88-4.23-2.88-6.92s.96-4.8,2.88-6.73c1.92-1.92,4.29-2.88,7.11-2.88s5.19,.93,7.11,2.79c1.92,1.86,2.88,4.07,2.88,6.63,0,2.82-.96,5.19-2.88,7.11-1.92,1.92-4.29,2.88-7.11,2.88s-5.19-.96-7.11-2.88Zm.19,24.98h13.64v101.08h-13.64v-101.08Z"></path><path class="cls-28" d="M935.58,224.52c-7.88-4.35-14.06-10.47-18.54-18.35-4.49-7.88-6.73-16.75-6.73-26.62s2.24-18.7,6.73-26.52c4.48-7.81,10.67-13.9,18.54-18.26,7.88-4.35,16.82-6.53,26.81-6.53,8.71,0,16.49,1.7,23.35,5.09,6.85,3.4,12.27,8.36,16.24,14.89l-10.18,6.92c-3.33-5-7.56-8.74-12.68-11.24-5.13-2.5-10.7-3.75-16.72-3.75-7.3,0-13.87,1.63-19.7,4.9-5.83,3.27-10.38,7.91-13.64,13.93-3.27,6.02-4.9,12.88-4.9,20.56s1.63,14.7,4.9,20.66c3.27,5.96,7.81,10.57,13.64,13.84,5.83,3.27,12.39,4.9,19.7,4.9,6.02,0,11.59-1.22,16.72-3.65,5.12-2.43,9.35-6.15,12.68-11.15l10.18,6.92c-3.97,6.53-9.42,11.5-16.33,14.89-6.92,3.4-14.67,5.09-23.25,5.09-9.99,0-18.93-2.18-26.81-6.53Z"></path><path class="cls-27" d="M1032.34,224.42c-7.82-4.42-13.97-10.54-18.45-18.35-4.49-7.81-6.73-16.65-6.73-26.52s2.24-18.7,6.73-26.52c4.48-7.81,10.63-13.9,18.45-18.26,7.81-4.35,16.59-6.53,26.33-6.53s18.51,2.18,26.33,6.53c7.81,4.36,13.93,10.44,18.35,18.26,4.42,7.82,6.63,16.66,6.63,26.52s-2.21,18.71-6.63,26.52c-4.42,7.82-10.54,13.93-18.35,18.35-7.82,4.42-16.59,6.63-26.33,6.63s-18.52-2.21-26.33-6.63Zm45.64-10.38c5.7-3.27,10.15-7.91,13.36-13.93,3.2-6.02,4.8-12.87,4.8-20.56s-1.6-14.54-4.8-20.56c-3.2-6.02-7.66-10.67-13.36-13.93-5.7-3.27-12.14-4.9-19.31-4.9s-13.61,1.63-19.31,4.9c-5.7,3.27-10.19,7.91-13.45,13.93-3.27,6.02-4.9,12.88-4.9,20.56s1.63,14.54,4.9,20.56c3.27,6.02,7.75,10.67,13.45,13.93,5.7,3.27,12.14,4.9,19.31,4.9s13.61-1.63,19.31-4.9Z"></path></g></g></g></g></svg>