<svg xmlns="http://www.w3.org/2000/svg" xmlns:xlink="http://www.w3.org/1999/xlink" viewBox="0 0 1220 500"><defs><style>.cls-1{fill:url(#Degradado_sin_nombre_127);}.cls-2{fill:url(#Degradado_sin_nombre_127-7);}.cls-3{fill:url(#Degradado_sin_nombre_127-4);}.cls-4{fill:url(#Degradado_sin_nombre_127-5);}.cls-5{fill:url(#Degradado_sin_nombre_127-6);}.cls-6{fill:url(#Degradado_sin_nombre_127-8);}.cls-7{fill:url(#Degradado_sin_nombre_127-2);}.cls-8{fill:url(#Degradado_sin_nombre_127-3);}.cls-9{fill:url(#Degradado_sin_nombre_127-9);}.cls-10{fill:url(#Degradado_sin_nombre_127-10);}.cls-11{fill:url(#Degradado_sin_nombre_127-17);}.cls-12{fill:url(#Degradado_sin_nombre_127-18);}.cls-13{fill:url(#Degradado_sin_nombre_127-14);}.cls-14{fill:url(#Degradado_sin_nombre_127-13);}.cls-15{fill:url(#Degradado_sin_nombre_127-11);}.cls-16{fill:url(#Degradado_sin_nombre_127-15);}.cls-17{fill:url(#Degradado_sin_nombre_127-16);}.cls-18{fill:url(#Degradado_sin_nombre_127-12);}.cls-19{fill:url(#Degradado_sin_nombre_127-19);}.cls-20{fill:url(#Degradado_sin_nombre_127-26);}.cls-21{fill:url(#Degradado_sin_nombre_127-27);}.cls-22{fill:url(#Degradado_sin_nombre_127-23);}.cls-23{fill:url(#Degradado_sin_nombre_127-22);}.cls-24{fill:url(#Degradado_sin_nombre_127-20);}.cls-25{fill:url(#Degradado_sin_nombre_127-21);}.cls-26{fill:url(#Degradado_sin_nombre_127-25);}.cls-27{fill:url(#Degradado_sin_nombre_127-28);}.cls-28{fill:url(#Degradado_sin_nombre_127-24);}</style><linearGradient id="Degradado_sin_nombre_127" x1="818.35" y1="566.2" x2="318.2" y2="182.33" gradientUnits="userSpaceOnUse"><stop offset="0" stop-color="#d29c05"></stop><stop offset=".09" stop-color="#e3b12b"></stop><stop offset=".22" stop-color="#ffd365"></stop><stop offset=".34" stop-color="#ffd262"></stop><stop offset=".43" stop-color="#ffd058"></stop><stop offset=".49" stop-color="#ffcf4e"></stop><stop offset=".73" stop-color="#d19904"></stop><stop offset=".75" stop-color="#d59e0b"></stop><stop offset=".81" stop-color="#e7b328"></stop><stop offset=".88" stop-color="#f4c23d"></stop><stop offset=".94" stop-color="#fccb49"></stop><stop offset="1" stop-color="#ffcf4e"></stop></linearGradient><linearGradient id="Degradado_sin_nombre_127-2" x1="836.89" y1="542.04" x2="336.75" y2="158.17" xlink:href="#Degradado_sin_nombre_127"></linearGradient><linearGradient id="Degradado_sin_nombre_127-3" x1="857" y1="515.84" x2="356.85" y2="131.97" xlink:href="#Degradado_sin_nombre_127"></linearGradient><linearGradient id="Degradado_sin_nombre_127-4" x1="877.7" y1="488.87" x2="377.55" y2="105" xlink:href="#Degradado_sin_nombre_127"></linearGradient><linearGradient id="Degradado_sin_nombre_127-5" x1="894.19" y1="467.39" x2="394.04" y2="83.52" xlink:href="#Degradado_sin_nombre_127"></linearGradient><linearGradient id="Degradado_sin_nombre_127-6" x1="910.7" y1="445.88" x2="410.55" y2="62.01" xlink:href="#Degradado_sin_nombre_127"></linearGradient><linearGradient id="Degradado_sin_nombre_127-7" x1="931.24" y1="419.11" x2="431.1" y2="35.24" xlink:href="#Degradado_sin_nombre_127"></linearGradient><linearGradient id="Degradado_sin_nombre_127-8" x1="954.3" y1="389.08" x2="454.15" y2="5.21" xlink:href="#Degradado_sin_nombre_127"></linearGradient><linearGradient id="Degradado_sin_nombre_127-9" x1="953.8" y1="389.72" x2="453.65" y2="5.85" xlink:href="#Degradado_sin_nombre_127"></linearGradient><linearGradient id="Degradado_sin_nombre_127-10" x1="799.45" y1="590.83" x2="299.3" y2="206.96" xlink:href="#Degradado_sin_nombre_127"></linearGradient><linearGradient id="Degradado_sin_nombre_127-11" x1="683.34" y1="742.1" x2="183.2" y2="358.23" xlink:href="#Degradado_sin_nombre_127"></linearGradient><linearGradient id="Degradado_sin_nombre_127-12" x1="703.45" y1="715.91" x2="203.3" y2="332.04" xlink:href="#Degradado_sin_nombre_127"></linearGradient><linearGradient id="Degradado_sin_nombre_127-13" x1="718.87" y1="695.81" x2="218.72" y2="311.94" xlink:href="#Degradado_sin_nombre_127"></linearGradient><linearGradient id="Degradado_sin_nombre_127-14" x1="740.14" y1="668.11" x2="239.99" y2="284.23" xlink:href="#Degradado_sin_nombre_127"></linearGradient><linearGradient id="Degradado_sin_nombre_127-15" x1="758.38" y1="644.34" x2="258.23" y2="260.47" xlink:href="#Degradado_sin_nombre_127"></linearGradient><linearGradient id="Degradado_sin_nombre_127-16" x1="772.74" y1="625.63" x2="272.59" y2="241.76" xlink:href="#Degradado_sin_nombre_127"></linearGradient><linearGradient id="Degradado_sin_nombre_127-17" x1="845.11" y1="531.33" x2="344.97" y2="147.46" xlink:href="#Degradado_sin_nombre_127"></linearGradient><linearGradient id="Degradado_sin_nombre_127-18" x1="922.07" y1="431.07" x2="421.92" y2="47.2" xlink:href="#Degradado_sin_nombre_127"></linearGradient><linearGradient id="Degradado_sin_nombre_127-19" x1="953.16" y1="390.56" x2="453.01" y2="6.69" xlink:href="#Degradado_sin_nombre_127"></linearGradient><linearGradient id="Degradado_sin_nombre_127-20" x1="965.35" y1="374.67" x2="465.2" y2="-9.2" xlink:href="#Degradado_sin_nombre_127"></linearGradient><linearGradient id="Degradado_sin_nombre_127-21" x1="990.78" y1="341.54" x2="490.63" y2="-42.33" xlink:href="#Degradado_sin_nombre_127"></linearGradient><linearGradient id="Degradado_sin_nombre_127-22" x1="775.78" y1="621.66" x2="275.63" y2="237.79" xlink:href="#Degradado_sin_nombre_127"></linearGradient><linearGradient id="Degradado_sin_nombre_127-23" x1="816.22" y1="568.98" x2="316.07" y2="185.11" xlink:href="#Degradado_sin_nombre_127"></linearGradient><linearGradient id="Degradado_sin_nombre_127-24" x1="849.96" y1="525.02" x2="349.81" y2="141.15" xlink:href="#Degradado_sin_nombre_127"></linearGradient><linearGradient id="Degradado_sin_nombre_127-25" x1="882.28" y1="482.91" x2="382.13" y2="99.04" xlink:href="#Degradado_sin_nombre_127"></linearGradient><linearGradient id="Degradado_sin_nombre_127-26" x1="913.16" y1="442.67" x2="413.01" y2="58.8" xlink:href="#Degradado_sin_nombre_127"></linearGradient><linearGradient id="Degradado_sin_nombre_127-27" x1="970.07" y1="368.52" x2="469.93" y2="-15.35" xlink:href="#Degradado_sin_nombre_127"></linearGradient><linearGradient id="Degradado_sin_nombre_127-28" x1="1007.22" y1="320.12" x2="507.07" y2="-63.75" xlink:href="#Degradado_sin_nombre_127"></linearGradient></defs><g id="Capa_42"><g id="gira-europea"><g><g><path d="M601.34,440.41v-49.16h19.18c4.31,0,7.98,.68,11.03,2.04,3.04,1.36,5.38,3.33,7.02,5.9,1.64,2.58,2.46,5.64,2.46,9.2s-.82,6.61-2.46,9.17c-1.64,2.55-3.98,4.52-7.02,5.9-3.05,1.38-6.72,2.07-11.03,2.07h-15.31l3.16-3.3v18.19h-7.02Zm7.02-17.49l-3.16-3.51h15.1c4.5,0,7.9-.96,10.22-2.88,2.32-1.92,3.48-4.64,3.48-8.15s-1.16-6.23-3.48-8.15c-2.32-1.92-5.73-2.88-10.22-2.88h-15.1l3.16-3.51v29.08Z"></path><path d="M651.36,440.41v-49.16h19.18c4.31,0,7.98,.68,11.03,2.04,3.04,1.36,5.38,3.33,7.02,5.9,1.64,2.58,2.46,5.64,2.46,9.2s-.82,6.61-2.46,9.17c-1.64,2.55-3.98,4.51-7.02,5.86-3.05,1.36-6.72,2.04-11.03,2.04h-15.31l3.16-3.23v18.19h-7.02Zm7.02-17.49l-3.16-3.44h15.1c4.5,0,7.9-.97,10.22-2.91,2.32-1.94,3.48-4.67,3.48-8.18s-1.16-6.23-3.48-8.15c-2.32-1.92-5.73-2.88-10.22-2.88h-15.1l3.16-3.51v29.08Zm25.85,17.49l-12.5-17.84h7.52l12.64,17.84h-7.66Z"></path><path d="M709.45,434.3h28.66v6.11h-35.69v-49.16h34.7v6.11h-27.68v36.94Zm-.63-21.84h25.29v5.97h-25.29v-5.97Z"></path><path d="M749.49,440.41v-49.16h5.76l22.06,37.15h-3.09l21.78-37.15h5.76l.07,49.16h-6.74l-.07-38.56h1.62l-19.39,32.59h-3.23l-19.53-32.59h1.76v38.56h-6.74Z"></path><path d="M816.58,440.41v-49.16h7.02v49.16h-7.02Z"></path><path d="M858.73,440.97c-6.46,0-11.54-1.85-15.24-5.55-3.7-3.7-5.55-9.11-5.55-16.22v-27.95h7.02v27.67c0,5.48,1.21,9.48,3.62,12.01,2.41,2.53,5.82,3.79,10.22,3.79s7.88-1.26,10.29-3.79c2.41-2.53,3.62-6.53,3.62-12.01v-27.67h6.81v27.95c0,7.12-1.84,12.53-5.51,16.22-3.68,3.7-8.77,5.55-15.28,5.55Z"></path><path d="M893.92,440.41v-49.16h5.76l22.06,37.15h-3.09l21.78-37.15h5.76l.07,49.16h-6.74l-.07-38.56h1.62l-19.39,32.59h-3.23l-19.53-32.59h1.76v38.56h-6.74Z"></path></g><g><path d="M967.31,417.3c-3.46,0-6.72-1.36-9.16-3.81-2.44-2.45-3.79-5.71-3.78-9.17,.01-7.11,5.82-12.89,12.96-12.89,3.47,0,6.72,1.36,9.16,3.81,2.44,2.45,3.78,5.71,3.77,9.16-.02,7.11-5.82,12.89-12.94,12.89h-.01Zm0-23.99c-6.08,0-11.04,4.96-11.06,11.05-.01,2.94,1.13,5.72,3.22,7.82,2.09,2.1,4.88,3.26,7.84,3.26,6.08,0,11.05-4.96,11.07-11.06,0-6.09-4.96-11.05-11.05-11.06h-.02Z"></path><path d="M962.53,410.72v-12.7c.1,0,.19-.02,.29-.02,1.47,0,2.93,0,4.4,0,1.09,0,2.14,.18,3.09,.74,1.48,.87,2.08,2.23,2.07,3.89,0,1.1-.31,2.12-1.06,2.96-.27,.3-.58,.55-.91,.85,1.02,1.4,2.06,2.83,3.12,4.28-.13,0-.22,.02-.31,.02-.92,0-1.83,0-2.75,0-.21,0-.33-.07-.45-.23-.75-1.04-1.51-2.07-2.26-3.11-.11-.16-.23-.22-.43-.22-.62,.01-1.25,.01-1.87,0-.19,0-.25,.06-.25,.25,0,.99,0,1.98,0,2.97v.32h-2.69Zm2.69-6.24c.78,0,1.52,0,2.26,0,.2,0,.4-.02,.6-.06,1.39-.27,1.75-1.18,1.54-2.35-.14-.78-.72-1.17-1.45-1.25-.89-.09-1.79-.07-2.68-.11-.23-.01-.27,.09-.27,.29,0,.79,0,1.57,0,2.36v1.13Z"></path></g><polyline points="562.16 453 562.16 378.82 567.11 378.82 567.11 453"></polyline><path d="M269.57,434.26v6.15h-35.92v-49.5h34.93v6.15h-27.86v15.2h24.82v6.01h-24.82v15.98h28.85Z"></path><path d="M284,435.32c-3.68-3.77-5.51-9.19-5.51-16.26v-28.14h7.07v27.86c0,10.61,4.64,15.91,13.93,15.91,4.52,0,7.99-1.31,10.39-3.92,2.4-2.62,3.61-6.61,3.61-11.99v-27.86h6.86v28.14c0,7.12-1.84,12.55-5.51,16.3-3.68,3.75-8.82,5.62-15.42,5.62s-11.74-1.89-15.42-5.66Z"></path><path d="M365.82,440.41l-10.68-15.2c-1.32,.09-2.36,.14-3.11,.14h-12.23v15.06h-7.07v-49.5h19.31c6.41,0,11.46,1.53,15.13,4.6,3.68,3.07,5.51,7.28,5.51,12.66,0,3.82-.94,7.07-2.83,9.76-1.89,2.69-4.57,4.64-8.06,5.87l11.74,16.62h-7.71Zm-3.75-23.97c2.36-1.93,3.54-4.69,3.54-8.27s-1.18-6.33-3.54-8.24c-2.36-1.91-5.78-2.86-10.25-2.86h-12.02v22.28h12.02c4.48,0,7.9-.97,10.25-2.9Z"></path><path d="M390.85,437.69c-4.01-2.19-7.15-5.22-9.44-9.09-2.29-3.87-3.43-8.18-3.43-12.94s1.14-9.07,3.43-12.94c2.29-3.86,5.43-6.89,9.44-9.09,4.01-2.19,8.51-3.29,13.51-3.29s9.43,1.1,13.44,3.29c4.01,2.19,7.14,5.21,9.41,9.05,2.26,3.84,3.39,8.17,3.39,12.98s-1.13,9.13-3.39,12.98c-2.26,3.84-5.4,6.86-9.41,9.05-4.01,2.19-8.49,3.29-13.44,3.29s-9.5-1.1-13.51-3.29Zm23.3-5.48c2.9-1.65,5.18-3.92,6.86-6.82,1.67-2.9,2.51-6.14,2.51-9.72s-.84-6.82-2.51-9.72c-1.67-2.9-3.96-5.17-6.86-6.82-2.9-1.65-6.16-2.48-9.79-2.48s-6.92,.83-9.87,2.48c-2.95,1.65-5.26,3.92-6.93,6.82-1.67,2.9-2.51,6.14-2.51,9.72s.84,6.82,2.51,9.72c1.67,2.9,3.98,5.17,6.93,6.82,2.95,1.65,6.23,2.47,9.87,2.47s6.9-.82,9.79-2.47Z"></path><path d="M473.73,395.51c3.68,3.07,5.52,7.28,5.52,12.66s-1.84,9.59-5.52,12.66c-3.68,3.06-8.72,4.6-15.13,4.6h-12.23v14.99h-7.07v-49.5h19.31c6.41,0,11.45,1.53,15.13,4.6Zm-5.09,20.9c2.36-1.91,3.54-4.66,3.54-8.24s-1.18-6.33-3.54-8.24c-2.36-1.91-5.78-2.86-10.25-2.86h-12.02v22.2h12.02c4.48,0,7.9-.96,10.25-2.86Z"></path><path d="M516.58,428.04h-26.31l-5.45,12.37h-7.28l22.42-49.5h7l22.49,49.5h-7.42l-5.45-12.37Zm-2.47-5.66l-10.68-24.26-10.68,24.26h21.36Z"></path><rect x="233.15" y="348.7" width="747.1" height="9.91"></rect><g><path d="M555.99,126.32h9.38v50.16c-5.87,5.62-12.99,9.89-21.34,12.83-8.36,2.94-17.2,4.4-26.52,4.4-13.27,0-25.24-2.93-35.9-8.81-10.66-5.87-19.02-13.98-25.08-24.31-6.06-10.34-9.09-21.95-9.09-34.84s3.03-24.5,9.09-34.84c6.06-10.34,14.42-18.44,25.08-24.31,10.66-5.87,22.69-8.81,36.09-8.81,9.83,0,18.86,1.56,27.09,4.69,8.23,3.13,15.28,7.69,21.16,13.69l-6.13,6.51c-5.62-5.61-11.9-9.67-18.86-12.16-6.96-2.49-14.64-3.73-23.07-3.73-11.49,0-21.86,2.55-31.11,7.66-9.26,5.11-16.5,12.16-21.73,21.15-5.23,9-7.85,19.05-7.85,30.15s2.65,20.96,7.95,29.96c5.29,9,12.54,16.08,21.73,21.25,9.19,5.17,19.53,7.75,31.02,7.75,15.31,0,28.01-4.08,38.1-12.25v-46.14Z"></path><path d="M592.94,66.31c-1.53-1.47-2.3-3.28-2.3-5.46s.77-4.02,2.3-5.55,3.38-2.3,5.55-2.3,4.02,.74,5.55,2.2c1.53,1.47,2.3,3.29,2.3,5.46s-.76,4.02-2.3,5.55-3.38,2.3-5.55,2.3-4.02-.73-5.55-2.2Zm.76,26.52h9.57v99.93h-9.57V92.82Z"></path><path d="M655.73,97.89c6.51-3.89,14.42-5.84,23.74-5.84v9.38l-2.3-.19c-11.1,0-19.78,3.48-26.04,10.43-6.26,6.96-9.38,16.63-9.38,29v52.07h-9.57V92.82h9.19v21.82c3.06-7.27,7.85-12.86,14.36-16.75Z"></path><path d="M756.62,101.53c6.63,6.32,9.95,15.6,9.95,27.86v63.37h-9.19v-17.8c-3.19,5.87-7.85,10.43-13.98,13.69-6.13,3.25-13.47,4.88-22.01,4.88-11.1,0-19.88-2.61-26.32-7.85-6.44-5.23-9.67-12.12-9.67-20.68s2.97-15.03,8.9-20.2,15.41-7.75,28.43-7.75h34.27v-8.04c0-9.31-2.52-16.4-7.56-21.25-5.04-4.85-12.41-7.27-22.11-7.27-6.64,0-12.99,1.15-19.05,3.45-6.06,2.3-11.2,5.36-15.41,9.19l-4.79-6.89c4.98-4.47,10.98-7.94,18-10.43,7.02-2.49,14.36-3.73,22.01-3.73,12.38,0,21.89,3.16,28.53,9.48Zm-12.73,78.4c5.81-3.83,10.18-9.38,13.11-16.66v-18.76h-34.08c-9.83,0-16.94,1.79-21.35,5.36-4.4,3.57-6.6,8.49-6.6,14.74s2.42,11.65,7.27,15.41c4.85,3.77,11.68,5.65,20.49,5.65,8.29,0,15.35-1.91,21.15-5.74Z"></path></g><g><path d="M337.27,291.74v24.89h-103.76V182.62h101.27v24.89h-70.45v29.1h62.22v24.12h-62.22v31.01h72.94Z"></path><path d="M453.28,213.63v103h-28.34v-12.25c-3.96,4.47-8.68,7.88-14.17,10.24-5.49,2.36-11.42,3.54-17.8,3.54-13.53,0-24.25-3.89-32.16-11.68-7.92-7.78-11.87-19.34-11.87-34.65v-58.2h29.87v53.79c0,16.59,6.95,24.89,20.87,24.89,7.15,0,12.89-2.33,17.23-6.99,4.34-4.66,6.51-11.58,6.51-20.77v-50.92h29.87Z"></path><path d="M514.45,215.93c6.06-2.55,13.05-3.83,20.96-3.83v27.57c-3.32-.25-5.55-.38-6.7-.38-8.55,0-15.25,2.39-20.1,7.18-4.85,4.79-7.27,11.97-7.27,21.54v48.63h-29.86v-103h28.52v13.59c3.57-4.98,8.39-8.74,14.45-11.3Z"></path><path d="M562.5,311.36c-8.61-4.53-15.35-10.82-20.2-18.86-4.85-8.04-7.28-17.16-7.28-27.38s2.42-19.34,7.28-27.38c4.85-8.04,11.58-14.33,20.2-18.86,8.61-4.53,18.35-6.8,29.2-6.8s20.55,2.27,29.1,6.8c8.55,4.53,15.25,10.82,20.1,18.86,4.85,8.04,7.27,17.17,7.27,27.38s-2.43,19.34-7.27,27.38c-4.85,8.04-11.55,14.33-20.1,18.86-8.55,4.53-18.25,6.8-29.1,6.8s-20.58-2.26-29.2-6.8Zm48.05-25.46c4.91-5.17,7.37-12.09,7.37-20.77s-2.46-15.6-7.37-20.77c-4.92-5.17-11.2-7.75-18.86-7.75s-13.98,2.58-18.95,7.75c-4.98,5.17-7.47,12.09-7.47,20.77s2.49,15.6,7.47,20.77c4.98,5.17,11.3,7.75,18.95,7.75s13.94-2.58,18.86-7.75Z"></path><path d="M745.52,218.7c7.85,4.4,14,10.59,18.47,18.57,4.47,7.98,6.7,17.26,6.7,27.86s-2.23,19.88-6.7,27.85c-4.47,7.98-10.62,14.17-18.47,18.57-7.85,4.4-16.56,6.6-26.13,6.6-13.15,0-23.48-4.15-31.01-12.44v48.05h-29.86V213.63h28.52v11.87c7.4-8.93,18.19-13.4,32.35-13.4,9.57,0,18.28,2.2,26.13,6.61Zm-12.44,67.2c4.91-5.17,7.37-12.09,7.37-20.77s-2.46-15.6-7.37-20.77c-4.91-5.17-11.2-7.75-18.86-7.75s-13.94,2.58-18.86,7.75c-4.91,5.17-7.37,12.09-7.37,20.77s2.46,15.6,7.37,20.77c4.91,5.17,11.2,7.75,18.86,7.75s13.94-2.58,18.86-7.75Z"></path><path d="M881.34,273.55h-77.92c1.4,6.38,4.72,11.42,9.95,15.12,5.23,3.7,11.74,5.55,19.53,5.55,5.36,0,10.11-.8,14.26-2.39,4.15-1.59,8.01-4.12,11.58-7.56l15.89,17.23c-9.7,11.1-23.87,16.65-42.5,16.65-11.61,0-21.89-2.26-30.82-6.8-8.93-4.53-15.83-10.82-20.67-18.86-4.85-8.04-7.28-17.16-7.28-27.38s2.39-19.17,7.18-27.28c4.79-8.1,11.36-14.42,19.72-18.95,8.36-4.53,17.71-6.8,28.05-6.8s19.21,2.17,27.38,6.51c8.17,4.34,14.58,10.56,19.24,18.67,4.66,8.11,6.99,17.52,6.99,28.24,0,.38-.19,3.06-.57,8.04Zm-69.88-33.12c-4.59,3.83-7.4,9.06-8.42,15.7h50.73c-1.02-6.51-3.83-11.71-8.42-15.6-4.59-3.89-10.21-5.84-16.84-5.84s-12.44,1.91-17.04,5.74Z"></path><path d="M967.68,223.49c8.55,7.59,12.83,19.05,12.83,34.36v58.77h-27.95v-12.83c-5.62,9.57-16.08,14.36-31.4,14.36-7.92,0-14.77-1.34-20.58-4.02-5.81-2.68-10.24-6.38-13.31-11.1-3.06-4.72-4.59-10.08-4.59-16.08,0-9.57,3.6-17.1,10.82-22.59,7.21-5.49,18.35-8.23,33.41-8.23h23.74c0-6.51-1.98-11.52-5.93-15.03-3.96-3.51-9.89-5.27-17.8-5.27-5.49,0-10.88,.86-16.18,2.58-5.3,1.72-9.8,4.05-13.5,6.99l-10.72-20.87c5.61-3.95,12.35-7.02,20.2-9.19,7.85-2.17,15.92-3.25,24.22-3.25,15.95,0,28.21,3.8,36.76,11.39Zm-25.46,71.03c3.96-2.36,6.76-5.84,8.42-10.43v-10.53h-20.48c-12.25,0-18.38,4.02-18.38,12.06,0,3.83,1.5,6.86,4.5,9.09,3,2.23,7.11,3.35,12.35,3.35s9.63-1.18,13.59-3.54Z"></path></g></g></g></g><g id="Capa_43"><g><g><path class="cls-1" d="M604.34,437.41v-49.16h19.18c4.31,0,7.98,.68,11.03,2.04,3.04,1.36,5.38,3.33,7.02,5.9,1.64,2.58,2.46,5.64,2.46,9.2s-.82,6.61-2.46,9.17c-1.64,2.55-3.98,4.52-7.02,5.9-3.05,1.38-6.72,2.07-11.03,2.07h-15.31l3.16-3.3v18.19h-7.02Zm7.02-17.49l-3.16-3.51h15.1c4.5,0,7.9-.96,10.22-2.88,2.32-1.92,3.48-4.64,3.48-8.15s-1.16-6.23-3.48-8.15c-2.32-1.92-5.73-2.88-10.22-2.88h-15.1l3.16-3.51v29.08Z"></path><path class="cls-7" d="M654.36,437.41v-49.16h19.18c4.31,0,7.98,.68,11.03,2.04,3.04,1.36,5.38,3.33,7.02,5.9,1.64,2.58,2.46,5.64,2.46,9.2s-.82,6.61-2.46,9.17c-1.64,2.55-3.98,4.51-7.02,5.86-3.05,1.36-6.72,2.04-11.03,2.04h-15.31l3.16-3.23v18.19h-7.02Zm7.02-17.49l-3.16-3.44h15.1c4.5,0,7.9-.97,10.22-2.91,2.32-1.94,3.48-4.67,3.48-8.18s-1.16-6.23-3.48-8.15c-2.32-1.92-5.73-2.88-10.22-2.88h-15.1l3.16-3.51v29.08Zm25.85,17.49l-12.5-17.84h7.52l12.64,17.84h-7.66Z"></path><path class="cls-8" d="M712.45,431.3h28.66v6.11h-35.69v-49.16h34.7v6.11h-27.68v36.94Zm-.63-21.84h25.29v5.97h-25.29v-5.97Z"></path><path class="cls-3" d="M752.49,437.41v-49.16h5.76l22.06,37.15h-3.09l21.78-37.15h5.76l.07,49.16h-6.74l-.07-38.56h1.62l-19.39,32.59h-3.23l-19.53-32.59h1.76v38.56h-6.74Z"></path><path class="cls-4" d="M819.58,437.41v-49.16h7.02v49.16h-7.02Z"></path><path class="cls-5" d="M861.73,437.97c-6.46,0-11.54-1.85-15.24-5.55-3.7-3.7-5.55-9.11-5.55-16.22v-27.95h7.02v27.67c0,5.48,1.21,9.48,3.62,12.01,2.41,2.53,5.82,3.79,10.22,3.79s7.88-1.26,10.29-3.79c2.41-2.53,3.62-6.53,3.62-12.01v-27.67h6.81v27.95c0,7.12-1.84,12.53-5.51,16.22-3.68,3.7-8.77,5.55-15.28,5.55Z"></path><path class="cls-2" d="M896.92,437.41v-49.16h5.76l22.06,37.15h-3.09l21.78-37.15h5.76l.07,49.16h-6.74l-.07-38.56h1.62l-19.39,32.59h-3.23l-19.53-32.59h1.76v38.56h-6.74Z"></path></g><g><path class="cls-6" d="M970.31,414.3c-3.46,0-6.72-1.36-9.16-3.81-2.44-2.45-3.79-5.71-3.78-9.17,.01-7.11,5.82-12.89,12.96-12.89,3.47,0,6.72,1.36,9.16,3.81,2.44,2.45,3.78,5.71,3.77,9.16-.02,7.11-5.82,12.89-12.94,12.89h-.01Zm0-23.99c-6.08,0-11.04,4.96-11.06,11.05-.01,2.94,1.13,5.72,3.22,7.82,2.09,2.1,4.88,3.26,7.84,3.26,6.08,0,11.05-4.96,11.07-11.06,0-6.09-4.96-11.05-11.05-11.06h-.02Z"></path><path class="cls-9" d="M965.53,407.72v-12.7c.1,0,.19-.02,.29-.02,1.47,0,2.93,0,4.4,0,1.09,0,2.14,.18,3.09,.74,1.48,.87,2.08,2.23,2.07,3.89,0,1.1-.31,2.12-1.06,2.96-.27,.3-.58,.55-.91,.85,1.02,1.4,2.06,2.83,3.12,4.28-.13,0-.22,.02-.31,.02-.92,0-1.83,0-2.75,0-.21,0-.33-.07-.45-.23-.75-1.04-1.51-2.07-2.26-3.11-.11-.16-.23-.22-.43-.22-.62,.01-1.25,.01-1.87,0-.19,0-.25,.06-.25,.25,0,.99,0,1.98,0,2.97v.32h-2.69Zm2.69-6.24c.78,0,1.52,0,2.26,0,.2,0,.4-.02,.6-.06,1.39-.27,1.75-1.18,1.54-2.35-.14-.78-.72-1.17-1.45-1.25-.89-.09-1.79-.07-2.68-.11-.23-.01-.27,.09-.27,.29,0,.79,0,1.57,0,2.36v1.13Z"></path></g><polyline class="cls-10" points="565.16 450 565.16 375.82 570.11 375.82 570.11 450"></polyline><path class="cls-15" d="M272.57,431.26v6.15h-35.92v-49.5h34.93v6.15h-27.86v15.2h24.82v6.01h-24.82v15.98h28.85Z"></path><path class="cls-18" d="M287,432.32c-3.68-3.77-5.51-9.19-5.51-16.26v-28.14h7.07v27.86c0,10.61,4.64,15.91,13.93,15.91,4.52,0,7.99-1.31,10.39-3.92,2.4-2.62,3.61-6.61,3.61-11.99v-27.86h6.86v28.14c0,7.12-1.84,12.55-5.51,16.3-3.68,3.75-8.82,5.62-15.42,5.62s-11.74-1.89-15.42-5.66Z"></path><path class="cls-14" d="M368.82,437.41l-10.68-15.2c-1.32,.09-2.36,.14-3.11,.14h-12.23v15.06h-7.07v-49.5h19.31c6.41,0,11.46,1.53,15.13,4.6,3.68,3.07,5.51,7.28,5.51,12.66,0,3.82-.94,7.07-2.83,9.76-1.89,2.69-4.57,4.64-8.06,5.87l11.74,16.62h-7.71Zm-3.75-23.97c2.36-1.93,3.54-4.69,3.54-8.27s-1.18-6.33-3.54-8.24c-2.36-1.91-5.78-2.86-10.25-2.86h-12.02v22.28h12.02c4.48,0,7.9-.97,10.25-2.9Z"></path><path class="cls-13" d="M393.85,434.69c-4.01-2.19-7.15-5.22-9.44-9.09-2.29-3.87-3.43-8.18-3.43-12.94s1.14-9.07,3.43-12.94c2.29-3.86,5.43-6.89,9.44-9.09,4.01-2.19,8.51-3.29,13.51-3.29s9.43,1.1,13.44,3.29c4.01,2.19,7.14,5.21,9.41,9.05,2.26,3.84,3.39,8.17,3.39,12.98s-1.13,9.13-3.39,12.98c-2.26,3.84-5.4,6.86-9.41,9.05-4.01,2.19-8.49,3.29-13.44,3.29s-9.5-1.1-13.51-3.29Zm23.3-5.48c2.9-1.65,5.18-3.92,6.86-6.82,1.67-2.9,2.51-6.14,2.51-9.72s-.84-6.82-2.51-9.72c-1.67-2.9-3.96-5.17-6.86-6.82-2.9-1.65-6.16-2.48-9.79-2.48s-6.92,.83-9.87,2.48c-2.95,1.65-5.26,3.92-6.93,6.82-1.67,2.9-2.51,6.14-2.51,9.72s.84,6.82,2.51,9.72c1.67,2.9,3.98,5.17,6.93,6.82,2.95,1.65,6.23,2.47,9.87,2.47s6.9-.82,9.79-2.47Z"></path><path class="cls-16" d="M476.73,392.51c3.68,3.07,5.52,7.28,5.52,12.66s-1.84,9.59-5.52,12.66c-3.68,3.06-8.72,4.6-15.13,4.6h-12.23v14.99h-7.07v-49.5h19.31c6.41,0,11.45,1.53,15.13,4.6Zm-5.09,20.9c2.36-1.91,3.54-4.66,3.54-8.24s-1.18-6.33-3.54-8.24c-2.36-1.91-5.78-2.86-10.25-2.86h-12.02v22.2h12.02c4.48,0,7.9-.96,10.25-2.86Z"></path><path class="cls-17" d="M519.58,425.04h-26.31l-5.45,12.37h-7.28l22.42-49.5h7l22.49,49.5h-7.42l-5.45-12.37Zm-2.47-5.66l-10.68-24.26-10.68,24.26h21.36Z"></path><rect class="cls-11" x="236.15" y="345.7" width="747.1" height="9.91"></rect><g><path class="cls-12" d="M558.99,123.32h9.38v50.16c-5.87,5.62-12.99,9.89-21.34,12.83-8.36,2.94-17.2,4.4-26.52,4.4-13.27,0-25.24-2.93-35.9-8.81-10.66-5.87-19.02-13.98-25.08-24.31-6.06-10.34-9.09-21.95-9.09-34.84s3.03-24.5,9.09-34.84c6.06-10.34,14.42-18.44,25.08-24.31,10.66-5.87,22.69-8.81,36.09-8.81,9.83,0,18.86,1.56,27.09,4.69,8.23,3.13,15.28,7.69,21.16,13.69l-6.13,6.51c-5.62-5.61-11.9-9.67-18.86-12.16-6.96-2.49-14.64-3.73-23.07-3.73-11.49,0-21.86,2.55-31.11,7.66-9.26,5.11-16.5,12.16-21.73,21.15-5.23,9-7.85,19.05-7.85,30.15s2.65,20.96,7.95,29.96c5.29,9,12.54,16.08,21.73,21.25,9.19,5.17,19.53,7.75,31.02,7.75,15.31,0,28.01-4.08,38.1-12.25v-46.14Z"></path><path class="cls-19" d="M595.94,63.31c-1.53-1.47-2.3-3.28-2.3-5.46s.77-4.02,2.3-5.55,3.38-2.3,5.55-2.3,4.02,.74,5.55,2.2c1.53,1.47,2.3,3.29,2.3,5.46s-.76,4.02-2.3,5.55-3.38,2.3-5.55,2.3-4.02-.73-5.55-2.2Zm.76,26.52h9.57v99.93h-9.57V89.82Z"></path><path class="cls-24" d="M658.73,94.89c6.51-3.89,14.42-5.84,23.74-5.84v9.38l-2.3-.19c-11.1,0-19.78,3.48-26.04,10.43-6.26,6.96-9.38,16.63-9.38,29v52.07h-9.57V89.82h9.19v21.82c3.06-7.27,7.85-12.86,14.36-16.75Z"></path><path class="cls-25" d="M759.62,98.53c6.63,6.32,9.95,15.6,9.95,27.86v63.37h-9.19v-17.8c-3.19,5.87-7.85,10.43-13.98,13.69-6.13,3.25-13.47,4.88-22.01,4.88-11.1,0-19.88-2.61-26.32-7.85-6.44-5.23-9.67-12.12-9.67-20.68s2.97-15.03,8.9-20.2,15.41-7.75,28.43-7.75h34.27v-8.04c0-9.31-2.52-16.4-7.56-21.25-5.04-4.85-12.41-7.27-22.11-7.27-6.64,0-12.99,1.15-19.05,3.45-6.06,2.3-11.2,5.36-15.41,9.19l-4.79-6.89c4.98-4.47,10.98-7.94,18-10.43,7.02-2.49,14.36-3.73,22.01-3.73,12.38,0,21.89,3.16,28.53,9.48Zm-12.73,78.4c5.81-3.83,10.18-9.38,13.11-16.66v-18.76h-34.08c-9.83,0-16.94,1.79-21.35,5.36-4.4,3.57-6.6,8.49-6.6,14.74s2.42,11.65,7.27,15.41c4.85,3.77,11.68,5.65,20.49,5.65,8.29,0,15.35-1.91,21.15-5.74Z"></path></g><g><path class="cls-23" d="M340.27,288.74v24.89h-103.76V179.62h101.27v24.89h-70.45v29.1h62.22v24.12h-62.22v31.01h72.94Z"></path><path class="cls-22" d="M456.28,210.63v103h-28.34v-12.25c-3.96,4.47-8.68,7.88-14.17,10.24-5.49,2.36-11.42,3.54-17.8,3.54-13.53,0-24.25-3.89-32.16-11.68-7.92-7.78-11.87-19.34-11.87-34.65v-58.2h29.87v53.79c0,16.59,6.95,24.89,20.87,24.89,7.15,0,12.89-2.33,17.23-6.99,4.34-4.66,6.51-11.58,6.51-20.77v-50.92h29.87Z"></path><path class="cls-28" d="M517.45,212.93c6.06-2.55,13.05-3.83,20.96-3.83v27.57c-3.32-.25-5.55-.38-6.7-.38-8.55,0-15.25,2.39-20.1,7.18-4.85,4.79-7.27,11.97-7.27,21.54v48.63h-29.86v-103h28.52v13.59c3.57-4.98,8.39-8.74,14.45-11.3Z"></path><path class="cls-26" d="M565.5,308.36c-8.61-4.53-15.35-10.82-20.2-18.86-4.85-8.04-7.28-17.16-7.28-27.38s2.42-19.34,7.28-27.38c4.85-8.04,11.58-14.33,20.2-18.86,8.61-4.53,18.35-6.8,29.2-6.8s20.55,2.27,29.1,6.8c8.55,4.53,15.25,10.82,20.1,18.86,4.85,8.04,7.27,17.17,7.27,27.38s-2.43,19.34-7.27,27.38c-4.85,8.04-11.55,14.33-20.1,18.86-8.55,4.53-18.25,6.8-29.1,6.8s-20.58-2.26-29.2-6.8Zm48.05-25.46c4.91-5.17,7.37-12.09,7.37-20.77s-2.46-15.6-7.37-20.77c-4.92-5.17-11.2-7.75-18.86-7.75s-13.98,2.58-18.95,7.75c-4.98,5.17-7.47,12.09-7.47,20.77s2.49,15.6,7.47,20.77c4.98,5.17,11.3,7.75,18.95,7.75s13.94-2.58,18.86-7.75Z"></path><path class="cls-20" d="M748.52,215.7c7.85,4.4,14,10.59,18.47,18.57,4.47,7.98,6.7,17.26,6.7,27.86s-2.23,19.88-6.7,27.85c-4.47,7.98-10.62,14.17-18.47,18.57-7.85,4.4-16.56,6.6-26.13,6.6-13.15,0-23.48-4.15-31.01-12.44v48.05h-29.86V210.63h28.52v11.87c7.4-8.93,18.19-13.4,32.35-13.4,9.57,0,18.28,2.2,26.13,6.61Zm-12.44,67.2c4.91-5.17,7.37-12.09,7.37-20.77s-2.46-15.6-7.37-20.77c-4.91-5.17-11.2-7.75-18.86-7.75s-13.94,2.58-18.86,7.75c-4.91,5.17-7.37,12.09-7.37,20.77s2.46,15.6,7.37,20.77c4.91,5.17,11.2,7.75,18.86,7.75s13.94-2.58,18.86-7.75Z"></path><path class="cls-21" d="M884.34,270.55h-77.92c1.4,6.38,4.72,11.42,9.95,15.12,5.23,3.7,11.74,5.55,19.53,5.55,5.36,0,10.11-.8,14.26-2.39,4.15-1.59,8.01-4.12,11.58-7.56l15.89,17.23c-9.7,11.1-23.87,16.65-42.5,16.65-11.61,0-21.89-2.26-30.82-6.8-8.93-4.53-15.83-10.82-20.67-18.86-4.85-8.04-7.28-17.16-7.28-27.38s2.39-19.17,7.18-27.28c4.79-8.1,11.36-14.42,19.72-18.95,8.36-4.53,17.71-6.8,28.05-6.8s19.21,2.17,27.38,6.51c8.17,4.34,14.58,10.56,19.24,18.67,4.66,8.11,6.99,17.52,6.99,28.24,0,.38-.19,3.06-.57,8.04Zm-69.88-33.12c-4.59,3.83-7.4,9.06-8.42,15.7h50.73c-1.02-6.51-3.83-11.71-8.42-15.6-4.59-3.89-10.21-5.84-16.84-5.84s-12.44,1.91-17.04,5.74Z"></path><path class="cls-27" d="M970.68,220.49c8.55,7.59,12.83,19.05,12.83,34.36v58.77h-27.95v-12.83c-5.62,9.57-16.08,14.36-31.4,14.36-7.92,0-14.77-1.34-20.58-4.02-5.81-2.68-10.24-6.38-13.31-11.1-3.06-4.72-4.59-10.08-4.59-16.08,0-9.57,3.6-17.1,10.82-22.59,7.21-5.49,18.35-8.23,33.41-8.23h23.74c0-6.51-1.98-11.52-5.93-15.03-3.96-3.51-9.89-5.27-17.8-5.27-5.49,0-10.88,.86-16.18,2.58-5.3,1.72-9.8,4.05-13.5,6.99l-10.72-20.87c5.61-3.95,12.35-7.02,20.2-9.19,7.85-2.17,15.92-3.25,24.22-3.25,15.95,0,28.21,3.8,36.76,11.39Zm-25.46,71.03c3.96-2.36,6.76-5.84,8.42-10.43v-10.53h-20.48c-12.25,0-18.38,4.02-18.38,12.06,0,3.83,1.5,6.86,4.5,9.09,3,2.23,7.11,3.35,12.35,3.35s9.63-1.18,13.59-3.54Z"></path></g></g></g></svg>