<svg xmlns="http://www.w3.org/2000/svg" xmlns:xlink="http://www.w3.org/1999/xlink" viewBox="0 0 1220 500"><defs><style>.cls-1{fill:url(#Degradado_sin_nombre_127);}.cls-2{fill:url(#Degradado_sin_nombre_127-7);}.cls-3{fill:url(#Degradado_sin_nombre_127-4);}.cls-4{fill:url(#Degradado_sin_nombre_127-5);}.cls-5{fill:url(#Degradado_sin_nombre_127-6);}.cls-6{fill:url(#Degradado_sin_nombre_127-8);}.cls-7{fill:url(#Degradado_sin_nombre_127-2);}.cls-8{fill:url(#Degradado_sin_nombre_127-3);}.cls-9{fill:url(#Degradado_sin_nombre_127-9);}.cls-10{fill:url(#Degradado_sin_nombre_127-10);}.cls-11{fill:url(#Degradado_sin_nombre_127-17);}.cls-12{fill:url(#Degradado_sin_nombre_127-18);}.cls-13{fill:url(#Degradado_sin_nombre_127-14);}.cls-14{fill:url(#Degradado_sin_nombre_127-13);}.cls-15{fill:url(#Degradado_sin_nombre_127-11);}.cls-16{fill:url(#Degradado_sin_nombre_127-15);}.cls-17{fill:url(#Degradado_sin_nombre_127-16);}.cls-18{fill:url(#Degradado_sin_nombre_127-12);}.cls-19{fill:url(#Degradado_sin_nombre_127-19);}.cls-20{fill:url(#Degradado_sin_nombre_127-26);}.cls-21{fill:url(#Degradado_sin_nombre_127-27);}.cls-22{fill:url(#Degradado_sin_nombre_127-23);}.cls-23{fill:url(#Degradado_sin_nombre_127-22);}.cls-24{fill:url(#Degradado_sin_nombre_127-20);}.cls-25{fill:url(#Degradado_sin_nombre_127-21);}.cls-26{fill:url(#Degradado_sin_nombre_127-25);}.cls-27{fill:url(#Degradado_sin_nombre_127-28);}.cls-28{fill:url(#Degradado_sin_nombre_127-24);}</style><linearGradient id="Degradado_sin_nombre_127" x1="868.38" y1="494.02" x2="262.49" y2="292.9" gradientUnits="userSpaceOnUse"><stop offset="0" stop-color="#d29c05"></stop><stop offset=".09" stop-color="#e3b12b"></stop><stop offset=".22" stop-color="#ffd365"></stop><stop offset=".34" stop-color="#ffd262"></stop><stop offset=".43" stop-color="#ffd058"></stop><stop offset=".49" stop-color="#ffcf4e"></stop><stop offset=".73" stop-color="#d19904"></stop><stop offset=".75" stop-color="#d59e0b"></stop><stop offset=".81" stop-color="#e7b328"></stop><stop offset=".88" stop-color="#f4c23d"></stop><stop offset=".94" stop-color="#fccb49"></stop><stop offset="1" stop-color="#ffcf4e"></stop></linearGradient><linearGradient id="Degradado_sin_nombre_127-2" x1="873.64" y1="478.15" x2="267.75" y2="277.03" xlink:href="#Degradado_sin_nombre_127"></linearGradient><linearGradient id="Degradado_sin_nombre_127-3" x1="879.57" y1="460.31" x2="273.67" y2="259.19" xlink:href="#Degradado_sin_nombre_127"></linearGradient><linearGradient id="Degradado_sin_nombre_127-4" x1="885.45" y1="442.59" x2="279.56" y2="241.48" xlink:href="#Degradado_sin_nombre_127"></linearGradient><linearGradient id="Degradado_sin_nombre_127-5" x1="890.13" y1="428.49" x2="284.24" y2="227.37" xlink:href="#Degradado_sin_nombre_127"></linearGradient><linearGradient id="Degradado_sin_nombre_127-6" x1="894.97" y1="413.92" x2="289.08" y2="212.8" xlink:href="#Degradado_sin_nombre_127"></linearGradient><linearGradient id="Degradado_sin_nombre_127-7" x1="900.66" y1="396.77" x2="294.76" y2="195.66" xlink:href="#Degradado_sin_nombre_127"></linearGradient><linearGradient id="Degradado_sin_nombre_127-8" x1="909.27" y1="370.83" x2="303.38" y2="169.71" xlink:href="#Degradado_sin_nombre_127"></linearGradient><linearGradient id="Degradado_sin_nombre_127-9" x1="909.08" y1="371.41" x2="303.19" y2="170.29" xlink:href="#Degradado_sin_nombre_127"></linearGradient><linearGradient id="Degradado_sin_nombre_127-10" x1="863.2" y1="509.61" x2="257.31" y2="308.49" xlink:href="#Degradado_sin_nombre_127"></linearGradient><linearGradient id="Degradado_sin_nombre_127-11" x1="830.26" y1="608.84" x2="224.37" y2="407.72" xlink:href="#Degradado_sin_nombre_127"></linearGradient><linearGradient id="Degradado_sin_nombre_127-12" x1="836.12" y1="591.19" x2="230.23" y2="390.07" xlink:href="#Degradado_sin_nombre_127"></linearGradient><linearGradient id="Degradado_sin_nombre_127-13" x1="840.15" y1="579.07" x2="234.25" y2="377.95" xlink:href="#Degradado_sin_nombre_127"></linearGradient><linearGradient id="Degradado_sin_nombre_127-14" x1="846.4" y1="560.23" x2="240.51" y2="359.11" xlink:href="#Degradado_sin_nombre_127"></linearGradient><linearGradient id="Degradado_sin_nombre_127-15" x1="851.37" y1="545.26" x2="245.48" y2="344.14" xlink:href="#Degradado_sin_nombre_127"></linearGradient><linearGradient id="Degradado_sin_nombre_127-16" x1="855.66" y1="532.34" x2="249.77" y2="331.22" xlink:href="#Degradado_sin_nombre_127"></linearGradient><linearGradient id="Degradado_sin_nombre_127-17" x1="887.38" y1="436.76" x2="281.49" y2="235.64" xlink:href="#Degradado_sin_nombre_127"></linearGradient><linearGradient id="Degradado_sin_nombre_127-18" x1="939.45" y1="279.92" x2="333.55" y2="78.8" xlink:href="#Degradado_sin_nombre_127"></linearGradient><linearGradient id="Degradado_sin_nombre_127-19" x1="944.16" y1="265.71" x2="338.27" y2="64.59" xlink:href="#Degradado_sin_nombre_127"></linearGradient><linearGradient id="Degradado_sin_nombre_127-20" x1="950.25" y1="247.37" x2="344.36" y2="46.25" xlink:href="#Degradado_sin_nombre_127"></linearGradient><linearGradient id="Degradado_sin_nombre_127-21" x1="958.89" y1="221.34" x2="353" y2="20.22" xlink:href="#Degradado_sin_nombre_127"></linearGradient><linearGradient id="Degradado_sin_nombre_127-22" x1="887.64" y1="435.99" x2="281.75" y2="234.87" xlink:href="#Degradado_sin_nombre_127"></linearGradient><linearGradient id="Degradado_sin_nombre_127-23" x1="897.57" y1="406.06" x2="291.68" y2="204.94" xlink:href="#Degradado_sin_nombre_127"></linearGradient><linearGradient id="Degradado_sin_nombre_127-24" x1="908.84" y1="372.13" x2="302.95" y2="171.01" xlink:href="#Degradado_sin_nombre_127"></linearGradient><linearGradient id="Degradado_sin_nombre_127-25" x1="920.37" y1="337.39" x2="314.48" y2="136.27" xlink:href="#Degradado_sin_nombre_127"></linearGradient><linearGradient id="Degradado_sin_nombre_127-26" x1="931.54" y1="303.74" x2="325.65" y2="102.62" xlink:href="#Degradado_sin_nombre_127"></linearGradient><linearGradient id="Degradado_sin_nombre_127-27" x1="943.34" y1="268.2" x2="337.44" y2="67.08" xlink:href="#Degradado_sin_nombre_127"></linearGradient><linearGradient id="Degradado_sin_nombre_127-28" x1="951.48" y1="243.66" x2="345.59" y2="42.54" xlink:href="#Degradado_sin_nombre_127"></linearGradient></defs><g id="Capa_42"><g id="gran-reserva"><g><g><path d="M601.01,439.64v-52.17h20.35c4.57,0,8.47,.72,11.7,2.16,3.23,1.44,5.71,3.53,7.45,6.26,1.74,2.73,2.61,5.99,2.61,9.76s-.87,7.02-2.61,9.73c-1.74,2.71-4.22,4.79-7.45,6.26-3.23,1.47-7.13,2.2-11.7,2.2h-16.25l3.35-3.5v19.3h-7.45Zm7.45-18.56l-3.35-3.73h16.03c4.77,0,8.39-1.02,10.85-3.06,2.46-2.04,3.69-4.92,3.69-8.64s-1.23-6.61-3.69-8.64c-2.46-2.04-6.07-3.06-10.85-3.06h-16.03l3.35-3.73v30.85Z"></path><path d="M654.08,439.64v-52.17h20.35c4.57,0,8.47,.72,11.7,2.16,3.23,1.44,5.71,3.53,7.45,6.26,1.74,2.73,2.61,5.99,2.61,9.76s-.87,7.02-2.61,9.73c-1.74,2.71-4.22,4.78-7.45,6.22-3.23,1.44-7.13,2.16-11.7,2.16h-16.25l3.35-3.43v19.3h-7.45Zm7.45-18.56l-3.35-3.65h16.03c4.77,0,8.39-1.03,10.85-3.09,2.46-2.06,3.69-4.96,3.69-8.68s-1.23-6.61-3.69-8.64c-2.46-2.04-6.07-3.06-10.85-3.06h-16.03l3.35-3.73v30.85Zm27.43,18.56l-13.27-18.93h7.98l13.42,18.93h-8.12Z"></path><path d="M715.72,433.16h30.41v6.48h-37.87v-52.17h36.82v6.48h-29.37v39.2Zm-.67-23.18h26.83v6.33h-26.83v-6.33Z"></path><path d="M758.2,439.64v-52.17h6.11l23.41,39.42h-3.28l23.11-39.42h6.11l.08,52.17h-7.16l-.08-40.91h1.71l-20.57,34.58h-3.43l-20.72-34.58h1.86v40.91h-7.16Z"></path><path d="M829.39,439.64v-52.17h7.45v52.17h-7.45Z"></path><path d="M874.11,440.24c-6.86,0-12.25-1.96-16.17-5.89-3.93-3.92-5.89-9.66-5.89-17.21v-29.66h7.45v29.36c0,5.81,1.28,10.06,3.84,12.74,2.56,2.68,6.17,4.02,10.85,4.02s8.36-1.34,10.92-4.02c2.56-2.68,3.84-6.93,3.84-12.74v-29.36h7.23v29.66c0,7.55-1.95,13.29-5.85,17.21-3.9,3.93-9.31,5.89-16.21,5.89Z"></path><path d="M911.45,439.64v-52.17h6.11l23.41,39.42h-3.28l23.11-39.42h6.11l.08,52.17h-7.16l-.08-40.91h1.71l-20.57,34.58h-3.43l-20.72-34.58h1.86v40.91h-7.16Z"></path></g><g><path d="M989.31,415.12c-3.67,0-7.13-1.44-9.72-4.04-2.59-2.6-4.02-6.06-4.01-9.73,.01-7.54,6.18-13.67,13.75-13.67,3.69,0,7.13,1.44,9.72,4.05,2.59,2.6,4.01,6.06,4,9.72-.02,7.54-6.18,13.67-13.73,13.67h-.01Zm0-25.46c-6.45,0-11.71,5.26-11.74,11.72-.01,3.12,1.2,6.07,3.42,8.29,2.22,2.23,5.18,3.46,8.32,3.46,6.45,0,11.72-5.27,11.75-11.74,0-6.46-5.27-11.72-11.72-11.74h-.02Z"></path><path d="M984.24,408.14v-13.48c.1,0,.2-.02,.31-.02,1.55,0,3.11,0,4.66,0,1.15,0,2.27,.19,3.28,.78,1.57,.92,2.21,2.37,2.19,4.13,0,1.17-.33,2.25-1.12,3.14-.28,.32-.62,.58-.97,.9,1.09,1.49,2.18,3,3.31,4.55-.14,0-.23,.02-.32,.02-.97,0-1.94,0-2.91,0-.22,0-.35-.07-.48-.25-.79-1.1-1.6-2.2-2.4-3.3-.12-.17-.25-.24-.46-.23-.66,.01-1.32,.01-1.98,0-.2,0-.27,.06-.27,.27,0,1.05,0,2.1,0,3.15v.34h-2.85Zm2.85-6.62c.83,0,1.62,0,2.4,0,.21,0,.43-.03,.64-.07,1.48-.29,1.85-1.25,1.64-2.5-.14-.83-.77-1.25-1.54-1.33-.94-.1-1.9-.07-2.85-.12-.25-.01-.29,.09-.29,.3,0,.84,0,1.67,0,2.51v1.2Z"></path></g><polyline points="559.44 453 559.44 374.29 564.68 374.29 564.68 453"></polyline><path d="M248.98,433.12v6.53h-38.12v-52.52h37.07v6.53h-29.56v16.13h26.34v6.38h-26.34v16.96h30.61Z"></path><path d="M264.29,434.24c-3.9-4-5.85-9.75-5.85-17.26v-29.86h7.5v29.56c0,11.25,4.93,16.88,14.78,16.88,4.8,0,8.48-1.39,11.03-4.16,2.55-2.78,3.83-7.02,3.83-12.72v-29.56h7.28v29.86c0,7.55-1.95,13.32-5.85,17.29-3.9,3.98-9.36,5.96-16.36,5.96s-12.46-2-16.36-6Z"></path><path d="M351.1,439.65l-11.33-16.13c-1.4,.1-2.5,.15-3.3,.15h-12.98v15.98h-7.5v-52.52h20.48c6.8,0,12.16,1.63,16.06,4.88,3.9,3.25,5.85,7.73,5.85,13.43,0,4.05-1,7.5-3,10.35-2,2.85-4.85,4.93-8.55,6.23l12.46,17.63h-8.18Zm-3.98-25.44c2.5-2.05,3.75-4.98,3.75-8.78s-1.25-6.72-3.75-8.74c-2.5-2.03-6.13-3.04-10.88-3.04h-12.76v23.64h12.76c4.75,0,8.38-1.03,10.88-3.08Z"></path><path d="M377.66,436.76c-4.25-2.33-7.59-5.54-10.02-9.64-2.43-4.1-3.64-8.68-3.64-13.73s1.21-9.63,3.64-13.73c2.43-4.1,5.76-7.32,10.02-9.64,4.25-2.33,9.03-3.49,14.33-3.49s10,1.16,14.26,3.49c4.25,2.33,7.58,5.53,9.98,9.6,2.4,4.08,3.6,8.67,3.6,13.77s-1.2,9.69-3.6,13.77c-2.4,4.08-5.73,7.28-9.98,9.6-4.25,2.33-9,3.49-14.26,3.49s-10.08-1.16-14.33-3.49Zm24.72-5.82c3.08-1.75,5.5-4.16,7.28-7.24,1.78-3.08,2.67-6.51,2.67-10.32s-.89-7.24-2.67-10.32c-1.78-3.08-4.2-5.49-7.28-7.24-3.08-1.75-6.54-2.63-10.39-2.63s-7.34,.88-10.47,2.63c-3.13,1.75-5.58,4.16-7.35,7.24-1.78,3.08-2.66,6.52-2.66,10.32s.89,7.24,2.66,10.32c1.78,3.08,4.23,5.49,7.35,7.24,3.13,1.75,6.61,2.63,10.47,2.63s7.32-.87,10.39-2.63Z"></path><path d="M465.6,392c3.9,3.25,5.85,7.73,5.85,13.43s-1.95,10.18-5.85,13.43c-3.9,3.25-9.26,4.88-16.06,4.88h-12.98v15.91h-7.5v-52.52h20.48c6.8,0,12.15,1.63,16.06,4.88Zm-5.4,22.17c2.5-2.03,3.75-4.94,3.75-8.74s-1.25-6.72-3.75-8.74c-2.5-2.03-6.13-3.04-10.88-3.04h-12.75v23.56h12.75c4.75,0,8.38-1.01,10.88-3.04Z"></path><path d="M511.07,426.51h-27.91l-5.78,13.13h-7.73l23.78-52.52h7.43l23.86,52.52h-7.88l-5.78-13.13Zm-2.63-6l-11.33-25.74-11.33,25.74h22.66Z"></path><rect x="210.34" y="342.33" width="792.71" height="10.51"></rect><g><path d="M428.86,106.14h22.41v43c-5.75,4.34-12.42,7.67-19.99,9.99-7.57,2.32-15.19,3.48-22.86,3.48-11,0-20.89-2.35-29.67-7.04-8.78-4.69-15.67-11.2-20.67-19.53-5-8.33-7.49-17.74-7.49-28.24s2.5-19.91,7.49-28.24c5-8.33,11.93-14.84,20.82-19.53,8.88-4.69,18.87-7.04,29.98-7.04,9.28,0,17.71,1.57,25.28,4.69,7.57,3.13,13.93,7.67,19.08,13.63l-15.75,14.53c-7.57-7.97-16.71-11.96-27.4-11.96-6.76,0-12.77,1.41-18.02,4.24-5.25,2.83-9.34,6.81-12.26,11.96-2.93,5.15-4.39,11.05-4.39,17.71s1.46,12.41,4.39,17.56c2.93,5.15,6.99,9.16,12.19,12.04,5.2,2.88,11.13,4.31,17.79,4.31,7.06,0,13.42-1.51,19.08-4.54v-31.04Z"></path><path d="M500.24,81.16c4.79-2.02,10.32-3.03,16.58-3.03v21.8c-2.63-.2-4.39-.3-5.3-.3-6.76,0-12.06,1.89-15.9,5.68-3.84,3.78-5.75,9.46-5.75,17.03v38.45h-23.62V79.34h22.56v10.75c2.83-3.94,6.64-6.91,11.43-8.93Z"></path><path d="M586.31,87.14c6.76,6.01,10.14,15.06,10.14,27.18v46.48h-22.1v-10.14c-4.44,7.57-12.72,11.35-24.83,11.35-6.26,0-11.68-1.06-16.27-3.18-4.59-2.12-8.1-5.05-10.52-8.78-2.42-3.73-3.63-7.97-3.63-12.72,0-7.57,2.85-13.52,8.55-17.86,5.7-4.34,14.51-6.51,26.42-6.51h18.77c0-5.15-1.57-9.11-4.69-11.88-3.13-2.78-7.82-4.16-14.08-4.16-4.34,0-8.61,.68-12.79,2.04-4.19,1.36-7.75,3.21-10.67,5.53l-8.48-16.5c4.44-3.13,9.77-5.55,15.97-7.27,6.21-1.72,12.59-2.57,19.15-2.57,12.62,0,22.31,3,29.07,9.01Zm-20.14,56.17c3.13-1.87,5.35-4.62,6.66-8.25v-8.33h-16.2c-9.69,0-14.53,3.18-14.53,9.54,0,3.03,1.19,5.43,3.56,7.19,2.37,1.77,5.63,2.65,9.77,2.65s7.62-.93,10.75-2.8Z"></path><path d="M685.7,87.22c6.21,6.06,9.31,15.04,9.31,26.95v46.63h-23.62v-43c0-6.46-1.41-11.28-4.24-14.46-2.83-3.18-6.91-4.77-12.26-4.77-5.96,0-10.7,1.84-14.23,5.53-3.53,3.69-5.3,9.16-5.3,16.43v40.27h-23.62V79.34h22.56v9.54c3.13-3.43,7.01-6.08,11.66-7.95,4.64-1.87,9.74-2.8,15.29-2.8,10.09,0,18.24,3.03,24.45,9.08Z"></path></g><g><path d="M322.89,308.41l-38.55-54.01c-5.69,.77-10.93,1.15-15.7,1.15h-46.16v52.86h-11.77V146.84h57.94c20.31,0,36.24,4.81,47.78,14.43,11.54,9.62,17.31,22.97,17.31,40.05,0,12.77-3.27,23.51-9.81,32.2-6.54,8.7-15.89,14.81-28.04,18.35l40.39,56.55h-13.39Zm-54.24-63.24c17.23,0,30.39-3.81,39.47-11.43,9.08-7.62,13.62-18.43,13.62-32.43s-4.54-24.81-13.62-32.43c-9.08-7.62-22.24-11.43-39.47-11.43h-46.16v87.71h46.16Z"></path><path d="M465.76,250.94h-103.64c.31,9.39,2.69,17.74,7.15,25.04,4.46,7.31,10.5,12.97,18.12,16.96,7.62,4,16.19,6,25.74,6,7.85,0,15.12-1.42,21.81-4.27,6.69-2.85,12.27-7.04,16.73-12.58l6.69,7.62c-5.23,6.31-11.81,11.16-19.74,14.54-7.93,3.39-16.5,5.08-25.74,5.08-12,0-22.7-2.62-32.08-7.85-9.39-5.23-16.73-12.46-22.04-21.7-5.31-9.23-7.96-19.77-7.96-31.62s2.5-22.19,7.5-31.51c5-9.31,11.89-16.58,20.66-21.81,8.77-5.23,18.62-7.85,29.54-7.85s20.73,2.58,29.43,7.73c8.69,5.16,15.54,12.35,20.54,21.58,5,9.23,7.5,19.7,7.5,31.39l-.23,3.23Zm-80.09-48.13c-6.77,3.77-12.2,9.08-16.27,15.93-4.08,6.85-6.43,14.58-7.04,23.2h92.33c-.46-8.62-2.77-16.31-6.93-23.08-4.15-6.77-9.62-12.08-16.39-15.93-6.77-3.84-14.39-5.77-22.85-5.77s-16.08,1.89-22.85,5.66Z"></path><path d="M495.3,304.95c-8.77-2.92-15.62-6.61-20.54-11.08l5.31-9.23c4.92,4.15,11.27,7.62,19.04,10.39,7.77,2.77,15.89,4.16,24.35,4.16,12.15,0,21.12-2,26.89-6,5.77-4,8.66-9.54,8.66-16.62,0-5.08-1.58-9.08-4.73-12-3.16-2.92-7.04-5.08-11.66-6.46-4.62-1.38-11-2.85-19.16-4.39-9.54-1.69-17.24-3.54-23.08-5.54-5.85-2-10.85-5.23-15-9.69-4.16-4.46-6.23-10.62-6.23-18.47,0-9.54,3.96-17.43,11.89-23.66,7.92-6.23,19.19-9.35,33.81-9.35,7.69,0,15.31,1.08,22.85,3.23,7.54,2.16,13.69,5,18.46,8.54l-5.31,9.23c-4.93-3.54-10.54-6.23-16.85-8.08-6.31-1.85-12.77-2.77-19.39-2.77-11.24,0-19.7,2.08-25.39,6.23-5.69,4.15-8.54,9.62-8.54,16.39,0,5.39,1.62,9.58,4.85,12.58,3.23,3,7.19,5.23,11.89,6.69,4.69,1.46,11.27,3.04,19.74,4.73,9.38,1.69,16.96,3.5,22.74,5.42,5.77,1.93,10.65,5.04,14.66,9.35,4,4.31,6,10.24,6,17.77,0,10-4.15,18-12.46,24-8.31,6-20,9-35.08,9-9.69,0-18.93-1.46-27.7-4.39Z"></path><path d="M695.42,250.94h-103.64c.31,9.39,2.69,17.74,7.15,25.04,4.46,7.31,10.5,12.97,18.12,16.96,7.62,4,16.19,6,25.74,6,7.85,0,15.12-1.42,21.81-4.27,6.69-2.85,12.27-7.04,16.73-12.58l6.69,7.62c-5.23,6.31-11.81,11.16-19.74,14.54-7.93,3.39-16.5,5.08-25.74,5.08-12,0-22.7-2.62-32.08-7.85-9.39-5.23-16.73-12.46-22.04-21.7-5.31-9.23-7.96-19.77-7.96-31.62s2.5-22.19,7.5-31.51c5-9.31,11.89-16.58,20.66-21.81,8.77-5.23,18.62-7.85,29.54-7.85s20.73,2.58,29.43,7.73c8.69,5.16,15.54,12.35,20.54,21.58,5,9.23,7.5,19.7,7.5,31.39l-.23,3.23Zm-80.09-48.13c-6.77,3.77-12.2,9.08-16.27,15.93-4.08,6.85-6.43,14.58-7.04,23.2h92.33c-.46-8.62-2.77-16.31-6.93-23.08-4.15-6.77-9.62-12.08-16.39-15.93-6.77-3.84-14.39-5.77-22.85-5.77s-16.08,1.89-22.85,5.66Z"></path><path d="M750.58,194.04c7.85-4.69,17.39-7.04,28.62-7.04v11.31l-2.77-.23c-13.39,0-23.85,4.19-31.39,12.58-7.54,8.39-11.31,20.04-11.31,34.97v62.78h-11.54v-120.49h11.08v26.31c3.69-8.77,9.46-15.5,17.31-20.2Z"></path><path d="M904.07,187.93l-54.47,120.49h-11.77l-54.24-120.49h12.23l48.01,107.79,48.47-107.79h11.77Z"></path><path d="M991.32,198.43c8,7.62,12,18.81,12,33.58v76.4h-11.08v-21.47c-3.85,7.08-9.46,12.58-16.85,16.5-7.39,3.92-16.24,5.89-26.54,5.89-13.39,0-23.97-3.15-31.74-9.46-7.77-6.31-11.66-14.62-11.66-24.93s3.58-18.12,10.73-24.35c7.15-6.23,18.58-9.35,34.28-9.35h41.32v-9.69c0-11.23-3.04-19.77-9.12-25.62-6.08-5.85-14.97-8.77-26.66-8.77-8,0-15.66,1.38-22.97,4.16-7.31,2.77-13.5,6.46-18.58,11.08l-5.77-8.31c6-5.38,13.23-9.58,21.7-12.58,8.46-3,17.31-4.5,26.54-4.5,14.92,0,26.39,3.81,34.39,11.43Zm-15.35,94.52c7-4.62,12.27-11.31,15.81-20.08v-22.62h-41.09c-11.85,0-20.43,2.16-25.74,6.46-5.31,4.31-7.96,10.24-7.96,17.77s2.92,14.04,8.77,18.58c5.85,4.54,14.08,6.81,24.7,6.81,10,0,18.5-2.31,25.5-6.92Z"></path></g></g></g></g><g id="Capa_43"><g><g><path class="cls-1" d="M604.01,436.64v-52.17h20.35c4.57,0,8.47,.72,11.7,2.16,3.23,1.44,5.71,3.53,7.45,6.26,1.74,2.73,2.61,5.99,2.61,9.76s-.87,7.02-2.61,9.73c-1.74,2.71-4.22,4.79-7.45,6.26-3.23,1.47-7.13,2.2-11.7,2.2h-16.25l3.35-3.5v19.3h-7.45Zm7.45-18.56l-3.35-3.73h16.03c4.77,0,8.39-1.02,10.85-3.06,2.46-2.04,3.69-4.92,3.69-8.64s-1.23-6.61-3.69-8.64c-2.46-2.04-6.07-3.06-10.85-3.06h-16.03l3.35-3.73v30.85Z"></path><path class="cls-7" d="M657.08,436.64v-52.17h20.35c4.57,0,8.47,.72,11.7,2.16,3.23,1.44,5.71,3.53,7.45,6.26,1.74,2.73,2.61,5.99,2.61,9.76s-.87,7.02-2.61,9.73c-1.74,2.71-4.22,4.78-7.45,6.22-3.23,1.44-7.13,2.16-11.7,2.16h-16.25l3.35-3.43v19.3h-7.45Zm7.45-18.56l-3.35-3.65h16.03c4.77,0,8.39-1.03,10.85-3.09,2.46-2.06,3.69-4.96,3.69-8.68s-1.23-6.61-3.69-8.64c-2.46-2.04-6.07-3.06-10.85-3.06h-16.03l3.35-3.73v30.85Zm27.43,18.56l-13.27-18.93h7.98l13.42,18.93h-8.12Z"></path><path class="cls-8" d="M718.72,430.16h30.41v6.48h-37.87v-52.17h36.82v6.48h-29.37v39.2Zm-.67-23.18h26.83v6.33h-26.83v-6.33Z"></path><path class="cls-3" d="M761.2,436.64v-52.17h6.11l23.41,39.42h-3.28l23.11-39.42h6.11l.08,52.17h-7.16l-.08-40.91h1.71l-20.57,34.58h-3.43l-20.72-34.58h1.86v40.91h-7.16Z"></path><path class="cls-4" d="M832.39,436.64v-52.17h7.45v52.17h-7.45Z"></path><path class="cls-5" d="M877.11,437.24c-6.86,0-12.25-1.96-16.17-5.89-3.93-3.92-5.89-9.66-5.89-17.21v-29.66h7.45v29.36c0,5.81,1.28,10.06,3.84,12.74,2.56,2.68,6.17,4.02,10.85,4.02s8.36-1.34,10.92-4.02c2.56-2.68,3.84-6.93,3.84-12.74v-29.36h7.23v29.66c0,7.55-1.95,13.29-5.85,17.21-3.9,3.93-9.31,5.89-16.21,5.89Z"></path><path class="cls-2" d="M914.45,436.64v-52.17h6.11l23.41,39.42h-3.28l23.11-39.42h6.11l.08,52.17h-7.16l-.08-40.91h1.71l-20.57,34.58h-3.43l-20.72-34.58h1.86v40.91h-7.16Z"></path></g><g><path class="cls-6" d="M992.31,412.12c-3.67,0-7.13-1.44-9.72-4.04-2.59-2.6-4.02-6.06-4.01-9.73,.01-7.54,6.18-13.67,13.75-13.67,3.69,0,7.13,1.44,9.72,4.05,2.59,2.6,4.01,6.06,4,9.72-.02,7.54-6.18,13.67-13.73,13.67h-.01Zm0-25.46c-6.45,0-11.71,5.26-11.74,11.72-.01,3.12,1.2,6.07,3.42,8.29,2.22,2.23,5.18,3.46,8.32,3.46,6.45,0,11.72-5.27,11.75-11.74,0-6.46-5.27-11.72-11.72-11.74h-.02Z"></path><path class="cls-9" d="M987.24,405.14v-13.48c.1,0,.2-.02,.31-.02,1.55,0,3.11,0,4.66,0,1.15,0,2.27,.19,3.28,.78,1.57,.92,2.21,2.37,2.19,4.13,0,1.17-.33,2.25-1.12,3.14-.28,.32-.62,.58-.97,.9,1.09,1.49,2.18,3,3.31,4.55-.14,0-.23,.02-.32,.02-.97,0-1.94,0-2.91,0-.22,0-.35-.07-.48-.25-.79-1.1-1.6-2.2-2.4-3.3-.12-.17-.25-.24-.46-.23-.66,.01-1.32,.01-1.98,0-.2,0-.27,.06-.27,.27,0,1.05,0,2.1,0,3.15v.34h-2.85Zm2.85-6.62c.83,0,1.62,0,2.4,0,.21,0,.43-.03,.64-.07,1.48-.29,1.85-1.25,1.64-2.5-.14-.83-.77-1.25-1.54-1.33-.94-.1-1.9-.07-2.85-.12-.25-.01-.29,.09-.29,.3,0,.84,0,1.67,0,2.51v1.2Z"></path></g><polyline class="cls-10" points="562.44 450 562.44 371.29 567.68 371.29 567.68 450"></polyline><path class="cls-15" d="M251.98,430.12v6.53h-38.12v-52.52h37.07v6.53h-29.56v16.13h26.34v6.38h-26.34v16.96h30.61Z"></path><path class="cls-18" d="M267.29,431.24c-3.9-4-5.85-9.75-5.85-17.26v-29.86h7.5v29.56c0,11.25,4.93,16.88,14.78,16.88,4.8,0,8.48-1.39,11.03-4.16,2.55-2.78,3.83-7.02,3.83-12.72v-29.56h7.28v29.86c0,7.55-1.95,13.32-5.85,17.29-3.9,3.98-9.36,5.96-16.36,5.96s-12.46-2-16.36-6Z"></path><path class="cls-14" d="M354.1,436.65l-11.33-16.13c-1.4,.1-2.5,.15-3.3,.15h-12.98v15.98h-7.5v-52.52h20.48c6.8,0,12.16,1.63,16.06,4.88,3.9,3.25,5.85,7.73,5.85,13.43,0,4.05-1,7.5-3,10.35-2,2.85-4.85,4.93-8.55,6.23l12.46,17.63h-8.18Zm-3.98-25.44c2.5-2.05,3.75-4.98,3.75-8.78s-1.25-6.72-3.75-8.74c-2.5-2.03-6.13-3.04-10.88-3.04h-12.76v23.64h12.76c4.75,0,8.38-1.03,10.88-3.08Z"></path><path class="cls-13" d="M380.66,433.76c-4.25-2.33-7.59-5.54-10.02-9.64-2.43-4.1-3.64-8.68-3.64-13.73s1.21-9.63,3.64-13.73c2.43-4.1,5.76-7.32,10.02-9.64,4.25-2.33,9.03-3.49,14.33-3.49s10,1.16,14.26,3.49c4.25,2.33,7.58,5.53,9.98,9.6,2.4,4.08,3.6,8.67,3.6,13.77s-1.2,9.69-3.6,13.77c-2.4,4.08-5.73,7.28-9.98,9.6-4.25,2.33-9,3.49-14.26,3.49s-10.08-1.16-14.33-3.49Zm24.72-5.82c3.08-1.75,5.5-4.16,7.28-7.24,1.78-3.08,2.67-6.51,2.67-10.32s-.89-7.24-2.67-10.32c-1.78-3.08-4.2-5.49-7.28-7.24-3.08-1.75-6.54-2.63-10.39-2.63s-7.34,.88-10.47,2.63c-3.13,1.75-5.58,4.16-7.35,7.24-1.78,3.08-2.66,6.52-2.66,10.32s.89,7.24,2.66,10.32c1.78,3.08,4.23,5.49,7.35,7.24,3.13,1.75,6.61,2.63,10.47,2.63s7.32-.87,10.39-2.63Z"></path><path class="cls-16" d="M468.6,389c3.9,3.25,5.85,7.73,5.85,13.43s-1.95,10.18-5.85,13.43c-3.9,3.25-9.26,4.88-16.06,4.88h-12.98v15.91h-7.5v-52.52h20.48c6.8,0,12.15,1.63,16.06,4.88Zm-5.4,22.17c2.5-2.03,3.75-4.94,3.75-8.74s-1.25-6.72-3.75-8.74c-2.5-2.03-6.13-3.04-10.88-3.04h-12.75v23.56h12.75c4.75,0,8.38-1.01,10.88-3.04Z"></path><path class="cls-17" d="M514.07,423.51h-27.91l-5.78,13.13h-7.73l23.78-52.52h7.43l23.86,52.52h-7.88l-5.78-13.13Zm-2.63-6l-11.33-25.74-11.33,25.74h22.66Z"></path><rect class="cls-11" x="213.34" y="339.33" width="792.71" height="10.51"></rect><g><path class="cls-12" d="M431.86,103.14h22.41v43c-5.75,4.34-12.42,7.67-19.99,9.99-7.57,2.32-15.19,3.48-22.86,3.48-11,0-20.89-2.35-29.67-7.04-8.78-4.69-15.67-11.2-20.67-19.53-5-8.33-7.49-17.74-7.49-28.24s2.5-19.91,7.49-28.24c5-8.33,11.93-14.84,20.82-19.53,8.88-4.69,18.87-7.04,29.98-7.04,9.28,0,17.71,1.57,25.28,4.69,7.57,3.13,13.93,7.67,19.08,13.63l-15.75,14.53c-7.57-7.97-16.71-11.96-27.4-11.96-6.76,0-12.77,1.41-18.02,4.24-5.25,2.83-9.34,6.81-12.26,11.96-2.93,5.15-4.39,11.05-4.39,17.71s1.46,12.41,4.39,17.56c2.93,5.15,6.99,9.16,12.19,12.04,5.2,2.88,11.13,4.31,17.79,4.31,7.06,0,13.42-1.51,19.08-4.54v-31.04Z"></path><path class="cls-19" d="M503.24,78.16c4.79-2.02,10.32-3.03,16.58-3.03v21.8c-2.63-.2-4.39-.3-5.3-.3-6.76,0-12.06,1.89-15.9,5.68-3.84,3.78-5.75,9.46-5.75,17.03v38.45h-23.62V76.34h22.56v10.75c2.83-3.94,6.64-6.91,11.43-8.93Z"></path><path class="cls-24" d="M589.31,84.14c6.76,6.01,10.14,15.06,10.14,27.18v46.48h-22.1v-10.14c-4.44,7.57-12.72,11.35-24.83,11.35-6.26,0-11.68-1.06-16.27-3.18-4.59-2.12-8.1-5.05-10.52-8.78-2.42-3.73-3.63-7.97-3.63-12.72,0-7.57,2.85-13.52,8.55-17.86,5.7-4.34,14.51-6.51,26.42-6.51h18.77c0-5.15-1.57-9.11-4.69-11.88-3.13-2.78-7.82-4.16-14.08-4.16-4.34,0-8.61,.68-12.79,2.04-4.19,1.36-7.75,3.21-10.67,5.53l-8.48-16.5c4.44-3.13,9.77-5.55,15.97-7.27,6.21-1.72,12.59-2.57,19.15-2.57,12.62,0,22.31,3,29.07,9.01Zm-20.14,56.17c3.13-1.87,5.35-4.62,6.66-8.25v-8.33h-16.2c-9.69,0-14.53,3.18-14.53,9.54,0,3.03,1.19,5.43,3.56,7.19,2.37,1.77,5.63,2.65,9.77,2.65s7.62-.93,10.75-2.8Z"></path><path class="cls-25" d="M688.7,84.22c6.21,6.06,9.31,15.04,9.31,26.95v46.63h-23.62v-43c0-6.46-1.41-11.28-4.24-14.46-2.83-3.18-6.91-4.77-12.26-4.77-5.96,0-10.7,1.84-14.23,5.53-3.53,3.69-5.3,9.16-5.3,16.43v40.27h-23.62V76.34h22.56v9.54c3.13-3.43,7.01-6.08,11.66-7.95,4.64-1.87,9.74-2.8,15.29-2.8,10.09,0,18.24,3.03,24.45,9.08Z"></path></g><g><path class="cls-23" d="M325.89,305.41l-38.55-54.01c-5.69,.77-10.93,1.15-15.7,1.15h-46.16v52.86h-11.77V143.84h57.94c20.31,0,36.24,4.81,47.78,14.43,11.54,9.62,17.31,22.97,17.31,40.05,0,12.77-3.27,23.51-9.81,32.2-6.54,8.7-15.89,14.81-28.04,18.35l40.39,56.55h-13.39Zm-54.24-63.24c17.23,0,30.39-3.81,39.47-11.43,9.08-7.62,13.62-18.43,13.62-32.43s-4.54-24.81-13.62-32.43c-9.08-7.62-22.24-11.43-39.47-11.43h-46.16v87.71h46.16Z"></path><path class="cls-22" d="M468.76,247.94h-103.64c.31,9.39,2.69,17.74,7.15,25.04,4.46,7.31,10.5,12.97,18.12,16.96,7.62,4,16.19,6,25.74,6,7.85,0,15.12-1.42,21.81-4.27,6.69-2.85,12.27-7.04,16.73-12.58l6.69,7.62c-5.23,6.31-11.81,11.16-19.74,14.54-7.93,3.39-16.5,5.08-25.74,5.08-12,0-22.7-2.62-32.08-7.85-9.39-5.23-16.73-12.46-22.04-21.7-5.31-9.23-7.96-19.77-7.96-31.62s2.5-22.19,7.5-31.51c5-9.31,11.89-16.58,20.66-21.81,8.77-5.23,18.62-7.85,29.54-7.85s20.73,2.58,29.43,7.73c8.69,5.16,15.54,12.35,20.54,21.58,5,9.23,7.5,19.7,7.5,31.39l-.23,3.23Zm-80.09-48.13c-6.77,3.77-12.2,9.08-16.27,15.93-4.08,6.85-6.43,14.58-7.04,23.2h92.33c-.46-8.62-2.77-16.31-6.93-23.08-4.15-6.77-9.62-12.08-16.39-15.93-6.77-3.84-14.39-5.77-22.85-5.77s-16.08,1.89-22.85,5.66Z"></path><path class="cls-28" d="M498.3,301.95c-8.77-2.92-15.62-6.61-20.54-11.08l5.31-9.23c4.92,4.15,11.27,7.62,19.04,10.39,7.77,2.77,15.89,4.16,24.35,4.16,12.15,0,21.12-2,26.89-6,5.77-4,8.66-9.54,8.66-16.62,0-5.08-1.58-9.08-4.73-12-3.16-2.92-7.04-5.08-11.66-6.46-4.62-1.38-11-2.85-19.16-4.39-9.54-1.69-17.24-3.54-23.08-5.54-5.85-2-10.85-5.23-15-9.69-4.16-4.46-6.23-10.62-6.23-18.47,0-9.54,3.96-17.43,11.89-23.66,7.92-6.23,19.19-9.35,33.81-9.35,7.69,0,15.31,1.08,22.85,3.23,7.54,2.16,13.69,5,18.46,8.54l-5.31,9.23c-4.93-3.54-10.54-6.23-16.85-8.08-6.31-1.85-12.77-2.77-19.39-2.77-11.24,0-19.7,2.08-25.39,6.23-5.69,4.15-8.54,9.62-8.54,16.39,0,5.39,1.62,9.58,4.85,12.58,3.23,3,7.19,5.23,11.89,6.69,4.69,1.46,11.27,3.04,19.74,4.73,9.38,1.69,16.96,3.5,22.74,5.42,5.77,1.93,10.65,5.04,14.66,9.35,4,4.31,6,10.24,6,17.77,0,10-4.15,18-12.46,24-8.31,6-20,9-35.08,9-9.69,0-18.93-1.46-27.7-4.39Z"></path><path class="cls-26" d="M698.42,247.94h-103.64c.31,9.39,2.69,17.74,7.15,25.04,4.46,7.31,10.5,12.97,18.12,16.96,7.62,4,16.19,6,25.74,6,7.85,0,15.12-1.42,21.81-4.27,6.69-2.85,12.27-7.04,16.73-12.58l6.69,7.62c-5.23,6.31-11.81,11.16-19.74,14.54-7.93,3.39-16.5,5.08-25.74,5.08-12,0-22.7-2.62-32.08-7.85-9.39-5.23-16.73-12.46-22.04-21.7-5.31-9.23-7.96-19.77-7.96-31.62s2.5-22.19,7.5-31.51c5-9.31,11.89-16.58,20.66-21.81,8.77-5.23,18.62-7.85,29.54-7.85s20.73,2.58,29.43,7.73c8.69,5.16,15.54,12.35,20.54,21.58,5,9.23,7.5,19.7,7.5,31.39l-.23,3.23Zm-80.09-48.13c-6.77,3.77-12.2,9.08-16.27,15.93-4.08,6.85-6.43,14.58-7.04,23.2h92.33c-.46-8.62-2.77-16.31-6.93-23.08-4.15-6.77-9.62-12.08-16.39-15.93-6.77-3.84-14.39-5.77-22.85-5.77s-16.08,1.89-22.85,5.66Z"></path><path class="cls-20" d="M753.58,191.04c7.85-4.69,17.39-7.04,28.62-7.04v11.31l-2.77-.23c-13.39,0-23.85,4.19-31.39,12.58-7.54,8.39-11.31,20.04-11.31,34.97v62.78h-11.54v-120.49h11.08v26.31c3.69-8.77,9.46-15.5,17.31-20.2Z"></path><path class="cls-21" d="M907.07,184.93l-54.47,120.49h-11.77l-54.24-120.49h12.23l48.01,107.79,48.47-107.79h11.77Z"></path><path class="cls-27" d="M994.32,195.43c8,7.62,12,18.81,12,33.58v76.4h-11.08v-21.47c-3.85,7.08-9.46,12.58-16.85,16.5-7.39,3.92-16.24,5.89-26.54,5.89-13.39,0-23.97-3.15-31.74-9.46-7.77-6.31-11.66-14.62-11.66-24.93s3.58-18.12,10.73-24.35c7.15-6.23,18.58-9.35,34.28-9.35h41.32v-9.69c0-11.23-3.04-19.77-9.12-25.62-6.08-5.85-14.97-8.77-26.66-8.77-8,0-15.66,1.38-22.97,4.16-7.31,2.77-13.5,6.46-18.58,11.08l-5.77-8.31c6-5.38,13.23-9.58,21.7-12.58,8.46-3,17.31-4.5,26.54-4.5,14.92,0,26.39,3.81,34.39,11.43Zm-15.35,94.52c7-4.62,12.27-11.31,15.81-20.08v-22.62h-41.09c-11.85,0-20.43,2.16-25.74,6.46-5.31,4.31-7.96,10.24-7.96,17.77s2.92,14.04,8.77,18.58c5.85,4.54,14.08,6.81,24.7,6.81,10,0,18.5-2.31,25.5-6.92Z"></path></g></g></g></svg>