<svg xmlns="http://www.w3.org/2000/svg" xmlns:xlink="http://www.w3.org/1999/xlink" viewBox="0 0 1220 500"><defs><style>.cls-1{fill:url(#Degradado_sin_nombre_127);}.cls-2{fill:url(#Degradado_sin_nombre_127-7);}.cls-3{fill:url(#Degradado_sin_nombre_127-4);}.cls-4{fill:url(#Degradado_sin_nombre_127-5);}.cls-5{fill:url(#Degradado_sin_nombre_127-6);}.cls-6{fill:url(#Degradado_sin_nombre_127-8);}.cls-7{fill:url(#Degradado_sin_nombre_127-2);}.cls-8{fill:url(#Degradado_sin_nombre_127-3);}.cls-9{fill:url(#Degradado_sin_nombre_127-9);}.cls-10{fill:url(#Degradado_sin_nombre_127-10);}.cls-11{fill:url(#Degradado_sin_nombre_127-17);}.cls-12{fill:url(#Degradado_sin_nombre_127-18);}.cls-13{fill:url(#Degradado_sin_nombre_127-14);}.cls-14{fill:url(#Degradado_sin_nombre_127-13);}.cls-15{fill:url(#Degradado_sin_nombre_127-11);}.cls-16{fill:url(#Degradado_sin_nombre_127-15);}.cls-17{fill:url(#Degradado_sin_nombre_127-16);}.cls-18{fill:url(#Degradado_sin_nombre_127-12);}.cls-19{fill:url(#Degradado_sin_nombre_127-19);}.cls-20{fill:url(#Degradado_sin_nombre_127-26);}.cls-21{fill:url(#Degradado_sin_nombre_127-27);}.cls-22{fill:url(#Degradado_sin_nombre_127-23);}.cls-23{fill:url(#Degradado_sin_nombre_127-22);}.cls-24{fill:url(#Degradado_sin_nombre_127-20);}.cls-25{fill:url(#Degradado_sin_nombre_127-21);}.cls-26{fill:url(#Degradado_sin_nombre_127-25);}.cls-27{fill:url(#Degradado_sin_nombre_127-29);}.cls-28{fill:url(#Degradado_sin_nombre_127-28);}.cls-29{fill:url(#Degradado_sin_nombre_127-24);}.cls-30{fill:url(#Degradado_sin_nombre_127-32);}.cls-31{fill:url(#Degradado_sin_nombre_127-31);}.cls-32{fill:url(#Degradado_sin_nombre_127-30);}</style><linearGradient id="Degradado_sin_nombre_127" x1="831.75" y1="483.68" x2="293.9" y2="307.3" gradientUnits="userSpaceOnUse"><stop offset="0" stop-color="#d29c05"></stop><stop offset=".09" stop-color="#e3b12b"></stop><stop offset=".22" stop-color="#ffd365"></stop><stop offset=".34" stop-color="#ffd262"></stop><stop offset=".43" stop-color="#ffd058"></stop><stop offset=".49" stop-color="#ffcf4e"></stop><stop offset=".73" stop-color="#d19904"></stop><stop offset=".75" stop-color="#d59e0b"></stop><stop offset=".81" stop-color="#e7b328"></stop><stop offset=".88" stop-color="#f4c23d"></stop><stop offset=".94" stop-color="#fccb49"></stop><stop offset="1" stop-color="#ffcf4e"></stop></linearGradient><linearGradient id="Degradado_sin_nombre_127-2" x1="836.57" y1="468.97" x2="298.72" y2="292.59" xlink:href="#Degradado_sin_nombre_127"></linearGradient><linearGradient id="Degradado_sin_nombre_127-3" x1="842" y1="452.43" x2="304.15" y2="276.05" xlink:href="#Degradado_sin_nombre_127"></linearGradient><linearGradient id="Degradado_sin_nombre_127-4" x1="847.38" y1="436.01" x2="309.54" y2="259.63" xlink:href="#Degradado_sin_nombre_127"></linearGradient><linearGradient id="Degradado_sin_nombre_127-5" x1="851.67" y1="422.93" x2="313.82" y2="246.55" xlink:href="#Degradado_sin_nombre_127"></linearGradient><linearGradient id="Degradado_sin_nombre_127-6" x1="856.1" y1="409.42" x2="318.25" y2="233.04" xlink:href="#Degradado_sin_nombre_127"></linearGradient><linearGradient id="Degradado_sin_nombre_127-7" x1="861.31" y1="393.54" x2="323.46" y2="217.15" xlink:href="#Degradado_sin_nombre_127"></linearGradient><linearGradient id="Degradado_sin_nombre_127-8" x1="869.24" y1="369.37" x2="331.39" y2="192.98" xlink:href="#Degradado_sin_nombre_127"></linearGradient><linearGradient id="Degradado_sin_nombre_127-9" x1="869.06" y1="369.9" x2="331.22" y2="193.52" xlink:href="#Degradado_sin_nombre_127"></linearGradient><linearGradient id="Degradado_sin_nombre_127-10" x1="827.01" y1="498.13" x2="289.16" y2="321.75" xlink:href="#Degradado_sin_nombre_127"></linearGradient><linearGradient id="Degradado_sin_nombre_127-11" x1="796.85" y1="590.1" x2="259" y2="413.72" xlink:href="#Degradado_sin_nombre_127"></linearGradient><linearGradient id="Degradado_sin_nombre_127-12" x1="802.21" y1="573.74" x2="264.37" y2="397.36" xlink:href="#Degradado_sin_nombre_127"></linearGradient><linearGradient id="Degradado_sin_nombre_127-13" x1="805.9" y1="562.52" x2="268.05" y2="386.13" xlink:href="#Degradado_sin_nombre_127"></linearGradient><linearGradient id="Degradado_sin_nombre_127-14" x1="811.62" y1="545.05" x2="273.78" y2="368.67" xlink:href="#Degradado_sin_nombre_127"></linearGradient><linearGradient id="Degradado_sin_nombre_127-15" x1="816.17" y1="531.18" x2="278.33" y2="354.8" xlink:href="#Degradado_sin_nombre_127"></linearGradient><linearGradient id="Degradado_sin_nombre_127-16" x1="820.1" y1="519.19" x2="282.26" y2="342.81" xlink:href="#Degradado_sin_nombre_127"></linearGradient><linearGradient id="Degradado_sin_nombre_127-17" x1="849.38" y1="429.93" x2="311.53" y2="253.54" xlink:href="#Degradado_sin_nombre_127"></linearGradient><linearGradient id="Degradado_sin_nombre_127-18" x1="893.01" y1="296.89" x2="355.16" y2="120.51" xlink:href="#Degradado_sin_nombre_127"></linearGradient><linearGradient id="Degradado_sin_nombre_127-19" x1="898.79" y1="279.26" x2="360.94" y2="102.88" xlink:href="#Degradado_sin_nombre_127"></linearGradient><linearGradient id="Degradado_sin_nombre_127-20" x1="904.96" y1="260.45" x2="367.11" y2="84.07" xlink:href="#Degradado_sin_nombre_127"></linearGradient><linearGradient id="Degradado_sin_nombre_127-21" x1="918.88" y1="217.99" x2="381.03" y2="41.6" xlink:href="#Degradado_sin_nombre_127"></linearGradient><linearGradient id="Degradado_sin_nombre_127-22" x1="929.34" y1="186.08" x2="391.5" y2="9.7" xlink:href="#Degradado_sin_nombre_127"></linearGradient><linearGradient id="Degradado_sin_nombre_127-23" x1="842.38" y1="451.26" x2="304.53" y2="274.88" xlink:href="#Degradado_sin_nombre_127"></linearGradient><linearGradient id="Degradado_sin_nombre_127-24" x1="846.62" y1="438.33" x2="308.78" y2="261.94" xlink:href="#Degradado_sin_nombre_127"></linearGradient><linearGradient id="Degradado_sin_nombre_127-25" x1="854.85" y1="413.23" x2="317.01" y2="236.84" xlink:href="#Degradado_sin_nombre_127"></linearGradient><linearGradient id="Degradado_sin_nombre_127-26" x1="870.32" y1="366.07" x2="332.47" y2="189.69" xlink:href="#Degradado_sin_nombre_127"></linearGradient><linearGradient id="Degradado_sin_nombre_127-27" x1="877.76" y1="343.37" x2="339.92" y2="166.99" xlink:href="#Degradado_sin_nombre_127"></linearGradient><linearGradient id="Degradado_sin_nombre_127-28" x1="886.22" y1="317.58" x2="348.37" y2="141.19" xlink:href="#Degradado_sin_nombre_127"></linearGradient><linearGradient id="Degradado_sin_nombre_127-29" x1="886.33" y1="317.23" x2="348.49" y2="140.85" xlink:href="#Degradado_sin_nombre_127"></linearGradient><linearGradient id="Degradado_sin_nombre_127-30" x1="898.05" y1="281.51" x2="360.2" y2="105.13" xlink:href="#Degradado_sin_nombre_127"></linearGradient><linearGradient id="Degradado_sin_nombre_127-31" x1="898.37" y1="280.53" x2="360.52" y2="104.15" xlink:href="#Degradado_sin_nombre_127"></linearGradient><linearGradient id="Degradado_sin_nombre_127-32" x1="905.88" y1="257.63" x2="368.03" y2="81.24" xlink:href="#Degradado_sin_nombre_127"></linearGradient></defs><g id="Capa_42"><g id="joyas-imperiales"><g><g><path d="M601.38,440.5v-48.83h19.05c4.28,0,7.93,.67,10.95,2.02,3.02,1.35,5.35,3.3,6.98,5.86,1.63,2.56,2.44,5.6,2.44,9.14s-.81,6.57-2.44,9.1c-1.63,2.53-3.95,4.49-6.98,5.86-3.02,1.37-6.67,2.06-10.95,2.06h-15.21l3.14-3.28v18.07h-6.98Zm6.98-17.37l-3.14-3.49h15c4.46,0,7.85-.95,10.15-2.86,2.3-1.91,3.45-4.6,3.45-8.09s-1.15-6.18-3.45-8.09c-2.3-1.91-5.69-2.86-10.15-2.86h-15l3.14-3.49v28.88Z"></path><path d="M651.06,440.5v-48.83h19.05c4.28,0,7.93,.67,10.95,2.02,3.02,1.35,5.35,3.3,6.98,5.86,1.63,2.56,2.44,5.6,2.44,9.14s-.81,6.57-2.44,9.1c-1.63,2.53-3.95,4.48-6.98,5.82-3.02,1.35-6.68,2.02-10.95,2.02h-15.21l3.14-3.21v18.07h-6.98Zm6.98-17.37l-3.14-3.42h15c4.47,0,7.85-.96,10.15-2.89,2.3-1.93,3.45-4.64,3.45-8.13s-1.15-6.18-3.45-8.09c-2.3-1.91-5.69-2.86-10.15-2.86h-15l3.14-3.49v28.88Zm25.67,17.37l-12.42-17.72h7.47l12.56,17.72h-7.6Z"></path><path d="M708.75,434.43h28.47v6.07h-35.44v-48.83h34.46v6.07h-27.49v36.69Zm-.63-21.69h25.12v5.93h-25.12v-5.93Z"></path><path d="M748.52,440.5v-48.83h5.72l21.91,36.9h-3.07l21.63-36.9h5.72l.07,48.83h-6.7l-.07-38.29h1.6l-19.26,32.37h-3.21l-19.4-32.37h1.74v38.29h-6.7Z"></path><path d="M815.15,440.5v-48.83h6.98v48.83h-6.98Z"></path><path d="M857.01,441.05c-6.42,0-11.47-1.84-15.14-5.51-3.67-3.67-5.51-9.04-5.51-16.11v-27.76h6.98v27.48c0,5.44,1.2,9.42,3.59,11.93,2.4,2.51,5.78,3.77,10.15,3.77s7.82-1.26,10.22-3.77c2.4-2.51,3.59-6.49,3.59-11.93v-27.48h6.77v27.76c0,7.07-1.83,12.44-5.48,16.11-3.65,3.67-8.71,5.51-15.17,5.51Z"></path><path d="M891.96,440.5v-48.83h5.72l21.91,36.9h-3.07l21.63-36.9h5.72l.07,48.83h-6.7l-.07-38.29h1.6l-19.26,32.37h-3.21l-19.4-32.37h1.74v38.29h-6.7Z"></path></g><g><path d="M964.84,417.55c-3.44,0-6.67-1.35-9.1-3.78-2.43-2.43-3.76-5.67-3.75-9.11,.01-7.06,5.78-12.8,12.87-12.8,3.45,0,6.67,1.35,9.1,3.79,2.42,2.44,3.76,5.67,3.75,9.1-.02,7.06-5.78,12.8-12.85,12.8h-.01Zm0-23.83c-6.04,0-10.96,4.92-10.98,10.97-.01,2.92,1.13,5.68,3.2,7.76,2.08,2.09,4.84,3.24,7.79,3.24,6.04,0,10.97-4.93,10.99-10.99,0-6.05-4.93-10.97-10.97-10.99h-.02Z"></path><path d="M960.09,411.01v-12.62c.1,0,.19-.02,.29-.02,1.46,0,2.91,0,4.37,0,1.08,0,2.12,.18,3.07,.73,1.47,.86,2.07,2.21,2.05,3.87,0,1.1-.31,2.11-1.05,2.94-.26,.3-.58,.54-.9,.84,1.02,1.39,2.05,2.81,3.1,4.25-.13,0-.22,.02-.3,.02-.91,0-1.82,0-2.73,0-.21,0-.33-.07-.45-.23-.74-1.03-1.5-2.06-2.24-3.09-.11-.16-.23-.22-.43-.22-.62,.01-1.24,.01-1.86,0-.19,0-.25,.06-.25,.25,0,.98,0,1.96,0,2.95v.31h-2.67Zm2.67-6.2c.78,0,1.51,0,2.25,0,.2,0,.4-.02,.59-.06,1.39-.27,1.73-1.17,1.53-2.34-.13-.78-.72-1.17-1.44-1.24-.88-.09-1.78-.07-2.67-.11-.23-.01-.27,.08-.27,.29,0,.78,0,1.56,0,2.35v1.13Z"></path></g><polyline points="562.47 453 562.47 379.33 567.39 379.33 567.39 453"></polyline><path d="M271.89,434.39v6.11h-35.68v-49.16h34.69v6.11h-27.67v15.1h24.65v5.97h-24.65v15.87h28.65Z"></path><path d="M286.22,435.44c-3.65-3.75-5.48-9.13-5.48-16.15v-27.95h7.02v27.67c0,10.53,4.61,15.8,13.84,15.8,4.49,0,7.93-1.3,10.32-3.9,2.39-2.6,3.58-6.57,3.58-11.9v-27.67h6.81v27.95c0,7.07-1.83,12.47-5.48,16.19-3.65,3.72-8.76,5.58-15.31,5.58s-11.66-1.87-15.31-5.62Z"></path><path d="M367.47,440.5l-10.61-15.1c-1.31,.09-2.34,.14-3.09,.14h-12.15v14.96h-7.02v-49.16h19.17c6.37,0,11.38,1.52,15.03,4.56,3.65,3.04,5.48,7.23,5.48,12.57,0,3.79-.94,7.02-2.81,9.69-1.87,2.67-4.54,4.61-8.01,5.83l11.66,16.5h-7.66Zm-3.72-23.81c2.34-1.92,3.51-4.66,3.51-8.22s-1.17-6.29-3.51-8.18c-2.34-1.9-5.74-2.84-10.18-2.84h-11.94v22.12h11.94c4.45,0,7.84-.96,10.18-2.88Z"></path><path d="M392.34,437.8c-3.98-2.18-7.11-5.19-9.38-9.02-2.27-3.84-3.41-8.12-3.41-12.85s1.13-9.01,3.41-12.85c2.27-3.84,5.4-6.85,9.38-9.02,3.98-2.18,8.45-3.27,13.41-3.27s9.36,1.09,13.34,3.27c3.98,2.18,7.09,5.17,9.34,8.99,2.25,3.82,3.37,8.11,3.37,12.89s-1.12,9.07-3.37,12.89c-2.25,3.82-5.36,6.81-9.34,8.99-3.98,2.18-8.43,3.27-13.34,3.27s-9.44-1.09-13.41-3.27Zm23.14-5.44c2.88-1.64,5.15-3.9,6.81-6.78,1.66-2.88,2.49-6.1,2.49-9.66s-.83-6.78-2.49-9.66c-1.66-2.88-3.93-5.14-6.81-6.78-2.88-1.64-6.12-2.46-9.73-2.46s-6.87,.82-9.8,2.46c-2.93,1.64-5.22,3.9-6.88,6.78-1.66,2.88-2.49,6.1-2.49,9.66s.83,6.78,2.49,9.66c1.66,2.88,3.96,5.14,6.88,6.78,2.93,1.64,6.19,2.46,9.8,2.46s6.85-.82,9.73-2.46Z"></path><path d="M474.65,395.9c3.65,3.04,5.48,7.23,5.48,12.57s-1.83,9.53-5.48,12.57c-3.65,3.04-8.66,4.57-15.03,4.57h-12.15v14.89h-7.02v-49.16h19.17c6.37,0,11.38,1.52,15.03,4.56Zm-5.06,20.75c2.34-1.9,3.51-4.62,3.51-8.18s-1.17-6.29-3.51-8.18c-2.34-1.9-5.74-2.84-10.18-2.84h-11.94v22.05h11.94c4.45,0,7.84-.95,10.18-2.84Z"></path><path d="M517.2,428.21h-26.12l-5.41,12.29h-7.23l22.26-49.16h6.95l22.33,49.16h-7.37l-5.41-12.29Zm-2.46-5.62l-10.6-24.09-10.61,24.09h21.21Z"></path><rect x="235.72" y="349.41" width="741.98" height="9.84"></rect><g><g><path d="M285.4,170.05c-6.45-3.02-11.73-7.28-15.84-12.76l12.67-15.24c6.62,9.14,14.56,13.7,23.8,13.7,12.44,0,18.67-7.36,18.67-22.09v-61.99h-42.64v-18.67h64.91v79.46c0,14.04-3.43,24.57-10.28,31.6-6.85,7.02-16.9,10.53-30.14,10.53-7.65,0-14.7-1.51-21.15-4.54Z"></path><path d="M398,168.08c-7.42-3.99-13.22-9.56-17.38-16.7-4.17-7.13-6.25-15.21-6.25-24.23s2.08-17.07,6.25-24.15c4.17-7.08,9.96-12.61,17.38-16.61,7.42-3.99,15.76-5.99,25-5.99s17.75,2,25.17,5.99c7.42,4,13.21,9.53,17.38,16.61,4.17,7.08,6.25,15.13,6.25,24.15s-2.08,17.1-6.25,24.23c-4.17,7.14-9.96,12.7-17.38,16.7-7.42,4-15.81,5.99-25.17,5.99s-17.58-2-25-5.99Zm44.53-20.21c5.14-5.25,7.71-12.16,7.71-20.72s-2.57-15.47-7.71-20.72c-5.14-5.25-11.64-7.88-19.52-7.88s-14.36,2.63-19.44,7.88c-5.08,5.25-7.62,12.16-7.62,20.72s2.54,15.47,7.62,20.72c5.08,5.25,11.56,7.88,19.44,7.88s14.39-2.62,19.52-7.88Z"></path><path d="M581.24,81.43l-42.81,98.81c-4,9.93-8.85,16.92-14.56,20.98-5.71,4.05-12.62,6.08-20.72,6.08-4.57,0-9.08-.74-13.53-2.23-4.45-1.48-8.11-3.54-10.96-6.16l8.56-15.76c2.05,1.94,4.48,3.48,7.28,4.62,2.8,1.14,5.62,1.71,8.48,1.71,3.77,0,6.88-.97,9.33-2.91,2.45-1.94,4.71-5.2,6.76-9.76l1.54-3.6-39.9-91.79h22.26l28.77,67.65,28.94-67.65h20.55Z"></path><path d="M663.35,90.08c7.13,6.45,10.7,16.18,10.7,29.2v53.6h-20.21v-11.13c-2.63,4-6.37,7.05-11.22,9.16-4.85,2.11-10.7,3.17-17.55,3.17s-12.84-1.17-17.98-3.51c-5.14-2.34-9.11-5.59-11.9-9.76-2.8-4.17-4.2-8.88-4.2-14.13,0-8.22,3.05-14.81,9.16-19.78,6.11-4.97,15.73-7.45,28.86-7.45h23.63v-1.37c0-6.39-1.91-11.3-5.74-14.73-3.83-3.42-9.5-5.14-17.04-5.14-5.14,0-10.19,.8-15.16,2.4-4.97,1.6-9.16,3.83-12.59,6.68l-8.39-15.58c4.79-3.65,10.56-6.45,17.3-8.39,6.74-1.94,13.87-2.91,21.41-2.91,13.47,0,23.78,3.23,30.91,9.68Zm-19.52,64.73c4.17-2.45,7.11-5.96,8.82-10.53v-10.62h-22.09c-12.33,0-18.5,4.05-18.5,12.16,0,3.88,1.54,6.96,4.62,9.25,3.08,2.28,7.36,3.42,12.84,3.42s10.13-1.23,14.3-3.68Z"></path><path d="M713.79,171.17c-7.08-1.94-12.73-4.39-16.95-7.36l8.22-16.27c4.11,2.74,9.05,4.94,14.81,6.59,5.76,1.66,11.44,2.48,17.04,2.48,12.78,0,19.18-3.37,19.18-10.1,0-3.2-1.63-5.42-4.88-6.68-3.25-1.26-8.48-2.45-15.67-3.6-7.54-1.14-13.67-2.45-18.41-3.94-4.74-1.48-8.85-4.08-12.33-7.79-3.48-3.71-5.22-8.88-5.22-15.5,0-8.68,3.62-15.61,10.87-20.81,7.25-5.19,17.04-7.79,29.37-7.79,6.28,0,12.56,.71,18.84,2.14,6.28,1.43,11.42,3.34,15.41,5.74l-8.22,16.27c-7.76-4.56-16.5-6.85-26.2-6.85-6.28,0-11.05,.94-14.3,2.83-3.25,1.88-4.88,4.37-4.88,7.45,0,3.42,1.74,5.85,5.22,7.28,3.48,1.43,8.88,2.77,16.18,4.02,7.3,1.14,13.3,2.46,17.98,3.94,4.68,1.48,8.7,4,12.07,7.53,3.37,3.54,5.05,8.56,5.05,15.07,0,8.56-3.71,15.41-11.13,20.55-7.42,5.14-17.53,7.71-30.31,7.71-7.42,0-14.67-.97-21.75-2.91Z"></path></g><g><path d="M236.07,197.9h8.73v119.88h-8.73v-119.88Z"></path><path d="M407.58,237.46c6.34,6.51,9.5,15.87,9.5,28.09v52.23h-8.56v-51.55c0-10.04-2.46-17.7-7.36-22.95-4.91-5.25-11.76-7.88-20.55-7.88-10.05,0-18.01,3.14-23.89,9.42-5.88,6.28-8.82,14.73-8.82,25.35v47.61h-8.56v-51.55c0-10.04-2.46-17.7-7.36-22.95-4.91-5.25-11.76-7.88-20.55-7.88-10.05,0-18.01,3.14-23.89,9.42-5.88,6.28-8.82,14.73-8.82,25.35v47.61h-8.56v-89.4h8.22v19.18c2.97-6.28,7.39-11.16,13.27-14.64,5.88-3.48,12.87-5.22,20.98-5.22s14.98,1.83,20.64,5.48c5.65,3.65,9.68,9.02,12.07,16.1,2.97-6.62,7.62-11.87,13.96-15.76,6.34-3.88,13.73-5.82,22.18-5.82,11.07,0,19.78,3.25,26.12,9.76Z"></path><path d="M506.14,233.52c6.73,3.88,12.01,9.25,15.84,16.1,3.82,6.85,5.74,14.67,5.74,23.46s-1.91,16.64-5.74,23.55c-3.83,6.91-9.11,12.27-15.84,16.1-6.74,3.83-14.27,5.74-22.61,5.74-7.88,0-15.01-1.85-21.41-5.57-6.4-3.71-11.36-8.88-14.9-15.5v53.6h-8.56v-122.62h8.22v21.06c3.54-6.85,8.53-12.19,14.98-16.01,6.45-3.82,13.67-5.74,21.66-5.74s15.87,1.94,22.61,5.82Zm-4.62,72.44c5.48-3.2,9.79-7.65,12.93-13.36,3.14-5.71,4.71-12.21,4.71-19.52s-1.57-13.81-4.71-19.52c-3.14-5.71-7.45-10.16-12.93-13.36-5.48-3.2-11.64-4.8-18.5-4.8s-12.99,1.6-18.41,4.8c-5.42,3.2-9.7,7.65-12.84,13.36-3.14,5.71-4.71,12.22-4.71,19.52s1.57,13.82,4.71,19.52c3.14,5.71,7.42,10.16,12.84,13.36,5.42,3.2,11.56,4.79,18.41,4.79s13.02-1.6,18.5-4.79Z"></path><path d="M616.08,275.14h-76.89c.23,6.96,2,13.16,5.31,18.58,3.31,5.42,7.79,9.62,13.44,12.59,5.65,2.97,12.01,4.45,19.09,4.45,5.82,0,11.22-1.05,16.18-3.17,4.97-2.11,9.1-5.22,12.42-9.33l4.97,5.65c-3.88,4.68-8.76,8.28-14.64,10.79-5.88,2.51-12.24,3.77-19.09,3.77-8.91,0-16.84-1.94-23.8-5.82-6.96-3.88-12.42-9.25-16.35-16.1-3.94-6.85-5.91-14.67-5.91-23.46s1.85-16.47,5.57-23.38c3.71-6.91,8.82-12.3,15.33-16.18,6.51-3.88,13.81-5.82,21.92-5.82s15.38,1.91,21.84,5.74c6.45,3.83,11.53,9.16,15.24,16.01,3.71,6.85,5.57,14.62,5.57,23.29l-.17,2.4Zm-59.43-35.71c-5.03,2.8-9.05,6.74-12.07,11.82-3.03,5.08-4.77,10.82-5.22,17.21h68.5c-.34-6.39-2.05-12.1-5.14-17.13-3.08-5.02-7.14-8.96-12.16-11.82-5.02-2.85-10.68-4.28-16.95-4.28s-11.93,1.4-16.95,4.2Z"></path><path d="M650.16,232.92c5.82-3.48,12.9-5.22,21.24-5.22v8.39l-2.05-.17c-9.93,0-17.7,3.11-23.29,9.33-5.6,6.22-8.39,14.87-8.39,25.94v46.58h-8.56v-89.4h8.22v19.52c2.74-6.51,7.02-11.5,12.84-14.98Z"></path><path d="M680.64,204.67c-1.37-1.31-2.06-2.94-2.06-4.88s.68-3.6,2.06-4.97c1.37-1.37,3.02-2.05,4.97-2.05s3.6,.66,4.97,1.97c1.37,1.31,2.05,2.94,2.05,4.88s-.68,3.6-2.05,4.97c-1.37,1.37-3.03,2.05-4.97,2.05s-3.6-.66-4.97-1.97Zm.68,23.72h8.56v89.4h-8.56v-89.4Z"></path><path d="M767.98,236.18c5.93,5.65,8.9,13.96,8.9,24.92v56.69h-8.22v-15.93c-2.86,5.25-7.02,9.33-12.5,12.24s-12.05,4.37-19.69,4.37c-9.93,0-17.78-2.34-23.55-7.02-5.77-4.68-8.65-10.85-8.65-18.5s2.65-13.44,7.96-18.07c5.31-4.62,13.79-6.94,25.43-6.94h30.65v-7.19c0-8.33-2.26-14.67-6.76-19.01-4.51-4.34-11.1-6.51-19.78-6.51-5.94,0-11.62,1.03-17.04,3.08-5.42,2.05-10.02,4.8-13.79,8.22l-4.28-6.17c4.45-3.99,9.82-7.11,16.1-9.33,6.28-2.23,12.84-3.34,19.69-3.34,11.07,0,19.58,2.83,25.52,8.48Zm-11.39,70.13c5.19-3.42,9.1-8.39,11.73-14.9v-16.78h-30.48c-8.79,0-15.16,1.6-19.09,4.8-3.94,3.2-5.91,7.59-5.91,13.19s2.17,10.42,6.51,13.79c4.34,3.37,10.45,5.05,18.32,5.05,7.42,0,13.73-1.71,18.92-5.14Z"></path><path d="M798.46,190.71h8.56v127.07h-8.56v-127.07Z"></path><path d="M904.98,275.14h-76.89c.23,6.96,2,13.16,5.31,18.58,3.31,5.42,7.79,9.62,13.44,12.59,5.65,2.97,12.01,4.45,19.09,4.45,5.82,0,11.22-1.05,16.18-3.17,4.97-2.11,9.1-5.22,12.42-9.33l4.97,5.65c-3.88,4.68-8.76,8.28-14.64,10.79-5.88,2.51-12.24,3.77-19.09,3.77-8.91,0-16.84-1.94-23.8-5.82-6.96-3.88-12.42-9.25-16.35-16.1-3.94-6.85-5.91-14.67-5.91-23.46s1.85-16.47,5.57-23.38c3.71-6.91,8.82-12.3,15.33-16.18,6.51-3.88,13.81-5.82,21.92-5.82s15.38,1.91,21.84,5.74c6.45,3.83,11.53,9.16,15.24,16.01,3.71,6.85,5.57,14.62,5.57,23.29l-.17,2.4Zm-59.43-35.71c-5.03,2.8-9.05,6.74-12.07,11.82-3.03,5.08-4.77,10.82-5.22,17.21h68.5c-.34-6.39-2.05-12.1-5.14-17.13-3.08-5.02-7.14-8.96-12.16-11.82-5.02-2.85-10.68-4.28-16.95-4.28s-11.93,1.4-16.95,4.2Z"></path><path d="M920.05,315.21c-6.51-2.17-11.59-4.91-15.24-8.22l3.94-6.85c3.65,3.08,8.36,5.65,14.13,7.71,5.76,2.05,11.79,3.08,18.07,3.08,9.02,0,15.67-1.48,19.95-4.45,4.28-2.97,6.42-7.08,6.42-12.33,0-3.77-1.17-6.73-3.51-8.9-2.34-2.17-5.22-3.77-8.65-4.8-3.42-1.03-8.16-2.11-14.21-3.25-7.08-1.26-12.79-2.62-17.13-4.11-4.34-1.48-8.05-3.88-11.13-7.19-3.08-3.31-4.62-7.88-4.62-13.7,0-7.08,2.94-12.93,8.82-17.55,5.88-4.62,14.24-6.94,25.09-6.94,5.71,0,11.36,.8,16.95,2.4,5.59,1.6,10.16,3.71,13.7,6.34l-3.94,6.85c-3.66-2.62-7.82-4.62-12.5-5.99-4.68-1.37-9.48-2.05-14.39-2.05-8.33,0-14.62,1.54-18.84,4.62-4.23,3.08-6.34,7.14-6.34,12.16,0,4,1.2,7.11,3.6,9.33,2.4,2.23,5.34,3.88,8.82,4.97,3.48,1.09,8.36,2.26,14.64,3.51,6.96,1.26,12.59,2.6,16.87,4.02,4.28,1.43,7.9,3.74,10.87,6.94,2.97,3.2,4.45,7.59,4.45,13.19,0,7.42-3.08,13.36-9.25,17.81-6.16,4.45-14.84,6.68-26.03,6.68-7.19,0-14.04-1.08-20.55-3.25Z"></path></g></g></g></g></g><g id="Capa_43"><g><g><path class="cls-1" d="M604.38,437.5v-48.83h19.05c4.28,0,7.93,.67,10.95,2.02,3.02,1.35,5.35,3.3,6.98,5.86,1.63,2.56,2.44,5.6,2.44,9.14s-.81,6.57-2.44,9.1c-1.63,2.53-3.95,4.49-6.98,5.86-3.02,1.37-6.67,2.06-10.95,2.06h-15.21l3.14-3.28v18.07h-6.98Zm6.98-17.37l-3.14-3.49h15c4.46,0,7.85-.95,10.15-2.86,2.3-1.91,3.45-4.6,3.45-8.09s-1.15-6.18-3.45-8.09c-2.3-1.91-5.69-2.86-10.15-2.86h-15l3.14-3.49v28.88Z"></path><path class="cls-7" d="M654.06,437.5v-48.83h19.05c4.28,0,7.93,.67,10.95,2.02,3.02,1.35,5.35,3.3,6.98,5.86,1.63,2.56,2.44,5.6,2.44,9.14s-.81,6.57-2.44,9.1c-1.63,2.53-3.95,4.48-6.98,5.82-3.02,1.35-6.68,2.02-10.95,2.02h-15.21l3.14-3.21v18.07h-6.98Zm6.98-17.37l-3.14-3.42h15c4.47,0,7.85-.96,10.15-2.89,2.3-1.93,3.45-4.64,3.45-8.13s-1.15-6.18-3.45-8.09c-2.3-1.91-5.69-2.86-10.15-2.86h-15l3.14-3.49v28.88Zm25.67,17.37l-12.42-17.72h7.47l12.56,17.72h-7.6Z"></path><path class="cls-8" d="M711.75,431.43h28.47v6.07h-35.44v-48.83h34.46v6.07h-27.49v36.69Zm-.63-21.69h25.12v5.93h-25.12v-5.93Z"></path><path class="cls-3" d="M751.52,437.5v-48.83h5.72l21.91,36.9h-3.07l21.63-36.9h5.72l.07,48.83h-6.7l-.07-38.29h1.6l-19.26,32.37h-3.21l-19.4-32.37h1.74v38.29h-6.7Z"></path><path class="cls-4" d="M818.15,437.5v-48.83h6.98v48.83h-6.98Z"></path><path class="cls-5" d="M860.01,438.05c-6.42,0-11.47-1.84-15.14-5.51-3.67-3.67-5.51-9.04-5.51-16.11v-27.76h6.98v27.48c0,5.44,1.2,9.42,3.59,11.93,2.4,2.51,5.78,3.77,10.15,3.77s7.82-1.26,10.22-3.77c2.4-2.51,3.59-6.49,3.59-11.93v-27.48h6.77v27.76c0,7.07-1.83,12.44-5.48,16.11-3.65,3.67-8.71,5.51-15.17,5.51Z"></path><path class="cls-2" d="M894.96,437.5v-48.83h5.72l21.91,36.9h-3.07l21.63-36.9h5.72l.07,48.83h-6.7l-.07-38.29h1.6l-19.26,32.37h-3.21l-19.4-32.37h1.74v38.29h-6.7Z"></path></g><g><path class="cls-6" d="M967.84,414.55c-3.44,0-6.67-1.35-9.1-3.78-2.43-2.43-3.76-5.67-3.75-9.11,.01-7.06,5.78-12.8,12.87-12.8,3.45,0,6.67,1.35,9.1,3.79,2.42,2.44,3.76,5.67,3.75,9.1-.02,7.06-5.78,12.8-12.85,12.8h-.01Zm0-23.83c-6.04,0-10.96,4.92-10.98,10.97-.01,2.92,1.13,5.68,3.2,7.76,2.08,2.09,4.84,3.24,7.79,3.24,6.04,0,10.97-4.93,10.99-10.99,0-6.05-4.93-10.97-10.97-10.99h-.02Z"></path><path class="cls-9" d="M963.09,408.01v-12.62c.1,0,.19-.02,.29-.02,1.46,0,2.91,0,4.37,0,1.08,0,2.12,.18,3.07,.73,1.47,.86,2.07,2.21,2.05,3.87,0,1.1-.31,2.11-1.05,2.94-.26,.3-.58,.54-.9,.84,1.02,1.39,2.05,2.81,3.1,4.25-.13,0-.22,.02-.3,.02-.91,0-1.82,0-2.73,0-.21,0-.33-.07-.45-.23-.74-1.03-1.5-2.06-2.24-3.09-.11-.16-.23-.22-.43-.22-.62,.01-1.24,.01-1.86,0-.19,0-.25,.06-.25,.25,0,.98,0,1.96,0,2.95v.31h-2.67Zm2.67-6.2c.78,0,1.51,0,2.25,0,.2,0,.4-.02,.59-.06,1.39-.27,1.73-1.17,1.53-2.34-.13-.78-.72-1.17-1.44-1.24-.88-.09-1.78-.07-2.67-.11-.23-.01-.27,.08-.27,.29,0,.78,0,1.56,0,2.35v1.13Z"></path></g><polyline class="cls-10" points="565.47 450 565.47 376.33 570.39 376.33 570.39 450"></polyline><path class="cls-15" d="M274.89,431.39v6.11h-35.68v-49.16h34.69v6.11h-27.67v15.1h24.65v5.97h-24.65v15.87h28.65Z"></path><path class="cls-18" d="M289.22,432.44c-3.65-3.75-5.48-9.13-5.48-16.15v-27.95h7.02v27.67c0,10.53,4.61,15.8,13.84,15.8,4.49,0,7.93-1.3,10.32-3.9,2.39-2.6,3.58-6.57,3.58-11.9v-27.67h6.81v27.95c0,7.07-1.83,12.47-5.48,16.19-3.65,3.72-8.76,5.58-15.31,5.58s-11.66-1.87-15.31-5.62Z"></path><path class="cls-14" d="M370.47,437.5l-10.61-15.1c-1.31,.09-2.34,.14-3.09,.14h-12.15v14.96h-7.02v-49.16h19.17c6.37,0,11.38,1.52,15.03,4.56,3.65,3.04,5.48,7.23,5.48,12.57,0,3.79-.94,7.02-2.81,9.69-1.87,2.67-4.54,4.61-8.01,5.83l11.66,16.5h-7.66Zm-3.72-23.81c2.34-1.92,3.51-4.66,3.51-8.22s-1.17-6.29-3.51-8.18c-2.34-1.9-5.74-2.84-10.18-2.84h-11.94v22.12h11.94c4.45,0,7.84-.96,10.18-2.88Z"></path><path class="cls-13" d="M395.34,434.8c-3.98-2.18-7.11-5.19-9.38-9.02-2.27-3.84-3.41-8.12-3.41-12.85s1.13-9.01,3.41-12.85c2.27-3.84,5.4-6.85,9.38-9.02,3.98-2.18,8.45-3.27,13.41-3.27s9.36,1.09,13.34,3.27c3.98,2.18,7.09,5.17,9.34,8.99,2.25,3.82,3.37,8.11,3.37,12.89s-1.12,9.07-3.37,12.89c-2.25,3.82-5.36,6.81-9.34,8.99-3.98,2.18-8.43,3.27-13.34,3.27s-9.44-1.09-13.41-3.27Zm23.14-5.44c2.88-1.64,5.15-3.9,6.81-6.78,1.66-2.88,2.49-6.1,2.49-9.66s-.83-6.78-2.49-9.66c-1.66-2.88-3.93-5.14-6.81-6.78-2.88-1.64-6.12-2.46-9.73-2.46s-6.87,.82-9.8,2.46c-2.93,1.64-5.22,3.9-6.88,6.78-1.66,2.88-2.49,6.1-2.49,9.66s.83,6.78,2.49,9.66c1.66,2.88,3.96,5.14,6.88,6.78,2.93,1.64,6.19,2.46,9.8,2.46s6.85-.82,9.73-2.46Z"></path><path class="cls-16" d="M477.65,392.9c3.65,3.04,5.48,7.23,5.48,12.57s-1.83,9.53-5.48,12.57c-3.65,3.04-8.66,4.57-15.03,4.57h-12.15v14.89h-7.02v-49.16h19.17c6.37,0,11.38,1.52,15.03,4.56Zm-5.06,20.75c2.34-1.9,3.51-4.62,3.51-8.18s-1.17-6.29-3.51-8.18c-2.34-1.9-5.74-2.84-10.18-2.84h-11.94v22.05h11.94c4.45,0,7.84-.95,10.18-2.84Z"></path><path class="cls-17" d="M520.2,425.21h-26.12l-5.41,12.29h-7.23l22.26-49.16h6.95l22.33,49.16h-7.37l-5.41-12.29Zm-2.46-5.62l-10.6-24.09-10.61,24.09h21.21Z"></path><rect class="cls-11" x="238.72" y="346.41" width="741.98" height="9.84"></rect><g><g><path class="cls-12" d="M288.4,167.05c-6.45-3.02-11.73-7.28-15.84-12.76l12.67-15.24c6.62,9.14,14.56,13.7,23.8,13.7,12.44,0,18.67-7.36,18.67-22.09v-61.99h-42.64v-18.67h64.91v79.46c0,14.04-3.43,24.57-10.28,31.6-6.85,7.02-16.9,10.53-30.14,10.53-7.65,0-14.7-1.51-21.15-4.54Z"></path><path class="cls-19" d="M401,165.08c-7.42-3.99-13.22-9.56-17.38-16.7-4.17-7.13-6.25-15.21-6.25-24.23s2.08-17.07,6.25-24.15c4.17-7.08,9.96-12.61,17.38-16.61,7.42-3.99,15.76-5.99,25-5.99s17.75,2,25.17,5.99c7.42,4,13.21,9.53,17.38,16.61,4.17,7.08,6.25,15.13,6.25,24.15s-2.08,17.1-6.25,24.23c-4.17,7.14-9.96,12.7-17.38,16.7-7.42,4-15.81,5.99-25.17,5.99s-17.58-2-25-5.99Zm44.53-20.21c5.14-5.25,7.71-12.16,7.71-20.72s-2.57-15.47-7.71-20.72c-5.14-5.25-11.64-7.88-19.52-7.88s-14.36,2.63-19.44,7.88c-5.08,5.25-7.62,12.16-7.62,20.72s2.54,15.47,7.62,20.72c5.08,5.25,11.56,7.88,19.44,7.88s14.39-2.62,19.52-7.88Z"></path><path class="cls-24" d="M584.24,78.43l-42.81,98.81c-4,9.93-8.85,16.92-14.56,20.98-5.71,4.05-12.62,6.08-20.72,6.08-4.57,0-9.08-.74-13.53-2.23-4.45-1.48-8.11-3.54-10.96-6.16l8.56-15.76c2.05,1.94,4.48,3.48,7.28,4.62,2.8,1.14,5.62,1.71,8.48,1.71,3.77,0,6.88-.97,9.33-2.91,2.45-1.94,4.71-5.2,6.76-9.76l1.54-3.6-39.9-91.79h22.26l28.77,67.65,28.94-67.65h20.55Z"></path><path class="cls-25" d="M666.35,87.08c7.13,6.45,10.7,16.18,10.7,29.2v53.6h-20.21v-11.13c-2.63,4-6.37,7.05-11.22,9.16-4.85,2.11-10.7,3.17-17.55,3.17s-12.84-1.17-17.98-3.51c-5.14-2.34-9.11-5.59-11.9-9.76-2.8-4.17-4.2-8.88-4.2-14.13,0-8.22,3.05-14.81,9.16-19.78,6.11-4.97,15.73-7.45,28.86-7.45h23.63v-1.37c0-6.39-1.91-11.3-5.74-14.73-3.83-3.42-9.5-5.14-17.04-5.14-5.14,0-10.19,.8-15.16,2.4-4.97,1.6-9.16,3.83-12.59,6.68l-8.39-15.58c4.79-3.65,10.56-6.45,17.3-8.39,6.74-1.94,13.87-2.91,21.41-2.91,13.47,0,23.78,3.23,30.91,9.68Zm-19.52,64.73c4.17-2.45,7.11-5.96,8.82-10.53v-10.62h-22.09c-12.33,0-18.5,4.05-18.5,12.16,0,3.88,1.54,6.96,4.62,9.25,3.08,2.28,7.36,3.42,12.84,3.42s10.13-1.23,14.3-3.68Z"></path><path class="cls-23" d="M716.79,168.17c-7.08-1.94-12.73-4.39-16.95-7.36l8.22-16.27c4.11,2.74,9.05,4.94,14.81,6.59,5.76,1.66,11.44,2.48,17.04,2.48,12.78,0,19.18-3.37,19.18-10.1,0-3.2-1.63-5.42-4.88-6.68-3.25-1.26-8.48-2.45-15.67-3.6-7.54-1.14-13.67-2.45-18.41-3.94-4.74-1.48-8.85-4.08-12.33-7.79-3.48-3.71-5.22-8.88-5.22-15.5,0-8.68,3.62-15.61,10.87-20.81,7.25-5.19,17.04-7.79,29.37-7.79,6.28,0,12.56,.71,18.84,2.14,6.28,1.43,11.42,3.34,15.41,5.74l-8.22,16.27c-7.76-4.56-16.5-6.85-26.2-6.85-6.28,0-11.05,.94-14.3,2.83-3.25,1.88-4.88,4.37-4.88,7.45,0,3.42,1.74,5.85,5.22,7.28,3.48,1.43,8.88,2.77,16.18,4.02,7.3,1.14,13.3,2.46,17.98,3.94,4.68,1.48,8.7,4,12.07,7.53,3.37,3.54,5.05,8.56,5.05,15.07,0,8.56-3.71,15.41-11.13,20.55-7.42,5.14-17.53,7.71-30.31,7.71-7.42,0-14.67-.97-21.75-2.91Z"></path></g><g><path class="cls-22" d="M239.07,194.9h8.73v119.88h-8.73v-119.88Z"></path><path class="cls-29" d="M410.58,234.46c6.34,6.51,9.5,15.87,9.5,28.09v52.23h-8.56v-51.55c0-10.04-2.46-17.7-7.36-22.95-4.91-5.25-11.76-7.88-20.55-7.88-10.05,0-18.01,3.14-23.89,9.42-5.88,6.28-8.82,14.73-8.82,25.35v47.61h-8.56v-51.55c0-10.04-2.46-17.7-7.36-22.95-4.91-5.25-11.76-7.88-20.55-7.88-10.05,0-18.01,3.14-23.89,9.42-5.88,6.28-8.82,14.73-8.82,25.35v47.61h-8.56v-89.4h8.22v19.18c2.97-6.28,7.39-11.16,13.27-14.64,5.88-3.48,12.87-5.22,20.98-5.22s14.98,1.83,20.64,5.48c5.65,3.65,9.68,9.02,12.07,16.1,2.97-6.62,7.62-11.87,13.96-15.76,6.34-3.88,13.73-5.82,22.18-5.82,11.07,0,19.78,3.25,26.12,9.76Z"></path><path class="cls-26" d="M509.14,230.52c6.73,3.88,12.01,9.25,15.84,16.1,3.82,6.85,5.74,14.67,5.74,23.46s-1.91,16.64-5.74,23.55c-3.83,6.91-9.11,12.27-15.84,16.1-6.74,3.83-14.27,5.74-22.61,5.74-7.88,0-15.01-1.85-21.41-5.57-6.4-3.71-11.36-8.88-14.9-15.5v53.6h-8.56v-122.62h8.22v21.06c3.54-6.85,8.53-12.19,14.98-16.01,6.45-3.82,13.67-5.74,21.66-5.74s15.87,1.94,22.61,5.82Zm-4.62,72.44c5.48-3.2,9.79-7.65,12.93-13.36,3.14-5.71,4.71-12.21,4.71-19.52s-1.57-13.81-4.71-19.52c-3.14-5.71-7.45-10.16-12.93-13.36-5.48-3.2-11.64-4.8-18.5-4.8s-12.99,1.6-18.41,4.8c-5.42,3.2-9.7,7.65-12.84,13.36-3.14,5.71-4.71,12.22-4.71,19.52s1.57,13.82,4.71,19.52c3.14,5.71,7.42,10.16,12.84,13.36,5.42,3.2,11.56,4.79,18.41,4.79s13.02-1.6,18.5-4.79Z"></path><path class="cls-20" d="M619.08,272.14h-76.89c.23,6.96,2,13.16,5.31,18.58,3.31,5.42,7.79,9.62,13.44,12.59,5.65,2.97,12.01,4.45,19.09,4.45,5.82,0,11.22-1.05,16.18-3.17,4.97-2.11,9.1-5.22,12.42-9.33l4.97,5.65c-3.88,4.68-8.76,8.28-14.64,10.79-5.88,2.51-12.24,3.77-19.09,3.77-8.91,0-16.84-1.94-23.8-5.82-6.96-3.88-12.42-9.25-16.35-16.1-3.94-6.85-5.91-14.67-5.91-23.46s1.85-16.47,5.57-23.38c3.71-6.91,8.82-12.3,15.33-16.18,6.51-3.88,13.81-5.82,21.92-5.82s15.38,1.91,21.84,5.74c6.45,3.83,11.53,9.16,15.24,16.01,3.71,6.85,5.57,14.62,5.57,23.29l-.17,2.4Zm-59.43-35.71c-5.03,2.8-9.05,6.74-12.07,11.82-3.03,5.08-4.77,10.82-5.22,17.21h68.5c-.34-6.39-2.05-12.1-5.14-17.13-3.08-5.02-7.14-8.96-12.16-11.82-5.02-2.85-10.68-4.28-16.95-4.28s-11.93,1.4-16.95,4.2Z"></path><path class="cls-21" d="M653.16,229.92c5.82-3.48,12.9-5.22,21.24-5.22v8.39l-2.05-.17c-9.93,0-17.7,3.11-23.29,9.33-5.6,6.22-8.39,14.87-8.39,25.94v46.58h-8.56v-89.4h8.22v19.52c2.74-6.51,7.02-11.5,12.84-14.98Z"></path><path class="cls-28" d="M683.64,201.67c-1.37-1.31-2.06-2.94-2.06-4.88s.68-3.6,2.06-4.97c1.37-1.37,3.02-2.05,4.97-2.05s3.6,.66,4.97,1.97c1.37,1.31,2.05,2.94,2.05,4.88s-.68,3.6-2.05,4.97c-1.37,1.37-3.03,2.05-4.97,2.05s-3.6-.66-4.97-1.97Zm.68,23.72h8.56v89.4h-8.56v-89.4Z"></path><path class="cls-27" d="M770.98,233.18c5.93,5.65,8.9,13.96,8.9,24.92v56.69h-8.22v-15.93c-2.86,5.25-7.02,9.33-12.5,12.24s-12.05,4.37-19.69,4.37c-9.93,0-17.78-2.34-23.55-7.02-5.77-4.68-8.65-10.85-8.65-18.5s2.65-13.44,7.96-18.07c5.31-4.62,13.79-6.94,25.43-6.94h30.65v-7.19c0-8.33-2.26-14.67-6.76-19.01-4.51-4.34-11.1-6.51-19.78-6.51-5.94,0-11.62,1.03-17.04,3.08-5.42,2.05-10.02,4.8-13.79,8.22l-4.28-6.17c4.45-3.99,9.82-7.11,16.1-9.33,6.28-2.23,12.84-3.34,19.69-3.34,11.07,0,19.58,2.83,25.52,8.48Zm-11.39,70.13c5.19-3.42,9.1-8.39,11.73-14.9v-16.78h-30.48c-8.79,0-15.16,1.6-19.09,4.8-3.94,3.2-5.91,7.59-5.91,13.19s2.17,10.42,6.51,13.79c4.34,3.37,10.45,5.05,18.32,5.05,7.42,0,13.73-1.71,18.92-5.14Z"></path><path class="cls-32" d="M801.46,187.71h8.56v127.07h-8.56v-127.07Z"></path><path class="cls-31" d="M907.98,272.14h-76.89c.23,6.96,2,13.16,5.31,18.58,3.31,5.42,7.79,9.62,13.44,12.59,5.65,2.97,12.01,4.45,19.09,4.45,5.82,0,11.22-1.05,16.18-3.17,4.97-2.11,9.1-5.22,12.42-9.33l4.97,5.65c-3.88,4.68-8.76,8.28-14.64,10.79-5.88,2.51-12.24,3.77-19.09,3.77-8.91,0-16.84-1.94-23.8-5.82-6.96-3.88-12.42-9.25-16.35-16.1-3.94-6.85-5.91-14.67-5.91-23.46s1.85-16.47,5.57-23.38c3.71-6.91,8.82-12.3,15.33-16.18,6.51-3.88,13.81-5.82,21.92-5.82s15.38,1.91,21.84,5.74c6.45,3.83,11.53,9.16,15.24,16.01,3.71,6.85,5.57,14.62,5.57,23.29l-.17,2.4Zm-59.43-35.71c-5.03,2.8-9.05,6.74-12.07,11.82-3.03,5.08-4.77,10.82-5.22,17.21h68.5c-.34-6.39-2.05-12.1-5.14-17.13-3.08-5.02-7.14-8.96-12.16-11.82-5.02-2.85-10.68-4.28-16.95-4.28s-11.93,1.4-16.95,4.2Z"></path><path class="cls-30" d="M923.05,312.21c-6.51-2.17-11.59-4.91-15.24-8.22l3.94-6.85c3.65,3.08,8.36,5.65,14.13,7.71,5.76,2.05,11.79,3.08,18.07,3.08,9.02,0,15.67-1.48,19.95-4.45,4.28-2.97,6.42-7.08,6.42-12.33,0-3.77-1.17-6.73-3.51-8.9-2.34-2.17-5.22-3.77-8.65-4.8-3.42-1.03-8.16-2.11-14.21-3.25-7.08-1.26-12.79-2.62-17.13-4.11-4.34-1.48-8.05-3.88-11.13-7.19-3.08-3.31-4.62-7.88-4.62-13.7,0-7.08,2.94-12.93,8.82-17.55,5.88-4.62,14.24-6.94,25.09-6.94,5.71,0,11.36,.8,16.95,2.4,5.59,1.6,10.16,3.71,13.7,6.34l-3.94,6.85c-3.66-2.62-7.82-4.62-12.5-5.99-4.68-1.37-9.48-2.05-14.39-2.05-8.33,0-14.62,1.54-18.84,4.62-4.23,3.08-6.34,7.14-6.34,12.16,0,4,1.2,7.11,3.6,9.33,2.4,2.23,5.34,3.88,8.82,4.97,3.48,1.09,8.36,2.26,14.64,3.51,6.96,1.26,12.59,2.6,16.87,4.02,4.28,1.43,7.9,3.74,10.87,6.94,2.97,3.2,4.45,7.59,4.45,13.19,0,7.42-3.08,13.36-9.25,17.81-6.16,4.45-14.84,6.68-26.03,6.68-7.19,0-14.04-1.08-20.55-3.25Z"></path></g></g></g></g></svg>