<svg xmlns="http://www.w3.org/2000/svg" xmlns:xlink="http://www.w3.org/1999/xlink" id="Capa_2" viewBox="0 0 744.84 74"><defs><linearGradient id="Degradado_sin_nombre_127" x1="321.04" y1="26.7" x2="727.62" y2="99.7" gradientUnits="userSpaceOnUse"><stop offset="0" stop-color="#d29c05"></stop><stop offset=".09" stop-color="#e3b12b"></stop><stop offset=".22" stop-color="#ffd365"></stop><stop offset=".34" stop-color="#ffd262"></stop><stop offset=".43" stop-color="#ffd058"></stop><stop offset=".49" stop-color="#ffcf4e"></stop><stop offset=".73" stop-color="#d19904"></stop><stop offset=".75" stop-color="#d59e0b"></stop><stop offset=".81" stop-color="#e7b328"></stop><stop offset=".88" stop-color="#f4c23d"></stop><stop offset=".94" stop-color="#fccb49"></stop><stop offset="1" stop-color="#ffcf4e"></stop></linearGradient><linearGradient id="Degradado_sin_nombre_127-2" x1="322.6" y1="18.02" x2="729.18" y2="91.02" xlink:href="#Degradado_sin_nombre_127"></linearGradient><linearGradient id="Degradado_sin_nombre_127-3" x1="324.39" y1="8.08" x2="730.96" y2="81.08" xlink:href="#Degradado_sin_nombre_127"></linearGradient><linearGradient id="Degradado_sin_nombre_127-4" x1="326.13" y1="-1.61" x2="732.7" y2="71.39" xlink:href="#Degradado_sin_nombre_127"></linearGradient><linearGradient id="Degradado_sin_nombre_127-5" x1="327.51" y1="-9.32" x2="734.09" y2="63.67" xlink:href="#Degradado_sin_nombre_127"></linearGradient><linearGradient id="Degradado_sin_nombre_127-6" x1="328.95" y1="-17.33" x2="735.53" y2="55.67" xlink:href="#Degradado_sin_nombre_127"></linearGradient><linearGradient id="Degradado_sin_nombre_127-7" x1="330.63" y1="-26.67" x2="737.2" y2="46.33" xlink:href="#Degradado_sin_nombre_127"></linearGradient><linearGradient id="Degradado_sin_nombre_127-8" x1="334.09" y1="-45.94" x2="740.66" y2="27.05" xlink:href="#Degradado_sin_nombre_127"></linearGradient><linearGradient id="Degradado_sin_nombre_127-9" x1="334.02" y1="-45.59" x2="740.6" y2="27.4" xlink:href="#Degradado_sin_nombre_127"></linearGradient><linearGradient id="Degradado_sin_nombre_127-10" x1="319.54" y1="35.09" x2="726.12" y2="108.08" xlink:href="#Degradado_sin_nombre_127"></linearGradient></defs><g id="Capa_1-2"><g><g><g><path d="M366.82,61.44V12.39h19.13c4.3,0,7.96,.68,11,2.03,3.04,1.36,5.37,3.32,7.01,5.89,1.63,2.57,2.45,5.63,2.45,9.18s-.82,6.6-2.45,9.14c-1.64,2.55-3.97,4.51-7.01,5.89-3.04,1.38-6.7,2.07-11,2.07h-15.28l3.15-3.29v18.15h-7.01Zm7.01-17.45l-3.15-3.5h15.07c4.49,0,7.88-.96,10.2-2.87,2.31-1.91,3.47-4.62,3.47-8.13s-1.16-6.21-3.47-8.13c-2.31-1.92-5.71-2.87-10.2-2.87h-15.07l3.15-3.5v29.01Z" fill="url(#Degradado_sin_nombre_127)"></path><path d="M416.72,61.44V12.39h19.13c4.3,0,7.97,.68,11,2.03,3.04,1.36,5.37,3.32,7.01,5.89,1.63,2.57,2.45,5.63,2.45,9.18s-.82,6.6-2.45,9.14c-1.64,2.55-3.97,4.5-7.01,5.85-3.04,1.35-6.71,2.03-11,2.03h-15.28l3.15-3.22v18.15h-7.01Zm7.01-17.45l-3.15-3.43h15.07c4.49,0,7.88-.97,10.2-2.91,2.31-1.94,3.47-4.66,3.47-8.16s-1.16-6.21-3.47-8.13c-2.31-1.92-5.71-2.87-10.2-2.87h-15.07l3.15-3.5v29.01Zm25.79,17.45l-12.47-17.8h7.5l12.61,17.8h-7.64Z" fill="url(#Degradado_sin_nombre_127-2)"></path><path d="M474.68,55.35h28.59v6.1h-35.6V12.39h34.62v6.1h-27.61V55.35Zm-.63-21.79h25.23v5.96h-25.23v-5.96Z" fill="url(#Degradado_sin_nombre_127-3)"></path><path d="M514.62,61.44V12.39h5.75l22.01,37.07h-3.08l21.73-37.07h5.75l.07,49.05h-6.73l-.07-38.47h1.61l-19.34,32.51h-3.22l-19.48-32.51h1.75V61.44h-6.73Z" fill="url(#Degradado_sin_nombre_127-4)"></path><path d="M581.55,61.44V12.39h7.01V61.44h-7.01Z" fill="url(#Degradado_sin_nombre_127-5)"></path><path d="M623.6,62c-6.45,0-11.52-1.84-15.21-5.54-3.69-3.69-5.54-9.08-5.54-16.19V12.39h7.01v27.61c0,5.47,1.2,9.46,3.61,11.98,2.41,2.52,5.81,3.78,10.2,3.78s7.86-1.26,10.27-3.78c2.41-2.52,3.61-6.52,3.61-11.98V12.39h6.8v27.89c0,7.1-1.83,12.5-5.5,16.19-3.67,3.69-8.75,5.54-15.24,5.54Z" fill="url(#Degradado_sin_nombre_127-6)"></path><path d="M658.71,61.44V12.39h5.75l22.01,37.07h-3.08l21.73-37.07h5.75l.07,49.05h-6.73l-.07-38.47h1.61l-19.34,32.51h-3.22l-19.48-32.51h1.75V61.44h-6.73Z" fill="url(#Degradado_sin_nombre_127-7)"></path></g><g><path d="M731.92,38.39c-3.46,0-6.7-1.35-9.14-3.8-2.44-2.45-3.78-5.69-3.77-9.15,.01-7.09,5.81-12.86,12.92-12.86,3.47,0,6.7,1.36,9.14,3.8,2.44,2.45,3.77,5.69,3.77,9.14-.02,7.09-5.81,12.86-12.91,12.86h-.01Zm0-23.94c-6.06,0-11.01,4.94-11.03,11.02-.01,2.94,1.13,5.71,3.22,7.8,2.09,2.1,4.87,3.25,7.82,3.25,6.07,0,11.02-4.95,11.04-11.04,0-6.07-4.95-11.02-11.02-11.03h-.02Z" fill="url(#Degradado_sin_nombre_127-8)"></path><path d="M727.15,31.82v-12.67c.1,0,.19-.02,.29-.02,1.46,0,2.92,0,4.38,0,1.08,0,2.13,.18,3.08,.73,1.48,.87,2.07,2.22,2.06,3.89,0,1.1-.31,2.11-1.05,2.95-.26,.3-.58,.55-.91,.84,1.02,1.4,2.05,2.82,3.11,4.27-.13,0-.22,.02-.31,.02-.91,0-1.83,0-2.74,0-.21,0-.33-.07-.45-.23-.75-1.04-1.5-2.07-2.25-3.1-.11-.16-.23-.22-.43-.22-.62,.01-1.24,.01-1.86,0-.19,0-.25,.06-.25,.25,0,.99,0,1.97,0,2.96v.32h-2.68Zm2.68-6.23c.78,0,1.52,0,2.26,0,.2,0,.4-.02,.6-.06,1.39-.27,1.74-1.17,1.54-2.35-.13-.78-.72-1.17-1.45-1.25-.89-.09-1.78-.07-2.68-.11-.23-.01-.27,.09-.27,.29,0,.79,0,1.57,0,2.36v1.13Z" fill="url(#Degradado_sin_nombre_127-9)"></path></g></g><rect x="327.74" width="4.93" height="74" fill="url(#Degradado_sin_nombre_127-10)"></rect><g><path d="M35.84,55.31v6.14H0V12.06H34.85v6.14H7.05v15.17H31.82v6H7.05v15.94h28.78Z" fill="#fff"></path><path d="M50.23,56.37c-3.67-3.76-5.5-9.17-5.5-16.23V12.06h7.05v27.8c0,10.58,4.63,15.87,13.9,15.87,4.51,0,7.97-1.3,10.37-3.92,2.4-2.61,3.6-6.6,3.6-11.96V12.06h6.84v28.08c0,7.1-1.83,12.52-5.5,16.26-3.67,3.74-8.8,5.61-15.38,5.61s-11.71-1.88-15.38-5.64Z" fill="#fff"></path><path d="M131.85,61.45l-10.65-15.17c-1.32,.09-2.35,.14-3.1,.14h-12.21v15.03h-7.05V12.06h19.26c6.4,0,11.43,1.53,15.1,4.58,3.67,3.06,5.5,7.27,5.5,12.63,0,3.81-.94,7.05-2.82,9.74-1.88,2.68-4.56,4.63-8.04,5.85l11.71,16.58h-7.69Zm-3.74-23.92c2.35-1.93,3.53-4.68,3.53-8.25s-1.18-6.31-3.53-8.22c-2.35-1.91-5.76-2.86-10.23-2.86h-11.99v22.22h11.99c4.47,0,7.88-.96,10.23-2.89Z" fill="#fff"></path><path d="M156.83,58.73c-4-2.19-7.14-5.21-9.42-9.07-2.28-3.86-3.42-8.16-3.42-12.91s1.14-9.05,3.42-12.91c2.28-3.86,5.42-6.88,9.42-9.07,4-2.19,8.49-3.28,13.47-3.28s9.41,1.09,13.4,3.28c4,2.19,7.12,5.2,9.38,9.03,2.26,3.83,3.39,8.15,3.39,12.95s-1.13,9.11-3.39,12.95c-2.26,3.83-5.39,6.84-9.38,9.03-4,2.19-8.47,3.28-13.4,3.28s-9.48-1.09-13.47-3.28Zm23.25-5.47c2.89-1.65,5.17-3.92,6.84-6.81s2.51-6.13,2.51-9.7-.84-6.81-2.51-9.7-3.95-5.16-6.84-6.81c-2.89-1.65-6.15-2.47-9.77-2.47s-6.9,.82-9.84,2.47c-2.94,1.65-5.24,3.92-6.91,6.81s-2.5,6.13-2.5,9.7,.83,6.81,2.5,9.7,3.97,5.16,6.91,6.81c2.94,1.65,6.22,2.47,9.84,2.47s6.88-.82,9.77-2.47Z" fill="#fff"></path><path d="M239.51,16.65c3.67,3.06,5.5,7.27,5.5,12.63s-1.83,9.57-5.5,12.63c-3.67,3.06-8.7,4.59-15.1,4.59h-12.21v14.96h-7.05V12.06h19.26c6.39,0,11.43,1.53,15.1,4.58Zm-5.08,20.85c2.35-1.91,3.53-4.64,3.53-8.22s-1.18-6.31-3.53-8.22c-2.35-1.91-5.76-2.86-10.23-2.86h-11.99v22.15h11.99c4.47,0,7.88-.95,10.23-2.86Z" fill="#fff"></path><path d="M282.26,49.1h-26.24l-5.43,12.35h-7.27l22.36-49.38h6.98l22.43,49.38h-7.41l-5.43-12.35Zm-2.47-5.64l-10.65-24.2-10.65,24.2h21.31Z" fill="#fff"></path></g></g></g></svg>