<svg xmlns="http://www.w3.org/2000/svg" xmlns:xlink="http://www.w3.org/1999/xlink" id="Capa_2" viewBox="0 0 700 206.34"><defs><linearGradient id="Degradado_sin_nombre_127" x1="-9.04" y1="154.77" x2="686.17" y2="263.09" gradientUnits="userSpaceOnUse"><stop offset="0" stop-color="#d29c05"></stop><stop offset=".09" stop-color="#e3b12b"></stop><stop offset=".22" stop-color="#ffd365"></stop><stop offset=".34" stop-color="#ffd262"></stop><stop offset=".43" stop-color="#ffd058"></stop><stop offset=".49" stop-color="#ffcf4e"></stop><stop offset=".73" stop-color="#d19904"></stop><stop offset=".75" stop-color="#d59e0b"></stop><stop offset=".81" stop-color="#e7b328"></stop><stop offset=".88" stop-color="#f4c23d"></stop><stop offset=".94" stop-color="#fccb49"></stop><stop offset="1" stop-color="#ffcf4e"></stop></linearGradient><linearGradient id="Degradado_sin_nombre_127-2" x1="-7.19" y1="142.87" x2="688.02" y2="251.19" xlink:href="#Degradado_sin_nombre_127"></linearGradient><linearGradient id="Degradado_sin_nombre_127-3" x1="-5.06" y1="129.21" x2="690.15" y2="237.53" xlink:href="#Degradado_sin_nombre_127"></linearGradient><linearGradient id="Degradado_sin_nombre_127-4" x1="-2.99" y1="115.92" x2="692.22" y2="224.24" xlink:href="#Degradado_sin_nombre_127"></linearGradient><linearGradient id="Degradado_sin_nombre_127-5" x1="-1.34" y1="105.34" x2="693.87" y2="213.66" xlink:href="#Degradado_sin_nombre_127"></linearGradient><linearGradient id="Degradado_sin_nombre_127-6" x1=".37" y1="94.39" x2="695.58" y2="202.7" xlink:href="#Degradado_sin_nombre_127"></linearGradient><linearGradient id="Degradado_sin_nombre_127-7" x1="2.37" y1="81.56" x2="697.57" y2="189.88" xlink:href="#Degradado_sin_nombre_127"></linearGradient><linearGradient id="Degradado_sin_nombre_127-8" x1="6.85" y1="52.82" x2="702.05" y2="161.14" xlink:href="#Degradado_sin_nombre_127"></linearGradient><linearGradient id="Degradado_sin_nombre_127-9" x1="6.77" y1="53.31" x2="701.98" y2="161.62" xlink:href="#Degradado_sin_nombre_127"></linearGradient><linearGradient id="Degradado_sin_nombre_127-10" x1="7.88" y1="49.28" x2="702.73" y2="157.54" xlink:href="#Degradado_sin_nombre_127"></linearGradient></defs><g id="Capa_1-2"><g><g><g><path d="M52.31,205.46v-76.9h30c6.74,0,12.49,1.06,17.25,3.19,4.76,2.13,8.42,5.2,10.99,9.23,2.56,4.03,3.85,8.83,3.85,14.39s-1.28,10.35-3.85,14.34c-2.56,3.99-6.23,7.07-10.99,9.23-4.76,2.16-10.51,3.24-17.25,3.24h-23.95l4.94-5.16v28.45h-10.99Zm10.99-27.35l-4.94-5.49h23.62c7.03,0,12.36-1.5,15.99-4.5,3.63-3,5.44-7.25,5.44-12.74s-1.81-9.74-5.44-12.74c-3.63-3-8.95-4.5-15.99-4.5h-23.62l4.94-5.49v45.48Z" fill="url(#Degradado_sin_nombre_127)"></path><path d="M130.54,205.46v-76.9h30c6.74,0,12.49,1.06,17.25,3.19,4.76,2.13,8.42,5.2,10.99,9.23,2.56,4.03,3.85,8.83,3.85,14.39s-1.28,10.35-3.85,14.34c-2.56,3.99-6.23,7.05-10.99,9.17-4.76,2.12-10.51,3.19-17.25,3.19h-23.95l4.94-5.05v28.45h-10.99Zm10.99-27.35l-4.94-5.38h23.62c7.03,0,12.36-1.52,15.99-4.56,3.63-3.04,5.44-7.31,5.44-12.8s-1.81-9.74-5.44-12.74c-3.63-3-8.96-4.5-15.99-4.5h-23.62l4.94-5.49v45.48Zm40.43,27.35l-19.56-27.9h11.76l19.78,27.9h-11.98Z" fill="url(#Degradado_sin_nombre_127-2)"></path><path d="M221.4,195.9h44.83v9.56h-55.82v-76.9h54.28v9.56h-43.29v57.78Zm-.99-34.16h39.56v9.34h-39.56v-9.34Z" fill="url(#Degradado_sin_nombre_127-3)"></path><path d="M284.03,205.46v-76.9h9.01l34.5,58.11h-4.84l34.06-58.11h9.01l.11,76.9h-10.55l-.11-60.31h2.53l-30.33,50.97h-5.05l-30.55-50.97h2.75v60.31h-10.55Z" fill="url(#Degradado_sin_nombre_127-4)"></path><path d="M388.97,205.46v-76.9h10.99v76.9h-10.99Z" fill="url(#Degradado_sin_nombre_127-5)"></path><path d="M454.89,206.34c-10.11,0-18.06-2.89-23.84-8.68-5.79-5.78-8.68-14.24-8.68-25.38v-43.72h10.99v43.28c0,8.57,1.89,14.83,5.66,18.79,3.77,3.95,9.1,5.93,15.99,5.93s12.32-1.98,16.1-5.93c3.77-3.95,5.66-10.22,5.66-18.79v-43.28h10.66v43.72c0,11.13-2.88,19.59-8.62,25.38-5.75,5.79-13.72,8.68-23.9,8.68Z" fill="url(#Degradado_sin_nombre_127-6)"></path><path d="M509.94,205.46v-76.9h9.01l34.5,58.11h-4.84l34.06-58.11h9.01l.11,76.9h-10.55l-.11-60.31h2.53l-30.33,50.97h-5.05l-30.55-50.97h2.75v60.31h-10.55Z" fill="url(#Degradado_sin_nombre_127-7)"></path></g><g><path d="M624.72,169.31c-5.42,0-10.5-2.12-14.33-5.95-3.82-3.83-5.92-8.93-5.91-14.35,.02-11.11,9.11-20.16,20.26-20.16,5.43,0,10.51,2.13,14.33,5.96,3.82,3.84,5.91,8.93,5.9,14.33-.03,11.12-9.1,20.16-20.24,20.16h-.02Zm0-37.53c-9.51,0-17.27,7.75-17.3,17.28-.02,4.61,1.77,8.95,5.04,12.23,3.27,3.29,7.63,5.1,12.26,5.1,9.51,0,17.28-7.76,17.31-17.3-.01-9.52-7.76-17.28-17.28-17.3h-.03Z" fill="url(#Degradado_sin_nombre_127-8)"></path><path d="M617.24,159.02v-19.87c.15,0,.3-.02,.45-.02,2.29,0,4.58,0,6.87,0,1.7,0,3.35,.28,4.83,1.15,2.32,1.36,3.25,3.49,3.23,6.09-.01,1.73-.48,3.32-1.65,4.63-.41,.47-.91,.85-1.42,1.32,1.6,2.19,3.22,4.42,4.88,6.7-.21,.01-.34,.03-.48,.03-1.43,0-2.86,0-4.3,0-.33,0-.52-.11-.71-.37-1.17-1.63-2.36-3.24-3.53-4.87-.18-.25-.36-.35-.67-.34-.97,.02-1.95,.02-2.92,0-.3,0-.39,.09-.39,.39,.01,1.55,0,3.09,0,4.64v.5h-4.2Zm4.2-9.76c1.22,0,2.38,0,3.54,0,.31,0,.63-.04,.94-.1,2.18-.42,2.73-1.84,2.41-3.68-.21-1.22-1.13-1.84-2.27-1.96-1.39-.15-2.8-.11-4.2-.18-.37-.02-.43,.13-.42,.45,.01,1.23,0,2.46,0,3.69v1.77Z" fill="url(#Degradado_sin_nombre_127-9)"></path></g></g><rect y="99.86" width="700" height="5.45" fill="url(#Degradado_sin_nombre_127-10)"></rect><g><path d="M184.33,67.52v9.46h-55.23V.87h53.71V10.33h-42.84v23.38h38.16v9.24h-38.16v24.57h44.36Z" fill="#fff"></path><path d="M206.51,69.15c-5.65-5.8-8.48-14.13-8.48-25.01V.87h10.87V43.71c0,16.31,7.14,24.46,21.42,24.46,6.96,0,12.29-2.01,15.98-6.03,3.7-4.02,5.54-10.17,5.54-18.43V.87h10.55V44.14c0,10.95-2.83,19.3-8.48,25.06-5.65,5.76-13.55,8.64-23.7,8.64s-18.05-2.9-23.7-8.7Z" fill="#fff"></path><path d="M332.3,76.98l-16.42-23.38c-2.03,.15-3.62,.22-4.78,.22h-18.81v23.16h-10.87V.87h29.68c9.86,0,17.61,2.36,23.27,7.07,5.65,4.71,8.48,11.2,8.48,19.46,0,5.87-1.45,10.87-4.35,15-2.9,4.13-7.03,7.14-12.39,9.02l18.05,25.55h-11.85Zm-5.76-36.86c3.62-2.97,5.44-7.21,5.44-12.72s-1.81-9.73-5.44-12.67c-3.63-2.94-8.88-4.4-15.77-4.4h-18.48V44.58h18.48c6.89,0,12.14-1.48,15.77-4.46Z" fill="#fff"></path><path d="M370.79,72.79c-6.16-3.37-11-8.03-14.51-13.97-3.52-5.94-5.27-12.57-5.27-19.9s1.76-13.95,5.27-19.9c3.51-5.94,8.35-10.6,14.51-13.97,6.16-3.37,13.08-5.06,20.77-5.06s14.5,1.69,20.66,5.06c6.16,3.37,10.98,8.01,14.46,13.92,3.48,5.91,5.22,12.56,5.22,19.95s-1.74,14.04-5.22,19.95c-3.48,5.91-8.3,10.55-14.46,13.92-6.16,3.37-13.05,5.06-20.66,5.06s-14.61-1.69-20.77-5.06Zm35.82-8.43c4.46-2.54,7.97-6.03,10.55-10.49,2.57-4.46,3.86-9.44,3.86-14.95s-1.29-10.49-3.86-14.95c-2.57-4.46-6.09-7.95-10.55-10.49-4.46-2.54-9.48-3.81-15.06-3.81s-10.64,1.27-15.17,3.81c-4.53,2.54-8.08,6.03-10.65,10.49-2.57,4.46-3.86,9.44-3.86,14.95s1.29,10.49,3.86,14.95c2.57,4.46,6.12,7.96,10.65,10.49,4.53,2.54,9.58,3.81,15.17,3.81s10.6-1.27,15.06-3.81Z" fill="#fff"></path><path d="M498.21,7.94c5.65,4.71,8.48,11.2,8.48,19.46s-2.83,14.75-8.48,19.46c-5.65,4.71-13.41,7.07-23.27,7.07h-18.81v23.05h-10.87V.87h29.68c9.86,0,17.61,2.36,23.27,7.07Zm-7.83,32.13c3.62-2.94,5.44-7.16,5.44-12.67s-1.81-9.73-5.44-12.67c-3.63-2.94-8.88-4.4-15.77-4.4h-18.48V44.47h18.48c6.89,0,12.14-1.47,15.77-4.4Z" fill="#fff"></path><path d="M564.09,57.95h-40.44l-8.37,19.03h-11.2L538.54,.87h10.76l34.57,76.11h-11.42l-8.37-19.03Zm-3.81-8.7l-16.42-37.29-16.42,37.29h32.83Z" fill="#fff"></path></g></g></g></svg>