<svg xmlns="http://www.w3.org/2000/svg" xmlns:xlink="http://www.w3.org/1999/xlink" viewBox="0 0 1220 500"><defs><style>.cls-1{fill:url(#Degradado_sin_nombre_127);}.cls-2{fill:url(#Degradado_sin_nombre_127-7);}.cls-3{fill:url(#Degradado_sin_nombre_127-4);}.cls-4{fill:url(#Degradado_sin_nombre_127-5);}.cls-5{fill:url(#Degradado_sin_nombre_127-6);}.cls-6{fill:url(#Degradado_sin_nombre_127-8);}.cls-7{fill:url(#Degradado_sin_nombre_127-2);}.cls-8{fill:url(#Degradado_sin_nombre_127-3);}.cls-9{fill:url(#Degradado_sin_nombre_127-9);}.cls-10{fill:url(#Degradado_sin_nombre_127-10);}.cls-11{fill:url(#Degradado_sin_nombre_127-17);}.cls-12{fill:url(#Degradado_sin_nombre_127-18);}.cls-13{fill:url(#Degradado_sin_nombre_127-14);}.cls-14{fill:url(#Degradado_sin_nombre_127-13);}.cls-15{fill:url(#Degradado_sin_nombre_127-11);}.cls-16{fill:url(#Degradado_sin_nombre_127-15);}.cls-17{fill:url(#Degradado_sin_nombre_127-16);}.cls-18{fill:url(#Degradado_sin_nombre_127-12);}.cls-19{fill:url(#Degradado_sin_nombre_127-19);}.cls-20{fill:url(#Degradado_sin_nombre_127-26);}.cls-21{fill:url(#Degradado_sin_nombre_127-27);}.cls-22{fill:url(#Degradado_sin_nombre_127-23);}.cls-23{fill:url(#Degradado_sin_nombre_127-22);}.cls-24{fill:url(#Degradado_sin_nombre_127-20);}.cls-25{fill:url(#Degradado_sin_nombre_127-21);}.cls-26{fill:url(#Degradado_sin_nombre_127-25);}.cls-27{fill:url(#Degradado_sin_nombre_127-29);}.cls-28{fill:url(#Degradado_sin_nombre_127-28);}.cls-29{fill:url(#Degradado_sin_nombre_127-24);}.cls-30{fill:url(#Degradado_sin_nombre_127-30);}</style><linearGradient id="Degradado_sin_nombre_127" x1="896.51" y1="546.08" x2="169.04" y2="206.29" gradientUnits="userSpaceOnUse"><stop offset="0" stop-color="#d29c05"></stop><stop offset=".09" stop-color="#e3b12b"></stop><stop offset=".22" stop-color="#ffd365"></stop><stop offset=".34" stop-color="#ffd262"></stop><stop offset=".43" stop-color="#ffd058"></stop><stop offset=".49" stop-color="#ffcf4e"></stop><stop offset=".73" stop-color="#d19904"></stop><stop offset=".75" stop-color="#d59e0b"></stop><stop offset=".81" stop-color="#e7b328"></stop><stop offset=".88" stop-color="#f4c23d"></stop><stop offset=".94" stop-color="#fccb49"></stop><stop offset="1" stop-color="#ffcf4e"></stop></linearGradient><linearGradient id="Degradado_sin_nombre_127-2" x1="904.84" y1="528.24" x2="177.37" y2="188.45" xlink:href="#Degradado_sin_nombre_127"></linearGradient><linearGradient id="Degradado_sin_nombre_127-3" x1="914.09" y1="508.45" x2="186.62" y2="168.66" xlink:href="#Degradado_sin_nombre_127"></linearGradient><linearGradient id="Degradado_sin_nombre_127-4" x1="923.39" y1="488.53" x2="195.92" y2="148.74" xlink:href="#Degradado_sin_nombre_127"></linearGradient><linearGradient id="Degradado_sin_nombre_127-5" x1="930.8" y1="472.67" x2="203.33" y2="132.88" xlink:href="#Degradado_sin_nombre_127"></linearGradient><linearGradient id="Degradado_sin_nombre_127-6" x1="938.38" y1="456.44" x2="210.91" y2="116.66" xlink:href="#Degradado_sin_nombre_127"></linearGradient><linearGradient id="Degradado_sin_nombre_127-7" x1="947.45" y1="437.02" x2="219.98" y2="97.23" xlink:href="#Degradado_sin_nombre_127"></linearGradient><linearGradient id="Degradado_sin_nombre_127-8" x1="960.21" y1="409.71" x2="232.74" y2="69.92" xlink:href="#Degradado_sin_nombre_127"></linearGradient><linearGradient id="Degradado_sin_nombre_127-9" x1="959.93" y1="410.3" x2="232.46" y2="70.51" xlink:href="#Degradado_sin_nombre_127"></linearGradient><linearGradient id="Degradado_sin_nombre_127-10" x1="888.21" y1="563.84" x2="160.74" y2="224.06" xlink:href="#Degradado_sin_nombre_127"></linearGradient><linearGradient id="Degradado_sin_nombre_127-11" x1="836.07" y1="675.47" x2="108.6" y2="335.69" xlink:href="#Degradado_sin_nombre_127"></linearGradient><linearGradient id="Degradado_sin_nombre_127-12" x1="845.27" y1="655.79" x2="117.8" y2="316" xlink:href="#Degradado_sin_nombre_127"></linearGradient><linearGradient id="Degradado_sin_nombre_127-13" x1="851.83" y1="641.74" x2="124.36" y2="301.96" xlink:href="#Degradado_sin_nombre_127"></linearGradient><linearGradient id="Degradado_sin_nombre_127-14" x1="861.6" y1="620.83" x2="134.12" y2="281.05" xlink:href="#Degradado_sin_nombre_127"></linearGradient><linearGradient id="Degradado_sin_nombre_127-15" x1="869.58" y1="603.73" x2="142.11" y2="263.95" xlink:href="#Degradado_sin_nombre_127"></linearGradient><linearGradient id="Degradado_sin_nombre_127-16" x1="876.24" y1="589.47" x2="148.77" y2="249.68" xlink:href="#Degradado_sin_nombre_127"></linearGradient><linearGradient id="Degradado_sin_nombre_127-17" x1="917.43" y1="501.3" x2="189.96" y2="161.51" xlink:href="#Degradado_sin_nombre_127"></linearGradient><linearGradient id="Degradado_sin_nombre_127-18" x1="944.58" y1="434.34" x2="217.11" y2="94.55" xlink:href="#Degradado_sin_nombre_127"></linearGradient><linearGradient id="Degradado_sin_nombre_127-19" x1="962.07" y1="396.89" x2="234.6" y2="57.1" xlink:href="#Degradado_sin_nombre_127"></linearGradient><linearGradient id="Degradado_sin_nombre_127-20" x1="980.07" y1="358.35" x2="252.6" y2="18.56" xlink:href="#Degradado_sin_nombre_127"></linearGradient><linearGradient id="Degradado_sin_nombre_127-21" x1="1013.4" y1="286.99" x2="285.93" y2="-52.8" xlink:href="#Degradado_sin_nombre_127"></linearGradient><linearGradient id="Degradado_sin_nombre_127-22" x1="1021.41" y1="269.86" x2="293.93" y2="-69.92" xlink:href="#Degradado_sin_nombre_127"></linearGradient><linearGradient id="Degradado_sin_nombre_127-23" x1="1035.72" y1="239.21" x2="308.25" y2="-100.58" xlink:href="#Degradado_sin_nombre_127"></linearGradient><linearGradient id="Degradado_sin_nombre_127-24" x1="1052.73" y1="202.8" x2="325.26" y2="-136.99" xlink:href="#Degradado_sin_nombre_127"></linearGradient><linearGradient id="Degradado_sin_nombre_127-25" x1="946.91" y1="429.36" x2="219.44" y2="89.57" xlink:href="#Degradado_sin_nombre_127"></linearGradient><linearGradient id="Degradado_sin_nombre_127-26" x1="962.47" y1="396.04" x2="235" y2="56.25" xlink:href="#Degradado_sin_nombre_127"></linearGradient><linearGradient id="Degradado_sin_nombre_127-27" x1="979.93" y1="358.67" x2="252.45" y2="18.88" xlink:href="#Degradado_sin_nombre_127"></linearGradient><linearGradient id="Degradado_sin_nombre_127-28" x1="998.43" y1="319.05" x2="270.96" y2="-20.74" xlink:href="#Degradado_sin_nombre_127"></linearGradient><linearGradient id="Degradado_sin_nombre_127-29" x1="1000.4" y1="314.84" x2="272.93" y2="-24.95" xlink:href="#Degradado_sin_nombre_127"></linearGradient><linearGradient id="Degradado_sin_nombre_127-30" x1="896.96" y1="536.3" x2="169.48" y2="196.52" xlink:href="#Degradado_sin_nombre_127"></linearGradient></defs><g id="Capa_42"><g id="londres-y-paris"><g><g><path d="M601.76,441.29v-45.73h17.84c4.01,0,7.43,.63,10.26,1.89,2.83,1.26,5.01,3.09,6.53,5.49,1.52,2.4,2.29,5.25,2.29,8.56s-.76,6.15-2.29,8.53c-1.53,2.37-3.7,4.2-6.53,5.49-2.83,1.29-6.25,1.93-10.26,1.93h-14.25l2.94-3.07v16.92h-6.53Zm6.53-16.27l-2.94-3.27h14.05c4.18,0,7.35-.89,9.51-2.68,2.16-1.79,3.23-4.31,3.23-7.58s-1.08-5.79-3.23-7.58c-2.16-1.79-5.33-2.68-9.51-2.68h-14.05l2.94-3.27v27.05Z"></path><path d="M648.28,441.29v-45.73h17.84c4.01,0,7.43,.63,10.26,1.89,2.83,1.26,5.01,3.09,6.53,5.49,1.52,2.4,2.29,5.25,2.29,8.56s-.76,6.15-2.29,8.53c-1.53,2.37-3.7,4.19-6.53,5.46-2.83,1.26-6.25,1.89-10.26,1.89h-14.24l2.94-3.01v16.92h-6.53Zm6.53-16.27l-2.94-3.2h14.05c4.18,0,7.35-.9,9.51-2.71,2.16-1.81,3.23-4.34,3.23-7.61s-1.08-5.79-3.23-7.58c-2.16-1.79-5.33-2.68-9.51-2.68h-14.05l2.94-3.27v27.05Zm24.05,16.27l-11.63-16.59h6.99l11.76,16.59h-7.12Z"></path><path d="M702.32,435.6h26.66v5.68h-33.19v-45.73h32.28v5.68h-25.75v34.36Zm-.59-20.32h23.52v5.55h-23.52v-5.55Z"></path><path d="M739.57,441.29v-45.73h5.36l20.52,34.56h-2.88l20.26-34.56h5.36l.07,45.73h-6.27l-.07-35.87h1.5l-18.03,30.31h-3.01l-18.17-30.31h1.63v35.87h-6.27Z"></path><path d="M801.97,441.29v-45.73h6.53v45.73h-6.53Z"></path><path d="M841.17,441.81c-6.01,0-10.74-1.72-14.18-5.16-3.44-3.44-5.16-8.47-5.16-15.09v-26h6.53v25.74c0,5.1,1.12,8.82,3.37,11.17,2.24,2.35,5.41,3.53,9.51,3.53s7.33-1.18,9.57-3.53c2.24-2.35,3.37-6.08,3.37-11.17v-25.74h6.34v26c0,6.62-1.71,11.65-5.13,15.09-3.42,3.44-8.16,5.16-14.21,5.16Z"></path><path d="M873.91,441.29v-45.73h5.36l20.52,34.56h-2.88l20.26-34.56h5.36l.07,45.73h-6.27l-.07-35.87h1.5l-18.03,30.31h-3.01l-18.17-30.31h1.63v35.87h-6.27Z"></path></g><g><path d="M945.62,419.45c-3.25,0-6.31-1.27-8.61-3.58-2.3-2.3-3.56-5.36-3.55-8.62,.01-6.68,5.47-12.11,12.17-12.11,3.26,0,6.32,1.28,8.61,3.58,2.29,2.31,3.55,5.36,3.55,8.61-.02,6.68-5.47,12.11-12.16,12.11h-.01Zm0-22.55c-5.71,0-10.37,4.66-10.39,10.38,0,2.77,1.07,5.38,3.03,7.35,1.97,1.97,4.58,3.06,7.37,3.06,5.72,0,10.38-4.66,10.4-10.4,0-5.72-4.66-10.38-10.38-10.39h-.02Z"></path><path d="M941.13,413.27v-11.94c.09,0,.18-.01,.27-.01,1.38,0,2.75,0,4.13,0,1.02,0,2.01,.17,2.9,.69,1.39,.82,1.95,2.09,1.94,3.66,0,1.04-.29,1.99-.99,2.78-.25,.28-.55,.51-.85,.79,.96,1.32,1.94,2.65,2.93,4.03-.13,0-.21,.02-.29,.02-.86,0-1.72,0-2.58,0-.2,0-.31-.06-.43-.22-.7-.98-1.42-1.95-2.12-2.92-.11-.15-.22-.21-.4-.21-.58,.01-1.17,.01-1.76,0-.18,0-.24,.06-.24,.24,0,.93,0,1.86,0,2.79v.3h-2.52Zm2.52-5.86c.74,0,1.43,0,2.13,0,.19,0,.38-.02,.56-.06,1.31-.25,1.64-1.1,1.45-2.21-.13-.73-.68-1.1-1.37-1.18-.84-.09-1.68-.07-2.52-.11-.22-.01-.26,.08-.25,.27,0,.74,0,1.48,0,2.22v1.07Z"></path></g><polyline points="565.32 453 565.32 384 569.92 384 569.92 453"></polyline><path d="M293.16,435.57v5.72h-33.42v-46.04h32.49v5.72h-25.92v14.14h23.09v5.59h-23.09v14.87h26.84Z"></path><path d="M306.58,436.56c-3.42-3.51-5.13-8.55-5.13-15.13v-26.18h6.58v25.92c0,9.87,4.32,14.8,12.96,14.8,4.21,0,7.43-1.22,9.67-3.65,2.24-2.43,3.35-6.15,3.35-11.15v-25.92h6.38v26.18c0,6.62-1.71,11.68-5.13,15.16-3.42,3.49-8.2,5.23-14.34,5.23s-10.92-1.75-14.34-5.26Z"></path><path d="M382.68,441.29l-9.93-14.14c-1.23,.09-2.19,.13-2.89,.13h-11.38v14.01h-6.58v-46.04h17.96c5.96,0,10.66,1.42,14.08,4.27,3.42,2.85,5.13,6.78,5.13,11.77,0,3.55-.88,6.58-2.63,9.08-1.75,2.5-4.25,4.32-7.5,5.46l10.92,15.46h-7.17Zm-3.49-22.3c2.19-1.8,3.29-4.36,3.29-7.7s-1.1-5.89-3.29-7.66c-2.19-1.78-5.37-2.66-9.54-2.66h-11.18v20.72h11.18c4.17,0,7.35-.9,9.54-2.7Z"></path><path d="M405.96,438.76c-3.73-2.04-6.66-4.86-8.78-8.45-2.13-3.6-3.19-7.61-3.19-12.04s1.06-8.44,3.19-12.04c2.13-3.59,5.05-6.41,8.78-8.45,3.73-2.04,7.91-3.06,12.56-3.06s8.77,1.02,12.5,3.06c3.73,2.04,6.64,4.85,8.75,8.42,2.11,3.57,3.16,7.6,3.16,12.07s-1.05,8.5-3.16,12.07c-2.11,3.57-5.02,6.38-8.75,8.42-3.73,2.04-7.89,3.06-12.5,3.06s-8.84-1.02-12.56-3.06Zm21.67-5.1c2.7-1.53,4.82-3.65,6.38-6.35,1.56-2.7,2.34-5.71,2.34-9.04s-.78-6.35-2.34-9.04-3.68-4.81-6.38-6.35c-2.7-1.53-5.73-2.3-9.11-2.3s-6.44,.77-9.18,2.3c-2.74,1.54-4.89,3.65-6.45,6.35s-2.33,5.71-2.33,9.04,.78,6.35,2.33,9.04c1.56,2.7,3.71,4.81,6.45,6.35,2.74,1.54,5.8,2.3,9.18,2.3s6.41-.77,9.11-2.3Z"></path><path d="M483.06,399.52c3.42,2.85,5.13,6.78,5.13,11.77s-1.71,8.92-5.13,11.77c-3.42,2.85-8.11,4.28-14.08,4.28h-11.38v13.94h-6.58v-46.04h17.96c5.96,0,10.65,1.42,14.08,4.27Zm-4.74,19.44c2.19-1.78,3.29-4.33,3.29-7.66s-1.1-5.89-3.29-7.66c-2.19-1.78-5.37-2.66-9.54-2.66h-11.18v20.65h11.18c4.17,0,7.35-.89,9.54-2.66Z"></path><path d="M522.92,429.78h-24.47l-5.07,11.51h-6.77l20.85-46.04h6.51l20.92,46.04h-6.91l-5.07-11.51Zm-2.3-5.26l-9.93-22.56-9.93,22.56h19.86Z"></path><rect x="259.28" y="355.98" width="694.93" height="9.21"></rect><g><g><path d="M259.61,59.76h24.01v108.99h67.61v20.32h-91.62V59.76Z"></path><path d="M375.24,183.89c-8.01-4.31-14.26-10.31-18.75-18.01-4.5-7.69-6.74-16.41-6.74-26.14s2.25-18.41,6.74-26.05c4.49-7.63,10.74-13.61,18.75-17.92,8-4.31,16.99-6.46,26.97-6.46s19.15,2.16,27.15,6.46c8,4.31,14.25,10.28,18.75,17.92,4.49,7.64,6.74,16.32,6.74,26.05s-2.25,18.44-6.74,26.14c-4.5,7.7-10.75,13.7-18.75,18.01-8.01,4.31-17.06,6.46-27.15,6.46s-18.97-2.15-26.97-6.46Zm48.03-21.8c5.54-5.66,8.31-13.12,8.31-22.35s-2.77-16.69-8.31-22.35c-5.54-5.66-12.56-8.5-21.06-8.5s-15.49,2.83-20.97,8.5c-5.48,5.67-8.22,13.12-8.22,22.35s2.74,16.69,8.22,22.35c5.48,5.67,12.47,8.5,20.97,8.5s15.52-2.83,21.06-8.5Z"></path><path d="M553.69,100.21c7.51,7.27,11.27,18.04,11.27,32.33v56.53h-23.09v-53.57c0-8.62-2.03-15.12-6.1-19.49-4.06-4.37-9.85-6.56-17.36-6.56-8.5,0-15.21,2.56-20.13,7.67-4.93,5.11-7.39,12.47-7.39,22.07v49.88h-23.09V90.42h21.98v12.75c3.82-4.55,8.62-8,14.41-10.34,5.79-2.34,12.31-3.51,19.58-3.51,12.44,0,22.41,3.63,29.93,10.9Z"></path><path d="M682.62,52V189.06h-22.17v-12.75c-3.82,4.68-8.53,8.19-14.13,10.53-5.61,2.34-11.79,3.51-18.57,3.51-9.48,0-18.01-2.09-25.58-6.28-7.57-4.19-13.52-10.13-17.83-17.83-4.31-7.69-6.46-16.53-6.46-26.51s2.15-18.78,6.46-26.42c4.31-7.63,10.25-13.55,17.83-17.73,7.57-4.19,16.1-6.28,25.58-6.28,6.53,0,12.5,1.11,17.92,3.32,5.42,2.22,10.04,5.54,13.85,9.98V52h23.09Zm-37.13,114.81c4.43-2.52,7.94-6.12,10.53-10.81,2.59-4.68,3.88-10.1,3.88-16.26s-1.29-11.57-3.88-16.26c-2.59-4.68-6.1-8.28-10.53-10.81-4.43-2.52-9.42-3.79-14.96-3.79s-10.53,1.26-14.96,3.79c-4.43,2.53-7.94,6.13-10.53,10.81-2.59,4.68-3.88,10.1-3.88,16.26s1.29,11.58,3.88,16.26c2.59,4.68,6.1,8.28,10.53,10.81,4.43,2.53,9.42,3.79,14.96,3.79s10.53-1.26,14.96-3.79Z"></path><path d="M760.76,89.31v21.98c-1.97-.37-3.76-.55-5.36-.55-8.99,0-16.01,2.62-21.06,7.85-5.05,5.24-7.57,12.78-7.57,22.63v47.84h-23.09V90.42h21.98v14.41c6.65-10.34,18.35-15.52,35.1-15.52Z"></path><path d="M862.54,147.13h-77.4c1.35,7.27,4.9,13.02,10.62,17.27,5.73,4.25,12.84,6.37,21.34,6.37,10.83,0,19.76-3.57,26.78-10.71l12.38,14.22c-4.43,5.3-10.04,9.3-16.81,12.01-6.77,2.71-14.41,4.06-22.91,4.06-10.84,0-20.38-2.15-28.63-6.46-8.25-4.31-14.63-10.31-19.12-18.01-4.5-7.69-6.74-16.41-6.74-26.14s2.18-18.26,6.56-25.95c4.37-7.69,10.44-13.7,18.2-18.01,7.76-4.31,16.5-6.46,26.23-6.46s18.2,2.12,25.77,6.37c7.57,4.25,13.48,10.22,17.73,17.92,4.25,7.7,6.37,16.6,6.37,26.69,0,1.6-.12,3.88-.37,6.83Zm-68.26-32.79c-5.11,4.37-8.22,10.19-9.33,17.46h55.97c-.99-7.14-4-12.93-9.05-17.36-5.05-4.43-11.33-6.65-18.84-6.65s-13.64,2.19-18.75,6.56Z"></path><path d="M882.86,187.22c-7.64-2.09-13.73-4.74-18.29-7.94l8.87-17.55c4.43,2.96,9.76,5.33,15.98,7.11,6.22,1.79,12.34,2.68,18.38,2.68,13.79,0,20.69-3.63,20.69-10.9,0-3.45-1.76-5.85-5.26-7.2-3.51-1.35-9.14-2.65-16.9-3.88-8.13-1.23-14.75-2.65-19.86-4.25-5.11-1.6-9.54-4.4-13.3-8.4-3.76-4-5.63-9.57-5.63-16.72,0-9.36,3.91-16.84,11.73-22.44,7.82-5.6,18.38-8.4,31.68-8.4,6.77,0,13.55,.77,20.32,2.31,6.77,1.54,12.31,3.6,16.62,6.19l-8.87,17.55c-8.38-4.92-17.8-7.39-28.26-7.39-6.77,0-11.91,1.02-15.42,3.05-3.51,2.03-5.26,4.71-5.26,8.04,0,3.69,1.88,6.31,5.63,7.85,3.76,1.54,9.57,2.99,17.46,4.34,7.88,1.23,14.35,2.65,19.4,4.25,5.05,1.6,9.39,4.31,13.02,8.13,3.63,3.82,5.45,9.24,5.45,16.26,0,9.24-4,16.63-12.01,22.17-8.01,5.54-18.91,8.31-32.7,8.31-8.01,0-15.83-1.05-23.46-3.14Z"></path></g><g><path d="M627.4,203.38c8.31,3.69,14.69,8.99,19.12,15.89,4.43,6.9,6.65,15.09,6.65,24.57s-2.22,17.52-6.65,24.48c-4.43,6.96-10.81,12.28-19.12,15.98-8.31,3.69-18.07,5.54-29.28,5.54h-29.19v37.31h-24.01V197.84h53.2c11.2,0,20.97,1.85,29.28,5.54Zm-6.56,59.48c5.42-4.43,8.13-10.77,8.13-19.03s-2.71-14.59-8.13-19.03c-5.42-4.43-13.36-6.65-23.83-6.65h-28.08v51.35h28.08c10.47,0,18.41-2.22,23.83-6.65Z"></path><path d="M735.83,237.83c7.69,6.96,11.55,17.46,11.55,31.5v57.82h-21.8v-12.01c-2.83,4.31-6.87,7.61-12.1,9.88-5.24,2.28-11.55,3.42-18.93,3.42s-13.85-1.26-19.4-3.79c-5.54-2.52-9.82-6.03-12.84-10.53-3.02-4.49-4.53-9.57-4.53-15.24,0-8.87,3.29-15.98,9.88-21.34,6.59-5.36,16.96-8.03,31.13-8.03h25.49v-1.48c0-6.9-2.06-12.19-6.19-15.89-4.13-3.69-10.25-5.54-18.38-5.54-5.54,0-10.99,.86-16.35,2.59-5.36,1.73-9.88,4.13-13.58,7.2l-9.05-16.81c5.17-3.94,11.39-6.96,18.66-9.05,7.26-2.09,14.96-3.14,23.09-3.14,14.53,0,25.64,3.48,33.34,10.44Zm-21.06,69.83c4.49-2.65,7.67-6.43,9.51-11.36v-11.45h-23.83c-13.3,0-19.95,4.37-19.95,13.12,0,4.19,1.66,7.51,4.99,9.98,3.33,2.46,7.94,3.69,13.85,3.69s10.93-1.32,15.42-3.97Z"></path><path d="M824.78,227.4v21.98c-1.97-.37-3.76-.55-5.36-.55-8.99,0-16.01,2.62-21.06,7.85-5.05,5.24-7.57,12.78-7.57,22.63v47.84h-23.09v-98.64h21.98v14.41c6.65-10.34,18.35-15.52,35.1-15.52Z"></path><path d="M856.18,189.71h27.15l-32.14,25.31h-19.95l24.94-25.31Zm-21.06,38.79h23.09v98.64h-23.09v-98.64Z"></path><path d="M886.29,325.3c-7.64-2.09-13.73-4.74-18.29-7.94l8.87-17.55c4.43,2.96,9.76,5.33,15.98,7.11,6.22,1.79,12.34,2.68,18.38,2.68,13.79,0,20.69-3.63,20.69-10.9,0-3.45-1.76-5.85-5.26-7.2-3.51-1.35-9.14-2.65-16.9-3.88-8.13-1.23-14.75-2.65-19.86-4.25-5.11-1.6-9.54-4.4-13.3-8.4-3.76-4-5.63-9.57-5.63-16.72,0-9.36,3.91-16.84,11.73-22.44,7.82-5.6,18.38-8.4,31.68-8.4,6.77,0,13.55,.77,20.32,2.31,6.77,1.54,12.31,3.6,16.62,6.19l-8.87,17.55c-8.38-4.92-17.8-7.39-28.26-7.39-6.77,0-11.91,1.02-15.42,3.05-3.51,2.03-5.26,4.71-5.26,8.04,0,3.69,1.88,6.31,5.63,7.85,3.76,1.54,9.57,2.99,17.46,4.34,7.88,1.23,14.35,2.65,19.4,4.25,5.05,1.6,9.39,4.31,13.02,8.13,3.63,3.82,5.45,9.24,5.45,16.26,0,9.24-4,16.63-12.01,22.17-8.01,5.54-18.91,8.31-32.7,8.31-8.01,0-15.83-1.05-23.46-3.14Z"></path></g><path d="M361.91,328.23l-15.57-15.04c-11.56,9.91-25.42,14.86-41.58,14.86-8.61,0-16.34-1.42-23.18-4.25-6.84-2.83-12.21-6.75-16.1-11.77-3.89-5.01-5.84-10.7-5.84-17.07,0-7.67,2.24-14.42,6.72-20.26,4.48-5.84,11.79-11.59,21.94-17.25-4.95-4.95-8.49-9.58-10.62-13.89-2.12-4.3-3.18-8.76-3.18-13.36,0-8.73,3.27-15.78,9.82-21.14,6.55-5.37,15.24-8.05,26.1-8.05,10.02,0,18.05,2.45,24.06,7.34,6.02,4.9,9.02,11.53,9.02,19.9,0,6.37-1.98,12.03-5.93,16.99-3.95,4.95-10.41,9.97-19.37,15.04l26.72,25.48c2.95-5.78,5.25-12.74,6.9-20.88l17.87,5.84c-2.36,10.97-6.08,20.41-11.15,28.31l15.57,14.86-12.21,14.33Zm-28.66-27.6l-32.73-31.32c-7.08,3.89-12.06,7.64-14.95,11.24-2.89,3.6-4.33,7.64-4.33,12.12,0,5.19,2.3,9.38,6.9,12.56,4.6,3.18,10.67,4.78,18.22,4.78,10.26,0,19.22-3.12,26.89-9.38Zm-34.32-80.24c-2.83,2.42-4.25,5.57-4.25,9.47,0,2.83,.77,5.52,2.3,8.05,1.53,2.54,4.48,5.99,8.85,10.35,7.08-3.89,12-7.28,14.77-10.17,2.77-2.89,4.16-6.04,4.16-9.47,0-3.65-1.27-6.55-3.8-8.67-2.54-2.12-6.05-3.18-10.53-3.18-4.84,0-8.67,1.21-11.5,3.63Z"></path></g></g></g></g><g id="Capa_43"><g><g><path class="cls-1" d="M604.76,438.29v-45.73h17.84c4.01,0,7.43,.63,10.26,1.89,2.83,1.26,5.01,3.09,6.53,5.49,1.52,2.4,2.29,5.25,2.29,8.56s-.76,6.15-2.29,8.53c-1.53,2.37-3.7,4.2-6.53,5.49-2.83,1.29-6.25,1.93-10.26,1.93h-14.25l2.94-3.07v16.92h-6.53Zm6.53-16.27l-2.94-3.27h14.05c4.18,0,7.35-.89,9.51-2.68,2.16-1.79,3.23-4.31,3.23-7.58s-1.08-5.79-3.23-7.58c-2.16-1.79-5.33-2.68-9.51-2.68h-14.05l2.94-3.27v27.05Z"></path><path class="cls-7" d="M651.28,438.29v-45.73h17.84c4.01,0,7.43,.63,10.26,1.89,2.83,1.26,5.01,3.09,6.53,5.49,1.52,2.4,2.29,5.25,2.29,8.56s-.76,6.15-2.29,8.53c-1.53,2.37-3.7,4.19-6.53,5.46-2.83,1.26-6.25,1.89-10.26,1.89h-14.24l2.94-3.01v16.92h-6.53Zm6.53-16.27l-2.94-3.2h14.05c4.18,0,7.35-.9,9.51-2.71,2.16-1.81,3.23-4.34,3.23-7.61s-1.08-5.79-3.23-7.58c-2.16-1.79-5.33-2.68-9.51-2.68h-14.05l2.94-3.27v27.05Zm24.05,16.27l-11.63-16.59h6.99l11.76,16.59h-7.12Z"></path><path class="cls-8" d="M705.32,432.6h26.66v5.68h-33.19v-45.73h32.28v5.68h-25.75v34.36Zm-.59-20.32h23.52v5.55h-23.52v-5.55Z"></path><path class="cls-3" d="M742.57,438.29v-45.73h5.36l20.52,34.56h-2.88l20.26-34.56h5.36l.07,45.73h-6.27l-.07-35.87h1.5l-18.03,30.31h-3.01l-18.17-30.31h1.63v35.87h-6.27Z"></path><path class="cls-4" d="M804.97,438.29v-45.73h6.53v45.73h-6.53Z"></path><path class="cls-5" d="M844.17,438.81c-6.01,0-10.74-1.72-14.18-5.16-3.44-3.44-5.16-8.47-5.16-15.09v-26h6.53v25.74c0,5.1,1.12,8.82,3.37,11.17,2.24,2.35,5.41,3.53,9.51,3.53s7.33-1.18,9.57-3.53c2.24-2.35,3.37-6.08,3.37-11.17v-25.74h6.34v26c0,6.62-1.71,11.65-5.13,15.09-3.42,3.44-8.16,5.16-14.21,5.16Z"></path><path class="cls-2" d="M876.91,438.29v-45.73h5.36l20.52,34.56h-2.88l20.26-34.56h5.36l.07,45.73h-6.27l-.07-35.87h1.5l-18.03,30.31h-3.01l-18.17-30.31h1.63v35.87h-6.27Z"></path></g><g><path class="cls-6" d="M948.62,416.45c-3.25,0-6.31-1.27-8.61-3.58-2.3-2.3-3.56-5.36-3.55-8.62,.01-6.68,5.47-12.11,12.17-12.11,3.26,0,6.32,1.28,8.61,3.58,2.29,2.31,3.55,5.36,3.55,8.61-.02,6.68-5.47,12.11-12.16,12.11h-.01Zm0-22.55c-5.71,0-10.37,4.66-10.39,10.38,0,2.77,1.07,5.38,3.03,7.35,1.97,1.97,4.58,3.06,7.37,3.06,5.72,0,10.38-4.66,10.4-10.4,0-5.72-4.66-10.38-10.38-10.39h-.02Z"></path><path class="cls-9" d="M944.13,410.27v-11.94c.09,0,.18-.01,.27-.01,1.38,0,2.75,0,4.13,0,1.02,0,2.01,.17,2.9,.69,1.39,.82,1.95,2.09,1.94,3.66,0,1.04-.29,1.99-.99,2.78-.25,.28-.55,.51-.85,.79,.96,1.32,1.94,2.65,2.93,4.03-.13,0-.21,.02-.29,.02-.86,0-1.72,0-2.58,0-.2,0-.31-.06-.43-.22-.7-.98-1.42-1.95-2.12-2.92-.11-.15-.22-.21-.4-.21-.58,.01-1.17,.01-1.76,0-.18,0-.24,.06-.24,.24,0,.93,0,1.86,0,2.79v.3h-2.52Zm2.52-5.86c.74,0,1.43,0,2.13,0,.19,0,.38-.02,.56-.06,1.31-.25,1.64-1.1,1.45-2.21-.13-.73-.68-1.1-1.37-1.18-.84-.09-1.68-.07-2.52-.11-.22-.01-.26,.08-.25,.27,0,.74,0,1.48,0,2.22v1.07Z"></path></g><polyline class="cls-10" points="568.32 450 568.32 381 572.92 381 572.92 450"></polyline><path class="cls-15" d="M296.16,432.57v5.72h-33.42v-46.04h32.49v5.72h-25.92v14.14h23.09v5.59h-23.09v14.87h26.84Z"></path><path class="cls-18" d="M309.58,433.56c-3.42-3.51-5.13-8.55-5.13-15.13v-26.18h6.58v25.92c0,9.87,4.32,14.8,12.96,14.8,4.21,0,7.43-1.22,9.67-3.65,2.24-2.43,3.35-6.15,3.35-11.15v-25.92h6.38v26.18c0,6.62-1.71,11.68-5.13,15.16-3.42,3.49-8.2,5.23-14.34,5.23s-10.92-1.75-14.34-5.26Z"></path><path class="cls-14" d="M385.68,438.29l-9.93-14.14c-1.23,.09-2.19,.13-2.89,.13h-11.38v14.01h-6.58v-46.04h17.96c5.96,0,10.66,1.42,14.08,4.27,3.42,2.85,5.13,6.78,5.13,11.77,0,3.55-.88,6.58-2.63,9.08-1.75,2.5-4.25,4.32-7.5,5.46l10.92,15.46h-7.17Zm-3.49-22.3c2.19-1.8,3.29-4.36,3.29-7.7s-1.1-5.89-3.29-7.66c-2.19-1.78-5.37-2.66-9.54-2.66h-11.18v20.72h11.18c4.17,0,7.35-.9,9.54-2.7Z"></path><path class="cls-13" d="M408.96,435.76c-3.73-2.04-6.66-4.86-8.78-8.45-2.13-3.6-3.19-7.61-3.19-12.04s1.06-8.44,3.19-12.04c2.13-3.59,5.05-6.41,8.78-8.45,3.73-2.04,7.91-3.06,12.56-3.06s8.77,1.02,12.5,3.06c3.73,2.04,6.64,4.85,8.75,8.42,2.11,3.57,3.16,7.6,3.16,12.07s-1.05,8.5-3.16,12.07c-2.11,3.57-5.02,6.38-8.75,8.42-3.73,2.04-7.89,3.06-12.5,3.06s-8.84-1.02-12.56-3.06Zm21.67-5.1c2.7-1.53,4.82-3.65,6.38-6.35,1.56-2.7,2.34-5.71,2.34-9.04s-.78-6.35-2.34-9.04-3.68-4.81-6.38-6.35c-2.7-1.53-5.73-2.3-9.11-2.3s-6.44,.77-9.18,2.3c-2.74,1.54-4.89,3.65-6.45,6.35s-2.33,5.71-2.33,9.04,.78,6.35,2.33,9.04c1.56,2.7,3.71,4.81,6.45,6.35,2.74,1.54,5.8,2.3,9.18,2.3s6.41-.77,9.11-2.3Z"></path><path class="cls-16" d="M486.06,396.52c3.42,2.85,5.13,6.78,5.13,11.77s-1.71,8.92-5.13,11.77c-3.42,2.85-8.11,4.28-14.08,4.28h-11.38v13.94h-6.58v-46.04h17.96c5.96,0,10.65,1.42,14.08,4.27Zm-4.74,19.44c2.19-1.78,3.29-4.33,3.29-7.66s-1.1-5.89-3.29-7.66c-2.19-1.78-5.37-2.66-9.54-2.66h-11.18v20.65h11.18c4.17,0,7.35-.89,9.54-2.66Z"></path><path class="cls-17" d="M525.92,426.78h-24.47l-5.07,11.51h-6.77l20.85-46.04h6.51l20.92,46.04h-6.91l-5.07-11.51Zm-2.3-5.26l-9.93-22.56-9.93,22.56h19.86Z"></path><rect class="cls-11" x="262.28" y="352.98" width="694.93" height="9.21"></rect><g><g><path class="cls-12" d="M262.61,56.76h24.01v108.99h67.61v20.32h-91.62V56.76Z"></path><path class="cls-19" d="M378.24,180.89c-8.01-4.31-14.26-10.31-18.75-18.01-4.5-7.69-6.74-16.41-6.74-26.14s2.25-18.41,6.74-26.05c4.49-7.63,10.74-13.61,18.75-17.92,8-4.31,16.99-6.46,26.97-6.46s19.15,2.16,27.15,6.46c8,4.31,14.25,10.28,18.75,17.92,4.49,7.64,6.74,16.32,6.74,26.05s-2.25,18.44-6.74,26.14c-4.5,7.7-10.75,13.7-18.75,18.01-8.01,4.31-17.06,6.46-27.15,6.46s-18.97-2.15-26.97-6.46Zm48.03-21.8c5.54-5.66,8.31-13.12,8.31-22.35s-2.77-16.69-8.31-22.35c-5.54-5.66-12.56-8.5-21.06-8.5s-15.49,2.83-20.97,8.5c-5.48,5.67-8.22,13.12-8.22,22.35s2.74,16.69,8.22,22.35c5.48,5.67,12.47,8.5,20.97,8.5s15.52-2.83,21.06-8.5Z"></path><path class="cls-24" d="M556.69,97.21c7.51,7.27,11.27,18.04,11.27,32.33v56.53h-23.09v-53.57c0-8.62-2.03-15.12-6.1-19.49-4.06-4.37-9.85-6.56-17.36-6.56-8.5,0-15.21,2.56-20.13,7.67-4.93,5.11-7.39,12.47-7.39,22.07v49.88h-23.09V87.42h21.98v12.75c3.82-4.55,8.62-8,14.41-10.34,5.79-2.34,12.31-3.51,19.58-3.51,12.44,0,22.41,3.63,29.93,10.9Z"></path><path class="cls-25" d="M685.62,49V186.06h-22.17v-12.75c-3.82,4.68-8.53,8.19-14.13,10.53-5.61,2.34-11.79,3.51-18.57,3.51-9.48,0-18.01-2.09-25.58-6.28-7.57-4.19-13.52-10.13-17.83-17.83-4.31-7.69-6.46-16.53-6.46-26.51s2.15-18.78,6.46-26.42c4.31-7.63,10.25-13.55,17.83-17.73,7.57-4.19,16.1-6.28,25.58-6.28,6.53,0,12.5,1.11,17.92,3.32,5.42,2.22,10.04,5.54,13.85,9.98V49h23.09Zm-37.13,114.81c4.43-2.52,7.94-6.12,10.53-10.81,2.59-4.68,3.88-10.1,3.88-16.26s-1.29-11.57-3.88-16.26c-2.59-4.68-6.1-8.28-10.53-10.81-4.43-2.52-9.42-3.79-14.96-3.79s-10.53,1.26-14.96,3.79c-4.43,2.53-7.94,6.13-10.53,10.81-2.59,4.68-3.88,10.1-3.88,16.26s1.29,11.58,3.88,16.26c2.59,4.68,6.1,8.28,10.53,10.81,4.43,2.53,9.42,3.79,14.96,3.79s10.53-1.26,14.96-3.79Z"></path><path class="cls-23" d="M763.76,86.31v21.98c-1.97-.37-3.76-.55-5.36-.55-8.99,0-16.01,2.62-21.06,7.85-5.05,5.24-7.57,12.78-7.57,22.63v47.84h-23.09V87.42h21.98v14.41c6.65-10.34,18.35-15.52,35.1-15.52Z"></path><path class="cls-22" d="M865.54,144.13h-77.4c1.35,7.27,4.9,13.02,10.62,17.27,5.73,4.25,12.84,6.37,21.34,6.37,10.83,0,19.76-3.57,26.78-10.71l12.38,14.22c-4.43,5.3-10.04,9.3-16.81,12.01-6.77,2.71-14.41,4.06-22.91,4.06-10.84,0-20.38-2.15-28.63-6.46-8.25-4.31-14.63-10.31-19.12-18.01-4.5-7.69-6.74-16.41-6.74-26.14s2.18-18.26,6.56-25.95c4.37-7.69,10.44-13.7,18.2-18.01,7.76-4.31,16.5-6.46,26.23-6.46s18.2,2.12,25.77,6.37c7.57,4.25,13.48,10.22,17.73,17.92,4.25,7.7,6.37,16.6,6.37,26.69,0,1.6-.12,3.88-.37,6.83Zm-68.26-32.79c-5.11,4.37-8.22,10.19-9.33,17.46h55.97c-.99-7.14-4-12.93-9.05-17.36-5.05-4.43-11.33-6.65-18.84-6.65s-13.64,2.19-18.75,6.56Z"></path><path class="cls-29" d="M885.86,184.22c-7.64-2.09-13.73-4.74-18.29-7.94l8.87-17.55c4.43,2.96,9.76,5.33,15.98,7.11,6.22,1.79,12.34,2.68,18.38,2.68,13.79,0,20.69-3.63,20.69-10.9,0-3.45-1.76-5.85-5.26-7.2-3.51-1.35-9.14-2.65-16.9-3.88-8.13-1.23-14.75-2.65-19.86-4.25-5.11-1.6-9.54-4.4-13.3-8.4-3.76-4-5.63-9.57-5.63-16.72,0-9.36,3.91-16.84,11.73-22.44,7.82-5.6,18.38-8.4,31.68-8.4,6.77,0,13.55,.77,20.32,2.31,6.77,1.54,12.31,3.6,16.62,6.19l-8.87,17.55c-8.38-4.92-17.8-7.39-28.26-7.39-6.77,0-11.91,1.02-15.42,3.05-3.51,2.03-5.26,4.71-5.26,8.04,0,3.69,1.88,6.31,5.63,7.85,3.76,1.54,9.57,2.99,17.46,4.34,7.88,1.23,14.35,2.65,19.4,4.25,5.05,1.6,9.39,4.31,13.02,8.13,3.63,3.82,5.45,9.24,5.45,16.26,0,9.24-4,16.63-12.01,22.17-8.01,5.54-18.91,8.31-32.7,8.31-8.01,0-15.83-1.05-23.46-3.14Z"></path></g><g><path class="cls-26" d="M630.4,200.38c8.31,3.69,14.69,8.99,19.12,15.89,4.43,6.9,6.65,15.09,6.65,24.57s-2.22,17.52-6.65,24.48c-4.43,6.96-10.81,12.28-19.12,15.98-8.31,3.69-18.07,5.54-29.28,5.54h-29.19v37.31h-24.01V194.84h53.2c11.2,0,20.97,1.85,29.28,5.54Zm-6.56,59.48c5.42-4.43,8.13-10.77,8.13-19.03s-2.71-14.59-8.13-19.03c-5.42-4.43-13.36-6.65-23.83-6.65h-28.08v51.35h28.08c10.47,0,18.41-2.22,23.83-6.65Z"></path><path class="cls-20" d="M738.83,234.83c7.69,6.96,11.55,17.46,11.55,31.5v57.82h-21.8v-12.01c-2.83,4.31-6.87,7.61-12.1,9.88-5.24,2.28-11.55,3.42-18.93,3.42s-13.85-1.26-19.4-3.79c-5.54-2.52-9.82-6.03-12.84-10.53-3.02-4.49-4.53-9.57-4.53-15.24,0-8.87,3.29-15.98,9.88-21.34,6.59-5.36,16.96-8.03,31.13-8.03h25.49v-1.48c0-6.9-2.06-12.19-6.19-15.89-4.13-3.69-10.25-5.54-18.38-5.54-5.54,0-10.99,.86-16.35,2.59-5.36,1.73-9.88,4.13-13.58,7.2l-9.05-16.81c5.17-3.94,11.39-6.96,18.66-9.05,7.26-2.09,14.96-3.14,23.09-3.14,14.53,0,25.64,3.48,33.34,10.44Zm-21.06,69.83c4.49-2.65,7.67-6.43,9.51-11.36v-11.45h-23.83c-13.3,0-19.95,4.37-19.95,13.12,0,4.19,1.66,7.51,4.99,9.98,3.33,2.46,7.94,3.69,13.85,3.69s10.93-1.32,15.42-3.97Z"></path><path class="cls-21" d="M827.78,224.4v21.98c-1.97-.37-3.76-.55-5.36-.55-8.99,0-16.01,2.62-21.06,7.85-5.05,5.24-7.57,12.78-7.57,22.63v47.84h-23.09v-98.64h21.98v14.41c6.65-10.34,18.35-15.52,35.1-15.52Z"></path><path class="cls-28" d="M859.18,186.71h27.15l-32.14,25.31h-19.95l24.94-25.31Zm-21.06,38.79h23.09v98.64h-23.09v-98.64Z"></path><path class="cls-27" d="M889.29,322.3c-7.64-2.09-13.73-4.74-18.29-7.94l8.87-17.55c4.43,2.96,9.76,5.33,15.98,7.11,6.22,1.79,12.34,2.68,18.38,2.68,13.79,0,20.69-3.63,20.69-10.9,0-3.45-1.76-5.85-5.26-7.2-3.51-1.35-9.14-2.65-16.9-3.88-8.13-1.23-14.75-2.65-19.86-4.25-5.11-1.6-9.54-4.4-13.3-8.4-3.76-4-5.63-9.57-5.63-16.72,0-9.36,3.91-16.84,11.73-22.44,7.82-5.6,18.38-8.4,31.68-8.4,6.77,0,13.55,.77,20.32,2.31,6.77,1.54,12.31,3.6,16.62,6.19l-8.87,17.55c-8.38-4.92-17.8-7.39-28.26-7.39-6.77,0-11.91,1.02-15.42,3.05-3.51,2.03-5.26,4.71-5.26,8.04,0,3.69,1.88,6.31,5.63,7.85,3.76,1.54,9.57,2.99,17.46,4.34,7.88,1.23,14.35,2.65,19.4,4.25,5.05,1.6,9.39,4.31,13.02,8.13,3.63,3.82,5.45,9.24,5.45,16.26,0,9.24-4,16.63-12.01,22.17-8.01,5.54-18.91,8.31-32.7,8.31-8.01,0-15.83-1.05-23.46-3.14Z"></path></g><path class="cls-30" d="M364.91,325.23l-15.57-15.04c-11.56,9.91-25.42,14.86-41.58,14.86-8.61,0-16.34-1.42-23.18-4.25-6.84-2.83-12.21-6.75-16.1-11.77-3.89-5.01-5.84-10.7-5.84-17.07,0-7.67,2.24-14.42,6.72-20.26,4.48-5.84,11.79-11.59,21.94-17.25-4.95-4.95-8.49-9.58-10.62-13.89-2.12-4.3-3.18-8.76-3.18-13.36,0-8.73,3.27-15.78,9.82-21.14,6.55-5.37,15.24-8.05,26.1-8.05,10.02,0,18.05,2.45,24.06,7.34,6.02,4.9,9.02,11.53,9.02,19.9,0,6.37-1.98,12.03-5.93,16.99-3.95,4.95-10.41,9.97-19.37,15.04l26.72,25.48c2.95-5.78,5.25-12.74,6.9-20.88l17.87,5.84c-2.36,10.97-6.08,20.41-11.15,28.31l15.57,14.86-12.21,14.33Zm-28.66-27.6l-32.73-31.32c-7.08,3.89-12.06,7.64-14.95,11.24-2.89,3.6-4.33,7.64-4.33,12.12,0,5.19,2.3,9.38,6.9,12.56,4.6,3.18,10.67,4.78,18.22,4.78,10.26,0,19.22-3.12,26.89-9.38Zm-34.32-80.24c-2.83,2.42-4.25,5.57-4.25,9.47,0,2.83,.77,5.52,2.3,8.05,1.53,2.54,4.48,5.99,8.85,10.35,7.08-3.89,12-7.28,14.77-10.17,2.77-2.89,4.16-6.04,4.16-9.47,0-3.65-1.27-6.55-3.8-8.67-2.54-2.12-6.05-3.18-10.53-3.18-4.84,0-8.67,1.21-11.5,3.63Z"></path></g></g></g></svg>