<svg xmlns="http://www.w3.org/2000/svg" xmlns:xlink="http://www.w3.org/1999/xlink" viewBox="0 0 1220 500"><defs><style>.cls-1{fill:url(#Degradado_sin_nombre_127);}.cls-2{fill:url(#Degradado_sin_nombre_127-7);}.cls-3{fill:url(#Degradado_sin_nombre_127-4);}.cls-4{fill:url(#Degradado_sin_nombre_127-5);}.cls-5{fill:url(#Degradado_sin_nombre_127-6);}.cls-6{fill:url(#Degradado_sin_nombre_127-8);}.cls-7{fill:url(#Degradado_sin_nombre_127-2);}.cls-8{fill:url(#Degradado_sin_nombre_127-3);}.cls-9{fill:url(#Degradado_sin_nombre_127-9);}.cls-10{fill:url(#Degradado_sin_nombre_127-10);}.cls-11{fill:url(#Degradado_sin_nombre_127-17);}.cls-12{fill:url(#Degradado_sin_nombre_127-18);}.cls-13{fill:url(#Degradado_sin_nombre_127-14);}.cls-14{fill:url(#Degradado_sin_nombre_127-13);}.cls-15{fill:url(#Degradado_sin_nombre_127-11);}.cls-16{fill:url(#Degradado_sin_nombre_127-15);}.cls-17{fill:url(#Degradado_sin_nombre_127-16);}.cls-18{fill:url(#Degradado_sin_nombre_127-12);}.cls-19{fill:url(#Degradado_sin_nombre_127-19);}.cls-20{fill:url(#Degradado_sin_nombre_127-26);}.cls-21{fill:url(#Degradado_sin_nombre_127-27);}.cls-22{fill:url(#Degradado_sin_nombre_127-23);}.cls-23{fill:url(#Degradado_sin_nombre_127-22);}.cls-24{fill:url(#Degradado_sin_nombre_127-20);}.cls-25{fill:url(#Degradado_sin_nombre_127-21);}.cls-26{fill:url(#Degradado_sin_nombre_127-25);}.cls-27{fill:url(#Degradado_sin_nombre_127-29);}.cls-28{fill:url(#Degradado_sin_nombre_127-28);}.cls-29{fill:url(#Degradado_sin_nombre_127-24);}.cls-30{fill:url(#Degradado_sin_nombre_127-31);}.cls-31{fill:url(#Degradado_sin_nombre_127-30);}</style><linearGradient id="Degradado_sin_nombre_127" x1="864.69" y1="539.52" x2="247.92" y2="217.69" gradientUnits="userSpaceOnUse"><stop offset="0" stop-color="#d29c05"></stop><stop offset=".09" stop-color="#e3b12b"></stop><stop offset=".22" stop-color="#ffd365"></stop><stop offset=".34" stop-color="#ffd262"></stop><stop offset=".43" stop-color="#ffd058"></stop><stop offset=".49" stop-color="#ffcf4e"></stop><stop offset=".73" stop-color="#d19904"></stop><stop offset=".75" stop-color="#d59e0b"></stop><stop offset=".81" stop-color="#e7b328"></stop><stop offset=".88" stop-color="#f4c23d"></stop><stop offset=".94" stop-color="#fccb49"></stop><stop offset="1" stop-color="#ffcf4e"></stop></linearGradient><linearGradient id="Degradado_sin_nombre_127-2" x1="875.98" y1="517.88" x2="259.21" y2="196.05" xlink:href="#Degradado_sin_nombre_127"></linearGradient><linearGradient id="Degradado_sin_nombre_127-3" x1="888.45" y1="493.98" x2="271.68" y2="172.15" xlink:href="#Degradado_sin_nombre_127"></linearGradient><linearGradient id="Degradado_sin_nombre_127-4" x1="901.06" y1="469.81" x2="284.29" y2="147.98" xlink:href="#Degradado_sin_nombre_127"></linearGradient><linearGradient id="Degradado_sin_nombre_127-5" x1="911.1" y1="450.57" x2="294.33" y2="128.74" xlink:href="#Degradado_sin_nombre_127"></linearGradient><linearGradient id="Degradado_sin_nombre_127-6" x1="921.33" y1="430.96" x2="304.56" y2="109.13" xlink:href="#Degradado_sin_nombre_127"></linearGradient><linearGradient id="Degradado_sin_nombre_127-7" x1="933.67" y1="407.32" x2="316.9" y2="85.49" xlink:href="#Degradado_sin_nombre_127"></linearGradient><linearGradient id="Degradado_sin_nombre_127-8" x1="949.3" y1="377.36" x2="332.53" y2="55.53" xlink:href="#Degradado_sin_nombre_127"></linearGradient><linearGradient id="Degradado_sin_nombre_127-9" x1="948.95" y1="378.05" x2="332.17" y2="56.22" xlink:href="#Degradado_sin_nombre_127"></linearGradient><linearGradient id="Degradado_sin_nombre_127-10" x1="853.39" y1="561.18" x2="236.61" y2="239.35" xlink:href="#Degradado_sin_nombre_127"></linearGradient><linearGradient id="Degradado_sin_nombre_127-11" x1="782.7" y1="696.65" x2="165.93" y2="374.82" xlink:href="#Degradado_sin_nombre_127"></linearGradient><linearGradient id="Degradado_sin_nombre_127-12" x1="795.12" y1="672.85" x2="178.35" y2="351.01" xlink:href="#Degradado_sin_nombre_127"></linearGradient><linearGradient id="Degradado_sin_nombre_127-13" x1="804.12" y1="655.61" x2="187.34" y2="333.78" xlink:href="#Degradado_sin_nombre_127"></linearGradient><linearGradient id="Degradado_sin_nombre_127-14" x1="817.29" y1="630.35" x2="200.52" y2="308.52" xlink:href="#Degradado_sin_nombre_127"></linearGradient><linearGradient id="Degradado_sin_nombre_127-15" x1="828.18" y1="609.49" x2="211.41" y2="287.66" xlink:href="#Degradado_sin_nombre_127"></linearGradient><linearGradient id="Degradado_sin_nombre_127-16" x1="837.15" y1="592.3" x2="220.38" y2="270.47" xlink:href="#Degradado_sin_nombre_127"></linearGradient><linearGradient id="Degradado_sin_nombre_127-17" x1="889.83" y1="491.35" x2="273.05" y2="169.52" xlink:href="#Degradado_sin_nombre_127"></linearGradient><linearGradient id="Degradado_sin_nombre_127-18" x1="991.83" y1="445.69" x2="311.39" y2="90.64" xlink:href="#Degradado_sin_nombre_127"></linearGradient><linearGradient id="Degradado_sin_nombre_127-19" x1="1013.06" y1="405" x2="332.62" y2="49.95" xlink:href="#Degradado_sin_nombre_127"></linearGradient><linearGradient id="Degradado_sin_nombre_127-20" x1="1032.6" y1="367.57" x2="352.15" y2="12.52" xlink:href="#Degradado_sin_nombre_127"></linearGradient><linearGradient id="Degradado_sin_nombre_127-21" x1="1050.98" y1="332.34" x2="370.53" y2="-22.71" xlink:href="#Degradado_sin_nombre_127"></linearGradient><linearGradient id="Degradado_sin_nombre_127-22" x1="1058.19" y1="318.53" x2="377.74" y2="-36.53" xlink:href="#Degradado_sin_nombre_127"></linearGradient><linearGradient id="Degradado_sin_nombre_127-23" x1="1079.61" y1="277.47" x2="399.16" y2="-77.58" xlink:href="#Degradado_sin_nombre_127"></linearGradient><linearGradient id="Degradado_sin_nombre_127-24" x1="920.35" y1="582.69" x2="239.9" y2="227.63" xlink:href="#Degradado_sin_nombre_127"></linearGradient><linearGradient id="Degradado_sin_nombre_127-25" x1="941.89" y1="541.4" x2="261.45" y2="186.34" xlink:href="#Degradado_sin_nombre_127"></linearGradient><linearGradient id="Degradado_sin_nombre_127-26" x1="961.1" y1="504.59" x2="280.66" y2="149.53" xlink:href="#Degradado_sin_nombre_127"></linearGradient><linearGradient id="Degradado_sin_nombre_127-27" x1="979.64" y1="469.05" x2="299.2" y2="114" xlink:href="#Degradado_sin_nombre_127"></linearGradient><linearGradient id="Degradado_sin_nombre_127-28" x1="997.16" y1="435.48" x2="316.71" y2="80.43" xlink:href="#Degradado_sin_nombre_127"></linearGradient><linearGradient id="Degradado_sin_nombre_127-29" x1="1027.82" y1="376.73" x2="347.37" y2="21.67" xlink:href="#Degradado_sin_nombre_127"></linearGradient><linearGradient id="Degradado_sin_nombre_127-30" x1="1005.08" y1="241.23" x2="531.52" y2="-5.87" xlink:href="#Degradado_sin_nombre_127"></linearGradient><linearGradient id="Degradado_sin_nombre_127-31" x1="1015.12" y1="221.99" x2="541.56" y2="-25.11" xlink:href="#Degradado_sin_nombre_127"></linearGradient></defs><g id="Capa_42"><g id="perlas-de-europa"><g><g><path d="M601.04,439.72v-51.87h20.23c4.55,0,8.42,.72,11.64,2.15,3.21,1.43,5.68,3.51,7.41,6.22,1.73,2.72,2.59,5.95,2.59,9.71s-.87,6.98-2.59,9.67c-1.73,2.69-4.2,4.77-7.41,6.22-3.21,1.46-7.09,2.19-11.64,2.19h-16.16l3.34-3.48v19.19h-7.41Zm7.41-18.45l-3.34-3.7h15.94c4.74,0,8.34-1.01,10.78-3.04,2.45-2.02,3.67-4.89,3.67-8.6s-1.22-6.57-3.67-8.6c-2.45-2.03-6.04-3.04-10.78-3.04h-15.94l3.34-3.7v30.68Z"></path><path d="M653.81,439.72v-51.87h20.23c4.55,0,8.42,.72,11.64,2.15,3.21,1.43,5.68,3.51,7.41,6.22,1.73,2.72,2.59,5.95,2.59,9.71s-.86,6.98-2.59,9.67c-1.73,2.69-4.2,4.76-7.41,6.19-3.21,1.43-7.09,2.15-11.64,2.15h-16.16l3.34-3.41v19.19h-7.41Zm7.41-18.45l-3.34-3.63h15.94c4.74,0,8.34-1.02,10.78-3.08,2.45-2.05,3.67-4.93,3.67-8.63s-1.22-6.57-3.67-8.6c-2.45-2.03-6.04-3.04-10.78-3.04h-15.94l3.34-3.7v30.68Zm27.28,18.45l-13.19-18.82h7.93l13.34,18.82h-8.08Z"></path><path d="M715.11,433.27h30.24v6.45h-37.65v-51.87h36.61v6.45h-29.2v38.98Zm-.67-23.05h26.68v6.3h-26.68v-6.3Z"></path><path d="M757.35,439.72v-51.87h6.08l23.27,39.2h-3.26l22.98-39.2h6.08l.07,51.87h-7.12l-.07-40.68h1.7l-20.46,34.38h-3.41l-20.61-34.38h1.85v40.68h-7.12Z"></path><path d="M828.14,439.72v-51.87h7.41v51.87h-7.41Z"></path><path d="M872.61,440.31c-6.82,0-12.18-1.95-16.08-5.85-3.9-3.9-5.86-9.61-5.86-17.12v-29.49h7.41v29.2c0,5.78,1.27,10,3.82,12.67,2.54,2.67,6.14,4,10.78,4s8.31-1.33,10.86-4c2.54-2.67,3.82-6.89,3.82-12.67v-29.2h7.19v29.49c0,7.51-1.94,13.22-5.82,17.12-3.88,3.9-9.25,5.85-16.12,5.85Z"></path><path d="M909.74,439.72v-51.87h6.08l23.27,39.2h-3.26l22.98-39.2h6.08l.07,51.87h-7.12l-.07-40.68h1.7l-20.46,34.38h-3.41l-20.61-34.38h1.85v40.68h-7.12Z"></path></g><g><path d="M987.16,415.33c-3.65,0-7.09-1.43-9.67-4.02-2.58-2.59-4-6.02-3.99-9.68,.01-7.5,6.15-13.6,13.67-13.6,3.67,0,7.09,1.44,9.67,4.02,2.58,2.59,3.99,6.02,3.98,9.67-.02,7.5-6.14,13.6-13.65,13.6h-.01Zm0-25.32c-6.41,0-11.65,5.23-11.67,11.66-.01,3.11,1.2,6.04,3.4,8.25,2.21,2.22,5.15,3.44,8.27,3.44,6.42,0,11.66-5.24,11.68-11.67,0-6.42-5.24-11.66-11.66-11.67h-.02Z"></path><path d="M982.12,408.39v-13.4c.1,0,.2-.02,.3-.02,1.55,0,3.09,0,4.64,0,1.15,0,2.26,.19,3.26,.78,1.56,.92,2.19,2.35,2.18,4.11,0,1.17-.32,2.24-1.11,3.12-.28,.31-.62,.58-.96,.89,1.08,1.48,2.17,2.98,3.29,4.52-.14,0-.23,.02-.32,.02-.97,0-1.93,0-2.9,0-.22,0-.35-.07-.48-.25-.79-1.1-1.59-2.19-2.38-3.28-.12-.17-.24-.24-.45-.23-.66,.01-1.31,.01-1.97,0-.2,0-.27,.06-.27,.27,0,1.04,0,2.09,0,3.13v.33h-2.83Zm2.83-6.58c.83,0,1.61,0,2.39,0,.21,0,.42-.03,.63-.07,1.47-.28,1.84-1.24,1.63-2.48-.14-.82-.76-1.24-1.53-1.32-.94-.1-1.89-.07-2.83-.12-.25-.01-.29,.09-.29,.3,0,.83,0,1.66,0,2.49v1.2Z"></path></g><polyline points="559.7 453 559.7 374.74 564.92 374.74 564.92 453"></polyline><path d="M250.99,433.23v6.49h-37.9v-52.23h36.86v6.49h-29.4v16.04h26.19v6.34h-26.19v16.86h30.44Z"></path><path d="M266.22,434.35c-3.88-3.98-5.82-9.7-5.82-17.16v-29.7h7.46v29.4c0,11.19,4.9,16.79,14.7,16.79,4.77,0,8.43-1.38,10.97-4.14,2.54-2.76,3.8-6.98,3.8-12.65v-29.4h7.24v29.7c0,7.51-1.94,13.24-5.82,17.2-3.88,3.95-9.3,5.93-16.27,5.93s-12.39-1.99-16.27-5.97Z"></path><path d="M352.54,439.72l-11.27-16.04c-1.39,.1-2.49,.15-3.28,.15h-12.91v15.89h-7.46v-52.23h20.37c6.76,0,12.09,1.62,15.97,4.85,3.88,3.23,5.82,7.69,5.82,13.36,0,4.03-1,7.46-2.98,10.3-1.99,2.83-4.83,4.9-8.51,6.19l12.39,17.53h-8.13Zm-3.95-25.29c2.49-2.04,3.73-4.95,3.73-8.73s-1.24-6.68-3.73-8.69c-2.49-2.01-6.09-3.02-10.82-3.02h-12.68v23.5h12.68c4.73,0,8.33-1.02,10.82-3.06Z"></path><path d="M378.95,436.85c-4.23-2.31-7.55-5.51-9.96-9.59-2.41-4.08-3.62-8.63-3.62-13.65s1.21-9.57,3.62-13.65c2.41-4.08,5.73-7.27,9.96-9.59,4.23-2.31,8.98-3.47,14.25-3.47s9.95,1.16,14.18,3.47c4.23,2.31,7.54,5.5,9.92,9.55,2.39,4.05,3.58,8.62,3.58,13.69s-1.19,9.64-3.58,13.69c-2.39,4.05-5.7,7.24-9.92,9.55-4.23,2.31-8.95,3.47-14.18,3.47s-10.02-1.16-14.25-3.47Zm24.58-5.78c3.06-1.74,5.47-4.14,7.24-7.2,1.77-3.06,2.65-6.48,2.65-10.26s-.88-7.2-2.65-10.26c-1.77-3.06-4.18-5.46-7.24-7.2-3.06-1.74-6.5-2.61-10.33-2.61s-7.3,.87-10.41,2.61c-3.11,1.74-5.55,4.14-7.31,7.2-1.77,3.06-2.65,6.48-2.65,10.26s.88,7.2,2.65,10.26c1.77,3.06,4.2,5.46,7.31,7.2,3.11,1.74,6.58,2.61,10.41,2.61s7.28-.87,10.33-2.61Z"></path><path d="M466.4,392.34c3.88,3.23,5.82,7.69,5.82,13.36s-1.94,10.12-5.82,13.35c-3.88,3.23-9.2,4.85-15.97,4.85h-12.91v15.82h-7.46v-52.23h20.37c6.76,0,12.09,1.62,15.97,4.85Zm-5.37,22.05c2.49-2.01,3.73-4.91,3.73-8.69s-1.24-6.68-3.73-8.69c-2.49-2.01-6.09-3.02-10.82-3.02h-12.68v23.43h12.68c4.73,0,8.33-1.01,10.82-3.02Z"></path><path d="M511.61,426.66h-27.75l-5.75,13.06h-7.68l23.65-52.23h7.39l23.73,52.23h-7.83l-5.75-13.06Zm-2.61-5.97l-11.27-25.59-11.27,25.59h22.53Z"></path><rect x="212.57" y="342.95" width="788.26" height="10.45"></rect><g><g><path d="M409.55,65.91c8.07,3.66,14.29,8.84,18.65,15.56,4.36,6.72,6.54,14.68,6.54,23.87s-2.18,17-6.54,23.78c-4.36,6.78-10.58,11.96-18.65,15.56-8.07,3.6-17.59,5.39-28.55,5.39h-24.93v34.12h-28.64V60.42h53.57c10.96,0,20.48,1.83,28.55,5.48Zm-10.52,55.25c4.48-3.71,6.72-8.98,6.72-15.82s-2.24-12.29-6.72-16c-4.48-3.71-11.02-5.57-19.62-5.57h-23.34v42.96h23.34c8.6,0,15.14-1.86,19.62-5.57Z"></path><path d="M538.53,144.41h-71.96c1.3,5.9,4.36,10.55,9.19,13.97,4.83,3.42,10.84,5.13,18.03,5.13,4.95,0,9.34-.73,13.17-2.21,3.83-1.47,7.4-3.8,10.7-6.98l14.67,15.91c-8.96,10.25-22.04,15.38-39.25,15.38-10.73,0-20.22-2.09-28.46-6.28-8.25-4.18-14.62-9.99-19.09-17.41-4.48-7.43-6.72-15.85-6.72-25.28s2.21-17.71,6.63-25.19c4.42-7.48,10.49-13.32,18.21-17.5,7.72-4.18,16.35-6.28,25.9-6.28s17.74,2.01,25.28,6.01c7.54,4.01,13.46,9.75,17.77,17.24,4.3,7.49,6.45,16.18,6.45,26.08,0,.35-.18,2.83-.53,7.42Zm-64.53-30.59c-4.24,3.53-6.84,8.37-7.78,14.5h46.85c-.94-6.01-3.54-10.81-7.78-14.41-4.24-3.59-9.43-5.39-15.56-5.39s-11.49,1.77-15.74,5.3Z"></path><path d="M590.06,91.19c5.6-2.36,12.05-3.54,19.36-3.54v25.46c-3.07-.23-5.13-.35-6.19-.35-7.9,0-14.09,2.21-18.56,6.63-4.48,4.42-6.72,11.05-6.72,19.89v44.91h-27.58V89.07h26.34v12.55c3.3-4.6,7.75-8.07,13.35-10.43Z"></path><path d="M618.79,53h27.58V184.19h-27.58V53Z"></path><path d="M737.25,98.17c7.9,7.01,11.85,17.59,11.85,31.74v54.28h-25.81v-11.85c-5.19,8.84-14.85,13.26-29,13.26-7.31,0-13.64-1.24-19.01-3.71-5.36-2.47-9.46-5.89-12.29-10.25-2.83-4.36-4.24-9.31-4.24-14.85,0-8.84,3.33-15.79,9.99-20.86,6.66-5.07,16.94-7.6,30.85-7.6h21.92c0-6.01-1.83-10.64-5.48-13.88-3.65-3.24-9.14-4.86-16.44-4.86-5.07,0-10.05,.79-14.94,2.39-4.89,1.59-9.05,3.74-12.46,6.45l-9.9-19.27c5.19-3.65,11.4-6.48,18.65-8.49,7.25-2,14.7-3.01,22.36-3.01,14.73,0,26.05,3.51,33.95,10.52Zm-23.51,65.59c3.65-2.18,6.25-5.39,7.78-9.64v-9.72h-18.92c-11.31,0-16.97,3.71-16.97,11.14,0,3.54,1.38,6.34,4.15,8.4,2.77,2.07,6.57,3.1,11.4,3.1s8.9-1.09,12.55-3.27Z"></path><path d="M775.79,182.68c-7.54-1.95-13.56-4.39-18.03-7.34l9.19-19.8c4.24,2.71,9.37,4.92,15.38,6.63,6.01,1.71,11.9,2.56,17.68,2.56,11.67,0,17.5-2.89,17.5-8.66,0-2.71-1.59-4.66-4.77-5.84-3.18-1.18-8.07-2.18-14.67-3.01-7.78-1.18-14.21-2.53-19.27-4.07-5.07-1.53-9.46-4.24-13.17-8.13-3.71-3.89-5.57-9.43-5.57-16.62,0-6.01,1.74-11.34,5.22-16,3.48-4.66,8.54-8.28,15.2-10.87,6.66-2.59,14.53-3.89,23.6-3.89,6.72,0,13.41,.74,20.07,2.21,6.66,1.47,12.17,3.51,16.53,6.1l-9.19,19.62c-8.37-4.71-17.5-7.07-27.4-7.07-5.89,0-10.32,.83-13.26,2.48-2.95,1.65-4.42,3.77-4.42,6.36,0,2.95,1.59,5.01,4.77,6.19,3.18,1.18,8.25,2.3,15.2,3.36,7.78,1.3,14.14,2.68,19.09,4.15,4.95,1.48,9.25,4.15,12.91,8.04,3.65,3.89,5.48,9.31,5.48,16.27,0,5.9-1.77,11.14-5.3,15.74-3.54,4.6-8.69,8.16-15.47,10.69-6.78,2.53-14.82,3.8-24.13,3.8-7.9,0-15.62-.97-23.16-2.92Z"></path></g><g><path d="M314.34,285.11v24.32h-101.4V178.47h98.97v24.32h-68.85v28.44h60.8v23.57h-60.8v30.31h71.28Z"></path><path d="M429.58,208.78v100.65h-27.69v-11.97c-3.87,4.37-8.48,7.7-13.84,10.01-5.36,2.31-11.16,3.46-17.4,3.46-13.22,0-23.7-3.8-31.43-11.41-7.73-7.61-11.6-18.9-11.6-33.86v-56.87h29.18v52.57c0,16.21,6.8,24.32,20.39,24.32,6.98,0,12.6-2.27,16.84-6.83,4.24-4.55,6.36-11.32,6.36-20.3v-49.76h29.18Z"></path><path d="M491.22,211.02c5.92-2.49,12.75-3.74,20.48-3.74v26.94c-3.24-.25-5.42-.37-6.55-.37-8.36,0-14.91,2.34-19.64,7.02-4.74,4.68-7.11,11.69-7.11,21.04v47.52h-29.18v-100.65h27.87v13.28c3.49-4.86,8.2-8.54,14.13-11.04Z"></path><path d="M540.05,304.28c-8.42-4.43-15-10.57-19.74-18.43-4.74-7.86-7.11-16.77-7.11-26.75s2.37-18.89,7.11-26.75c4.74-7.86,11.32-14,19.74-18.43,8.42-4.43,17.93-6.64,28.53-6.64s20.08,2.21,28.44,6.64c8.35,4.43,14.9,10.57,19.64,18.43,4.74,7.86,7.11,16.78,7.11,26.75s-2.37,18.9-7.11,26.75c-4.74,7.86-11.29,14-19.64,18.43-8.36,4.43-17.84,6.64-28.44,6.64s-20.11-2.21-28.53-6.64Zm46.96-24.88c4.8-5.05,7.2-11.82,7.2-20.3s-2.4-15.25-7.2-20.3c-4.8-5.05-10.94-7.58-18.43-7.58s-13.66,2.52-18.52,7.58-7.3,11.82-7.3,20.3,2.43,15.25,7.3,20.3c4.86,5.05,11.04,7.58,18.52,7.58s13.63-2.53,18.43-7.58Z"></path><path d="M720.77,213.74c7.67,4.3,13.69,10.35,18.05,18.15,4.37,7.8,6.55,16.87,6.55,27.22s-2.18,19.43-6.55,27.22c-4.37,7.8-10.38,13.84-18.05,18.15-7.67,4.3-16.18,6.45-25.54,6.45-12.85,0-22.95-4.05-30.31-12.16v34.81h-29.18v-124.8h27.87v11.6c7.23-8.73,17.77-13.09,31.62-13.09,9.35,0,17.87,2.15,25.54,6.45Zm-12.16,65.67c4.8-5.05,7.2-11.82,7.2-20.3s-2.4-15.25-7.2-20.3c-4.8-5.05-10.94-7.58-18.43-7.58s-13.63,2.52-18.43,7.58c-4.8,5.05-7.2,11.82-7.2,20.3s2.4,15.25,7.2,20.3c4.8,5.05,10.94,7.58,18.43,7.58s13.62-2.53,18.43-7.58Z"></path><path d="M832.18,218.41c8.35,7.42,12.53,18.61,12.53,33.58v57.43h-27.31v-12.53c-5.49,9.35-15.71,14.03-30.68,14.03-7.73,0-14.44-1.31-20.11-3.93-5.68-2.62-10.01-6.23-13-10.85-2.99-4.61-4.49-9.85-4.49-15.71,0-9.35,3.52-16.71,10.57-22.08,7.05-5.36,17.93-8.04,32.65-8.04h23.2c0-6.36-1.94-11.25-5.8-14.69-3.87-3.43-9.67-5.14-17.4-5.14-5.36,0-10.63,.84-15.81,2.52-5.18,1.68-9.57,3.96-13.19,6.83l-10.48-20.39c5.49-3.87,12.07-6.86,19.74-8.98,7.67-2.12,15.56-3.18,23.67-3.18,15.59,0,27.56,3.71,35.92,11.13Zm-24.88,69.41c3.86-2.31,6.61-5.71,8.23-10.2v-10.29h-20.02c-11.97,0-17.96,3.93-17.96,11.79,0,3.74,1.46,6.71,4.4,8.89,2.93,2.18,6.95,3.27,12.07,3.27s9.42-1.15,13.28-3.46Z"></path></g><g><path d="M918.94,138.79v96.61h-19.4v-8.07c-5.04,6.08-12.33,9.11-21.87,9.11-6.6,0-12.56-1.47-17.9-4.43-5.34-2.95-9.53-7.16-12.56-12.63-3.04-5.47-4.56-11.8-4.56-19.01s1.52-13.54,4.56-19.01c3.04-5.47,7.23-9.68,12.56-12.63,5.34-2.95,11.3-4.43,17.9-4.43,8.94,0,15.93,2.82,20.96,8.46v-33.98h20.31Zm-25,75.71c3.39-3.52,5.08-8.22,5.08-14.13s-1.69-10.61-5.08-14.13-7.64-5.27-12.76-5.27-9.5,1.76-12.89,5.27-5.08,8.22-5.08,14.13,1.69,10.61,5.08,14.13c3.39,3.51,7.68,5.27,12.89,5.27s9.37-1.76,12.76-5.27Z"></path><path d="M1000.7,206.11h-52.99c.95,4.34,3.21,7.77,6.77,10.29,3.56,2.52,7.98,3.78,13.28,3.78,3.65,0,6.88-.54,9.7-1.63,2.82-1.08,5.45-2.8,7.88-5.14l10.81,11.72c-6.6,7.55-16.23,11.33-28.91,11.33-7.9,0-14.89-1.54-20.96-4.62-6.08-3.08-10.76-7.36-14.06-12.83-3.3-5.47-4.95-11.67-4.95-18.62s1.63-13.04,4.88-18.55c3.26-5.51,7.72-9.81,13.41-12.89,5.68-3.08,12.04-4.62,19.07-4.62s13.06,1.48,18.62,4.43c5.55,2.95,9.92,7.18,13.09,12.69,3.17,5.51,4.75,11.91,4.75,19.21,0,.26-.13,2.08-.39,5.47Zm-47.52-22.52c-3.13,2.6-5.04,6.16-5.73,10.68h34.5c-.7-4.43-2.6-7.96-5.73-10.61-3.13-2.65-6.95-3.97-11.46-3.97s-8.46,1.3-11.59,3.91Z"></path></g></g></g></g></g><g id="Capa_43"><g><g><path class="cls-1" d="M604.04,436.72v-51.87h20.23c4.55,0,8.42,.72,11.64,2.15,3.21,1.43,5.68,3.51,7.41,6.22,1.73,2.72,2.59,5.95,2.59,9.71s-.87,6.98-2.59,9.67c-1.73,2.69-4.2,4.77-7.41,6.22-3.21,1.46-7.09,2.19-11.64,2.19h-16.16l3.34-3.48v19.19h-7.41Zm7.41-18.45l-3.34-3.7h15.94c4.74,0,8.34-1.01,10.78-3.04,2.45-2.02,3.67-4.89,3.67-8.6s-1.22-6.57-3.67-8.6c-2.45-2.03-6.04-3.04-10.78-3.04h-15.94l3.34-3.7v30.68Z"></path><path class="cls-7" d="M656.81,436.72v-51.87h20.23c4.55,0,8.42,.72,11.64,2.15,3.21,1.43,5.68,3.51,7.41,6.22,1.73,2.72,2.59,5.95,2.59,9.71s-.86,6.98-2.59,9.67c-1.73,2.69-4.2,4.76-7.41,6.19-3.21,1.43-7.09,2.15-11.64,2.15h-16.16l3.34-3.41v19.19h-7.41Zm7.41-18.45l-3.34-3.63h15.94c4.74,0,8.34-1.02,10.78-3.08,2.45-2.05,3.67-4.93,3.67-8.63s-1.22-6.57-3.67-8.6c-2.45-2.03-6.04-3.04-10.78-3.04h-15.94l3.34-3.7v30.68Zm27.28,18.45l-13.19-18.82h7.93l13.34,18.82h-8.08Z"></path><path class="cls-8" d="M718.11,430.27h30.24v6.45h-37.65v-51.87h36.61v6.45h-29.2v38.98Zm-.67-23.05h26.68v6.3h-26.68v-6.3Z"></path><path class="cls-3" d="M760.35,436.72v-51.87h6.08l23.27,39.2h-3.26l22.98-39.2h6.08l.07,51.87h-7.12l-.07-40.68h1.7l-20.46,34.38h-3.41l-20.61-34.38h1.85v40.68h-7.12Z"></path><path class="cls-4" d="M831.14,436.72v-51.87h7.41v51.87h-7.41Z"></path><path class="cls-5" d="M875.61,437.31c-6.82,0-12.18-1.95-16.08-5.85-3.9-3.9-5.86-9.61-5.86-17.12v-29.49h7.41v29.2c0,5.78,1.27,10,3.82,12.67,2.54,2.67,6.14,4,10.78,4s8.31-1.33,10.86-4c2.54-2.67,3.82-6.89,3.82-12.67v-29.2h7.19v29.49c0,7.51-1.94,13.22-5.82,17.12-3.88,3.9-9.25,5.85-16.12,5.85Z"></path><path class="cls-2" d="M912.74,436.72v-51.87h6.08l23.27,39.2h-3.26l22.98-39.2h6.08l.07,51.87h-7.12l-.07-40.68h1.7l-20.46,34.38h-3.41l-20.61-34.38h1.85v40.68h-7.12Z"></path></g><g><path class="cls-6" d="M990.16,412.33c-3.65,0-7.09-1.43-9.67-4.02-2.58-2.59-4-6.02-3.99-9.68,.01-7.5,6.15-13.6,13.67-13.6,3.67,0,7.09,1.44,9.67,4.02,2.58,2.59,3.99,6.02,3.98,9.67-.02,7.5-6.14,13.6-13.65,13.6h-.01Zm0-25.32c-6.41,0-11.65,5.23-11.67,11.66-.01,3.11,1.2,6.04,3.4,8.25,2.21,2.22,5.15,3.44,8.27,3.44,6.42,0,11.66-5.24,11.68-11.67,0-6.42-5.24-11.66-11.66-11.67h-.02Z"></path><path class="cls-9" d="M985.12,405.39v-13.4c.1,0,.2-.02,.3-.02,1.55,0,3.09,0,4.64,0,1.15,0,2.26,.19,3.26,.78,1.56,.92,2.19,2.35,2.18,4.11,0,1.17-.32,2.24-1.11,3.12-.28,.31-.62,.58-.96,.89,1.08,1.48,2.17,2.98,3.29,4.52-.14,0-.23,.02-.32,.02-.97,0-1.93,0-2.9,0-.22,0-.35-.07-.48-.25-.79-1.1-1.59-2.19-2.38-3.28-.12-.17-.24-.24-.45-.23-.66,.01-1.31,.01-1.97,0-.2,0-.27,.06-.27,.27,0,1.04,0,2.09,0,3.13v.33h-2.83Zm2.83-6.58c.83,0,1.61,0,2.39,0,.21,0,.42-.03,.63-.07,1.47-.28,1.84-1.24,1.63-2.48-.14-.82-.76-1.24-1.53-1.32-.94-.1-1.89-.07-2.83-.12-.25-.01-.29,.09-.29,.3,0,.83,0,1.66,0,2.49v1.2Z"></path></g><polyline class="cls-10" points="562.7 450 562.7 371.74 567.92 371.74 567.92 450"></polyline><path class="cls-15" d="M253.99,430.23v6.49h-37.9v-52.23h36.86v6.49h-29.4v16.04h26.19v6.34h-26.19v16.86h30.44Z"></path><path class="cls-18" d="M269.22,431.35c-3.88-3.98-5.82-9.7-5.82-17.16v-29.7h7.46v29.4c0,11.19,4.9,16.79,14.7,16.79,4.77,0,8.43-1.38,10.97-4.14,2.54-2.76,3.8-6.98,3.8-12.65v-29.4h7.24v29.7c0,7.51-1.94,13.24-5.82,17.2-3.88,3.95-9.3,5.93-16.27,5.93s-12.39-1.99-16.27-5.97Z"></path><path class="cls-14" d="M355.54,436.72l-11.27-16.04c-1.39,.1-2.49,.15-3.28,.15h-12.91v15.89h-7.46v-52.23h20.37c6.76,0,12.09,1.62,15.97,4.85,3.88,3.23,5.82,7.69,5.82,13.36,0,4.03-1,7.46-2.98,10.3-1.99,2.83-4.83,4.9-8.51,6.19l12.39,17.53h-8.13Zm-3.95-25.29c2.49-2.04,3.73-4.95,3.73-8.73s-1.24-6.68-3.73-8.69c-2.49-2.01-6.09-3.02-10.82-3.02h-12.68v23.5h12.68c4.73,0,8.33-1.02,10.82-3.06Z"></path><path class="cls-13" d="M381.95,433.85c-4.23-2.31-7.55-5.51-9.96-9.59-2.41-4.08-3.62-8.63-3.62-13.65s1.21-9.57,3.62-13.65c2.41-4.08,5.73-7.27,9.96-9.59,4.23-2.31,8.98-3.47,14.25-3.47s9.95,1.16,14.18,3.47c4.23,2.31,7.54,5.5,9.92,9.55,2.39,4.05,3.58,8.62,3.58,13.69s-1.19,9.64-3.58,13.69c-2.39,4.05-5.7,7.24-9.92,9.55-4.23,2.31-8.95,3.47-14.18,3.47s-10.02-1.16-14.25-3.47Zm24.58-5.78c3.06-1.74,5.47-4.14,7.24-7.2,1.77-3.06,2.65-6.48,2.65-10.26s-.88-7.2-2.65-10.26c-1.77-3.06-4.18-5.46-7.24-7.2-3.06-1.74-6.5-2.61-10.33-2.61s-7.3,.87-10.41,2.61c-3.11,1.74-5.55,4.14-7.31,7.2-1.77,3.06-2.65,6.48-2.65,10.26s.88,7.2,2.65,10.26c1.77,3.06,4.2,5.46,7.31,7.2,3.11,1.74,6.58,2.61,10.41,2.61s7.28-.87,10.33-2.61Z"></path><path class="cls-16" d="M469.4,389.34c3.88,3.23,5.82,7.69,5.82,13.36s-1.94,10.12-5.82,13.35c-3.88,3.23-9.2,4.85-15.97,4.85h-12.91v15.82h-7.46v-52.23h20.37c6.76,0,12.09,1.62,15.97,4.85Zm-5.37,22.05c2.49-2.01,3.73-4.91,3.73-8.69s-1.24-6.68-3.73-8.69c-2.49-2.01-6.09-3.02-10.82-3.02h-12.68v23.43h12.68c4.73,0,8.33-1.01,10.82-3.02Z"></path><path class="cls-17" d="M514.61,423.66h-27.75l-5.75,13.06h-7.68l23.65-52.23h7.39l23.73,52.23h-7.83l-5.75-13.06Zm-2.61-5.97l-11.27-25.59-11.27,25.59h22.53Z"></path><rect class="cls-11" x="215.57" y="339.95" width="788.26" height="10.45"></rect><g><g><path class="cls-12" d="M412.55,62.91c8.07,3.66,14.29,8.84,18.65,15.56,4.36,6.72,6.54,14.68,6.54,23.87s-2.18,17-6.54,23.78c-4.36,6.78-10.58,11.96-18.65,15.56-8.07,3.6-17.59,5.39-28.55,5.39h-24.93v34.12h-28.64V57.42h53.57c10.96,0,20.48,1.83,28.55,5.48Zm-10.52,55.25c4.48-3.71,6.72-8.98,6.72-15.82s-2.24-12.29-6.72-16c-4.48-3.71-11.02-5.57-19.62-5.57h-23.34v42.96h23.34c8.6,0,15.14-1.86,19.62-5.57Z"></path><path class="cls-19" d="M541.53,141.41h-71.96c1.3,5.9,4.36,10.55,9.19,13.97,4.83,3.42,10.84,5.13,18.03,5.13,4.95,0,9.34-.73,13.17-2.21,3.83-1.47,7.4-3.8,10.7-6.98l14.67,15.91c-8.96,10.25-22.04,15.38-39.25,15.38-10.73,0-20.22-2.09-28.46-6.28-8.25-4.18-14.62-9.99-19.09-17.41-4.48-7.43-6.72-15.85-6.72-25.28s2.21-17.71,6.63-25.19c4.42-7.48,10.49-13.32,18.21-17.5,7.72-4.18,16.35-6.28,25.9-6.28s17.74,2.01,25.28,6.01c7.54,4.01,13.46,9.75,17.77,17.24,4.3,7.49,6.45,16.18,6.45,26.08,0,.35-.18,2.83-.53,7.42Zm-64.53-30.59c-4.24,3.53-6.84,8.37-7.78,14.5h46.85c-.94-6.01-3.54-10.81-7.78-14.41-4.24-3.59-9.43-5.39-15.56-5.39s-11.49,1.77-15.74,5.3Z"></path><path class="cls-24" d="M593.06,88.19c5.6-2.36,12.05-3.54,19.36-3.54v25.46c-3.07-.23-5.13-.35-6.19-.35-7.9,0-14.09,2.21-18.56,6.63-4.48,4.42-6.72,11.05-6.72,19.89v44.91h-27.58V86.07h26.34v12.55c3.3-4.6,7.75-8.07,13.35-10.43Z"></path><path class="cls-25" d="M621.79,50h27.58V181.19h-27.58V50Z"></path><path class="cls-23" d="M740.25,95.17c7.9,7.01,11.85,17.59,11.85,31.74v54.28h-25.81v-11.85c-5.19,8.84-14.85,13.26-29,13.26-7.31,0-13.64-1.24-19.01-3.71-5.36-2.47-9.46-5.89-12.29-10.25-2.83-4.36-4.24-9.31-4.24-14.85,0-8.84,3.33-15.79,9.99-20.86,6.66-5.07,16.94-7.6,30.85-7.6h21.92c0-6.01-1.83-10.64-5.48-13.88-3.65-3.24-9.14-4.86-16.44-4.86-5.07,0-10.05,.79-14.94,2.39-4.89,1.59-9.05,3.74-12.46,6.45l-9.9-19.27c5.19-3.65,11.4-6.48,18.65-8.49,7.25-2,14.7-3.01,22.36-3.01,14.73,0,26.05,3.51,33.95,10.52Zm-23.51,65.59c3.65-2.18,6.25-5.39,7.78-9.64v-9.72h-18.92c-11.31,0-16.97,3.71-16.97,11.14,0,3.54,1.38,6.34,4.15,8.4,2.77,2.07,6.57,3.1,11.4,3.1s8.9-1.09,12.55-3.27Z"></path><path class="cls-22" d="M778.79,179.68c-7.54-1.95-13.56-4.39-18.03-7.34l9.19-19.8c4.24,2.71,9.37,4.92,15.38,6.63,6.01,1.71,11.9,2.56,17.68,2.56,11.67,0,17.5-2.89,17.5-8.66,0-2.71-1.59-4.66-4.77-5.84-3.18-1.18-8.07-2.18-14.67-3.01-7.78-1.18-14.21-2.53-19.27-4.07-5.07-1.53-9.46-4.24-13.17-8.13-3.71-3.89-5.57-9.43-5.57-16.62,0-6.01,1.74-11.34,5.22-16,3.48-4.66,8.54-8.28,15.2-10.87,6.66-2.59,14.53-3.89,23.6-3.89,6.72,0,13.41,.74,20.07,2.21,6.66,1.47,12.17,3.51,16.53,6.1l-9.19,19.62c-8.37-4.71-17.5-7.07-27.4-7.07-5.89,0-10.32,.83-13.26,2.48-2.95,1.65-4.42,3.77-4.42,6.36,0,2.95,1.59,5.01,4.77,6.19,3.18,1.18,8.25,2.3,15.2,3.36,7.78,1.3,14.14,2.68,19.09,4.15,4.95,1.48,9.25,4.15,12.91,8.04,3.65,3.89,5.48,9.31,5.48,16.27,0,5.9-1.77,11.14-5.3,15.74-3.54,4.6-8.69,8.16-15.47,10.69-6.78,2.53-14.82,3.8-24.13,3.8-7.9,0-15.62-.97-23.16-2.92Z"></path></g><g><path class="cls-29" d="M317.34,282.11v24.32h-101.4V175.47h98.97v24.32h-68.85v28.44h60.8v23.57h-60.8v30.31h71.28Z"></path><path class="cls-26" d="M432.58,205.78v100.65h-27.69v-11.97c-3.87,4.37-8.48,7.7-13.84,10.01-5.36,2.31-11.16,3.46-17.4,3.46-13.22,0-23.7-3.8-31.43-11.41-7.73-7.61-11.6-18.9-11.6-33.86v-56.87h29.18v52.57c0,16.21,6.8,24.32,20.39,24.32,6.98,0,12.6-2.27,16.84-6.83,4.24-4.55,6.36-11.32,6.36-20.3v-49.76h29.18Z"></path><path class="cls-20" d="M494.22,208.02c5.92-2.49,12.75-3.74,20.48-3.74v26.94c-3.24-.25-5.42-.37-6.55-.37-8.36,0-14.91,2.34-19.64,7.02-4.74,4.68-7.11,11.69-7.11,21.04v47.52h-29.18v-100.65h27.87v13.28c3.49-4.86,8.2-8.54,14.13-11.04Z"></path><path class="cls-21" d="M543.05,301.28c-8.42-4.43-15-10.57-19.74-18.43-4.74-7.86-7.11-16.77-7.11-26.75s2.37-18.89,7.11-26.75c4.74-7.86,11.32-14,19.74-18.43,8.42-4.43,17.93-6.64,28.53-6.64s20.08,2.21,28.44,6.64c8.35,4.43,14.9,10.57,19.64,18.43,4.74,7.86,7.11,16.78,7.11,26.75s-2.37,18.9-7.11,26.75c-4.74,7.86-11.29,14-19.64,18.43-8.36,4.43-17.84,6.64-28.44,6.64s-20.11-2.21-28.53-6.64Zm46.96-24.88c4.8-5.05,7.2-11.82,7.2-20.3s-2.4-15.25-7.2-20.3c-4.8-5.05-10.94-7.58-18.43-7.58s-13.66,2.52-18.52,7.58-7.3,11.82-7.3,20.3,2.43,15.25,7.3,20.3c4.86,5.05,11.04,7.58,18.52,7.58s13.63-2.53,18.43-7.58Z"></path><path class="cls-28" d="M723.77,210.74c7.67,4.3,13.69,10.35,18.05,18.15,4.37,7.8,6.55,16.87,6.55,27.22s-2.18,19.43-6.55,27.22c-4.37,7.8-10.38,13.84-18.05,18.15-7.67,4.3-16.18,6.45-25.54,6.45-12.85,0-22.95-4.05-30.31-12.16v34.81h-29.18v-124.8h27.87v11.6c7.23-8.73,17.77-13.09,31.62-13.09,9.35,0,17.87,2.15,25.54,6.45Zm-12.16,65.67c4.8-5.05,7.2-11.82,7.2-20.3s-2.4-15.25-7.2-20.3c-4.8-5.05-10.94-7.58-18.43-7.58s-13.63,2.52-18.43,7.58c-4.8,5.05-7.2,11.82-7.2,20.3s2.4,15.25,7.2,20.3c4.8,5.05,10.94,7.58,18.43,7.58s13.62-2.53,18.43-7.58Z"></path><path class="cls-27" d="M835.18,215.41c8.35,7.42,12.53,18.61,12.53,33.58v57.43h-27.31v-12.53c-5.49,9.35-15.71,14.03-30.68,14.03-7.73,0-14.44-1.31-20.11-3.93-5.68-2.62-10.01-6.23-13-10.85-2.99-4.61-4.49-9.85-4.49-15.71,0-9.35,3.52-16.71,10.57-22.08,7.05-5.36,17.93-8.04,32.65-8.04h23.2c0-6.36-1.94-11.25-5.8-14.69-3.87-3.43-9.67-5.14-17.4-5.14-5.36,0-10.63,.84-15.81,2.52-5.18,1.68-9.57,3.96-13.19,6.83l-10.48-20.39c5.49-3.87,12.07-6.86,19.74-8.98,7.67-2.12,15.56-3.18,23.67-3.18,15.59,0,27.56,3.71,35.92,11.13Zm-24.88,69.41c3.86-2.31,6.61-5.71,8.23-10.2v-10.29h-20.02c-11.97,0-17.96,3.93-17.96,11.79,0,3.74,1.46,6.71,4.4,8.89,2.93,2.18,6.95,3.27,12.07,3.27s9.42-1.15,13.28-3.46Z"></path></g><g><path class="cls-31" d="M921.94,135.79v96.61h-19.4v-8.07c-5.04,6.08-12.33,9.11-21.87,9.11-6.6,0-12.56-1.47-17.9-4.43-5.34-2.95-9.53-7.16-12.56-12.63-3.04-5.47-4.56-11.8-4.56-19.01s1.52-13.54,4.56-19.01c3.04-5.47,7.23-9.68,12.56-12.63,5.34-2.95,11.3-4.43,17.9-4.43,8.94,0,15.93,2.82,20.96,8.46v-33.98h20.31Zm-25,75.71c3.39-3.52,5.08-8.22,5.08-14.13s-1.69-10.61-5.08-14.13-7.64-5.27-12.76-5.27-9.5,1.76-12.89,5.27-5.08,8.22-5.08,14.13,1.69,10.61,5.08,14.13c3.39,3.51,7.68,5.27,12.89,5.27s9.37-1.76,12.76-5.27Z"></path><path class="cls-30" d="M1003.7,203.11h-52.99c.95,4.34,3.21,7.77,6.77,10.29,3.56,2.52,7.98,3.78,13.28,3.78,3.65,0,6.88-.54,9.7-1.63,2.82-1.08,5.45-2.8,7.88-5.14l10.81,11.72c-6.6,7.55-16.23,11.33-28.91,11.33-7.9,0-14.89-1.54-20.96-4.62-6.08-3.08-10.76-7.36-14.06-12.83-3.3-5.47-4.95-11.67-4.95-18.62s1.63-13.04,4.88-18.55c3.26-5.51,7.72-9.81,13.41-12.89,5.68-3.08,12.04-4.62,19.07-4.62s13.06,1.48,18.62,4.43c5.55,2.95,9.92,7.18,13.09,12.69,3.17,5.51,4.75,11.91,4.75,19.21,0,.26-.13,2.08-.39,5.47Zm-47.52-22.52c-3.13,2.6-5.04,6.16-5.73,10.68h34.5c-.7-4.43-2.6-7.96-5.73-10.61-3.13-2.65-6.95-3.97-11.46-3.97s-8.46,1.3-11.59,3.91Z"></path></g></g></g></g></svg>