<svg xmlns="http://www.w3.org/2000/svg" xmlns:xlink="http://www.w3.org/1999/xlink" viewBox="0 0 1220 500"><defs><style>.cls-1{fill:url(#Degradado_sin_nombre_127);}.cls-2{fill:url(#Degradado_sin_nombre_127-7);}.cls-3{fill:url(#Degradado_sin_nombre_127-4);}.cls-4{fill:url(#Degradado_sin_nombre_127-5);}.cls-5{fill:url(#Degradado_sin_nombre_127-6);}.cls-6{fill:url(#Degradado_sin_nombre_127-8);}.cls-7{fill:url(#Degradado_sin_nombre_127-2);}.cls-8{fill:url(#Degradado_sin_nombre_127-3);}.cls-9{fill:url(#Degradado_sin_nombre_127-9);}.cls-10{fill:url(#Degradado_sin_nombre_127-10);}.cls-11{fill:url(#Degradado_sin_nombre_127-17);}.cls-12{fill:url(#Degradado_sin_nombre_127-18);}.cls-13{fill:url(#Degradado_sin_nombre_127-14);}.cls-14{fill:url(#Degradado_sin_nombre_127-13);}.cls-15{fill:url(#Degradado_sin_nombre_127-11);}.cls-16{fill:url(#Degradado_sin_nombre_127-15);}.cls-17{fill:url(#Degradado_sin_nombre_127-16);}.cls-18{fill:url(#Degradado_sin_nombre_127-12);}.cls-19{fill:url(#Degradado_sin_nombre_127-19);}.cls-20{fill:url(#Degradado_sin_nombre_127-26);}.cls-21{fill:url(#Degradado_sin_nombre_127-27);}.cls-22{fill:url(#Degradado_sin_nombre_127-23);}.cls-23{fill:url(#Degradado_sin_nombre_127-22);}.cls-24{fill:url(#Degradado_sin_nombre_127-20);}.cls-25{fill:url(#Degradado_sin_nombre_127-21);}.cls-26{fill:url(#Degradado_sin_nombre_127-25);}.cls-27{fill:url(#Degradado_sin_nombre_127-29);}.cls-28{fill:url(#Degradado_sin_nombre_127-28);}.cls-29{fill:url(#Degradado_sin_nombre_127-24);}.cls-30{fill:url(#Degradado_sin_nombre_127-32);}.cls-31{fill:url(#Degradado_sin_nombre_127-31);}.cls-32{fill:url(#Degradado_sin_nombre_127-30);}</style><linearGradient id="Degradado_sin_nombre_127" x1="823.53" y1="493.68" x2="237.18" y2="257.45" gradientUnits="userSpaceOnUse"><stop offset="0" stop-color="#d29c05"></stop><stop offset=".09" stop-color="#e3b12b"></stop><stop offset=".22" stop-color="#ffd365"></stop><stop offset=".34" stop-color="#ffd262"></stop><stop offset=".43" stop-color="#ffd058"></stop><stop offset=".49" stop-color="#ffcf4e"></stop><stop offset=".73" stop-color="#d19904"></stop><stop offset=".75" stop-color="#d59e0b"></stop><stop offset=".81" stop-color="#e7b328"></stop><stop offset=".88" stop-color="#f4c23d"></stop><stop offset=".94" stop-color="#fccb49"></stop><stop offset="1" stop-color="#ffcf4e"></stop></linearGradient><linearGradient id="Degradado_sin_nombre_127-2" x1="830.93" y1="475.31" x2="244.58" y2="239.09" xlink:href="#Degradado_sin_nombre_127"></linearGradient><linearGradient id="Degradado_sin_nombre_127-3" x1="839.19" y1="454.82" x2="252.84" y2="218.59" xlink:href="#Degradado_sin_nombre_127"></linearGradient><linearGradient id="Degradado_sin_nombre_127-4" x1="847.45" y1="434.31" x2="261.1" y2="198.08" xlink:href="#Degradado_sin_nombre_127"></linearGradient><linearGradient id="Degradado_sin_nombre_127-5" x1="854.03" y1="417.98" x2="267.68" y2="181.75" xlink:href="#Degradado_sin_nombre_127"></linearGradient><linearGradient id="Degradado_sin_nombre_127-6" x1="860.79" y1="401.2" x2="274.44" y2="164.97" xlink:href="#Degradado_sin_nombre_127"></linearGradient><linearGradient id="Degradado_sin_nombre_127-7" x1="868.82" y1="381.28" x2="282.46" y2="145.05" xlink:href="#Degradado_sin_nombre_127"></linearGradient><linearGradient id="Degradado_sin_nombre_127-8" x1="880.01" y1="353.48" x2="293.66" y2="117.25" xlink:href="#Degradado_sin_nombre_127"></linearGradient><linearGradient id="Degradado_sin_nombre_127-9" x1="879.76" y1="354.11" x2="293.41" y2="117.88" xlink:href="#Degradado_sin_nombre_127"></linearGradient><linearGradient id="Degradado_sin_nombre_127-10" x1="816.21" y1="511.86" x2="229.86" y2="275.63" xlink:href="#Degradado_sin_nombre_127"></linearGradient><linearGradient id="Degradado_sin_nombre_127-11" x1="834.92" y1="618.86" x2="181.92" y2="392.75" xlink:href="#Degradado_sin_nombre_127"></linearGradient><linearGradient id="Degradado_sin_nombre_127-12" x1="778.12" y1="606.41" x2="191.76" y2="370.18" xlink:href="#Degradado_sin_nombre_127"></linearGradient><linearGradient id="Degradado_sin_nombre_127-13" x1="783.86" y1="592.15" x2="197.51" y2="355.92" xlink:href="#Degradado_sin_nombre_127"></linearGradient><linearGradient id="Degradado_sin_nombre_127-14" x1="792.58" y1="570.5" x2="206.23" y2="334.27" xlink:href="#Degradado_sin_nombre_127"></linearGradient><linearGradient id="Degradado_sin_nombre_127-15" x1="799.63" y1="553.02" x2="213.27" y2="316.79" xlink:href="#Degradado_sin_nombre_127"></linearGradient><linearGradient id="Degradado_sin_nombre_127-16" x1="805.59" y1="538.21" x2="219.24" y2="301.98" xlink:href="#Degradado_sin_nombre_127"></linearGradient><linearGradient id="Degradado_sin_nombre_127-17" x1="845.29" y1="439.66" x2="258.94" y2="203.44" xlink:href="#Degradado_sin_nombre_127"></linearGradient><linearGradient id="Degradado_sin_nombre_127-18" x1="912.67" y1="275.44" x2="326.31" y2="39.21" xlink:href="#Degradado_sin_nombre_127"></linearGradient><linearGradient id="Degradado_sin_nombre_127-19" x1="919.13" y1="259.4" x2="332.78" y2="23.17" xlink:href="#Degradado_sin_nombre_127"></linearGradient><linearGradient id="Degradado_sin_nombre_127-20" x1="933.03" y1="224.88" x2="346.68" y2="-11.35" xlink:href="#Degradado_sin_nombre_127"></linearGradient><linearGradient id="Degradado_sin_nombre_127-21" x1="944.19" y1="197.2" x2="357.83" y2="-39.03" xlink:href="#Degradado_sin_nombre_127"></linearGradient><linearGradient id="Degradado_sin_nombre_127-22" x1="954.58" y1="171.41" x2="368.23" y2="-64.82" xlink:href="#Degradado_sin_nombre_127"></linearGradient><linearGradient id="Degradado_sin_nombre_127-23" x1="963.2" y1="149.99" x2="376.85" y2="-86.24" xlink:href="#Degradado_sin_nombre_127"></linearGradient><linearGradient id="Degradado_sin_nombre_127-24" x1="973.52" y1="124.39" x2="387.17" y2="-111.84" xlink:href="#Degradado_sin_nombre_127"></linearGradient><linearGradient id="Degradado_sin_nombre_127-25" x1="834.83" y1="468.64" x2="248.48" y2="232.41" xlink:href="#Degradado_sin_nombre_127"></linearGradient><linearGradient id="Degradado_sin_nombre_127-26" x1="840.67" y1="454.14" x2="254.32" y2="217.91" xlink:href="#Degradado_sin_nombre_127"></linearGradient><linearGradient id="Degradado_sin_nombre_127-27" x1="865.41" y1="392.73" x2="279.06" y2="156.5" xlink:href="#Degradado_sin_nombre_127"></linearGradient><linearGradient id="Degradado_sin_nombre_127-28" x1="875.98" y1="366.49" x2="289.63" y2="130.26" xlink:href="#Degradado_sin_nombre_127"></linearGradient><linearGradient id="Degradado_sin_nombre_127-29" x1="886.68" y1="339.92" x2="300.33" y2="103.7" xlink:href="#Degradado_sin_nombre_127"></linearGradient><linearGradient id="Degradado_sin_nombre_127-30" x1="896.39" y1="315.84" x2="310.03" y2="79.62" xlink:href="#Degradado_sin_nombre_127"></linearGradient><linearGradient id="Degradado_sin_nombre_127-31" x1="903.7" y1="297.69" x2="317.35" y2="61.46" xlink:href="#Degradado_sin_nombre_127"></linearGradient><linearGradient id="Degradado_sin_nombre_127-32" x1="924.14" y1="246.95" x2="337.79" y2="10.73" xlink:href="#Degradado_sin_nombre_127"></linearGradient></defs><g id="Capa_42"><g id="sabores-de-europa"><g><g><path d="M601.03,439.66v-52.08h20.32c4.56,0,8.46,.72,11.68,2.16,3.22,1.44,5.7,3.52,7.44,6.25,1.74,2.73,2.6,5.98,2.6,9.75s-.87,7.01-2.6,9.71c-1.74,2.7-4.22,4.79-7.44,6.25-3.23,1.46-7.12,2.2-11.68,2.2h-16.22l3.35-3.5v19.27h-7.44Zm7.44-18.53l-3.35-3.72h16c4.76,0,8.37-1.02,10.83-3.05,2.46-2.03,3.68-4.91,3.68-8.63s-1.23-6.6-3.68-8.63c-2.46-2.03-6.06-3.05-10.83-3.05h-16l3.35-3.72v30.8Z"></path><path d="M654.01,439.66v-52.08h20.32c4.56,0,8.46,.72,11.68,2.16,3.22,1.44,5.7,3.52,7.44,6.25,1.74,2.73,2.6,5.98,2.6,9.75s-.87,7.01-2.6,9.71c-1.74,2.7-4.22,4.77-7.44,6.21-3.23,1.44-7.12,2.16-11.68,2.16h-16.22l3.35-3.42v19.27h-7.44Zm7.44-18.53l-3.35-3.65h16c4.76,0,8.37-1.03,10.83-3.09,2.46-2.06,3.68-4.95,3.68-8.67s-1.23-6.6-3.68-8.63c-2.46-2.03-6.07-3.05-10.83-3.05h-16l3.35-3.72v30.8Zm27.39,18.53l-13.25-18.9h7.96l13.39,18.9h-8.11Z"></path><path d="M715.55,433.19h30.36v6.47h-37.8v-52.08h36.76v6.47h-29.32v39.14Zm-.67-23.14h26.79v6.32h-26.79v-6.32Z"></path><path d="M757.97,439.66v-52.08h6.1l23.37,39.36h-3.27l23.07-39.36h6.1l.07,52.08h-7.14l-.07-40.85h1.71l-20.54,34.52h-3.42l-20.69-34.52h1.86v40.85h-7.14Z"></path><path d="M829.04,439.66v-52.08h7.44v52.08h-7.44Z"></path><path d="M873.69,440.26c-6.85,0-12.23-1.96-16.15-5.88-3.92-3.92-5.88-9.65-5.88-17.19v-29.61h7.44v29.31c0,5.8,1.28,10.04,3.83,12.72,2.55,2.68,6.16,4.02,10.83,4.02s8.35-1.34,10.9-4.02c2.55-2.68,3.83-6.92,3.83-12.72v-29.31h7.22v29.61c0,7.54-1.95,13.27-5.84,17.19-3.9,3.92-9.29,5.88-16.19,5.88Z"></path><path d="M910.97,439.66v-52.08h6.1l23.37,39.36h-3.27l23.07-39.36h6.1l.07,52.08h-7.14l-.07-40.85h1.71l-20.54,34.52h-3.42l-20.69-34.52h1.86v40.85h-7.14Z"></path></g><g><path d="M988.71,415.18c-3.67,0-7.11-1.44-9.7-4.03-2.59-2.6-4.01-6.05-4-9.72,.01-7.53,6.17-13.65,13.72-13.65,3.68,0,7.12,1.44,9.71,4.04,2.59,2.6,4.01,6.05,4,9.71-.02,7.53-6.17,13.65-13.7,13.65h-.01Zm0-25.42c-6.44,0-11.7,5.25-11.72,11.7-.01,3.12,1.2,6.06,3.41,8.28,2.22,2.22,5.17,3.45,8.3,3.45,6.44,0,11.7-5.26,11.73-11.72,0-6.45-5.26-11.7-11.7-11.72h-.02Z"></path><path d="M983.65,408.21v-13.46c.1,0,.2-.02,.31-.02,1.55,0,3.1,0,4.66,0,1.15,0,2.27,.19,3.27,.78,1.57,.92,2.2,2.36,2.19,4.13,0,1.17-.33,2.25-1.12,3.14-.28,.32-.62,.58-.96,.9,1.08,1.49,2.18,2.99,3.31,4.54-.14,0-.23,.02-.32,.02-.97,0-1.94,0-2.91,0-.22,0-.35-.07-.48-.25-.79-1.1-1.6-2.19-2.39-3.3-.12-.17-.25-.24-.46-.23-.66,.01-1.32,.01-1.98,0-.2,0-.27,.06-.27,.27,0,1.05,0,2.09,0,3.14v.34h-2.85Zm2.85-6.61c.83,0,1.61,0,2.4,0,.21,0,.43-.03,.63-.07,1.48-.29,1.85-1.24,1.63-2.49-.14-.83-.77-1.24-1.54-1.33-.94-.1-1.9-.07-2.84-.12-.25-.01-.29,.09-.29,.3,0,.83,0,1.67,0,2.5v1.2Z"></path></g><polyline points="559.53 453 559.53 374.42 564.76 374.42 564.76 453"></polyline><path d="M249.58,433.15v6.52h-38.06v-52.44h37.01v6.52h-29.52v16.11h26.3v6.37h-26.3v16.93h30.56Z"></path><path d="M264.86,434.27c-3.89-4-5.84-9.74-5.84-17.23v-29.81h7.49v29.51c0,11.24,4.92,16.85,14.76,16.85,4.79,0,8.46-1.39,11.01-4.16,2.55-2.77,3.82-7,3.82-12.7v-29.51h7.27v29.81c0,7.54-1.95,13.3-5.84,17.27-3.9,3.97-9.34,5.96-16.33,5.96s-12.44-2-16.33-5.99Z"></path><path d="M351.53,439.67l-11.31-16.11c-1.4,.1-2.5,.15-3.3,.15h-12.96v15.96h-7.49v-52.44h20.45c6.79,0,12.14,1.62,16.03,4.87,3.89,3.25,5.84,7.72,5.84,13.41,0,4.05-1,7.49-3,10.34-2,2.85-4.84,4.92-8.54,6.22l12.44,17.6h-8.17Zm-3.97-25.39c2.5-2.05,3.75-4.97,3.75-8.76s-1.25-6.7-3.75-8.73c-2.5-2.02-6.12-3.03-10.86-3.03h-12.73v23.6h12.73c4.74,0,8.37-1.02,10.86-3.07Z"></path><path d="M378.05,436.78c-4.25-2.32-7.58-5.53-10-9.63-2.42-4.09-3.63-8.66-3.63-13.71s1.21-9.61,3.63-13.71c2.42-4.09,5.76-7.3,10-9.63,4.24-2.32,9.01-3.48,14.31-3.48s9.99,1.16,14.23,3.48c4.24,2.32,7.57,5.52,9.96,9.59,2.4,4.07,3.6,8.65,3.6,13.75s-1.2,9.68-3.6,13.75c-2.4,4.07-5.72,7.27-9.96,9.59-4.25,2.32-8.99,3.48-14.23,3.48s-10.06-1.16-14.31-3.48Zm24.68-5.81c3.07-1.75,5.49-4.16,7.26-7.23,1.77-3.07,2.66-6.5,2.66-10.3s-.89-7.23-2.66-10.3c-1.77-3.07-4.19-5.48-7.26-7.23-3.07-1.75-6.53-2.62-10.38-2.62s-7.33,.88-10.45,2.62c-3.12,1.75-5.57,4.16-7.34,7.23-1.77,3.07-2.66,6.51-2.66,10.3s.89,7.23,2.66,10.3c1.77,3.07,4.22,5.48,7.34,7.23,3.12,1.75,6.6,2.62,10.45,2.62s7.3-.87,10.38-2.62Z"></path><path d="M465.84,392.1c3.9,3.25,5.84,7.72,5.84,13.41s-1.95,10.16-5.84,13.41c-3.9,3.25-9.24,4.87-16.03,4.87h-12.96v15.88h-7.49v-52.44h20.45c6.79,0,12.13,1.62,16.03,4.87Zm-5.39,22.14c2.5-2.02,3.75-4.93,3.75-8.73s-1.25-6.7-3.75-8.73c-2.5-2.02-6.12-3.03-10.86-3.03h-12.73v23.52h12.73c4.75,0,8.37-1.01,10.86-3.03Z"></path><path d="M511.24,426.56h-27.87l-5.77,13.11h-7.71l23.75-52.44h7.42l23.82,52.44h-7.87l-5.77-13.11Zm-2.62-5.99l-11.31-25.69-11.31,25.69h22.62Z"></path><rect x="210.99" y="342.51" width="791.43" height="10.49"></rect><g><g><path d="M477.24,163.69c-7.44-2.26-13.32-5.27-17.65-9.01l6.65-14.92c4.23,3.35,9.43,6.08,15.59,8.2,6.15,2.12,12.33,3.18,18.54,3.18,7.68,0,13.42-1.23,17.21-3.69,3.79-2.46,5.69-5.71,5.69-9.75,0-2.95-1.06-5.39-3.18-7.31-2.12-1.92-4.8-3.42-8.05-4.51-3.25-1.08-7.68-2.31-13.3-3.69-7.88-1.87-14.26-3.74-19.13-5.61-4.87-1.87-9.06-4.8-12.56-8.79-3.5-3.99-5.24-9.38-5.24-16.18,0-5.71,1.55-10.91,4.65-15.58,3.1-4.68,7.78-8.4,14.03-11.15,6.25-2.76,13.91-4.14,22.97-4.14,6.3,0,12.51,.79,18.61,2.36,6.11,1.58,11.37,3.84,15.81,6.8l-6.06,14.92c-4.53-2.66-9.26-4.68-14.18-6.06-4.93-1.38-9.7-2.07-14.33-2.07-7.58,0-13.22,1.28-16.92,3.84-3.69,2.56-5.54,5.96-5.54,10.19,0,2.95,1.06,5.37,3.18,7.24,2.12,1.87,4.8,3.35,8.05,4.43,3.25,1.08,7.68,2.31,13.3,3.69,7.68,1.77,13.98,3.62,18.91,5.54,4.92,1.92,9.13,4.85,12.63,8.79,3.49,3.94,5.24,9.26,5.24,15.95,0,5.71-1.55,10.88-4.65,15.51-3.1,4.63-7.81,8.32-14.11,11.08-6.3,2.76-13.99,4.14-23.05,4.14-7.98,0-15.68-1.13-23.12-3.4Z"></path><path d="M606.8,94.19c6.15,5.56,9.23,13.96,9.23,25.19v46.24h-17.43v-9.6c-2.27,3.45-5.49,6.08-9.68,7.9-4.19,1.82-9.23,2.73-15.14,2.73s-11.08-1.01-15.51-3.03c-4.43-2.02-7.86-4.82-10.27-8.42-2.41-3.59-3.62-7.66-3.62-12.19,0-7.09,2.63-12.78,7.9-17.06,5.27-4.28,13.57-6.43,24.89-6.43h20.39v-1.18c0-5.51-1.65-9.75-4.95-12.7-3.3-2.95-8.2-4.43-14.7-4.43-4.43,0-8.79,.69-13.07,2.07-4.28,1.38-7.9,3.3-10.86,5.76l-7.24-13.44c4.14-3.15,9.11-5.56,14.92-7.24,5.81-1.67,11.97-2.51,18.47-2.51,11.62,0,20.51,2.78,26.66,8.35Zm-16.84,55.84c3.59-2.12,6.13-5.15,7.61-9.09v-9.16h-19.06c-10.64,0-15.95,3.5-15.95,10.49,0,3.35,1.33,6.01,3.99,7.98,2.66,1.97,6.35,2.95,11.08,2.95s8.74-1.06,12.34-3.18Z"></path><path d="M694.55,90.86c6.06,3.35,10.81,8.08,14.26,14.18,3.45,6.11,5.17,13.15,5.17,21.12s-1.72,15.05-5.17,21.2c-3.45,6.16-8.2,10.91-14.26,14.26-6.06,3.35-12.93,5.02-20.61,5.02-5.42,0-10.37-.94-14.85-2.81-4.48-1.87-8.25-4.68-11.3-8.42v10.19h-17.58V56h18.47v40.33c3.15-3.45,6.87-6.06,11.15-7.83,4.28-1.77,8.99-2.66,14.11-2.66,7.68,0,14.55,1.68,20.61,5.02Zm-5.91,53.18c4.38-4.53,6.57-10.49,6.57-17.87s-2.19-13.34-6.57-17.87c-4.38-4.53-9.97-6.8-16.77-6.8-4.43,0-8.42,1.01-11.97,3.03-3.55,2.02-6.35,4.9-8.42,8.64-2.07,3.74-3.1,8.08-3.1,13s1.03,9.26,3.1,13c2.07,3.74,4.87,6.62,8.42,8.64,3.55,2.02,7.53,3.03,11.97,3.03,6.8,0,12.38-2.26,16.77-6.8Z"></path><path d="M735.98,161.48c-6.4-3.45-11.4-8.25-14.99-14.4-3.6-6.15-5.39-13.12-5.39-20.9s1.8-14.72,5.39-20.83c3.59-6.11,8.59-10.88,14.99-14.33,6.4-3.45,13.59-5.17,21.57-5.17s15.31,1.72,21.72,5.17c6.4,3.45,11.4,8.22,14.99,14.33,3.59,6.11,5.39,13.05,5.39,20.83s-1.8,14.75-5.39,20.9c-3.6,6.16-8.59,10.96-14.99,14.4-6.4,3.45-13.64,5.17-21.72,5.17s-15.17-1.72-21.57-5.17Zm38.41-17.43c4.43-4.53,6.65-10.49,6.65-17.87s-2.22-13.34-6.65-17.87c-4.43-4.53-10.05-6.8-16.84-6.8s-12.39,2.27-16.77,6.8c-4.38,4.53-6.57,10.49-6.57,17.87s2.19,13.35,6.57,17.87c4.38,4.53,9.97,6.8,16.77,6.8s12.41-2.26,16.84-6.8Z"></path><path d="M853.57,85.84v17.58c-1.58-.3-3.01-.44-4.28-.44-7.19,0-12.8,2.09-16.84,6.28-4.04,4.19-6.06,10.22-6.06,18.1v38.26h-18.47V86.73h17.58v11.52c5.32-8.27,14.67-12.41,28.07-12.41Z"></path><path d="M932.9,132.08h-61.9c1.08,5.81,3.91,10.41,8.49,13.81,4.58,3.4,10.27,5.1,17.06,5.1,8.67,0,15.81-2.85,21.42-8.57l9.9,11.37c-3.55,4.24-8.03,7.44-13.44,9.6-5.42,2.17-11.52,3.25-18.32,3.25-8.67,0-16.3-1.72-22.9-5.17-6.6-3.45-11.7-8.25-15.29-14.4-3.6-6.15-5.39-13.12-5.39-20.9s1.75-14.6,5.24-20.76c3.49-6.15,8.35-10.95,14.55-14.4,6.2-3.45,13.2-5.17,20.98-5.17s14.55,1.7,20.61,5.1c6.06,3.4,10.78,8.18,14.18,14.33,3.4,6.16,5.1,13.27,5.1,21.35,0,1.28-.1,3.1-.3,5.47Zm-54.58-26.22c-4.09,3.5-6.57,8.15-7.46,13.96h44.76c-.79-5.71-3.2-10.34-7.24-13.89-4.04-3.55-9.06-5.32-15.07-5.32s-10.91,1.75-14.99,5.24Z"></path><path d="M947.08,164.13c-6.11-1.67-10.98-3.79-14.62-6.35l7.09-14.03c3.55,2.36,7.8,4.26,12.78,5.69,4.97,1.43,9.87,2.14,14.7,2.14,11.03,0,16.55-2.9,16.55-8.72,0-2.76-1.4-4.68-4.21-5.76-2.81-1.08-7.31-2.12-13.52-3.1-6.5-.98-11.79-2.12-15.88-3.4-4.09-1.28-7.63-3.52-10.64-6.72-3.01-3.2-4.51-7.66-4.51-13.37,0-7.48,3.13-13.47,9.38-17.95,6.25-4.48,14.7-6.72,25.34-6.72,5.42,0,10.83,.62,16.25,1.85,5.41,1.23,9.85,2.88,13.3,4.95l-7.09,14.03c-6.7-3.94-14.23-5.91-22.6-5.91-5.42,0-9.53,.81-12.34,2.44-2.81,1.62-4.21,3.77-4.21,6.43,0,2.95,1.5,5.05,4.51,6.28,3,1.23,7.66,2.39,13.96,3.47,6.3,.99,11.47,2.12,15.51,3.4,4.04,1.28,7.51,3.45,10.41,6.5,2.9,3.05,4.36,7.39,4.36,13,0,7.39-3.2,13.3-9.6,17.73-6.4,4.43-15.12,6.65-26.15,6.65-6.4,0-12.66-.84-18.76-2.51Z"></path></g><g><path d="M303.81,181.4v131.66h-8.69v-21.82c-3.67,7.22-8.81,12.78-15.44,16.68-6.63,3.9-14.14,5.86-22.53,5.86s-16.44-2.01-23.42-6.03c-6.98-4.02-12.45-9.58-16.41-16.68-3.96-7.1-5.94-15.2-5.94-24.31s1.98-17.24,5.94-24.4c3.96-7.16,9.43-12.71,16.41-16.68,6.98-3.96,14.78-5.94,23.42-5.94s15.7,1.95,22.27,5.85c6.56,3.9,11.74,9.35,15.53,16.32v-60.5h8.87Zm-27.06,119.41c5.62-3.31,10.05-7.92,13.31-13.84,3.25-5.91,4.88-12.66,4.88-20.23s-1.63-14.31-4.88-20.23c-3.25-5.91-7.69-10.53-13.31-13.84-5.62-3.31-11.98-4.97-19.07-4.97s-13.46,1.66-19.07,4.97c-5.62,3.31-10.06,7.93-13.31,13.84-3.25,5.92-4.88,12.66-4.88,20.23s1.62,14.31,4.88,20.23c3.25,5.92,7.69,10.53,13.31,13.84,5.62,3.31,11.98,4.97,19.07,4.97s13.45-1.66,19.07-4.97Z"></path><path d="M408.14,268.87h-79.67c.24,7.22,2.07,13.63,5.5,19.25,3.43,5.62,8.07,9.97,13.93,13.04,5.86,3.08,12.45,4.61,19.78,4.61,6.03,0,11.62-1.09,16.77-3.28,5.15-2.19,9.43-5.41,12.86-9.67l5.15,5.86c-4.02,4.85-9.08,8.58-15.17,11.18-6.09,2.6-12.69,3.9-19.78,3.9-9.23,0-17.45-2.01-24.66-6.03-7.22-4.02-12.86-9.58-16.95-16.68-4.08-7.1-6.12-15.2-6.12-24.31s1.92-17.06,5.77-24.22c3.84-7.16,9.14-12.74,15.88-16.77,6.74-4.02,14.31-6.03,22.71-6.03s15.94,1.98,22.62,5.94c6.68,3.96,11.95,9.49,15.79,16.59,3.84,7.1,5.77,15.14,5.77,24.13l-.18,2.48Zm-61.57-36.99c-5.21,2.9-9.38,6.98-12.51,12.24-3.14,5.26-4.94,11.21-5.41,17.83h70.97c-.36-6.62-2.13-12.54-5.32-17.74-3.19-5.2-7.39-9.28-12.6-12.24-5.21-2.96-11.06-4.44-17.57-4.44s-12.36,1.45-17.57,4.35Z"></path><path d="M547.24,304.89v8.16h-85.7v-124.2h83.04v8.16h-73.99v48.97h66.18v7.98h-66.18v50.92h76.65Z"></path><path d="M645.54,220.43v92.62h-8.52v-19.87c-3.08,6.51-7.63,11.56-13.66,15.17-6.03,3.61-13.13,5.41-21.29,5.41-12.07,0-21.53-3.37-28.39-10.11-6.86-6.74-10.29-16.44-10.29-29.1v-54.12h8.87v53.41c0,10.41,2.66,18.34,7.98,23.78,5.32,5.44,12.83,8.16,22.53,8.16,10.41,0,18.66-3.25,24.75-9.76,6.09-6.5,9.14-15.26,9.14-26.26v-49.33h8.87Z"></path><path d="M693.62,225.13c6.03-3.61,13.37-5.41,22-5.41v8.69l-2.13-.18c-10.29,0-18.34,3.22-24.13,9.67-5.8,6.45-8.69,15.41-8.69,26.88v48.26h-8.87v-92.62h8.52v20.23c2.84-6.74,7.27-11.92,13.31-15.53Z"></path><path d="M740.38,307.73c-7.04-4.02-12.57-9.61-16.59-16.77-4.02-7.16-6.03-15.23-6.03-24.22s2.01-17.06,6.03-24.22c4.02-7.16,9.55-12.74,16.59-16.77,7.04-4.02,14.93-6.03,23.69-6.03s16.65,2.01,23.69,6.03c7.04,4.02,12.57,9.61,16.59,16.77,4.02,7.16,6.03,15.23,6.03,24.22s-2.01,17.06-6.03,24.22c-4.02,7.16-9.55,12.75-16.59,16.77-7.04,4.02-14.93,6.03-23.69,6.03s-16.65-2.01-23.69-6.03Zm42.76-6.92c5.62-3.31,10.05-7.92,13.31-13.84,3.25-5.91,4.88-12.66,4.88-20.23s-1.63-14.31-4.88-20.23c-3.25-5.91-7.69-10.53-13.31-13.84-5.62-3.31-11.98-4.97-19.07-4.97s-13.46,1.66-19.07,4.97c-5.62,3.31-10.06,7.93-13.31,13.84-3.25,5.92-4.88,12.66-4.88,20.23s1.62,14.31,4.88,20.23c3.25,5.92,7.69,10.53,13.31,13.84,5.62,3.31,11.98,4.97,19.07,4.97s13.45-1.66,19.07-4.97Z"></path><path d="M896.43,225.76c6.98,4.02,12.45,9.58,16.41,16.68,3.96,7.1,5.94,15.2,5.94,24.31s-1.98,17.24-5.94,24.4c-3.96,7.16-9.43,12.72-16.41,16.68-6.98,3.96-14.79,5.94-23.42,5.94-8.16,0-15.56-1.92-22.18-5.77-6.63-3.84-11.77-9.2-15.44-16.06v52.54h-8.87v-124.04h8.52v21.82c3.66-7.1,8.84-12.63,15.53-16.59,6.68-3.96,14.16-5.94,22.45-5.94s16.44,2.01,23.42,6.03Zm-4.79,75.05c5.68-3.31,10.14-7.92,13.4-13.84,3.25-5.91,4.88-12.66,4.88-20.23s-1.63-14.31-4.88-20.23c-3.25-5.91-7.72-10.53-13.4-13.84-5.68-3.31-12.07-4.97-19.16-4.97s-13.46,1.66-19.07,4.97c-5.62,3.31-10.06,7.93-13.31,13.84-3.25,5.92-4.88,12.66-4.88,20.23s1.62,14.31,4.88,20.23c3.25,5.92,7.69,10.53,13.31,13.84,5.62,3.31,11.98,4.97,19.07,4.97s13.48-1.66,19.16-4.97Z"></path><path d="M992.24,228.51c6.15,5.86,9.23,14.46,9.23,25.82v58.73h-8.52v-16.5c-2.96,5.44-7.27,9.67-12.95,12.69-5.68,3.02-12.48,4.52-20.4,4.52-10.29,0-18.42-2.42-24.4-7.27-5.97-4.85-8.96-11.24-8.96-19.16s2.75-13.93,8.25-18.72c5.5-4.79,14.28-7.19,26.35-7.19h31.76v-7.45c0-8.63-2.34-15.2-7.01-19.69-4.67-4.49-11.51-6.74-20.49-6.74-6.15,0-12.04,1.06-17.65,3.19-5.62,2.13-10.38,4.97-14.28,8.52l-4.44-6.39c4.61-4.14,10.17-7.36,16.68-9.67,6.5-2.31,13.31-3.46,20.4-3.46,11.47,0,20.29,2.93,26.44,8.78Zm-11.8,72.66c5.38-3.55,9.43-8.69,12.15-15.44v-17.39h-31.58c-9.11,0-15.7,1.66-19.78,4.97-4.08,3.31-6.12,7.87-6.12,13.66s2.25,10.8,6.74,14.28c4.49,3.49,10.82,5.23,18.99,5.23,7.69,0,14.22-1.77,19.61-5.32Z"></path></g></g></g></g></g><g id="Capa_43"><g><g><path class="cls-1" d="M604.03,436.66v-52.08h20.32c4.56,0,8.46,.72,11.68,2.16,3.22,1.44,5.7,3.52,7.44,6.25,1.74,2.73,2.6,5.98,2.6,9.75s-.87,7.01-2.6,9.71c-1.74,2.7-4.22,4.79-7.44,6.25-3.23,1.46-7.12,2.2-11.68,2.2h-16.22l3.35-3.5v19.27h-7.44Zm7.44-18.53l-3.35-3.72h16c4.76,0,8.37-1.02,10.83-3.05,2.46-2.03,3.68-4.91,3.68-8.63s-1.23-6.6-3.68-8.63c-2.46-2.03-6.06-3.05-10.83-3.05h-16l3.35-3.72v30.8Z"></path><path class="cls-7" d="M657.01,436.66v-52.08h20.32c4.56,0,8.46,.72,11.68,2.16,3.22,1.44,5.7,3.52,7.44,6.25,1.74,2.73,2.6,5.98,2.6,9.75s-.87,7.01-2.6,9.71c-1.74,2.7-4.22,4.77-7.44,6.21-3.23,1.44-7.12,2.16-11.68,2.16h-16.22l3.35-3.42v19.27h-7.44Zm7.44-18.53l-3.35-3.65h16c4.76,0,8.37-1.03,10.83-3.09,2.46-2.06,3.68-4.95,3.68-8.67s-1.23-6.6-3.68-8.63c-2.46-2.03-6.07-3.05-10.83-3.05h-16l3.35-3.72v30.8Zm27.39,18.53l-13.25-18.9h7.96l13.39,18.9h-8.11Z"></path><path class="cls-8" d="M718.55,430.19h30.36v6.47h-37.8v-52.08h36.76v6.47h-29.32v39.14Zm-.67-23.14h26.79v6.32h-26.79v-6.32Z"></path><path class="cls-3" d="M760.97,436.66v-52.08h6.1l23.37,39.36h-3.27l23.07-39.36h6.1l.07,52.08h-7.14l-.07-40.85h1.71l-20.54,34.52h-3.42l-20.69-34.52h1.86v40.85h-7.14Z"></path><path class="cls-4" d="M832.04,436.66v-52.08h7.44v52.08h-7.44Z"></path><path class="cls-5" d="M876.69,437.26c-6.85,0-12.23-1.96-16.15-5.88-3.92-3.92-5.88-9.65-5.88-17.19v-29.61h7.44v29.31c0,5.8,1.28,10.04,3.83,12.72,2.55,2.68,6.16,4.02,10.83,4.02s8.35-1.34,10.9-4.02c2.55-2.68,3.83-6.92,3.83-12.72v-29.31h7.22v29.61c0,7.54-1.95,13.27-5.84,17.19-3.9,3.92-9.29,5.88-16.19,5.88Z"></path><path class="cls-2" d="M913.97,436.66v-52.08h6.1l23.37,39.36h-3.27l23.07-39.36h6.1l.07,52.08h-7.14l-.07-40.85h1.71l-20.54,34.52h-3.42l-20.69-34.52h1.86v40.85h-7.14Z"></path></g><g><path class="cls-6" d="M991.71,412.18c-3.67,0-7.11-1.44-9.7-4.03-2.59-2.6-4.01-6.05-4-9.72,.01-7.53,6.17-13.65,13.72-13.65,3.68,0,7.12,1.44,9.71,4.04,2.59,2.6,4.01,6.05,4,9.71-.02,7.53-6.17,13.65-13.7,13.65h-.01Zm0-25.42c-6.44,0-11.7,5.25-11.72,11.7-.01,3.12,1.2,6.06,3.41,8.28,2.22,2.22,5.17,3.45,8.3,3.45,6.44,0,11.7-5.26,11.73-11.72,0-6.45-5.26-11.7-11.7-11.72h-.02Z"></path><path class="cls-9" d="M986.65,405.21v-13.46c.1,0,.2-.02,.31-.02,1.55,0,3.1,0,4.66,0,1.15,0,2.27,.19,3.27,.78,1.57,.92,2.2,2.36,2.19,4.13,0,1.17-.33,2.25-1.12,3.14-.28,.32-.62,.58-.96,.9,1.08,1.49,2.18,2.99,3.31,4.54-.14,0-.23,.02-.32,.02-.97,0-1.94,0-2.91,0-.22,0-.35-.07-.48-.25-.79-1.1-1.6-2.19-2.39-3.3-.12-.17-.25-.24-.46-.23-.66,.01-1.32,.01-1.98,0-.2,0-.27,.06-.27,.27,0,1.05,0,2.09,0,3.14v.34h-2.85Zm2.85-6.61c.83,0,1.61,0,2.4,0,.21,0,.43-.03,.63-.07,1.48-.29,1.85-1.24,1.63-2.49-.14-.83-.77-1.24-1.54-1.33-.94-.1-1.9-.07-2.84-.12-.25-.01-.29,.09-.29,.3,0,.83,0,1.67,0,2.5v1.2Z"></path></g><polyline class="cls-10" points="562.53 450 562.53 371.42 567.76 371.42 567.76 450"></polyline><path class="cls-15" d="M252.58,430.15v6.52h-38.06v-52.44h37.01v6.52h-29.52v16.11h26.3v6.37h-26.3v16.93h30.56Z"></path><path class="cls-18" d="M267.86,431.27c-3.89-4-5.84-9.74-5.84-17.23v-29.81h7.49v29.51c0,11.24,4.92,16.85,14.76,16.85,4.79,0,8.46-1.39,11.01-4.16,2.55-2.77,3.82-7,3.82-12.7v-29.51h7.27v29.81c0,7.54-1.95,13.3-5.84,17.27-3.9,3.97-9.34,5.96-16.33,5.96s-12.44-2-16.33-5.99Z"></path><path class="cls-14" d="M354.53,436.67l-11.31-16.11c-1.4,.1-2.5,.15-3.3,.15h-12.96v15.96h-7.49v-52.44h20.45c6.79,0,12.14,1.62,16.03,4.87,3.89,3.25,5.84,7.72,5.84,13.41,0,4.05-1,7.49-3,10.34-2,2.85-4.84,4.92-8.54,6.22l12.44,17.6h-8.17Zm-3.97-25.39c2.5-2.05,3.75-4.97,3.75-8.76s-1.25-6.7-3.75-8.73c-2.5-2.02-6.12-3.03-10.86-3.03h-12.73v23.6h12.73c4.74,0,8.37-1.02,10.86-3.07Z"></path><path class="cls-13" d="M381.05,433.78c-4.25-2.32-7.58-5.53-10-9.63-2.42-4.09-3.63-8.66-3.63-13.71s1.21-9.61,3.63-13.71c2.42-4.09,5.76-7.3,10-9.63,4.24-2.32,9.01-3.48,14.31-3.48s9.99,1.16,14.23,3.48c4.24,2.32,7.57,5.52,9.96,9.59,2.4,4.07,3.6,8.65,3.6,13.75s-1.2,9.68-3.6,13.75c-2.4,4.07-5.72,7.27-9.96,9.59-4.25,2.32-8.99,3.48-14.23,3.48s-10.06-1.16-14.31-3.48Zm24.68-5.81c3.07-1.75,5.49-4.16,7.26-7.23,1.77-3.07,2.66-6.5,2.66-10.3s-.89-7.23-2.66-10.3c-1.77-3.07-4.19-5.48-7.26-7.23-3.07-1.75-6.53-2.62-10.38-2.62s-7.33,.88-10.45,2.62c-3.12,1.75-5.57,4.16-7.34,7.23-1.77,3.07-2.66,6.51-2.66,10.3s.89,7.23,2.66,10.3c1.77,3.07,4.22,5.48,7.34,7.23,3.12,1.75,6.6,2.62,10.45,2.62s7.3-.87,10.38-2.62Z"></path><path class="cls-16" d="M468.84,389.1c3.9,3.25,5.84,7.72,5.84,13.41s-1.95,10.16-5.84,13.41c-3.9,3.25-9.24,4.87-16.03,4.87h-12.96v15.88h-7.49v-52.44h20.45c6.79,0,12.13,1.62,16.03,4.87Zm-5.39,22.14c2.5-2.02,3.75-4.93,3.75-8.73s-1.25-6.7-3.75-8.73c-2.5-2.02-6.12-3.03-10.86-3.03h-12.73v23.52h12.73c4.75,0,8.37-1.01,10.86-3.03Z"></path><path class="cls-17" d="M514.24,423.56h-27.87l-5.77,13.11h-7.71l23.75-52.44h7.42l23.82,52.44h-7.87l-5.77-13.11Zm-2.62-5.99l-11.31-25.69-11.31,25.69h22.62Z"></path><rect class="cls-11" x="213.99" y="339.51" width="791.43" height="10.49"></rect><g><g><path class="cls-12" d="M480.24,160.69c-7.44-2.26-13.32-5.27-17.65-9.01l6.65-14.92c4.23,3.35,9.43,6.08,15.59,8.2,6.15,2.12,12.33,3.18,18.54,3.18,7.68,0,13.42-1.23,17.21-3.69,3.79-2.46,5.69-5.71,5.69-9.75,0-2.95-1.06-5.39-3.18-7.31-2.12-1.92-4.8-3.42-8.05-4.51-3.25-1.08-7.68-2.31-13.3-3.69-7.88-1.87-14.26-3.74-19.13-5.61-4.87-1.87-9.06-4.8-12.56-8.79-3.5-3.99-5.24-9.38-5.24-16.18,0-5.71,1.55-10.91,4.65-15.58,3.1-4.68,7.78-8.4,14.03-11.15,6.25-2.76,13.91-4.14,22.97-4.14,6.3,0,12.51,.79,18.61,2.36,6.11,1.58,11.37,3.84,15.81,6.8l-6.06,14.92c-4.53-2.66-9.26-4.68-14.18-6.06-4.93-1.38-9.7-2.07-14.33-2.07-7.58,0-13.22,1.28-16.92,3.84-3.69,2.56-5.54,5.96-5.54,10.19,0,2.95,1.06,5.37,3.18,7.24,2.12,1.87,4.8,3.35,8.05,4.43,3.25,1.08,7.68,2.31,13.3,3.69,7.68,1.77,13.98,3.62,18.91,5.54,4.92,1.92,9.13,4.85,12.63,8.79,3.49,3.94,5.24,9.26,5.24,15.95,0,5.71-1.55,10.88-4.65,15.51-3.1,4.63-7.81,8.32-14.11,11.08-6.3,2.76-13.99,4.14-23.05,4.14-7.98,0-15.68-1.13-23.12-3.4Z"></path><path class="cls-19" d="M609.8,91.19c6.15,5.56,9.23,13.96,9.23,25.19v46.24h-17.43v-9.6c-2.27,3.45-5.49,6.08-9.68,7.9-4.19,1.82-9.23,2.73-15.14,2.73s-11.08-1.01-15.51-3.03c-4.43-2.02-7.86-4.82-10.27-8.42-2.41-3.59-3.62-7.66-3.62-12.19,0-7.09,2.63-12.78,7.9-17.06,5.27-4.28,13.57-6.43,24.89-6.43h20.39v-1.18c0-5.51-1.65-9.75-4.95-12.7-3.3-2.95-8.2-4.43-14.7-4.43-4.43,0-8.79,.69-13.07,2.07-4.28,1.38-7.9,3.3-10.86,5.76l-7.24-13.44c4.14-3.15,9.11-5.56,14.92-7.24,5.81-1.67,11.97-2.51,18.47-2.51,11.62,0,20.51,2.78,26.66,8.35Zm-16.84,55.84c3.59-2.12,6.13-5.15,7.61-9.09v-9.16h-19.06c-10.64,0-15.95,3.5-15.95,10.49,0,3.35,1.33,6.01,3.99,7.98,2.66,1.97,6.35,2.95,11.08,2.95s8.74-1.06,12.34-3.18Z"></path><path class="cls-24" d="M697.55,87.86c6.06,3.35,10.81,8.08,14.26,14.18,3.45,6.11,5.17,13.15,5.17,21.12s-1.72,15.05-5.17,21.2c-3.45,6.16-8.2,10.91-14.26,14.26-6.06,3.35-12.93,5.02-20.61,5.02-5.42,0-10.37-.94-14.85-2.81-4.48-1.87-8.25-4.68-11.3-8.42v10.19h-17.58V53h18.47v40.33c3.15-3.45,6.87-6.06,11.15-7.83,4.28-1.77,8.99-2.66,14.11-2.66,7.68,0,14.55,1.68,20.61,5.02Zm-5.91,53.18c4.38-4.53,6.57-10.49,6.57-17.87s-2.19-13.34-6.57-17.87c-4.38-4.53-9.97-6.8-16.77-6.8-4.43,0-8.42,1.01-11.97,3.03-3.55,2.02-6.35,4.9-8.42,8.64-2.07,3.74-3.1,8.08-3.1,13s1.03,9.26,3.1,13c2.07,3.74,4.87,6.62,8.42,8.64,3.55,2.02,7.53,3.03,11.97,3.03,6.8,0,12.38-2.26,16.77-6.8Z"></path><path class="cls-25" d="M738.98,158.48c-6.4-3.45-11.4-8.25-14.99-14.4-3.6-6.15-5.39-13.12-5.39-20.9s1.8-14.72,5.39-20.83c3.59-6.11,8.59-10.88,14.99-14.33,6.4-3.45,13.59-5.17,21.57-5.17s15.31,1.72,21.72,5.17c6.4,3.45,11.4,8.22,14.99,14.33,3.59,6.11,5.39,13.05,5.39,20.83s-1.8,14.75-5.39,20.9c-3.6,6.16-8.59,10.96-14.99,14.4-6.4,3.45-13.64,5.17-21.72,5.17s-15.17-1.72-21.57-5.17Zm38.41-17.43c4.43-4.53,6.65-10.49,6.65-17.87s-2.22-13.34-6.65-17.87c-4.43-4.53-10.05-6.8-16.84-6.8s-12.39,2.27-16.77,6.8c-4.38,4.53-6.57,10.49-6.57,17.87s2.19,13.35,6.57,17.87c4.38,4.53,9.97,6.8,16.77,6.8s12.41-2.26,16.84-6.8Z"></path><path class="cls-23" d="M856.57,82.84v17.58c-1.58-.3-3.01-.44-4.28-.44-7.19,0-12.8,2.09-16.84,6.28-4.04,4.19-6.06,10.22-6.06,18.1v38.26h-18.47V83.73h17.58v11.52c5.32-8.27,14.67-12.41,28.07-12.41Z"></path><path class="cls-22" d="M935.9,129.08h-61.9c1.08,5.81,3.91,10.41,8.49,13.81,4.58,3.4,10.27,5.1,17.06,5.1,8.67,0,15.81-2.85,21.42-8.57l9.9,11.37c-3.55,4.24-8.03,7.44-13.44,9.6-5.42,2.17-11.52,3.25-18.32,3.25-8.67,0-16.3-1.72-22.9-5.17-6.6-3.45-11.7-8.25-15.29-14.4-3.6-6.15-5.39-13.12-5.39-20.9s1.75-14.6,5.24-20.76c3.49-6.15,8.35-10.95,14.55-14.4,6.2-3.45,13.2-5.17,20.98-5.17s14.55,1.7,20.61,5.1c6.06,3.4,10.78,8.18,14.18,14.33,3.4,6.16,5.1,13.27,5.1,21.35,0,1.28-.1,3.1-.3,5.47Zm-54.58-26.22c-4.09,3.5-6.57,8.15-7.46,13.96h44.76c-.79-5.71-3.2-10.34-7.24-13.89-4.04-3.55-9.06-5.32-15.07-5.32s-10.91,1.75-14.99,5.24Z"></path><path class="cls-29" d="M950.08,161.13c-6.11-1.67-10.98-3.79-14.62-6.35l7.09-14.03c3.55,2.36,7.8,4.26,12.78,5.69,4.97,1.43,9.87,2.14,14.7,2.14,11.03,0,16.55-2.9,16.55-8.72,0-2.76-1.4-4.68-4.21-5.76-2.81-1.08-7.31-2.12-13.52-3.1-6.5-.98-11.79-2.12-15.88-3.4-4.09-1.28-7.63-3.52-10.64-6.72-3.01-3.2-4.51-7.66-4.51-13.37,0-7.48,3.13-13.47,9.38-17.95,6.25-4.48,14.7-6.72,25.34-6.72,5.42,0,10.83,.62,16.25,1.85,5.41,1.23,9.85,2.88,13.3,4.95l-7.09,14.03c-6.7-3.94-14.23-5.91-22.6-5.91-5.42,0-9.53,.81-12.34,2.44-2.81,1.62-4.21,3.77-4.21,6.43,0,2.95,1.5,5.05,4.51,6.28,3,1.23,7.66,2.39,13.96,3.47,6.3,.99,11.47,2.12,15.51,3.4,4.04,1.28,7.51,3.45,10.41,6.5,2.9,3.05,4.36,7.39,4.36,13,0,7.39-3.2,13.3-9.6,17.73-6.4,4.43-15.12,6.65-26.15,6.65-6.4,0-12.66-.84-18.76-2.51Z"></path></g><g><path class="cls-26" d="M306.81,178.4v131.66h-8.69v-21.82c-3.67,7.22-8.81,12.78-15.44,16.68-6.63,3.9-14.14,5.86-22.53,5.86s-16.44-2.01-23.42-6.03c-6.98-4.02-12.45-9.58-16.41-16.68-3.96-7.1-5.94-15.2-5.94-24.31s1.98-17.24,5.94-24.4c3.96-7.16,9.43-12.71,16.41-16.68,6.98-3.96,14.78-5.94,23.42-5.94s15.7,1.95,22.27,5.85c6.56,3.9,11.74,9.35,15.53,16.32v-60.5h8.87Zm-27.06,119.41c5.62-3.31,10.05-7.92,13.31-13.84,3.25-5.91,4.88-12.66,4.88-20.23s-1.63-14.31-4.88-20.23c-3.25-5.91-7.69-10.53-13.31-13.84-5.62-3.31-11.98-4.97-19.07-4.97s-13.46,1.66-19.07,4.97c-5.62,3.31-10.06,7.93-13.31,13.84-3.25,5.92-4.88,12.66-4.88,20.23s1.62,14.31,4.88,20.23c3.25,5.92,7.69,10.53,13.31,13.84,5.62,3.31,11.98,4.97,19.07,4.97s13.45-1.66,19.07-4.97Z"></path><path class="cls-20" d="M411.14,265.87h-79.67c.24,7.22,2.07,13.63,5.5,19.25,3.43,5.62,8.07,9.97,13.93,13.04,5.86,3.08,12.45,4.61,19.78,4.61,6.03,0,11.62-1.09,16.77-3.28,5.15-2.19,9.43-5.41,12.86-9.67l5.15,5.86c-4.02,4.85-9.08,8.58-15.17,11.18-6.09,2.6-12.69,3.9-19.78,3.9-9.23,0-17.45-2.01-24.66-6.03-7.22-4.02-12.86-9.58-16.95-16.68-4.08-7.1-6.12-15.2-6.12-24.31s1.92-17.06,5.77-24.22c3.84-7.16,9.14-12.74,15.88-16.77,6.74-4.02,14.31-6.03,22.71-6.03s15.94,1.98,22.62,5.94c6.68,3.96,11.95,9.49,15.79,16.59,3.84,7.1,5.77,15.14,5.77,24.13l-.18,2.48Zm-61.57-36.99c-5.21,2.9-9.38,6.98-12.51,12.24-3.14,5.26-4.94,11.21-5.41,17.83h70.97c-.36-6.62-2.13-12.54-5.32-17.74-3.19-5.2-7.39-9.28-12.6-12.24-5.21-2.96-11.06-4.44-17.57-4.44s-12.36,1.45-17.57,4.35Z"></path><path class="cls-21" d="M550.24,301.89v8.16h-85.7v-124.2h83.04v8.16h-73.99v48.97h66.18v7.98h-66.18v50.92h76.65Z"></path><path class="cls-28" d="M648.54,217.43v92.62h-8.52v-19.87c-3.08,6.51-7.63,11.56-13.66,15.17-6.03,3.61-13.13,5.41-21.29,5.41-12.07,0-21.53-3.37-28.39-10.11-6.86-6.74-10.29-16.44-10.29-29.1v-54.12h8.87v53.41c0,10.41,2.66,18.34,7.98,23.78,5.32,5.44,12.83,8.16,22.53,8.16,10.41,0,18.66-3.25,24.75-9.76,6.09-6.5,9.14-15.26,9.14-26.26v-49.33h8.87Z"></path><path class="cls-27" d="M696.62,222.13c6.03-3.61,13.37-5.41,22-5.41v8.69l-2.13-.18c-10.29,0-18.34,3.22-24.13,9.67-5.8,6.45-8.69,15.41-8.69,26.88v48.26h-8.87v-92.62h8.52v20.23c2.84-6.74,7.27-11.92,13.31-15.53Z"></path><path class="cls-32" d="M743.38,304.73c-7.04-4.02-12.57-9.61-16.59-16.77-4.02-7.16-6.03-15.23-6.03-24.22s2.01-17.06,6.03-24.22c4.02-7.16,9.55-12.74,16.59-16.77,7.04-4.02,14.93-6.03,23.69-6.03s16.65,2.01,23.69,6.03c7.04,4.02,12.57,9.61,16.59,16.77,4.02,7.16,6.03,15.23,6.03,24.22s-2.01,17.06-6.03,24.22c-4.02,7.16-9.55,12.75-16.59,16.77-7.04,4.02-14.93,6.03-23.69,6.03s-16.65-2.01-23.69-6.03Zm42.76-6.92c5.62-3.31,10.05-7.92,13.31-13.84,3.25-5.91,4.88-12.66,4.88-20.23s-1.63-14.31-4.88-20.23c-3.25-5.91-7.69-10.53-13.31-13.84-5.62-3.31-11.98-4.97-19.07-4.97s-13.46,1.66-19.07,4.97c-5.62,3.31-10.06,7.93-13.31,13.84-3.25,5.92-4.88,12.66-4.88,20.23s1.62,14.31,4.88,20.23c3.25,5.92,7.69,10.53,13.31,13.84,5.62,3.31,11.98,4.97,19.07,4.97s13.45-1.66,19.07-4.97Z"></path><path class="cls-31" d="M899.43,222.76c6.98,4.02,12.45,9.58,16.41,16.68,3.96,7.1,5.94,15.2,5.94,24.31s-1.98,17.24-5.94,24.4c-3.96,7.16-9.43,12.72-16.41,16.68-6.98,3.96-14.79,5.94-23.42,5.94-8.16,0-15.56-1.92-22.18-5.77-6.63-3.84-11.77-9.2-15.44-16.06v52.54h-8.87v-124.04h8.52v21.82c3.66-7.1,8.84-12.63,15.53-16.59,6.68-3.96,14.16-5.94,22.45-5.94s16.44,2.01,23.42,6.03Zm-4.79,75.05c5.68-3.31,10.14-7.92,13.4-13.84,3.25-5.91,4.88-12.66,4.88-20.23s-1.63-14.31-4.88-20.23c-3.25-5.91-7.72-10.53-13.4-13.84-5.68-3.31-12.07-4.97-19.16-4.97s-13.46,1.66-19.07,4.97c-5.62,3.31-10.06,7.93-13.31,13.84-3.25,5.92-4.88,12.66-4.88,20.23s1.62,14.31,4.88,20.23c3.25,5.92,7.69,10.53,13.31,13.84,5.62,3.31,11.98,4.97,19.07,4.97s13.48-1.66,19.16-4.97Z"></path><path class="cls-30" d="M995.24,225.51c6.15,5.86,9.23,14.46,9.23,25.82v58.73h-8.52v-16.5c-2.96,5.44-7.27,9.67-12.95,12.69-5.68,3.02-12.48,4.52-20.4,4.52-10.29,0-18.42-2.42-24.4-7.27-5.97-4.85-8.96-11.24-8.96-19.16s2.75-13.93,8.25-18.72c5.5-4.79,14.28-7.19,26.35-7.19h31.76v-7.45c0-8.63-2.34-15.2-7.01-19.69-4.67-4.49-11.51-6.74-20.49-6.74-6.15,0-12.04,1.06-17.65,3.19-5.62,2.13-10.38,4.97-14.28,8.52l-4.44-6.39c4.61-4.14,10.17-7.36,16.68-9.67,6.5-2.31,13.31-3.46,20.4-3.46,11.47,0,20.29,2.93,26.44,8.78Zm-11.8,72.66c5.38-3.55,9.43-8.69,12.15-15.44v-17.39h-31.58c-9.11,0-15.7,1.66-19.78,4.97-4.08,3.31-6.12,7.87-6.12,13.66s2.25,10.8,6.74,14.28c4.49,3.49,10.82,5.23,18.99,5.23,7.69,0,14.22-1.77,19.61-5.32Z"></path></g></g></g></g></svg>