<svg xmlns="http://www.w3.org/2000/svg" xmlns:xlink="http://www.w3.org/1999/xlink" viewBox="0 0 1220 500"><defs><style>.cls-1{fill:url(#Degradado_sin_nombre_127);}.cls-2{fill:url(#Degradado_sin_nombre_127-7);}.cls-3{fill:url(#Degradado_sin_nombre_127-4);}.cls-4{fill:url(#Degradado_sin_nombre_127-5);}.cls-5{fill:url(#Degradado_sin_nombre_127-6);}.cls-6{fill:url(#Degradado_sin_nombre_127-8);}.cls-7{fill:url(#Degradado_sin_nombre_127-2);}.cls-8{fill:url(#Degradado_sin_nombre_127-3);}.cls-9{fill:url(#Degradado_sin_nombre_127-9);}.cls-10{fill:url(#Degradado_sin_nombre_127-10);}.cls-11{fill:url(#Degradado_sin_nombre_127-17);}.cls-12{fill:url(#Degradado_sin_nombre_127-18);}.cls-13{fill:url(#Degradado_sin_nombre_127-14);}.cls-14{fill:url(#Degradado_sin_nombre_127-13);}.cls-15{fill:url(#Degradado_sin_nombre_127-11);}.cls-16{fill:url(#Degradado_sin_nombre_127-15);}.cls-17{fill:url(#Degradado_sin_nombre_127-16);}.cls-18{fill:url(#Degradado_sin_nombre_127-12);}.cls-19{fill:url(#Degradado_sin_nombre_127-19);}.cls-20{fill:url(#Degradado_sin_nombre_127-26);}.cls-21{fill:url(#Degradado_sin_nombre_127-27);}.cls-22{fill:url(#Degradado_sin_nombre_127-23);}.cls-23{fill:url(#Degradado_sin_nombre_127-22);}.cls-24{fill:url(#Degradado_sin_nombre_127-20);}.cls-25{fill:url(#Degradado_sin_nombre_127-21);}.cls-26{fill:url(#Degradado_sin_nombre_127-25);}.cls-27{fill:url(#Degradado_sin_nombre_127-29);}.cls-28{fill:url(#Degradado_sin_nombre_127-28);}.cls-29{fill:url(#Degradado_sin_nombre_127-24);}.cls-30{fill:url(#Degradado_sin_nombre_127-32);}.cls-31{fill:url(#Degradado_sin_nombre_127-33);}.cls-32{fill:url(#Degradado_sin_nombre_127-31);}.cls-33{fill:url(#Degradado_sin_nombre_127-34);}.cls-34{fill:url(#Degradado_sin_nombre_127-35);}.cls-35{fill:url(#Degradado_sin_nombre_127-30);}</style><linearGradient id="Degradado_sin_nombre_127" x1="937.62" y1="539.03" x2="176.88" y2="238.19" gradientUnits="userSpaceOnUse"><stop offset="0" stop-color="#d29c05"></stop><stop offset=".09" stop-color="#e3b12b"></stop><stop offset=".22" stop-color="#ffd365"></stop><stop offset=".34" stop-color="#ffd262"></stop><stop offset=".43" stop-color="#ffd058"></stop><stop offset=".49" stop-color="#ffcf4e"></stop><stop offset=".73" stop-color="#d19904"></stop><stop offset=".75" stop-color="#d59e0b"></stop><stop offset=".81" stop-color="#e7b328"></stop><stop offset=".88" stop-color="#f4c23d"></stop><stop offset=".94" stop-color="#fccb49"></stop><stop offset="1" stop-color="#ffcf4e"></stop></linearGradient><linearGradient id="Degradado_sin_nombre_127-2" x1="944.49" y1="521.65" x2="183.76" y2="220.81" xlink:href="#Degradado_sin_nombre_127"></linearGradient><linearGradient id="Degradado_sin_nombre_127-3" x1="952.16" y1="502.25" x2="191.43" y2="201.4" xlink:href="#Degradado_sin_nombre_127"></linearGradient><linearGradient id="Degradado_sin_nombre_127-4" x1="959.84" y1="482.84" x2="199.1" y2="182" xlink:href="#Degradado_sin_nombre_127"></linearGradient><linearGradient id="Degradado_sin_nombre_127-5" x1="965.94" y1="467.4" x2="205.21" y2="166.56" xlink:href="#Degradado_sin_nombre_127"></linearGradient><linearGradient id="Degradado_sin_nombre_127-6" x1="972.23" y1="451.51" x2="211.5" y2="150.67" xlink:href="#Degradado_sin_nombre_127"></linearGradient><linearGradient id="Degradado_sin_nombre_127-7" x1="979.68" y1="432.67" x2="218.94" y2="131.83" xlink:href="#Degradado_sin_nombre_127"></linearGradient><linearGradient id="Degradado_sin_nombre_127-8" x1="990.15" y1="406.19" x2="229.42" y2="105.35" xlink:href="#Degradado_sin_nombre_127"></linearGradient><linearGradient id="Degradado_sin_nombre_127-9" x1="989.91" y1="406.79" x2="229.18" y2="105.95" xlink:href="#Degradado_sin_nombre_127"></linearGradient><linearGradient id="Degradado_sin_nombre_127-10" x1="930.82" y1="556.21" x2="170.09" y2="255.37" xlink:href="#Degradado_sin_nombre_127"></linearGradient><linearGradient id="Degradado_sin_nombre_127-11" x1="887.84" y1="664.91" x2="127.1" y2="364.07" xlink:href="#Degradado_sin_nombre_127"></linearGradient><linearGradient id="Degradado_sin_nombre_127-12" x1="895.45" y1="645.66" x2="134.72" y2="344.81" xlink:href="#Degradado_sin_nombre_127"></linearGradient><linearGradient id="Degradado_sin_nombre_127-13" x1="900.78" y1="632.19" x2="140.04" y2="331.34" xlink:href="#Degradado_sin_nombre_127"></linearGradient><linearGradient id="Degradado_sin_nombre_127-14" x1="908.88" y1="611.69" x2="148.15" y2="310.85" xlink:href="#Degradado_sin_nombre_127"></linearGradient><linearGradient id="Degradado_sin_nombre_127-15" x1="915.42" y1="595.17" x2="154.68" y2="294.32" xlink:href="#Degradado_sin_nombre_127"></linearGradient><linearGradient id="Degradado_sin_nombre_127-16" x1="920.96" y1="581.14" x2="160.23" y2="280.3" xlink:href="#Degradado_sin_nombre_127"></linearGradient><linearGradient id="Degradado_sin_nombre_127-17" x1="958.23" y1="486.91" x2="197.5" y2="186.06" xlink:href="#Degradado_sin_nombre_127"></linearGradient><linearGradient id="Degradado_sin_nombre_127-18" x1="993.77" y1="390.15" x2="233.04" y2="89.3" xlink:href="#Degradado_sin_nombre_127"></linearGradient><linearGradient id="Degradado_sin_nombre_127-19" x1="997.25" y1="381.35" x2="236.52" y2="80.51" xlink:href="#Degradado_sin_nombre_127"></linearGradient><linearGradient id="Degradado_sin_nombre_127-20" x1="1009.22" y1="351.08" x2="248.49" y2="50.24" xlink:href="#Degradado_sin_nombre_127"></linearGradient><linearGradient id="Degradado_sin_nombre_127-21" x1="1018.09" y1="328.67" x2="257.35" y2="27.83" xlink:href="#Degradado_sin_nombre_127"></linearGradient><linearGradient id="Degradado_sin_nombre_127-22" x1="1030.68" y1="296.82" x2="269.95" y2="-4.02" xlink:href="#Degradado_sin_nombre_127"></linearGradient><linearGradient id="Degradado_sin_nombre_127-23" x1="1047.01" y1="255.53" x2="286.28" y2="-45.31" xlink:href="#Degradado_sin_nombre_127"></linearGradient><linearGradient id="Degradado_sin_nombre_127-24" x1="1054.3" y1="237.11" x2="293.56" y2="-63.74" xlink:href="#Degradado_sin_nombre_127"></linearGradient><linearGradient id="Degradado_sin_nombre_127-25" x1="1069.51" y1="198.64" x2="308.77" y2="-102.2" xlink:href="#Degradado_sin_nombre_127"></linearGradient><linearGradient id="Degradado_sin_nombre_127-26" x1="1074.95" y1="184.88" x2="314.22" y2="-115.96" xlink:href="#Degradado_sin_nombre_127"></linearGradient><linearGradient id="Degradado_sin_nombre_127-27" x1="1077.23" y1="179.12" x2="316.49" y2="-121.72" xlink:href="#Degradado_sin_nombre_127"></linearGradient><linearGradient id="Degradado_sin_nombre_127-28" x1="938.26" y1="530.53" x2="177.53" y2="229.69" xlink:href="#Degradado_sin_nombre_127"></linearGradient><linearGradient id="Degradado_sin_nombre_127-29" x1="948.51" y1="504.61" x2="187.77" y2="203.77" xlink:href="#Degradado_sin_nombre_127"></linearGradient><linearGradient id="Degradado_sin_nombre_127-30" x1="958.41" y1="479.57" x2="197.68" y2="178.73" xlink:href="#Degradado_sin_nombre_127"></linearGradient><linearGradient id="Degradado_sin_nombre_127-31" x1="977.84" y1="430.43" x2="217.11" y2="129.58" xlink:href="#Degradado_sin_nombre_127"></linearGradient><linearGradient id="Degradado_sin_nombre_127-32" x1="987.86" y1="405.11" x2="227.12" y2="104.27" xlink:href="#Degradado_sin_nombre_127"></linearGradient><linearGradient id="Degradado_sin_nombre_127-33" x1="993.51" y1="390.81" x2="232.78" y2="89.96" xlink:href="#Degradado_sin_nombre_127"></linearGradient><linearGradient id="Degradado_sin_nombre_127-34" x1="1009.9" y1="349.37" x2="249.17" y2="48.52" xlink:href="#Degradado_sin_nombre_127"></linearGradient><linearGradient id="Degradado_sin_nombre_127-35" x1="1028.01" y1="303.57" x2="267.28" y2="2.73" xlink:href="#Degradado_sin_nombre_127"></linearGradient></defs><g id="Capa_42"><g id="tarantella-italiana"><g><g><path d="M601.25,440.21v-49.94h19.48c4.38,0,8.11,.69,11.2,2.07,3.09,1.38,5.47,3.38,7.14,5.99,1.66,2.62,2.5,5.73,2.5,9.35s-.83,6.72-2.5,9.31c-1.67,2.59-4.04,4.59-7.14,5.99-3.09,1.4-6.83,2.1-11.2,2.1h-15.56l3.21-3.35v18.48h-7.14Zm7.14-17.76l-3.21-3.57h15.34c4.57,0,8.03-.97,10.38-2.93,2.35-1.95,3.53-4.71,3.53-8.28s-1.18-6.33-3.53-8.28c-2.35-1.95-5.82-2.93-10.38-2.93h-15.34l3.21-3.57v29.54Z"></path><path d="M652.06,440.21v-49.94h19.48c4.38,0,8.11,.69,11.2,2.07,3.09,1.38,5.47,3.38,7.14,5.99,1.66,2.62,2.5,5.73,2.5,9.35s-.83,6.72-2.5,9.31c-1.67,2.59-4.04,4.58-7.14,5.96-3.09,1.38-6.83,2.07-11.2,2.07h-15.56l3.21-3.28v18.48h-7.14Zm7.14-17.76l-3.21-3.5h15.34c4.57,0,8.03-.99,10.38-2.96,2.35-1.97,3.53-4.74,3.53-8.31s-1.18-6.33-3.53-8.28c-2.35-1.95-5.82-2.93-10.38-2.93h-15.34l3.21-3.57v29.54Zm26.26,17.76l-12.7-18.12h7.64l12.84,18.12h-7.78Z"></path><path d="M711.08,434h29.12v6.21h-36.25v-49.94h35.25v6.21h-28.12v37.53Zm-.64-22.19h25.69v6.06h-25.69v-6.06Z"></path><path d="M751.75,440.21v-49.94h5.85l22.41,37.74h-3.14l22.12-37.74h5.85l.07,49.94h-6.85l-.07-39.17h1.64l-19.7,33.1h-3.28l-19.84-33.1h1.78v39.17h-6.85Z"></path><path d="M819.9,440.21v-49.94h7.14v49.94h-7.14Z"></path><path d="M862.71,440.78c-6.56,0-11.73-1.88-15.48-5.64-3.76-3.76-5.64-9.25-5.64-16.48v-28.4h7.14v28.11c0,5.57,1.22,9.63,3.67,12.2,2.45,2.57,5.91,3.85,10.38,3.85s8-1.28,10.45-3.85c2.45-2.57,3.67-6.64,3.67-12.2v-28.11h6.92v28.4c0,7.23-1.87,12.72-5.6,16.48-3.74,3.76-8.91,5.64-15.52,5.64Z"></path><path d="M898.46,440.21v-49.94h5.85l22.41,37.74h-3.14l22.12-37.74h5.85l.07,49.94h-6.85l-.07-39.17h1.64l-19.7,33.1h-3.28l-19.84-33.1h1.78v39.17h-6.85Z"></path></g><g><path d="M973.01,416.74c-3.52,0-6.82-1.38-9.31-3.87-2.48-2.49-3.85-5.8-3.84-9.32,.01-7.22,5.92-13.09,13.16-13.09,3.53,0,6.83,1.38,9.31,3.87,2.48,2.49,3.84,5.8,3.83,9.31-.02,7.22-5.91,13.09-13.14,13.09h-.01Zm0-24.37c-6.17,0-11.21,5.03-11.24,11.22-.01,2.99,1.15,5.81,3.27,7.94,2.13,2.13,4.95,3.31,7.96,3.31,6.18,0,11.22-5.04,11.24-11.24,0-6.19-5.04-11.22-11.22-11.24h-.02Z"></path><path d="M968.15,410.05v-12.9c.1,0,.2-.02,.29-.02,1.49,0,2.98,0,4.46,0,1.1,0,2.17,.18,3.14,.75,1.5,.88,2.11,2.26,2.1,3.96,0,1.12-.31,2.15-1.07,3.01-.27,.3-.59,.55-.92,.86,1.04,1.43,2.09,2.87,3.17,4.35-.14,0-.22,.02-.31,.02-.93,0-1.86,0-2.79,0-.21,0-.34-.07-.46-.24-.76-1.06-1.53-2.1-2.29-3.16-.11-.16-.24-.23-.44-.22-.63,.01-1.27,.01-1.9,0-.2,0-.26,.06-.26,.26,0,1,0,2.01,0,3.01v.32h-2.73Zm2.73-6.34c.8,0,1.55,0,2.3,0,.2,0,.41-.02,.61-.06,1.42-.27,1.77-1.19,1.57-2.39-.14-.79-.74-1.19-1.48-1.27-.9-.1-1.82-.07-2.73-.11-.24-.01-.28,.09-.28,.29,0,.8,0,1.6,0,2.4v1.15Z"></path></g><polyline points="561.46 453 561.46 377.65 566.48 377.65 566.48 453"></polyline><path d="M264.24,433.96v6.25h-36.49v-50.28h35.49v6.25h-28.3v15.44h25.21v6.11h-25.21v16.23h29.31Z"></path><path d="M278.89,435.04c-3.73-3.83-5.6-9.34-5.6-16.52v-28.59h7.18v28.3c0,10.77,4.72,16.16,14.15,16.16,4.6,0,8.12-1.33,10.56-3.99,2.44-2.66,3.66-6.72,3.66-12.18v-28.3h6.97v28.59c0,7.23-1.87,12.75-5.6,16.56-3.74,3.81-8.96,5.71-15.66,5.71s-11.92-1.92-15.66-5.75Z"></path><path d="M362,440.21l-10.85-15.44c-1.34,.1-2.39,.14-3.16,.14h-12.43v15.3h-7.18v-50.28h19.61c6.51,0,11.64,1.56,15.37,4.67,3.73,3.11,5.6,7.4,5.6,12.86,0,3.88-.96,7.18-2.87,9.91-1.92,2.73-4.65,4.72-8.19,5.96l11.92,16.88h-7.83Zm-3.81-24.35c2.39-1.96,3.59-4.76,3.59-8.4s-1.2-6.43-3.59-8.37c-2.39-1.94-5.87-2.91-10.42-2.91h-12.21v22.63h12.21c4.55,0,8.02-.98,10.42-2.95Z"></path><path d="M387.43,437.45c-4.07-2.23-7.27-5.3-9.59-9.23-2.32-3.93-3.48-8.31-3.48-13.15s1.16-9.22,3.48-13.15c2.32-3.93,5.52-7,9.59-9.23,4.07-2.23,8.64-3.34,13.72-3.34s9.58,1.11,13.65,3.34c4.07,2.23,7.25,5.29,9.55,9.19,2.3,3.9,3.45,8.3,3.45,13.18s-1.15,9.28-3.45,13.18c-2.3,3.9-5.48,6.97-9.55,9.19-4.07,2.23-8.62,3.34-13.65,3.34s-9.65-1.11-13.72-3.34Zm23.67-5.57c2.94-1.68,5.27-3.99,6.97-6.93,1.7-2.95,2.55-6.24,2.55-9.88s-.85-6.93-2.55-9.88c-1.7-2.95-4.02-5.26-6.97-6.93-2.95-1.68-6.26-2.51-9.95-2.51s-7.03,.84-10.02,2.51c-2.99,1.68-5.34,3.99-7.04,6.93-1.7,2.95-2.55,6.24-2.55,9.88s.85,6.93,2.55,9.88c1.7,2.95,4.05,5.26,7.04,6.93,2.99,1.68,6.33,2.51,10.02,2.51s7-.84,9.95-2.51Z"></path><path d="M471.62,394.6c3.74,3.11,5.6,7.4,5.6,12.86s-1.87,9.75-5.6,12.86c-3.74,3.11-8.86,4.67-15.37,4.67h-12.43v15.23h-7.18v-50.28h19.61c6.51,0,11.64,1.56,15.37,4.67Zm-5.17,21.23c2.39-1.94,3.59-4.73,3.59-8.37s-1.2-6.43-3.59-8.37c-2.4-1.94-5.87-2.91-10.42-2.91h-12.21v22.56h12.21c4.55,0,8.02-.97,10.42-2.91Z"></path><path d="M515.15,427.64h-26.72l-5.53,12.57h-7.4l22.77-50.28h7.11l22.84,50.28h-7.54l-5.53-12.57Zm-2.51-5.75l-10.85-24.64-10.85,24.64h21.69Z"></path><rect x="227.24" y="347.05" width="758.92" height="10.06"></rect><g><g><path d="M268.35,70.56h-40.75v-10.6h93.76v10.6h-40.75v105.35h-12.26V70.56Z"></path><path d="M385.96,96.65c6.07,5.69,9.11,14.11,9.11,25.26v54h-11.26v-13.58c-2.65,4.53-6.54,8.06-11.68,10.6-5.13,2.54-11.24,3.81-18.3,3.81-9.72,0-17.45-2.32-23.19-6.96-5.74-4.64-8.61-10.77-8.61-18.39s2.68-13.36,8.04-17.89c5.35-4.53,13.89-6.79,25.59-6.79h27.66v-5.3c0-7.51-2.1-13.22-6.29-17.14-4.2-3.92-10.33-5.88-18.39-5.88-5.52,0-10.82,.91-15.9,2.73-5.08,1.82-9.44,4.34-13.09,7.54l-5.3-8.78c4.42-3.75,9.72-6.65,15.9-8.7,6.18-2.04,12.7-3.06,19.55-3.06,11.37,0,20.1,2.84,26.17,8.53Zm-13.25,66.26c4.75-3.04,8.28-7.43,10.6-13.17v-14.25h-27.33c-14.91,0-22.36,5.19-22.36,15.57,0,5.08,1.93,9.08,5.8,12.01,3.87,2.93,9.28,4.39,16.23,4.39s12.31-1.52,17.06-4.56Z"></path><path d="M446.34,92.59c5.47-2.98,12.23-4.47,20.29-4.47v11.43l-2.81-.17c-9.17,0-16.35,2.82-21.54,8.45-5.19,5.63-7.79,13.53-7.79,23.69v44.39h-11.76V88.78h11.26v17.06c2.76-5.85,6.87-10.27,12.34-13.25Z"></path><path d="M540.01,96.65c6.07,5.69,9.11,14.11,9.11,25.26v54h-11.26v-13.58c-2.65,4.53-6.54,8.06-11.68,10.6-5.14,2.54-11.24,3.81-18.3,3.81-9.72,0-17.45-2.32-23.19-6.96-5.74-4.64-8.61-10.77-8.61-18.39s2.68-13.36,8.03-17.89c5.35-4.53,13.89-6.79,25.59-6.79h27.66v-5.3c0-7.51-2.1-13.22-6.3-17.14-4.2-3.92-10.33-5.88-18.39-5.88-5.52,0-10.82,.91-15.9,2.73-5.08,1.82-9.44,4.34-13.09,7.54l-5.3-8.78c4.42-3.75,9.72-6.65,15.9-8.7,6.18-2.04,12.7-3.06,19.55-3.06,11.37,0,20.1,2.84,26.17,8.53Zm-13.25,66.26c4.75-3.04,8.28-7.43,10.6-13.17v-14.25h-27.33c-14.91,0-22.36,5.19-22.36,15.57,0,5.08,1.93,9.08,5.8,12.01,3.87,2.93,9.28,4.39,16.24,4.39s12.31-1.52,17.06-4.56Z"></path><path d="M647.26,97.64c6.46,6.35,9.69,15.6,9.69,27.75v50.52h-11.76v-49.36c0-9.05-2.26-15.96-6.79-20.71-4.53-4.75-10.99-7.12-19.38-7.12-9.39,0-16.81,2.79-22.28,8.37-5.46,5.58-8.2,13.28-8.2,23.11v45.72h-11.76V88.78h11.26v16.07c3.2-5.3,7.64-9.41,13.34-12.34,5.69-2.92,12.28-4.39,19.79-4.39,10.93,0,19.63,3.18,26.09,9.52Z"></path><path d="M730.5,170.61c-2.21,1.99-4.94,3.51-8.2,4.56-3.26,1.05-6.66,1.57-10.19,1.57-8.17,0-14.47-2.21-18.89-6.63-4.42-4.42-6.62-10.66-6.62-18.72v-52.68h-15.57v-9.94h15.57v-19.05h11.76v19.05h26.5v9.94h-26.5v52.01c0,5.19,1.3,9.14,3.89,11.84,2.59,2.71,6.32,4.06,11.18,4.06,2.43,0,4.78-.39,7.04-1.16,2.26-.77,4.22-1.88,5.88-3.31l4.14,8.45Z"></path><path d="M820.28,135.99h-72.89c.66,9.06,4.14,16.37,10.44,21.95,6.3,5.58,14.25,8.37,23.85,8.37,5.41,0,10.38-.97,14.91-2.9,4.53-1.93,8.45-4.78,11.76-8.53l6.62,7.62c-3.87,4.64-8.7,8.17-14.49,10.6-5.8,2.43-12.17,3.64-19.13,3.64-8.95,0-16.87-1.9-23.77-5.71-6.9-3.81-12.29-9.08-16.15-15.82-3.87-6.73-5.8-14.35-5.8-22.86s1.85-16.12,5.55-22.86c3.7-6.73,8.78-11.98,15.24-15.74,6.46-3.75,13.72-5.63,21.78-5.63s15.29,1.88,21.7,5.63c6.4,3.76,11.43,8.97,15.07,15.65,3.65,6.68,5.47,14.33,5.47,22.94l-.16,3.64Zm-63.2-29.73c-5.69,5.36-8.92,12.34-9.69,20.95h61.79c-.77-8.61-4.01-15.6-9.69-20.95-5.69-5.36-12.78-8.03-21.29-8.03s-15.43,2.68-21.12,8.03Z"></path><path d="M840.15,53h11.76v122.91h-11.76V53Z"></path><path d="M880.41,53h11.76v122.91h-11.76V53Z"></path><path d="M977.31,96.65c6.07,5.69,9.11,14.11,9.11,25.26v54h-11.26v-13.58c-2.65,4.53-6.54,8.06-11.68,10.6-5.13,2.54-11.24,3.81-18.3,3.81-9.72,0-17.45-2.32-23.19-6.96-5.74-4.64-8.61-10.77-8.61-18.39s2.68-13.36,8.04-17.89c5.35-4.53,13.89-6.79,25.59-6.79h27.66v-5.3c0-7.51-2.1-13.22-6.29-17.14-4.2-3.92-10.33-5.88-18.39-5.88-5.52,0-10.82,.91-15.9,2.73-5.08,1.82-9.44,4.34-13.09,7.54l-5.3-8.78c4.42-3.75,9.72-6.65,15.9-8.7,6.18-2.04,12.7-3.06,19.55-3.06,11.37,0,20.1,2.84,26.17,8.53Zm-13.25,66.26c4.75-3.04,8.28-7.43,10.6-13.17v-14.25h-27.33c-14.91,0-22.36,5.19-22.36,15.57,0,5.08,1.93,9.08,5.8,12.01,3.87,2.93,9.28,4.39,16.23,4.39s12.31-1.52,17.06-4.56Z"></path></g><g><path d="M229.92,201.92h26.84v115.95h-26.84v-115.95Z"></path><path d="M359.12,313.57c-2.54,1.88-5.66,3.29-9.36,4.22-3.7,.94-7.59,1.41-11.68,1.41-10.6,0-18.8-2.7-24.6-8.12-5.8-5.41-8.7-13.36-8.7-23.85v-36.61h-13.75v-19.88h13.75v-21.7h25.84v21.7h22.2v19.88h-22.2v36.28c0,3.76,.97,6.65,2.9,8.7,1.93,2.05,4.66,3.06,8.2,3.06,4.08,0,7.56-1.1,10.44-3.31l6.96,18.22Z"></path><path d="M460.66,237.29c7.4,6.57,11.1,16.48,11.1,29.73v50.85h-24.19v-11.1c-4.86,8.28-13.91,12.42-27.17,12.42-6.85,0-12.78-1.16-17.81-3.48-5.03-2.32-8.86-5.52-11.51-9.61-2.65-4.08-3.97-8.72-3.97-13.91,0-8.28,3.12-14.8,9.36-19.55,6.24-4.75,15.87-7.12,28.91-7.12h20.54c0-5.63-1.71-9.96-5.14-13-3.42-3.04-8.56-4.56-15.4-4.56-4.75,0-9.42,.75-14,2.24-4.58,1.49-8.48,3.51-11.68,6.05l-9.27-18.06c4.86-3.42,10.68-6.07,17.47-7.95,6.79-1.88,13.77-2.82,20.95-2.82,13.8,0,24.4,3.29,31.8,9.86Zm-22.03,61.45c3.42-2.04,5.85-5.05,7.29-9.03v-9.11h-17.72c-10.6,0-15.9,3.48-15.9,10.44,0,3.31,1.3,5.94,3.89,7.87,2.59,1.93,6.15,2.9,10.68,2.9s8.34-1.02,11.76-3.06Z"></path><path d="M514.33,194.96h25.84v122.91h-25.84v-122.91Z"></path><path d="M584.73,212.19c-2.98-2.76-4.47-6.18-4.47-10.27s1.49-7.51,4.47-10.27c2.98-2.76,6.84-4.14,11.59-4.14s8.61,1.32,11.6,3.98c2.98,2.65,4.47,5.96,4.47,9.94,0,4.31-1.49,7.87-4.47,10.68-2.98,2.82-6.85,4.22-11.6,4.22s-8.61-1.38-11.59-4.14Zm-1.32,16.57h25.84v89.12h-25.84v-89.12Z"></path><path d="M720.23,237.29c7.4,6.57,11.1,16.48,11.1,29.73v50.85h-24.18v-11.1c-4.86,8.28-13.91,12.42-27.17,12.42-6.85,0-12.78-1.16-17.81-3.48-5.03-2.32-8.86-5.52-11.51-9.61-2.65-4.08-3.97-8.72-3.97-13.91,0-8.28,3.12-14.8,9.36-19.55,6.24-4.75,15.87-7.12,28.9-7.12h20.54c0-5.63-1.71-9.96-5.13-13-3.42-3.04-8.56-4.56-15.41-4.56-4.75,0-9.42,.75-14,2.24-4.58,1.49-8.48,3.51-11.68,6.05l-9.28-18.06c4.86-3.42,10.69-6.07,17.48-7.95,6.79-1.88,13.77-2.82,20.95-2.82,13.8,0,24.4,3.29,31.8,9.86Zm-22.03,61.45c3.42-2.04,5.85-5.05,7.29-9.03v-9.11h-17.72c-10.6,0-15.9,3.48-15.9,10.44,0,3.31,1.3,5.94,3.89,7.87,2.6,1.93,6.16,2.9,10.69,2.9s8.34-1.02,11.76-3.06Z"></path><path d="M854.81,237.37c6.79,6.63,10.19,16.46,10.19,29.49v51.02h-25.84v-47.04c0-7.07-1.55-12.34-4.64-15.82-3.09-3.48-7.57-5.22-13.42-5.22-6.52,0-11.71,2.02-15.57,6.05-3.87,4.03-5.8,10.02-5.8,17.97v44.06h-25.84v-89.12h24.68v10.44c3.42-3.75,7.67-6.65,12.75-8.7,5.08-2.04,10.66-3.06,16.73-3.06,11.04,0,19.96,3.31,26.75,9.94Z"></path><path d="M975.32,237.29c7.4,6.57,11.1,16.48,11.1,29.73v50.85h-24.19v-11.1c-4.86,8.28-13.91,12.42-27.17,12.42-6.85,0-12.78-1.16-17.81-3.48-5.03-2.32-8.86-5.52-11.51-9.61-2.65-4.08-3.97-8.72-3.97-13.91,0-8.28,3.12-14.8,9.36-19.55,6.24-4.75,15.87-7.12,28.91-7.12h20.54c0-5.63-1.71-9.96-5.14-13-3.42-3.04-8.56-4.56-15.4-4.56-4.75,0-9.42,.75-14,2.24-4.58,1.49-8.48,3.51-11.68,6.05l-9.27-18.06c4.86-3.42,10.68-6.07,17.47-7.95,6.79-1.88,13.77-2.82,20.95-2.82,13.8,0,24.4,3.29,31.8,9.86Zm-22.03,61.45c3.42-2.04,5.85-5.05,7.29-9.03v-9.11h-17.72c-10.6,0-15.9,3.48-15.9,10.44,0,3.31,1.3,5.94,3.89,7.87,2.59,1.93,6.15,2.9,10.68,2.9s8.34-1.02,11.76-3.06Z"></path></g></g></g></g></g><g id="Capa_43"><g><g><path class="cls-1" d="M604.25,437.21v-49.94h19.48c4.38,0,8.11,.69,11.2,2.07,3.09,1.38,5.47,3.38,7.14,5.99,1.66,2.62,2.5,5.73,2.5,9.35s-.83,6.72-2.5,9.31c-1.67,2.59-4.04,4.59-7.14,5.99-3.09,1.4-6.83,2.1-11.2,2.1h-15.56l3.21-3.35v18.48h-7.14Zm7.14-17.76l-3.21-3.57h15.34c4.57,0,8.03-.97,10.38-2.93,2.35-1.95,3.53-4.71,3.53-8.28s-1.18-6.33-3.53-8.28c-2.35-1.95-5.82-2.93-10.38-2.93h-15.34l3.21-3.57v29.54Z"></path><path class="cls-7" d="M655.06,437.21v-49.94h19.48c4.38,0,8.11,.69,11.2,2.07,3.09,1.38,5.47,3.38,7.14,5.99,1.66,2.62,2.5,5.73,2.5,9.35s-.83,6.72-2.5,9.31c-1.67,2.59-4.04,4.58-7.14,5.96-3.09,1.38-6.83,2.07-11.2,2.07h-15.56l3.21-3.28v18.48h-7.14Zm7.14-17.76l-3.21-3.5h15.34c4.57,0,8.03-.99,10.38-2.96,2.35-1.97,3.53-4.74,3.53-8.31s-1.18-6.33-3.53-8.28c-2.35-1.95-5.82-2.93-10.38-2.93h-15.34l3.21-3.57v29.54Zm26.26,17.76l-12.7-18.12h7.64l12.84,18.12h-7.78Z"></path><path class="cls-8" d="M714.08,431h29.12v6.21h-36.25v-49.94h35.25v6.21h-28.12v37.53Zm-.64-22.19h25.69v6.06h-25.69v-6.06Z"></path><path class="cls-3" d="M754.75,437.21v-49.94h5.85l22.41,37.74h-3.14l22.12-37.74h5.85l.07,49.94h-6.85l-.07-39.17h1.64l-19.7,33.1h-3.28l-19.84-33.1h1.78v39.17h-6.85Z"></path><path class="cls-4" d="M822.9,437.21v-49.94h7.14v49.94h-7.14Z"></path><path class="cls-5" d="M865.71,437.78c-6.56,0-11.73-1.88-15.48-5.64-3.76-3.76-5.64-9.25-5.64-16.48v-28.4h7.14v28.11c0,5.57,1.22,9.63,3.67,12.2,2.45,2.57,5.91,3.85,10.38,3.85s8-1.28,10.45-3.85c2.45-2.57,3.67-6.64,3.67-12.2v-28.11h6.92v28.4c0,7.23-1.87,12.72-5.6,16.48-3.74,3.76-8.91,5.64-15.52,5.64Z"></path><path class="cls-2" d="M901.46,437.21v-49.94h5.85l22.41,37.74h-3.14l22.12-37.74h5.85l.07,49.94h-6.85l-.07-39.17h1.64l-19.7,33.1h-3.28l-19.84-33.1h1.78v39.17h-6.85Z"></path></g><g><path class="cls-6" d="M976.01,413.74c-3.52,0-6.82-1.38-9.31-3.87-2.48-2.49-3.85-5.8-3.84-9.32,.01-7.22,5.92-13.09,13.16-13.09,3.53,0,6.83,1.38,9.31,3.87,2.48,2.49,3.84,5.8,3.83,9.31-.02,7.22-5.91,13.09-13.14,13.09h-.01Zm0-24.37c-6.17,0-11.21,5.03-11.24,11.22-.01,2.99,1.15,5.81,3.27,7.94,2.13,2.13,4.95,3.31,7.96,3.31,6.18,0,11.22-5.04,11.24-11.24,0-6.19-5.04-11.22-11.22-11.24h-.02Z"></path><path class="cls-9" d="M971.15,407.05v-12.9c.1,0,.2-.02,.29-.02,1.49,0,2.98,0,4.46,0,1.1,0,2.17,.18,3.14,.75,1.5,.88,2.11,2.26,2.1,3.96,0,1.12-.31,2.15-1.07,3.01-.27,.3-.59,.55-.92,.86,1.04,1.43,2.09,2.87,3.17,4.35-.14,0-.22,.02-.31,.02-.93,0-1.86,0-2.79,0-.21,0-.34-.07-.46-.24-.76-1.06-1.53-2.1-2.29-3.16-.11-.16-.24-.23-.44-.22-.63,.01-1.27,.01-1.9,0-.2,0-.26,.06-.26,.26,0,1,0,2.01,0,3.01v.32h-2.73Zm2.73-6.34c.8,0,1.55,0,2.3,0,.2,0,.41-.02,.61-.06,1.42-.27,1.77-1.19,1.57-2.39-.14-.79-.74-1.19-1.48-1.27-.9-.1-1.82-.07-2.73-.11-.24-.01-.28,.09-.28,.29,0,.8,0,1.6,0,2.4v1.15Z"></path></g><polyline class="cls-10" points="564.46 450 564.46 374.65 569.48 374.65 569.48 450"></polyline><path class="cls-15" d="M267.24,430.96v6.25h-36.49v-50.28h35.49v6.25h-28.3v15.44h25.21v6.11h-25.21v16.23h29.31Z"></path><path class="cls-18" d="M281.89,432.04c-3.73-3.83-5.6-9.34-5.6-16.52v-28.59h7.18v28.3c0,10.77,4.72,16.16,14.15,16.16,4.6,0,8.12-1.33,10.56-3.99,2.44-2.66,3.66-6.72,3.66-12.18v-28.3h6.97v28.59c0,7.23-1.87,12.75-5.6,16.56-3.74,3.81-8.96,5.71-15.66,5.71s-11.92-1.92-15.66-5.75Z"></path><path class="cls-14" d="M365,437.21l-10.85-15.44c-1.34,.1-2.39,.14-3.16,.14h-12.43v15.3h-7.18v-50.28h19.61c6.51,0,11.64,1.56,15.37,4.67,3.73,3.11,5.6,7.4,5.6,12.86,0,3.88-.96,7.18-2.87,9.91-1.92,2.73-4.65,4.72-8.19,5.96l11.92,16.88h-7.83Zm-3.81-24.35c2.39-1.96,3.59-4.76,3.59-8.4s-1.2-6.43-3.59-8.37c-2.39-1.94-5.87-2.91-10.42-2.91h-12.21v22.63h12.21c4.55,0,8.02-.98,10.42-2.95Z"></path><path class="cls-13" d="M390.43,434.45c-4.07-2.23-7.27-5.3-9.59-9.23-2.32-3.93-3.48-8.31-3.48-13.15s1.16-9.22,3.48-13.15c2.32-3.93,5.52-7,9.59-9.23,4.07-2.23,8.64-3.34,13.72-3.34s9.58,1.11,13.65,3.34c4.07,2.23,7.25,5.29,9.55,9.19,2.3,3.9,3.45,8.3,3.45,13.18s-1.15,9.28-3.45,13.18c-2.3,3.9-5.48,6.97-9.55,9.19-4.07,2.23-8.62,3.34-13.65,3.34s-9.65-1.11-13.72-3.34Zm23.67-5.57c2.94-1.68,5.27-3.99,6.97-6.93,1.7-2.95,2.55-6.24,2.55-9.88s-.85-6.93-2.55-9.88c-1.7-2.95-4.02-5.26-6.97-6.93-2.95-1.68-6.26-2.51-9.95-2.51s-7.03,.84-10.02,2.51c-2.99,1.68-5.34,3.99-7.04,6.93-1.7,2.95-2.55,6.24-2.55,9.88s.85,6.93,2.55,9.88c1.7,2.95,4.05,5.26,7.04,6.93,2.99,1.68,6.33,2.51,10.02,2.51s7-.84,9.95-2.51Z"></path><path class="cls-16" d="M474.62,391.6c3.74,3.11,5.6,7.4,5.6,12.86s-1.87,9.75-5.6,12.86c-3.74,3.11-8.86,4.67-15.37,4.67h-12.43v15.23h-7.18v-50.28h19.61c6.51,0,11.64,1.56,15.37,4.67Zm-5.17,21.23c2.39-1.94,3.59-4.73,3.59-8.37s-1.2-6.43-3.59-8.37c-2.4-1.94-5.87-2.91-10.42-2.91h-12.21v22.56h12.21c4.55,0,8.02-.97,10.42-2.91Z"></path><path class="cls-17" d="M518.15,424.64h-26.72l-5.53,12.57h-7.4l22.77-50.28h7.11l22.84,50.28h-7.54l-5.53-12.57Zm-2.51-5.75l-10.85-24.64-10.85,24.64h21.69Z"></path><rect class="cls-11" x="230.24" y="344.05" width="758.92" height="10.06"></rect><g><g><path class="cls-12" d="M271.35,67.56h-40.75v-10.6h93.76v10.6h-40.75v105.35h-12.26V67.56Z"></path><path class="cls-19" d="M388.96,93.65c6.07,5.69,9.11,14.11,9.11,25.26v54h-11.26v-13.58c-2.65,4.53-6.54,8.06-11.68,10.6-5.13,2.54-11.24,3.81-18.3,3.81-9.72,0-17.45-2.32-23.19-6.96-5.74-4.64-8.61-10.77-8.61-18.39s2.68-13.36,8.04-17.89c5.35-4.53,13.89-6.79,25.59-6.79h27.66v-5.3c0-7.51-2.1-13.22-6.29-17.14-4.2-3.92-10.33-5.88-18.39-5.88-5.52,0-10.82,.91-15.9,2.73-5.08,1.82-9.44,4.34-13.09,7.54l-5.3-8.78c4.42-3.75,9.72-6.65,15.9-8.7,6.18-2.04,12.7-3.06,19.55-3.06,11.37,0,20.1,2.84,26.17,8.53Zm-13.25,66.26c4.75-3.04,8.28-7.43,10.6-13.17v-14.25h-27.33c-14.91,0-22.36,5.19-22.36,15.57,0,5.08,1.93,9.08,5.8,12.01,3.87,2.93,9.28,4.39,16.23,4.39s12.31-1.52,17.06-4.56Z"></path><path class="cls-24" d="M449.34,89.59c5.47-2.98,12.23-4.47,20.29-4.47v11.43l-2.81-.17c-9.17,0-16.35,2.82-21.54,8.45-5.19,5.63-7.79,13.53-7.79,23.69v44.39h-11.76V85.78h11.26v17.06c2.76-5.85,6.87-10.27,12.34-13.25Z"></path><path class="cls-25" d="M543.01,93.65c6.07,5.69,9.11,14.11,9.11,25.26v54h-11.26v-13.58c-2.65,4.53-6.54,8.06-11.68,10.6-5.14,2.54-11.24,3.81-18.3,3.81-9.72,0-17.45-2.32-23.19-6.96-5.74-4.64-8.61-10.77-8.61-18.39s2.68-13.36,8.03-17.89c5.35-4.53,13.89-6.79,25.59-6.79h27.66v-5.3c0-7.51-2.1-13.22-6.3-17.14-4.2-3.92-10.33-5.88-18.39-5.88-5.52,0-10.82,.91-15.9,2.73-5.08,1.82-9.44,4.34-13.09,7.54l-5.3-8.78c4.42-3.75,9.72-6.65,15.9-8.7,6.18-2.04,12.7-3.06,19.55-3.06,11.37,0,20.1,2.84,26.17,8.53Zm-13.25,66.26c4.75-3.04,8.28-7.43,10.6-13.17v-14.25h-27.33c-14.91,0-22.36,5.19-22.36,15.57,0,5.08,1.93,9.08,5.8,12.01,3.87,2.93,9.28,4.39,16.24,4.39s12.31-1.52,17.06-4.56Z"></path><path class="cls-23" d="M650.26,94.64c6.46,6.35,9.69,15.6,9.69,27.75v50.52h-11.76v-49.36c0-9.05-2.26-15.96-6.79-20.71-4.53-4.75-10.99-7.12-19.38-7.12-9.39,0-16.81,2.79-22.28,8.37-5.46,5.58-8.2,13.28-8.2,23.11v45.72h-11.76V85.78h11.26v16.07c3.2-5.3,7.64-9.41,13.34-12.34,5.69-2.92,12.28-4.39,19.79-4.39,10.93,0,19.63,3.18,26.09,9.52Z"></path><path class="cls-22" d="M733.5,167.61c-2.21,1.99-4.94,3.51-8.2,4.56-3.26,1.05-6.66,1.57-10.19,1.57-8.17,0-14.47-2.21-18.89-6.63-4.42-4.42-6.62-10.66-6.62-18.72v-52.68h-15.57v-9.94h15.57v-19.05h11.76v19.05h26.5v9.94h-26.5v52.01c0,5.19,1.3,9.14,3.89,11.84,2.59,2.71,6.32,4.06,11.18,4.06,2.43,0,4.78-.39,7.04-1.16,2.26-.77,4.22-1.88,5.88-3.31l4.14,8.45Z"></path><path class="cls-29" d="M823.28,132.99h-72.89c.66,9.06,4.14,16.37,10.44,21.95,6.3,5.58,14.25,8.37,23.85,8.37,5.41,0,10.38-.97,14.91-2.9,4.53-1.93,8.45-4.78,11.76-8.53l6.62,7.62c-3.87,4.64-8.7,8.17-14.49,10.6-5.8,2.43-12.17,3.64-19.13,3.64-8.95,0-16.87-1.9-23.77-5.71-6.9-3.81-12.29-9.08-16.15-15.82-3.87-6.73-5.8-14.35-5.8-22.86s1.85-16.12,5.55-22.86c3.7-6.73,8.78-11.98,15.24-15.74,6.46-3.75,13.72-5.63,21.78-5.63s15.29,1.88,21.7,5.63c6.4,3.76,11.43,8.97,15.07,15.65,3.65,6.68,5.47,14.33,5.47,22.94l-.16,3.64Zm-63.2-29.73c-5.69,5.36-8.92,12.34-9.69,20.95h61.79c-.77-8.61-4.01-15.6-9.69-20.95-5.69-5.36-12.78-8.03-21.29-8.03s-15.43,2.68-21.12,8.03Z"></path><path class="cls-26" d="M843.15,50h11.76v122.91h-11.76V50Z"></path><path class="cls-20" d="M883.41,50h11.76v122.91h-11.76V50Z"></path><path class="cls-21" d="M980.31,93.65c6.07,5.69,9.11,14.11,9.11,25.26v54h-11.26v-13.58c-2.65,4.53-6.54,8.06-11.68,10.6-5.13,2.54-11.24,3.81-18.3,3.81-9.72,0-17.45-2.32-23.19-6.96-5.74-4.64-8.61-10.77-8.61-18.39s2.68-13.36,8.04-17.89c5.35-4.53,13.89-6.79,25.59-6.79h27.66v-5.3c0-7.51-2.1-13.22-6.29-17.14-4.2-3.92-10.33-5.88-18.39-5.88-5.52,0-10.82,.91-15.9,2.73-5.08,1.82-9.44,4.34-13.09,7.54l-5.3-8.78c4.42-3.75,9.72-6.65,15.9-8.7,6.18-2.04,12.7-3.06,19.55-3.06,11.37,0,20.1,2.84,26.17,8.53Zm-13.25,66.26c4.75-3.04,8.28-7.43,10.6-13.17v-14.25h-27.33c-14.91,0-22.36,5.19-22.36,15.57,0,5.08,1.93,9.08,5.8,12.01,3.87,2.93,9.28,4.39,16.23,4.39s12.31-1.52,17.06-4.56Z"></path></g><g><path class="cls-28" d="M232.92,198.92h26.84v115.95h-26.84v-115.95Z"></path><path class="cls-27" d="M362.12,310.57c-2.54,1.88-5.66,3.29-9.36,4.22-3.7,.94-7.59,1.41-11.68,1.41-10.6,0-18.8-2.7-24.6-8.12-5.8-5.41-8.7-13.36-8.7-23.85v-36.61h-13.75v-19.88h13.75v-21.7h25.84v21.7h22.2v19.88h-22.2v36.28c0,3.76,.97,6.65,2.9,8.7,1.93,2.05,4.66,3.06,8.2,3.06,4.08,0,7.56-1.1,10.44-3.31l6.96,18.22Z"></path><path class="cls-35" d="M463.66,234.29c7.4,6.57,11.1,16.48,11.1,29.73v50.85h-24.19v-11.1c-4.86,8.28-13.91,12.42-27.17,12.42-6.85,0-12.78-1.16-17.81-3.48-5.03-2.32-8.86-5.52-11.51-9.61-2.65-4.08-3.97-8.72-3.97-13.91,0-8.28,3.12-14.8,9.36-19.55,6.24-4.75,15.87-7.12,28.91-7.12h20.54c0-5.63-1.71-9.96-5.14-13-3.42-3.04-8.56-4.56-15.4-4.56-4.75,0-9.42,.75-14,2.24-4.58,1.49-8.48,3.51-11.68,6.05l-9.27-18.06c4.86-3.42,10.68-6.07,17.47-7.95,6.79-1.88,13.77-2.82,20.95-2.82,13.8,0,24.4,3.29,31.8,9.86Zm-22.03,61.45c3.42-2.04,5.85-5.05,7.29-9.03v-9.11h-17.72c-10.6,0-15.9,3.48-15.9,10.44,0,3.31,1.3,5.94,3.89,7.87,2.59,1.93,6.15,2.9,10.68,2.9s8.34-1.02,11.76-3.06Z"></path><path class="cls-32" d="M517.33,191.96h25.84v122.91h-25.84v-122.91Z"></path><path class="cls-30" d="M587.73,209.19c-2.98-2.76-4.47-6.18-4.47-10.27s1.49-7.51,4.47-10.27c2.98-2.76,6.84-4.14,11.59-4.14s8.61,1.32,11.6,3.98c2.98,2.65,4.47,5.96,4.47,9.94,0,4.31-1.49,7.87-4.47,10.68-2.98,2.82-6.85,4.22-11.6,4.22s-8.61-1.38-11.59-4.14Zm-1.32,16.57h25.84v89.12h-25.84v-89.12Z"></path><path class="cls-31" d="M723.23,234.29c7.4,6.57,11.1,16.48,11.1,29.73v50.85h-24.18v-11.1c-4.86,8.28-13.91,12.42-27.17,12.42-6.85,0-12.78-1.16-17.81-3.48-5.03-2.32-8.86-5.52-11.51-9.61-2.65-4.08-3.97-8.72-3.97-13.91,0-8.28,3.12-14.8,9.36-19.55,6.24-4.75,15.87-7.12,28.9-7.12h20.54c0-5.63-1.71-9.96-5.13-13-3.42-3.04-8.56-4.56-15.41-4.56-4.75,0-9.42,.75-14,2.24-4.58,1.49-8.48,3.51-11.68,6.05l-9.28-18.06c4.86-3.42,10.69-6.07,17.48-7.95,6.79-1.88,13.77-2.82,20.95-2.82,13.8,0,24.4,3.29,31.8,9.86Zm-22.03,61.45c3.42-2.04,5.85-5.05,7.29-9.03v-9.11h-17.72c-10.6,0-15.9,3.48-15.9,10.44,0,3.31,1.3,5.94,3.89,7.87,2.6,1.93,6.16,2.9,10.69,2.9s8.34-1.02,11.76-3.06Z"></path><path class="cls-33" d="M857.81,234.37c6.79,6.63,10.19,16.46,10.19,29.49v51.02h-25.84v-47.04c0-7.07-1.55-12.34-4.64-15.82-3.09-3.48-7.57-5.22-13.42-5.22-6.52,0-11.71,2.02-15.57,6.05-3.87,4.03-5.8,10.02-5.8,17.97v44.06h-25.84v-89.12h24.68v10.44c3.42-3.75,7.67-6.65,12.75-8.7,5.08-2.04,10.66-3.06,16.73-3.06,11.04,0,19.96,3.31,26.75,9.94Z"></path><path class="cls-34" d="M978.32,234.29c7.4,6.57,11.1,16.48,11.1,29.73v50.85h-24.19v-11.1c-4.86,8.28-13.91,12.42-27.17,12.42-6.85,0-12.78-1.16-17.81-3.48-5.03-2.32-8.86-5.52-11.51-9.61-2.65-4.08-3.97-8.72-3.97-13.91,0-8.28,3.12-14.8,9.36-19.55,6.24-4.75,15.87-7.12,28.91-7.12h20.54c0-5.63-1.71-9.96-5.14-13-3.42-3.04-8.56-4.56-15.4-4.56-4.75,0-9.42,.75-14,2.24-4.58,1.49-8.48,3.51-11.68,6.05l-9.27-18.06c4.86-3.42,10.68-6.07,17.47-7.95,6.79-1.88,13.77-2.82,20.95-2.82,13.8,0,24.4,3.29,31.8,9.86Zm-22.03,61.45c3.42-2.04,5.85-5.05,7.29-9.03v-9.11h-17.72c-10.6,0-15.9,3.48-15.9,10.44,0,3.31,1.3,5.94,3.89,7.87,2.59,1.93,6.15,2.9,10.68,2.9s8.34-1.02,11.76-3.06Z"></path></g></g></g></g></svg>