<svg xmlns="http://www.w3.org/2000/svg" xmlns:xlink="http://www.w3.org/1999/xlink" id="Capa_2_00000005237525189303629860000009915349021043250614_" x="0px" y="0px" viewBox="0 0 1728.2 637.9" style="enable-background:new 0 0 1728.2 637.9;" xml:space="preserve"> <style type="text/css"> .st0{fill:#A8A8A8;} </style> <g id="the_city_4_"> <rect x="1108.9" y="573.1" class="st0" width="135.5" height="40.9"></rect> <g> <rect x="454.3" y="575.6" class="st0" width="98" height="23.3"></rect> <rect x="425.1" y="597.4" class="st0" width="58.4" height="12.1"></rect> </g> <g> <g> <rect x="861" y="83.5" class="st0" width="29.2" height="19.6"></rect> <rect x="864.7" y="70.7" class="st0" width="21.7" height="13.7"></rect> <path class="st0" d="M883.6,72c0,9.4-3.5,17.1-7.7,17.1c-4.3,0-7.8-7.7-7.8-17.1c0-9.4,3.5-17.1,7.8-17.1 C880.2,54.9,883.6,62.6,883.6,72z"></path> </g> <path class="st0" d="M1027.6,620.4c0,0-165.3-108-146.9-552.2l-7.9,31.5c-18.4,444.2,105.8,522,105.8,522L1027.6,620.4z"></path> <path class="st0" d="M722.7,627.9c0,0,165.3-108,146.9-552.2l7.9,31.5c18.4,444.2-105.8,521.9-105.8,521.9L722.7,627.9z"></path> <g> <rect x="850.9" y="332.2" class="st0" width="49" height="22.7"></rect> <path class="st0" d="M904.7,334.3c0,5.1-13.3,9.3-29.6,9.3c-16.4,0-29.6-4.1-29.6-9.3s13.3-9.3,29.6-9.3 C891.4,325,904.7,329.2,904.7,334.3z"></path> </g> <g> <rect x="816.7" y="457.9" class="st0" width="120.9" height="41.9"></rect> <rect x="863.5" y="457.9" class="st0" width="4.9" height="32.1"></rect> <rect x="887.8" y="457.9" class="st0" width="4.9" height="32.1"></rect> </g> <path class="st0" d="M937.5,480v-24.5h-21.6V480h-76.8v-24.5h-21.6v64.2h2.6v22.3c7.5-16.5,30.4-28.5,57.4-28.5 c28.3,0,52,13.1,58.4,30.8h1.7L937.5,480L937.5,480z"></path> <polygon class="st0" points="875.1,6.5 855.1,330 895.1,330 "></polygon> </g> <g> <rect x="1132.8" y="446.9" class="st0" width="103" height="6.6"></rect> <path class="st0" d="M1127,450.9v129.6h35.4v-69.1c0-13.1,10.2-23.7,22.7-23.7c12.5,0,22.7,10.6,22.7,23.7v69.1h33.8V450.9H1127z"></path> <path class="st0" d="M1247,473.1c0,1.8-1.2,3.3-2.8,3.3h-119.6c-1.6,0-2.8-1.5-2.8-3.3v-0.3c0-1.8,1.3-3.3,2.8-3.3h119.6 c1.6,0,2.8,1.5,2.8,3.3V473.1z"></path> </g> <g> <g> <path class="st0" d="M569.4,508.9c0,0-2-57,5.3-74.9c3.5-8.7,26.4-28.2,26.4-28.2v-43h24.7v43c0,0,24.3,19,28.2,30.1 c5.8,16.4,3.5,73,3.5,73H569.4z"></path> <polygon class="st0" points="613.2,285.1 602.9,477.3 623.4,477.3 "></polygon> <polygon class="st0" points="613.5,300.8 607.2,353.8 619.9,353.8 "></polygon> <rect x="595.4" y="371.8" class="st0" width="33.9" height="56.7"></rect> <rect x="591.6" y="379.1" class="st0" width="41.5" height="56.7"></rect> <rect x="588.4" y="391.4" class="st0" width="49.4" height="56.7"></rect> <rect x="578.5" y="419.8" class="st0" width="69.3" height="56.7"></rect> <rect x="574.6" y="430.9" class="st0" width="79.1" height="56.7"></rect> <rect x="583" y="407.5" class="st0" width="60.4" height="56.7"></rect> <rect x="602.8" y="353.8" class="st0" width="21.3" height="9"></rect> </g> <g> <path class="st0" d="M470.2,609.2c0,0-1.6-47,4.4-61.8c2.9-7.2,21.8-23.2,21.8-23.2v-35.4h20.3v35.4c0,0,20,15.6,23.2,24.8 c4.8,13.5,2.9,60.2,2.9,60.2H470.2z"></path> <polygon class="st0" points="506.3,424.7 497.8,583.2 514.7,583.2 "></polygon> <polygon class="st0" points="506.6,437.7 501.3,481.3 511.8,481.3 "></polygon> <rect x="491.6" y="496.2" class="st0" width="27.9" height="46.8"></rect> <rect x="488.5" y="502.2" class="st0" width="34.2" height="46.8"></rect> <rect x="485.8" y="512.3" class="st0" width="40.7" height="46.8"></rect> <rect x="477.7" y="535.7" class="st0" width="57.1" height="46.8"></rect> <rect x="474.4" y="544.9" class="st0" width="65.2" height="46.8"></rect> <rect x="481.3" y="525.6" class="st0" width="49.8" height="46.7"></rect> <rect x="497.7" y="481.3" class="st0" width="17.5" height="7.4"></rect> </g> <g> <path class="st0" d="M683.5,609.2c0,0-1.6-47,4.3-61.8c2.9-7.2,21.8-23.2,21.8-23.2v-35.4h20.3v35.4c0,0,20,15.6,23.2,24.8 c4.8,13.5,2.9,60.2,2.9,60.2H683.5z"></path> <polygon class="st0" points="719.6,424.7 711.1,583.2 728,583.2 "></polygon> <polygon class="st0" points="719.9,437.7 714.6,481.3 725.1,481.3 "></polygon> <rect x="704.9" y="496.2" class="st0" width="27.9" height="46.8"></rect> <rect x="701.8" y="502.2" class="st0" width="34.2" height="46.8"></rect> <rect x="699.2" y="512.3" class="st0" width="40.7" height="46.8"></rect> <rect x="691" y="535.7" class="st0" width="57.1" height="46.8"></rect> <rect x="687.7" y="544.9" class="st0" width="65.2" height="46.8"></rect> <rect x="694.6" y="525.6" class="st0" width="49.8" height="46.7"></rect> <rect x="711" y="481.3" class="st0" width="17.5" height="7.4"></rect> </g> <rect x="538.9" y="508.9" class="st0" width="147.7" height="51.8"></rect> <rect x="546" y="501.5" class="st0" width="133.5" height="25.9"></rect> <rect x="554.8" y="488.5" class="st0" width="115.9" height="25.9"></rect> <rect x="528.4" y="520.1" class="st0" width="168.8" height="40.6"></rect> <rect x="516.5" y="533" class="st0" width="192.5" height="40.6"></rect> <rect x="505.6" y="546" class="st0" width="214.2" height="40.7"></rect> <rect x="497.8" y="566.3" class="st0" width="229.8" height="40.6"></rect> </g> <g> <rect x="341.8" y="413.5" class="st0" width="72.3" height="195.8"></rect> <rect x="347" y="398.9" class="st0" width="61.9" height="14.6"></rect> <rect x="341.8" y="426.5" class="st0" width="72.3" height="2.2"></rect> </g> <g> <rect x="410" y="464.9" class="st0" width="46.4" height="137.5"></rect> <rect x="413.3" y="454.6" class="st0" width="39.8" height="10.3"></rect> <rect x="410" y="474" class="st0" width="46.4" height="1.5"></rect> </g> <g> <rect x="1254.6" y="362.2" class="st0" width="47.1" height="250.2"></rect> <rect x="1262.5" y="362.2" class="st0" width="47.1" height="250.2"></rect> <rect x="1287.7" y="442.5" class="st0" width="47.1" height="169.8"></rect> <rect x="1309.5" y="436.2" class="st0" width="25.3" height="11.7"></rect> <rect x="1316.4" y="437" class="st0" width="3.5" height="10.9"></rect> <rect x="1324.4" y="437" class="st0" width="3.4" height="10.9"></rect> </g> <g> <polygon class="st0" points="1114.4,388.5 1114.4,306.4 1110.1,306.4 1110.1,285.1 1076.2,285.1 1076.2,306.4 1073.1,306.4 1073.1,388.5 1043.9,388.5 1043.9,306.4 1039.6,306.4 1039.6,285.1 1005.7,285.1 1005.7,306.4 1002.6,306.4 1002.6,388.5 998.8,388.5 998.8,612.6 1117.4,612.6 1117.4,388.5 "></polygon> <rect x="1086.3" y="426.8" class="st0" width="31.1" height="6.9"></rect> <rect x="1086.3" y="451" class="st0" width="31.1" height="6.9"></rect> <rect x="1086.3" y="475.1" class="st0" width="31.1" height="6.9"></rect> <rect x="1086.3" y="499.3" class="st0" width="31.1" height="6.9"></rect> <rect x="1086.3" y="523.5" class="st0" width="31.1" height="6.9"></rect> <rect x="1086.3" y="547.7" class="st0" width="31.1" height="6.9"></rect> <rect x="1086.3" y="571.9" class="st0" width="31.1" height="6.9"></rect> <rect x="1072.6" y="405.3" class="st0" width="5" height="173.4"></rect> <rect x="1011.7" y="412.5" class="st0" width="46.5" height="7.9"></rect> <rect x="1011.7" y="434.9" class="st0" width="46.5" height="7.9"></rect> <rect x="1011.7" y="457.4" class="st0" width="46.5" height="7.9"></rect> <rect x="1011.7" y="479.8" class="st0" width="46.5" height="7.9"></rect> <rect x="1011.7" y="502.3" class="st0" width="46.5" height="7.9"></rect> <rect x="1011.7" y="524.7" class="st0" width="46.5" height="7.9"></rect> <rect x="1011.7" y="547.2" class="st0" width="46.5" height="7.9"></rect> <rect x="1011.7" y="569.6" class="st0" width="46.5" height="7.9"></rect> </g> <rect x="1342.5" y="550.2" class="st0" width="31.7" height="64.2"></rect> <rect x="318.6" y="542.6" class="st0" width="38.7" height="69.2"></rect> <g> <rect x="501.3" y="554.4" class="st0" width="22.1" height="59.5"></rect> <rect x="528.6" y="563.8" class="st0" width="22" height="47.8"></rect> </g> <g> <rect x="676.3" y="561.3" class="st0" width="18.4" height="25.2"></rect> <rect x="667.2" y="570.1" class="st0" width="18.4" height="25.2"></rect> </g> <polygon class="st0" points="1411.1,635.4 277.4,635.4 288.9,603.5 1396.7,603.5 "></polygon> </g> </svg>